<?xml version="1.0" encoding="UTF-8"?><svg xmlns="http://www.w3.org/2000/svg" viewBox="0 0 537.89 271.99"><defs><style>.d{stroke-width:1.03px;}.d,.e,.f,.g{fill:none;}.d,.f,.g{stroke-miterlimit:10;}.d,.g{stroke:#fff;}.h,.i{fill:#fff;}.i{fill-rule:evenodd;}.j{fill:#005cb9;}.e{stroke-miterlimit:18;stroke-width:1.13px;}.e,.f{stroke:#005cb9;}.k{fill:#009579;}.f{stroke-width:.6px;}.g{stroke-width:2.06px;}</style></defs><g id="a"/><g id="b"/><g id="c"><g><rect class="j" x="0" y="189.1" width="537.89" height="82.89"/><rect class="k" x="0" y="106.77" width="537.89" height="83.03"/><g><g><path class="h" d="M432.49,243.95c0-3.59,2.46-6.17,5.98-6.17s5.91,2.52,5.91,6.17-2.39,6.11-5.98,6.11-5.91-2.59-5.91-6.11Z"/><path class="h" d="M474.85,248.53c-1.79,.8-5.18,1.46-9.03,1.46-10.49,0-17.2-6.37-17.2-16.6,0-9.49,6.51-17.26,18.59-17.26,2.66,0,5.58,.46,7.7,1.26l-1.59,7.5c-1.2-.53-2.99-1-5.64-1-5.31,0-8.76,3.78-8.7,9.1,0,5.98,3.98,9.1,8.9,9.1,2.39,0,4.25-.4,5.78-1l1.2,7.44Z"/><path class="h" d="M480.42,202.19h10.09v47.14h-10.09v-47.14Z"/></g><g><path class="h" d="M61.21,207.71c0,2.79-2.06,5.05-5.45,5.05-3.19,0-5.25-2.26-5.25-5.05s2.13-5.05,5.38-5.05,5.25,2.19,5.32,5.05m-10.44,9.04h10.11v32.51h-10.11v-32.51Z"/><path class="h" d="M67.92,227.12c0-4.06-.13-7.45-.27-10.37h8.58l.4,4.39h.2c1.39-2.13,4.32-5.18,9.84-5.18,4.25,0,7.51,2.19,8.91,5.58h.13c1.26-1.73,2.66-3.06,4.25-3.99,1.79-1,3.79-1.59,6.18-1.59,6.25,0,10.97,4.39,10.97,14.16v19.14h-9.84v-17.68c0-4.72-1.53-7.45-4.79-7.45-2.39,0-3.99,1.6-4.72,3.52-.2,.73-.33,1.73-.33,2.59v19.01h-9.84v-18.28c0-4.06-1.46-6.85-4.72-6.85-2.59,0-4.12,2-4.72,3.59-.33,.8-.4,1.73-.4,2.59v18.95h-9.84v-22.14Z"/><path class="h" d="M124.06,227.65c0-4.25-.13-7.84-.27-10.9h8.78l.46,4.52h.13c2.39-3.39,6.12-5.25,10.84-5.25,7.11,0,13.5,6.18,13.5,16.55,0,11.83-7.51,17.42-14.76,17.42-3.92,0-6.98-1.6-8.44-3.72h-.13v16.15h-10.1v-34.77Zm10.1,7.64c0,.8,.07,1.46,.2,2.13,.67,2.73,2.99,4.79,5.91,4.79,4.39,0,6.98-3.66,6.98-9.17,0-5.19-2.33-9.11-6.85-9.11-2.86,0-5.38,2.13-6.05,5.12-.13,.53-.2,1.2-.2,1.79v4.45Z"/><rect class="h" x="163.01" y="202.06" width="10.1" height="47.2"/><path class="h" d="M188.1,236.23c.27,4.19,4.45,6.18,9.18,6.18,3.46,0,6.25-.46,8.97-1.4l1.33,6.85c-3.32,1.4-7.38,2.06-11.77,2.06-11.03,0-17.35-6.38-17.35-16.55,0-8.24,5.12-17.35,16.42-17.35,10.5,0,14.49,8.18,14.49,16.22,0,1.73-.2,3.26-.33,3.99h-20.94Zm11.9-6.91c0-2.46-1.07-6.58-5.72-6.58-4.26,0-5.98,3.92-6.25,6.58h11.97Z"/><path class="h" d="M214.73,227.12c0-4.06-.13-7.45-.27-10.37h8.57l.4,4.39h.2c1.4-2.13,4.32-5.18,9.84-5.18,4.26,0,7.51,2.19,8.91,5.58h.13c1.26-1.73,2.66-3.06,4.25-3.99,1.79-1,3.79-1.59,6.18-1.59,6.25,0,10.97,4.39,10.97,14.16v19.14h-9.84v-17.68c0-4.72-1.53-7.45-4.79-7.45-2.39,0-3.99,1.6-4.72,3.52-.2,.73-.33,1.73-.33,2.59v19.01h-9.84v-18.28c0-4.06-1.46-6.85-4.72-6.85-2.59,0-4.12,2-4.72,3.59-.33,.8-.4,1.73-.4,2.59v18.95h-9.84v-22.14Z"/><path class="h" d="M278.75,236.23c.26,4.19,4.45,6.18,9.17,6.18,3.46,0,6.25-.46,8.97-1.4l1.33,6.85c-3.32,1.4-7.38,2.06-11.76,2.06-11.04,0-17.35-6.38-17.35-16.55,0-8.24,5.12-17.35,16.42-17.35,10.5,0,14.49,8.18,14.49,16.22,0,1.73-.2,3.26-.33,3.99h-20.94Zm11.9-6.91c0-2.46-1.07-6.58-5.72-6.58-4.25,0-5.98,3.92-6.25,6.58h11.97Z"/><path class="h" d="M305.38,227.12c0-4.06-.13-7.45-.27-10.37h8.78l.46,4.52h.2c1.33-2.13,4.59-5.25,10.04-5.25,6.65,0,11.63,4.45,11.63,14.03v19.21h-10.1v-18.01c0-4.19-1.46-7.05-5.12-7.05-2.79,0-4.45,1.93-5.19,3.79-.27,.67-.33,1.6-.33,2.53v18.75h-10.1v-22.14Z"/><path class="h" d="M354.24,207.97v8.77h7.24v7.45h-7.24v11.77c0,3.92,1,5.72,3.99,5.72,1.39,0,2.06-.07,2.99-.27l.07,7.65c-1.26,.47-3.72,.86-6.51,.86-3.26,0-5.98-1.13-7.65-2.79-1.86-1.93-2.79-5.05-2.79-9.64v-13.3h-4.32v-7.45h4.32v-6.05l9.9-2.72Z"/><path class="h" d="M398.36,232.64c0,11.9-8.44,17.35-17.15,17.35-9.51,0-16.82-6.25-16.82-16.75s6.91-17.28,17.42-17.28c9.9,0,16.55,6.85,16.55,16.68m-23.53,.33c0,5.58,2.33,9.77,6.65,9.77,3.99,0,6.45-3.92,6.45-9.84,0-4.79-1.86-9.7-6.45-9.7s-6.65,4.98-6.65,9.77"/><path class="h" d="M403.27,240.48c1.86,1.13,5.72,2.39,8.71,2.39s4.32-1,4.32-2.66-1-2.52-4.72-3.79c-6.78-2.26-9.37-5.92-9.31-9.77,0-6.12,5.19-10.7,13.23-10.7,3.79,0,7.11,.93,9.11,1.93l-1.73,6.98c-1.46-.8-4.32-1.86-7.04-1.86-2.46,0-3.86,1-3.86,2.59s1.26,2.39,5.25,3.79c6.18,2.13,8.71,5.32,8.78,10.04,0,6.12-4.72,10.57-14.03,10.57-4.25,0-8.04-1-10.5-2.33l1.79-7.18Z"/></g></g><g><path class="h" d="M67.25,177.24c-9.99,0-18.12-8.13-18.12-18.12V38.11c0-9.31,6.94-17.04,16.17-18.02,2.74-.59,5.82-.67,8.74-.67,1.57,0,3.29,.03,5.18,.06,2.31,.04,4.88,.08,7.78,.08,5.78,0,10.67,.24,13.91,.39,1.55,.07,2.79,.13,3.56,.14l.08-.11h102.99c10,0,18.13,8.13,18.13,18.13v121.01c0,9.99-8.13,18.12-18.13,18.12H67.25Z"/><path class="j" d="M74.04,21.44c3.48,0,7.69,.14,12.96,.14,8.71,0,15.27,.53,17.62,.53,.56,0,.88-.03,.94-.11h101.97c8.89,0,16.1,7.21,16.1,16.1v121.01c0,8.89-7.21,16.1-16.1,16.1H67.25c-8.89,0-16.09-7.2-16.09-16.1V38.11c0-8.34,6.34-15.2,14.46-16.02,2.34-.52,5.04-.65,8.42-.65m0-4.06v0c-3,0-6.16,.09-9.06,.7-10.21,1.15-17.87,9.72-17.87,20.03v121.01c0,11.11,9.04,20.15,20.15,20.15H207.54c11.11,0,20.15-9.04,20.15-20.15V38.11c0-11.12-9.04-20.16-20.15-20.16H103.54l-.06,.08c-.67-.03-1.51-.07-2.47-.11-3.26-.16-8.18-.39-14.01-.39-2.88,0-5.46-.04-7.75-.08-1.91-.03-3.63-.06-5.22-.06"/><path class="j" d="M86.53,3.97c-11.45,0-21.44,8.53-21.44,21.2,0,10.97,7.56,18.28,17.79,18.28h.25c11.94,0,22.18-7.8,22.18-21.21,0-11.21-7.8-18.27-18.77-18.27"/><path class="f" d="M86.53,3.97c-11.45,0-21.44,8.53-21.44,21.2,0,10.97,7.56,18.28,17.79,18.28h.25c11.94,0,22.18-7.8,22.18-21.21,0-11.21-7.8-18.27-18.77-18.27Z"/><path class="j" d="M219.03,159.12c0,6.35-5.15,11.5-11.5,11.5H67.25c-6.35,0-11.5-5.15-11.5-11.5V38.11c0-6.35,5.15-11.5,11.5-11.5H207.54c6.35,0,11.5,5.15,11.5,11.5v121.01Z"/><path class="e" d="M219.03,159.12c0,6.35-5.15,11.5-11.5,11.5H67.25c-6.35,0-11.5-5.15-11.5-11.5V38.11c0-6.35,5.15-11.5,11.5-11.5H207.54c6.35,0,11.5,5.15,11.5,11.5v121.01Z"/><path class="h" d="M196.27,140.21h22.83V46.98c-2.24-.64-4.71-.97-7.38-.97-12.06,0-23.55,5.65-31.85,17.52-.75-8.1-7.16-17.52-21.85-17.52-11.87,0-22.99,5.28-31.46,17.15h-.38l1.69-15.08h-23.36c-1.13,8.29-2.45,18.28-4.71,29.96l-11.49,62.18h26.19l7.72-41.45c3.21-18.09,12.82-30.9,22.05-30.9,6.6,0,8.67,4.9,8.67,11.3,0,3.21-.56,6.78-1.13,10.37l-9.61,50.69h26.19l7.72-41.64c3.58-18.65,12.62-30.71,21.67-30.71,6.22,0,9.05,4.52,9.05,10.93,0,3.58-.57,7.54-1.33,11.12l-9.23,50.31Z"/><path class="d" d="M196.27,140.21h22.83V46.98c-2.24-.64-4.71-.97-7.38-.97-12.06,0-23.55,5.65-31.85,17.52-.75-8.1-7.16-17.52-21.85-17.52-11.87,0-22.99,5.28-31.46,17.15h-.38l1.69-15.08h-23.36c-1.13,8.29-2.45,18.28-4.71,29.96l-11.49,62.18h26.19l7.72-41.45c3.21-18.09,12.82-30.9,22.05-30.9,6.6,0,8.67,4.9,8.67,11.3,0,3.21-.56,6.78-1.13,10.37l-9.61,50.69h26.19l7.72-41.64c3.58-18.65,12.62-30.71,21.67-30.71,6.22,0,9.05,4.52,9.05,10.93,0,3.58-.57,7.54-1.33,11.12l-9.23,50.31Z"/><polygon class="h" points="66.85 48.07 55.55 107.46 55.55 140.21 76.46 140.21 93.79 48.07 66.85 48.07"/><polygon class="d" points="66.85 48.07 55.55 107.46 55.55 140.21 76.46 140.21 93.79 48.07 66.85 48.07"/><path class="h" d="M86.44,8.74c-8.85,0-16.58,6.59-16.58,16.39,0,8.48,5.84,14.13,13.75,14.13h.19c9.23,0,17.15-6.02,17.15-16.39,0-8.66-6.03-14.13-14.51-14.13"/><path class="g" d="M86.44,8.74c-8.85,0-16.58,6.59-16.58,16.39,0,8.48,5.84,14.13,13.75,14.13h.19c9.23,0,17.15-6.02,17.15-16.39,0-8.66-6.03-14.13-14.51-14.13Z"/><path class="i" d="M134.98,158.47l-3.37-7.17h8.59l1.12,3.84,6.83-3.84h8.52l-13.95,7.18c-.2,.27-1.64,2.21-2.47,3.34-.74,.91-1.53,.8-1.53,.8h-6.8l3.05-4.15Zm49.87,.34l.58-4.12-5.42,4.12h4.85Zm-9.82,3.81h-7.64l16.74-11.32h7.82v11.32h-7.64l.2-1.5h-7.51l-1.97,1.5Zm-1.66-8.02h-7.3c.37-1.03-1.82-1-2.3-1-.79,0-2.55,.04-3.1,.78-.54,.74,2.22,.89,2.37,.9,2.2,.28,5.88,.24,7.52,1.71,1.65,1.47-.85,3.14-2.01,3.78-3.39,1.79-7.35,2.15-11.14,2.15-1.61,0-3.1-.1-4.38-.28-1.18-.21-3.69-.67-3.95-2.19-.11-.38,.01-.81,.25-1.31h7.36c-.21,1.23,2.31,1.09,2.95,1.09,.86,0,2.66,.07,3.26-.75,.18-.25,.19-.44-.04-.56-.85-.65-3.46-.64-4.59-.78-1.25-.15-4.74-.47-5.41-1.78-.93-1.25,1.48-2.89,2.33-3.33,3.14-1.66,6.97-2.03,10.47-2.03,1.49,0,2.71,.1,3.84,.22,1.76,.25,4.95,.86,3.85,3.37m-53.02-.54h-2.45l-1.75,2.37h2.71c1.32,0,3.11,.05,4.22-.8,.42-.32,1-1.04,.18-1.32-.51-.19-1.5-.25-2.92-.25m-11.95,8.56h-4.31l8.34-11.3h9.56c2.26,0,3.91,.03,4.98,.16,1.03,.1,1.91,.22,2.48,.41,1.67,.55,2.67,1.63,1.46,3.27-.43,.59-1.02,1.12-1.75,1.59-3.1,1.97-6.93,2.36-10.53,2.36h-4.39c-1.51,2.29-3.46,3.46-5.85,3.52m-9.73,0h-15.81l8.36-11.32h19.03l-1.95,2.65h-11.63l-1.17,1.59h9.81l-1.9,2.59h-9.82l-1.31,1.78h11.7c-1.43,1.74-3.41,2.72-5.32,2.72"/></g></g></g></svg>