<?xml version="1.0" encoding="utf-8"?>
<!-- Generator: Adobe Illustrator 24.1.0, SVG Export Plug-In . SVG Version: 6.00 Build 0)  -->
<svg version="1.1" id="Capa_1" xmlns="http://www.w3.org/2000/svg" xmlns:xlink="http://www.w3.org/1999/xlink" x="0px" y="0px"
	 viewBox="0 0 236.3 167.2" style="enable-background:new 0 0 236.3 167.2;" xml:space="preserve">
<style type="text/css">
	.st0{fill:#FFFFFF;}
</style>
<g>
	<g id="_x36_sA9ln_1_">
		<g>
			<path class="st0" d="M93.1,115.7c-1.7-0.2-2.5-0.3-3.4-0.3c-8.6-0.2-13-3.8-15.2-12.2c-5.8-22.9-11.6-45.7-17.1-68.7
				c-1.1-4.5-2.9-5.8-7.2-5.4c-3.4,0.3-6.8,0.1-10.2,0.1c-4.3,0-6.8-2.6-7.1-6.5c-0.3-4.1,2.2-7.1,6.3-7.3
				c6.6-0.3,13.3-0.4,19.8,0.4c6.5,0.8,9.7,5.7,11.2,11.7C75.9,49.7,81.4,72,87,94.2c2.1,8.2-0.1,7.2,9.1,7.2
				c23.5,0,47,0.1,70.4-0.1c1.7,0,4.7-1.2,5-2.4c4.6-15.8,8.9-31.6,13.4-48.2c-2.4,0-4.2,0-6,0c-28.8,0-37.1-0.1-65.8,0.1
				c-4.5,0-7.1-0.8-7.4-5.7c-0.2-2.6-1.1-5.2-1.8-8.2c40.1,0,59.3,0,99.3,0c-3.9,14.5-7.7,28.5-11.5,42.5
				c-1.7,6.4-3.5,12.8-5.2,19.2c-3.9,14.3-5.1,15.4-19.1,17.2l-9.6-0.1c-19,0-36.9,0-54.9,0L93.1,115.7z"/>
		</g>
	</g>
	<circle class="st0" cx="91.2" cy="138.5" r="13.5"/>
	<circle class="st0" cx="160.3" cy="138.5" r="13.5"/>
</g>
</svg>
