<?xml version="1.0" encoding="utf-8"?>
<!-- Generator: Adobe Illustrator 24.1.0, SVG Export Plug-In . SVG Version: 6.00 Build 0)  -->
<svg version="1.1" id="Capa_1" xmlns="http://www.w3.org/2000/svg" xmlns:xlink="http://www.w3.org/1999/xlink" x="0px" y="0px"
	 viewBox="0 0 236.3 167.2" style="enable-background:new 0 0 236.3 167.2;" xml:space="preserve">
<style type="text/css">
	.st0{fill:#FFFFFF;}
</style>
<path class="st0" d="M124,133.6c4.7-2.9,7-3.1,12.6-3l3.9-0.1c21.2,0,42.2,0,63.2,0c0-32.3,0-64,0-96.4c-23.6,0-46.7-0.2-69.9,0.1
	c-6.4,0.1-9.9,4.8-9.9,11.2C123.9,74.7,123.9,104.1,124,133.6L124,133.6z M104.2,47.1c-18.8,0-37.1,0-55.6,0c0,2.6,0,5,0,7.6
	c18.7,0,37,0,55.6,0C104.2,52.1,104.2,49.8,104.2,47.1z M104.2,63.8c-18.8,0-37,0-55.5,0c0,2.7,0,5.1,0,7.6c18.7,0,37,0,55.5,0
	C104.2,68.8,104.2,66.5,104.2,63.8z M48.6,87.8c18.6,0,37,0,55.4,0c0-2.8,0-5.2,0-7.6c-18.6,0-36.9,0-55.4,0
	C48.6,82.9,48.6,85.3,48.6,87.8z M137.2,120c18.6,0,37,0,55.4,0c0-2.8,0-5.2,0-7.6c-18.7,0-36.8,0-55.4,0
	C137.2,115,137.2,117.4,137.2,120z M137.2,104.5c18.6,0,37,0,55.4,0c0-2.8,0-5.2,0-7.6c-18.6,0-36.9,0-55.4,0
	C137.2,99.6,137.2,102,137.2,104.5z M48.6,104.5c18.7,0,37,0,55.4,0c0-2.8,0-5.1,0-7.6c-18.6,0-36.9,0-55.4,0
	C48.6,99.6,48.6,102,48.6,104.5z M48.7,113.3c0,2.8,0,5.2,0,7.8c18.6,0,36.9,0,55.4,0c0-2.7,0-5.1,0-7.8
	C85.6,113.3,67.3,113.3,48.7,113.3z M35.8,130.3c19.9,0,39.9,0.1,59.8,0c6.5,0,14,0.3,19.7,3.2c0-29.2,0-58.4,0-87.6
	c0-7.2-3.8-11.7-11-11.8C81.7,34,59,34.1,35.8,34.1c0,32.2,0,63.8,0,96L35.8,130.3z M33.3,138.9c-1.8,0-3.6,0-5.6,0
	c0-37.8,0-75.1,0-113.2c1.8,0,3.5,0,5.3,0c22.3,0,44.7,0.1,67-0.1c7.3-0.1,13.9,1,19.6,6.7c6.8-7.3,15.5-6.8,24.2-6.7
	c20.7,0.1,41.3,0,62,0c1.8,0,3.6,0,5.8,0c0,37.8,0,74.6,0,112.6c-2,0-47.8,0-68.5-0.1l-8.2,0.1c-4.5,0-7.7,1.8-9.4,4.9l-0.8,1.8
	h-9.9l-0.4-1.1c-1.5-3.3-4.5-5.4-8.8-5.5C82.5,138.3,56.9,138.9,33.3,138.9z M192.7,44.1c-18.8,0-37.1,0-55.6,0
	c0,15.6,0,29.6,0,44.5c18.7,0,37,0,55.6,0C192.7,73,192.7,59.7,192.7,44.1z M143.8,50.9h42.5v31h-42.5V50.9z"/>
</svg>
