<?xml version="1.0" encoding="utf-8"?>
<!-- Generator: Adobe Illustrator 24.1.0, SVG Export Plug-In . SVG Version: 6.00 Build 0)  -->
<svg version="1.1" id="Capa_1" xmlns="http://www.w3.org/2000/svg" xmlns:xlink="http://www.w3.org/1999/xlink" x="0px" y="0px"
	 viewBox="0 0 236.3 167.2" style="enable-background:new 0 0 236.3 167.2;" xml:space="preserve">
<style type="text/css">
	.st0{fill:#FFFFFF;}
</style>
<g id="_x32_XMcg9.tif">
	<g>
		<path class="st0" d="M146.3,137.7c0-0.6,0-1.2,0-1.7c0-15.2,0-30.3,0-45.5c0-1.1,0.3-1.9,1.1-2.8c6.5-6.8,12-14.3,15.9-23.2
			c3.1,0.8,6.3,1.6,9.4,2.4c7.2,1.8,14.4,3.6,21.6,5.4c1.1,0.3,1.5,0.6,1.5,1.9c0,24.9,0,49.7,0,74.6c0,0.4,0,0.8-0.1,1.4
			C179.2,145.9,162.8,141.8,146.3,137.7z"/>
		<path class="st0" d="M40.6,60.5c14.2,4.1,28.2,8.1,42.2,12.1c0,25.8,0,51.5,0,77.3c-3.9-1.1-7.6-2.1-11.2-3.2
			c-9.8-2.8-19.7-5.6-29.5-8.4c-1.2-0.3-1.5-0.8-1.5-2c0-24.7,0-49.4,0-74C40.5,61.7,40.5,61.2,40.6,60.5z"/>
		<path class="st0" d="M139.3,95.6c0,14.2,0,28.1,0,42.1c-16.3,4.1-32.7,8.2-49.2,12.3c0-25.8,0-51.5,0-77.4c4.4-1.1,9-2.3,13.2-3.3
			c3.5,4.8,6.7,9.6,10.3,14c4.7,5.9,10.2,11,16.2,15.6c2,1.6,3.3,1.6,5.4,0.1C136.4,97.9,137.7,96.8,139.3,95.6z"/>
		<path class="st0" d="M132.3,92.1c-11.2-9.7-21-20.3-25.9-34.4c-2.8-8-3.2-16,0.2-24c4.8-11.1,17.1-18,29.2-16.3
			c13,1.8,22.7,11.3,24.4,23.8c1,7.6-0.7,14.8-3.9,21.6C150.8,74.5,142.2,83.7,132.3,92.1z M132.5,31.1c-7.8,0-14.1,6.1-14.2,13.9
			c-0.1,7.7,6.4,14.2,14.1,14.3c7.7,0,14.1-6.4,14.2-14.1C146.6,37.5,140.2,31.2,132.5,31.1z"/>
	</g>
</g>
</svg>
