<?xml version="1.0" encoding="UTF-8"?><svg xmlns="http://www.w3.org/2000/svg" viewBox="0 0 59 55"><defs><style>.c{fill:#fff;}.d{fill:#009ee2;}.e{fill:#000f9f;}</style></defs><g id="a"><g><g><path class="e" d="M47.76,12.77C47.76,6.21,39.61,.86,29.55,.86S11.35,6.21,11.35,12.77c0,.17,0,.64,0,.7,0,6.96,7.12,12.6,18.2,12.6s18.21-5.63,18.21-12.59v-.7Z"/><path class="d" d="M47.06,12.76c0,6.18-7.84,11.2-17.5,11.2S12.05,18.94,12.05,12.76,19.89,1.56,29.56,1.56s17.5,5.01,17.5,11.2Z"/><g><path class="c" d="M23.74,9.23s-.18,.2-.07,.34c.28,.35,1.13,.56,1.99,.36,.51-.12,1.17-.64,1.81-1.15,.69-.55,1.38-1.1,2.07-1.32,.73-.23,1.2-.13,1.51-.04,.34,.1,.74,.32,1.37,.8,1.2,.9,6.01,5.1,6.85,5.83,.67-.3,3.65-1.58,7.7-2.48-.35-2.16-1.66-4.13-3.66-5.75-2.77,1.17-6.16,1.77-9.48,.15-.02,0-1.81-.86-3.58-.81-2.63,.06-3.77,1.2-4.98,2.4l-1.53,1.65Z"/><path class="c" d="M39.07,14.52c-.06-.05-5.66-4.96-6.93-5.91-.74-.55-1.14-.69-1.57-.75-.22-.03-.53,.01-.75,.07-.59,.16-1.36,.68-2.05,1.22-.71,.57-1.38,1.1-2,1.24-.79,.18-1.76-.03-2.21-.33-.18-.12-.31-.26-.37-.4-.16-.38,.14-.68,.19-.73l1.55-1.67c.18-.18,.36-.36,.55-.54-.5,.07-.96,.19-1.41,.32-.56,.16-1.1,.31-1.65,.31-.23,0-1.45-.2-1.68-.26-1.4-.38-2.63-.76-4.46-1.61-2.2,1.64-3.67,3.68-4.1,5.94,.32,.08,.83,.24,1.04,.28,4.98,1.11,6.53,2.25,6.81,2.48,.3-.34,.74-.55,1.23-.55,.55,0,1.05,.28,1.35,.71,.29-.23,.68-.42,1.19-.42,.23,0,.47,.04,.71,.12,.56,.19,.85,.57,1,.91,.19-.09,.42-.15,.69-.15,.27,0,.55,.06,.83,.18,.92,.39,1.06,1.3,.98,1.97,.07,0,.13-.01,.2-.01,1.09,0,1.97,.89,1.97,1.97,0,.34-.09,.65-.24,.93,.3,.17,1.05,.54,1.71,.46,.53-.07,.73-.25,.8-.35,.05-.07,.1-.15,.05-.21l-1.4-1.56s-.23-.22-.15-.3c.08-.09,.22,.04,.32,.12,.71,.6,1.59,1.5,1.59,1.5,.01,0,.07,.12,.4,.18,.28,.05,.77,.02,1.11-.26,.09-.07,.17-.16,.24-.25,0,0-.01,.01-.02,.01,.36-.46-.04-.92-.04-.92l-1.64-1.84s-.23-.22-.15-.3c.07-.08,.22,.04,.33,.12,.52,.43,1.25,1.17,1.96,1.86,.14,.1,.75,.48,1.57-.05,.5-.33,.6-.73,.58-1.03-.03-.4-.35-.68-.35-.68l-2.24-2.25s-.24-.2-.15-.3c.07-.09,.22,.04,.32,.12,.71,.6,2.64,2.37,2.64,2.37,.03,.02,.69,.49,1.52-.03,.29-.19,.48-.47,.5-.8,.03-.57-.38-.91-.38-.91Z"/><path class="c" d="M28.21,17.37c-.35,0-.73,.2-.78,.17-.03-.02,.02-.16,.05-.24,.03-.08,.49-1.46-.62-1.93-.85-.37-1.37,.05-1.55,.23-.05,.05-.07,.05-.07-.02-.02-.25-.13-.92-.86-1.14-1.05-.32-1.73,.41-1.9,.68-.08-.6-.58-1.07-1.21-1.07-.67,0-1.22,.55-1.22,1.22,0,.67,.55,1.22,1.22,1.22,.33,0,.63-.13,.84-.34,0,0,0,.02,0,.04-.05,.3-.15,1.4,1,1.85,.46,.18,.85,.05,1.18-.18,.1-.07,.11-.04,.1,.05-.04,.28,.01,.89,.86,1.23,.64,.26,1.03,0,1.28-.24,.11-.1,.14-.08,.14,.07,.03,.82,.71,1.47,1.53,1.47,.85,0,1.54-.69,1.54-1.53,0-.85-.69-1.53-1.54-1.54Z"/></g><path class="e" d="M39.29,13.93c-1.73-1.51-5.72-4.98-6.8-5.79-.62-.46-1.04-.71-1.41-.82-.17-.05-.4-.11-.69-.11-.27,0-.57,.05-.88,.15-.7,.22-1.39,.77-2.07,1.31l-.03,.03c-.63,.5-1.28,1.01-1.77,1.12-.21,.05-.43,.07-.65,.07-.55,0-1.04-.16-1.23-.4-.03-.04-.01-.1,.06-.19h0l1.52-1.65c1.19-1.19,2.31-2.31,4.9-2.37,.04,0,.09,0,.13,0,1.61,0,3.22,.72,3.4,.81,1.51,.74,3.07,1.11,4.64,1.11,1.63,0,3.32-.4,5.09-1.22-.2-.17-.4-.33-.62-.49-1.56,.67-3.04,1.02-4.47,1.01-1.46,0-2.92-.35-4.34-1.04-.07-.04-1.85-.87-3.7-.87-.05,0-.1,0-.15,0-2.17,.05-3.4,.82-4.22,1.5-.8,.02-1.49,.21-2.11,.38-.55,.15-1.02,.28-1.48,.28-.19,0-.53-.02-.56-.02-.53-.02-3.21-.67-5.34-1.48-.22,.15-.43,.31-.63,.47,2.22,.91,4.93,1.62,5.78,1.67,.24,.02,.49,.04,.74,.04,.57,0,1.13-.16,1.67-.31,.32-.09,.68-.19,1.05-.26-.1,.1-.2,.2-.3,.3l-1.54,1.67c-.12,.12-.39,.45-.21,.85,.07,.16,.21,.32,.41,.45,.37,.25,1.03,.42,1.64,.42,.23,0,.45-.02,.65-.07,.65-.14,1.33-.69,2.04-1.26,.57-.46,1.39-1.03,2.01-1.2,.17-.05,.39-.08,.56-.08,.05,0,.1,0,.15,0,.41,.05,.81,.19,1.52,.73,1.27,.95,6.87,5.86,6.93,5.91,0,0,.36,.31,.34,.82-.01,.29-.17,.54-.45,.72-.24,.15-.49,.23-.74,.23-.37,0-.63-.18-.65-.19-.02-.02-1.94-1.78-2.65-2.37-.11-.09-.22-.18-.33-.18-.06,0-.11,.03-.15,.07-.11,.14,.01,.33,.16,.45l2.24,2.26s.28,.26,.31,.61c.02,.37-.16,.69-.53,.93-.26,.17-.53,.26-.8,.26-.34,0-.59-.16-.64-.19l-.32-.32c-.59-.58-1.2-1.18-1.64-1.55-.11-.09-.22-.17-.33-.17-.05,0-.1,.02-.14,.06-.05,.06-.09,.16,.04,.33,.05,.07,.11,.13,.11,.13l1.64,1.84s.34,.4,.04,.78l-.06,.07c-.05,.05-.1,.1-.15,.15-.28,.23-.65,.25-.8,.25-.08,0-.16,0-.22-.02-.16-.03-.27-.07-.32-.14l-.02-.02c-.09-.09-.91-.94-1.6-1.51-.09-.08-.2-.17-.32-.17-.06,0-.11,.02-.15,.07-.14,.15,.07,.37,.15,.45l1.4,1.54s-.02,.05-.05,.09c-.05,.07-.22,.24-.73,.3-.06,0-.12,.01-.19,.01-.52,0-1.08-.25-1.37-.41,.13-.28,.2-.58,.2-.89,0-1.15-.93-2.08-2.08-2.09-.02,0-.05,0-.08,0,.04-.52-.04-1.52-1.06-1.96-.29-.13-.59-.19-.87-.19-.22,0-.44,.04-.64,.12-.21-.41-.56-.71-1.02-.87-.25-.09-.5-.13-.75-.13-.42,0-.82,.13-1.16,.37-.33-.42-.84-.66-1.37-.66-.47,0-.91,.19-1.24,.51-.43-.33-2.16-1.43-6.78-2.48-.22-.05-.74-.2-1.05-.29-.05,.25-.09,.5-.12,.76,0,0,.85,.2,1.02,.24,4.72,1.05,6.27,2.14,6.54,2.34-.09,.21-.14,.45-.14,.68,0,.97,.79,1.77,1.77,1.77,.11,0,.22,0,.32-.03,.15,.72,.62,1.26,1.33,1.54,.21,.08,.42,.12,.63,.12,.13,0,.27-.02,.4-.05,.13,.34,.43,.76,1.1,1.03,.23,.09,.47,.14,.69,.14,.19,0,.37-.03,.54-.1,.32,.78,1.08,1.29,1.93,1.29,.56,0,1.1-.23,1.49-.63,.34,.19,1.05,.53,1.76,.53,.09,0,.18,0,.27-.02,.71-.09,1.04-.37,1.2-.59,.03-.04,.05-.08,.07-.12,.17,.05,.35,.09,.57,.09,.39,0,.76-.13,1.14-.41,.37-.27,.63-.65,.67-.98h0c.13,.01,.25,.02,.38,.02,.4,0,.79-.12,1.17-.37,.73-.48,.85-1.1,.84-1.51,.13,.03,.26,.04,.39,.04,.38,0,.75-.11,1.1-.34,.45-.29,.72-.73,.76-1.24,.03-.35-.06-.7-.24-1,1.22-.52,4-1.54,7.27-2.28-.02-.25-.06-.5-.1-.75-3.96,.88-6.92,2.16-7.66,2.49Zm-11.08,6.4c-.77,0-1.4-.6-1.42-1.36,0-.07,0-.24-.16-.24-.06,0-.11,.04-.17,.09-.17,.16-.38,.32-.7,.32-.14,0-.3-.03-.46-.1-.81-.33-.82-.89-.79-1.11,0-.06,.01-.12-.03-.17l-.05-.05h-.05s-.08,.02-.14,.06c-.24,.17-.46,.24-.69,.24-.13,0-.26-.03-.39-.08-1.07-.42-.99-1.43-.93-1.73,0-.06,0-.11-.05-.14l-.08-.06-.07,.07c-.21,.2-.48,.31-.77,.31-.61,0-1.11-.5-1.11-1.11,0-.61,.5-1.11,1.11-1.11,.55,0,1.03,.42,1.1,.97l.04,.3,.16-.25s.47-.71,1.29-.71c.16,0,.32,.03,.48,.08,.66,.2,.77,.8,.79,1.05,.01,.14,.11,.15,.13,.15,.06,0,.1-.04,.13-.07,.12-.13,.39-.35,.82-.35,.19,0,.4,.05,.61,.14,1.05,.45,.57,1.78,.57,1.79-.09,.22-.09,.32,0,.37l.04,.02h.03s.11-.02,.2-.05c.14-.05,.36-.12,.56-.12h0c.79,0,1.43,.65,1.43,1.43,0,.79-.64,1.43-1.43,1.43Z"/></g><g><path class="e" d="M57.23,33.17c-.66-.82-1.65-1.23-2.99-1.23s-2.33,.41-2.99,1.23c-.66,.82-.99,1.8-.99,2.92s.33,2.12,.99,2.93c.66,.81,1.65,1.22,2.99,1.22s2.34-.41,2.99-1.22c.66-.81,.99-1.79,.99-2.93s-.33-2.1-.99-2.92Zm-1.63,4.72c-.32,.42-.78,.63-1.37,.63s-1.05-.21-1.37-.63c-.32-.42-.48-1.03-.48-1.8s.16-1.38,.48-1.8c.32-.42,.78-.63,1.37-.63s1.05,.21,1.37,.63c.32,.42,.48,1.02,.48,1.8s-.16,1.38-.48,1.8Z"/><path class="e" d="M40.43,32.48c-.67-.34-1.43-.51-2.29-.51-1.32,0-2.25,.34-2.79,1.03-.34,.44-.53,1-.58,1.68h1.97c.05-.3,.14-.54,.29-.72,.2-.24,.55-.36,1.04-.36,.44,0,.77,.06,.99,.18,.22,.12,.34,.34,.34,.66,0,.26-.15,.46-.44,.58-.16,.07-.44,.13-.82,.18l-.7,.09c-.79,.1-1.4,.27-1.8,.5-.75,.43-1.12,1.12-1.12,2.08,0,.74,.23,1.31,.7,1.72,.46,.4,1.05,.57,1.76,.61,4.46,.2,4.41-2.35,4.45-2.88v-2.93c0-.94-.33-1.58-1-1.92Zm-1.04,4.45c-.01,.68-.21,1.15-.59,1.41-.38,.26-.79,.39-1.23,.39-.28,0-.52-.08-.72-.23-.2-.16-.29-.41-.29-.76,0-.39,.16-.68,.48-.87,.19-.11,.5-.2,.94-.28l.47-.09c.23-.04,.41-.09,.55-.14,.13-.05,.27-.11,.4-.2v.76Z"/><path class="e" d="M30.27,33.72c.51,0,.88,.16,1.13,.47,.17,.23,.27,.5,.31,.79h2.2c-.12-1.11-.51-1.88-1.16-2.32-.66-.44-1.5-.66-2.53-.66-1.21,0-2.16,.37-2.85,1.11-.69,.74-1.03,1.78-1.03,3.12,0,1.18,.31,2.15,.93,2.89s1.6,1.11,2.92,1.11,2.32-.45,2.99-1.34c.42-.55,.66-1.14,.71-1.76h-2.19c-.04,.41-.17,.74-.38,1-.21,.26-.57,.39-1.07,.39-.71,0-1.19-.32-1.45-.97-.14-.35-.21-.8-.21-1.37s.07-1.08,.21-1.44c.27-.68,.76-1.02,1.49-1.02Z"/><path class="e" d="M25.74,32c-4.52,0-4.25,4-4.25,4v4.06h2.05v-3.81c0-.62,.08-1.09,.24-1.39,.28-.53,.83-.8,1.65-.8,.06,0,.14,0,.24,0,.1,0,.21,.01,.34,.03v-2.09c-.09,0-.15,0-.18-.01-.03,0-.06,0-.1,0Z"/><path class="e" d="M18.21,37.94c-.09,.12-.18,.23-.28,.31-.29,.24-.68,.31-1.15,.31-.44,0-.78-.07-1.09-.26-.51-.31-.8-.85-.83-1.63h5.67c0-.67-.01-1.19-.07-1.55-.09-.61-.3-1.15-.62-1.61-.35-.52-.8-.91-1.35-1.15-.54-.24-1.15-.36-1.83-.36-1.14,0-2.07,.36-2.78,1.08-.71,.72-1.07,1.75-1.07,3.1,0,1.44,.4,2.48,1.19,3.12,.79,.64,1.71,.96,2.74,.96,1.26,0,2.23-.38,2.93-1.14,.38-.4,.61-.79,.71-1.18h-2.17Zm-2.76-3.82c.29-.3,.69-.44,1.22-.44,.48,0,.88,.14,1.21,.42,.32,.28,.5,.69,.54,1.23h-3.51c.07-.51,.26-.91,.54-1.2Z"/><path class="e" d="M11.99,40.06h-1.87v-4.71c0-.43-.14-1.46-1.38-1.46-.82,0-1.42,.59-1.42,1.46v4.71h-1.87v-4.71c0-.43-.13-1.46-1.36-1.46-.84,0-1.42,.59-1.42,1.46v4.71H.79v-4.67c0-1.95,1.29-3.42,3.29-3.42,.99,0,1.8,.42,2.33,1.09,.55-.67,1.38-1.09,2.33-1.09,2.04,0,3.25,1.41,3.25,3.42v4.67Z"/><path class="e" d="M49.64,29.54s-2.06-.22-2.06,1.44v2.2c-.23-.37-.53-.65-.89-.86-.37-.21-.78-.31-1.26-.31-1.02,0-1.84,.38-2.45,1.14-.61,.76-.92,1.86-.92,3.19,0,1.15,.31,2.1,.93,2.83,.62,.73,1.84,1.06,2.92,1.06,3.77,0,3.73-3.24,3.73-3.24v-7.45Zm-2.46,8.37c-.3,.43-.74,.64-1.31,.64s-1.01-.22-1.29-.65c-.28-.43-.42-1.06-.42-1.78,0-.67,.14-1.23,.42-1.67,.28-.45,.71-.68,1.31-.68,.39,0,.73,.12,1.03,.37,.48,.41,.72,1.14,.72,2.1,0,.68-.15,1.24-.45,1.66Z"/></g><g><path class="d" d="M15.7,52.45c0,.28-.1,.52-.3,.71-.2,.2-.44,.3-.72,.3h-1.03v-7.13c0-1.39,.47-2.26,1.24-2.84,.51-.39,1.27-.76,2.69-.76,.96,0,2.08,.37,2.69,1.11,.68,.83,.96,1.76,.96,2.97s-.3,2.26-.9,3.04c-.6,.76-1.38,1.13-2.32,1.13-.5,0-.94-.09-1.33-.27-.4-.2-.72-.51-.97-.92v2.67Zm3.44-5.55c0-.77-.15-1.37-.45-1.79-.3-.42-.73-.63-1.3-.63s-.97,.21-1.27,.63c-.28,.38-.42,.97-.42,1.79,0,.76,.15,1.32,.45,1.7,.3,.42,.73,.63,1.3,.63,.52,0,.94-.21,1.24-.63,.3-.42,.45-.98,.45-1.7"/><path class="d" d="M34.83,50.32v-.5c-.36,.56-.84,.9-1.44,1.04-.6,.14-1.2,.09-1.79-.15-.59-.24-1.1-.68-1.53-1.32-.42-.65-.64-1.49-.64-2.55,0-1.23,.28-2.23,.84-2.99,.56-.76,1.47-1.11,2.71-1.15,1.23-.03,1.94,.24,2.64,.77,.76,.58,1.21,1.47,1.21,2.86v4.2c0,1.33-.93,3.81-3.85,3.6-1.81-.13-2.82-.87-3.38-2.56h2.16c.16,.28,.4,.49,.73,.64,.32,.15,.65,.19,.98,.12,.33-.07,.62-.26,.89-.58,.27-.32,.42-.79,.46-1.43m-3.38-3.42c0,1.37,.4,2.13,1.19,2.28,.79,.15,1.37-.04,1.75-.55,.18-.22,.31-.56,.38-1.03,.08-.47,.08-.93,.01-1.38-.07-.46-.23-.86-.49-1.22-.26-.36-.63-.54-1.13-.54-.67,0-1.13,.25-1.36,.74-.24,.5-.36,1.06-.36,1.7"/><path class="d" d="M27.68,43.27c-.67-.34-1.43-.51-2.29-.51-1.32,0-2.25,.35-2.8,1.03-.34,.44-.53,1-.58,1.69h1.98c.05-.3,.14-.54,.29-.72,.2-.24,.55-.36,1.04-.36,.44,0,.77,.06,.99,.18,.22,.12,.34,.34,.34,.66,0,.26-.15,.46-.44,.58-.16,.07-.44,.13-.82,.18l-.7,.09c-.79,.1-1.4,.27-1.81,.5-.75,.43-1.12,1.13-1.12,2.09,0,.74,.23,1.31,.7,1.72,.46,.4,1.05,.57,1.77,.61,4.46,.2,4.41-2.35,4.45-2.88v-2.94c0-.94-.33-1.58-1-1.92m-1.04,4.46c-.01,.68-.21,1.15-.59,1.41-.38,.26-.79,.39-1.23,.39-.28,0-.52-.08-.72-.23-.2-.16-.3-.41-.3-.76,0-.39,.16-.68,.48-.87,.19-.11,.5-.2,.94-.28l.47-.09c.23-.04,.42-.09,.55-.14,.14-.05,.27-.11,.4-.2v.76Z"/><path class="d" d="M44.61,43.91c-.66-.83-1.66-1.24-3-1.24s-2.34,.41-3,1.24c-.66,.82-.99,1.8-.99,2.92s.33,2.12,.99,2.94c.66,.81,1.66,1.22,3,1.22s2.34-.41,3-1.22c.66-.81,.99-1.79,.99-2.94s-.33-2.1-.99-2.92m-1.63,4.73c-.32,.42-.78,.64-1.37,.64s-1.06-.21-1.38-.64c-.32-.42-.48-1.03-.48-1.81s.16-1.38,.48-1.8c.32-.42,.78-.63,1.38-.63s1.05,.21,1.37,.63c.32,.42,.48,1.02,.48,1.8s-.16,1.38-.48,1.81"/></g></g></g><g id="b"/></svg>