<svg xmlns="http://www.w3.org/2000/svg" style="display: none;"><symbol id="home" viewBox="0 0 512 512"><title>home</title><path d="M503.401,228.884l-43.253-39.411V58.79c0-8.315-6.741-15.057-15.057-15.057H340.976c-8.315,0-15.057,6.741-15.057,15.057 v8.374l-52.236-47.597c-10.083-9.189-25.288-9.188-35.367-0.001L8.598,228.885c-8.076,7.36-10.745,18.7-6.799,28.889 c3.947,10.189,13.557,16.772,24.484,16.772h36.689v209.721c0,8.315,6.741,15.057,15.057,15.057h125.913 c8.315,0,15.057-6.741,15.057-15.057V356.931H293v127.337c0,8.315,6.741,15.057,15.057,15.057h125.908 c8.315,0,15.057-6.741,15.056-15.057V274.547h36.697c10.926,0,20.537-6.584,24.484-16.772 C514.147,247.585,511.479,236.245,503.401,228.884z M433.965,244.433c-8.315,0-15.057,6.741-15.057,15.057v209.721h-95.793 V341.874c0-8.315-6.742-15.057-15.057-15.057H203.942c-8.315,0-15.057,6.741-15.057,15.057v127.337h-95.8V259.49 c0-8.315-6.741-15.057-15.057-15.057H36.245l219.756-200.24l74.836,68.191c4.408,4.016,10.771,5.051,16.224,2.644 c5.454-2.41,8.973-7.812,8.973-13.774V73.847h74.002v122.276c0,4.237,1.784,8.276,4.916,11.13l40.803,37.18H433.965z"/></symbol><symbol id="envelope" viewBox="0 0 479.058 479.058"><title>envelope</title><path d="m434.146 59.882h-389.234c-24.766 0-44.912 20.146-44.912 44.912v269.47c0 24.766 20.146 44.912 44.912 44.912h389.234c24.766 0 44.912-20.146 44.912-44.912v-269.47c0-24.766-20.146-44.912-44.912-44.912zm0 29.941c2.034 0 3.969.422 5.738 1.159l-200.355 173.649-200.356-173.649c1.769-.736 3.704-1.159 5.738-1.159zm0 299.411h-389.234c-8.26 0-14.971-6.71-14.971-14.971v-251.648l199.778 173.141c2.822 2.441 6.316 3.655 9.81 3.655s6.988-1.213 9.81-3.655l199.778-173.141v251.649c-.001 8.26-6.711 14.97-14.971 14.97z"/></symbol><symbol id="whatsapp" viewBox="-23 -21 682 682.66669"><title>whatsapp</title><path d="m544.386719 93.007812c-59.875-59.945312-139.503907-92.9726558-224.335938-93.007812-174.804687 0-317.070312 142.261719-317.140625 317.113281-.023437 55.894531 14.578125 110.457031 42.332032 158.550781l-44.992188 164.335938 168.121094-44.101562c46.324218 25.269531 98.476562 38.585937 151.550781 38.601562h.132813c174.785156 0 317.066406-142.273438 317.132812-317.132812.035156-84.742188-32.921875-164.417969-92.800781-224.359376zm-224.335938 487.933594h-.109375c-47.296875-.019531-93.683594-12.730468-134.160156-36.742187l-9.621094-5.714844-99.765625 26.171875 26.628907-97.269531-6.269532-9.972657c-26.386718-41.96875-40.320312-90.476562-40.296875-140.28125.054688-145.332031 118.304688-263.570312 263.699219-263.570312 70.40625.023438 136.589844 27.476562 186.355469 77.300781s77.15625 116.050781 77.132812 186.484375c-.0625 145.34375-118.304687 263.59375-263.59375 263.59375zm144.585938-197.417968c-7.921875-3.96875-46.882813-23.132813-54.148438-25.78125-7.257812-2.644532-12.546875-3.960938-17.824219 3.96875-5.285156 7.929687-20.46875 25.78125-25.09375 31.066406-4.625 5.289062-9.242187 5.953125-17.167968 1.984375-7.925782-3.964844-33.457032-12.335938-63.726563-39.332031-23.554687-21.011719-39.457031-46.960938-44.082031-54.890626-4.617188-7.9375-.039062-11.8125 3.476562-16.171874 8.578126-10.652344 17.167969-21.820313 19.808594-27.105469 2.644532-5.289063 1.320313-9.917969-.664062-13.882813-1.976563-3.964844-17.824219-42.96875-24.425782-58.839844-6.4375-15.445312-12.964843-13.359374-17.832031-13.601562-4.617187-.230469-9.902343-.277344-15.1875-.277344-5.28125 0-13.867187 1.980469-21.132812 9.917969-7.261719 7.933594-27.730469 27.101563-27.730469 66.105469s28.394531 76.683594 32.355469 81.972656c3.960937 5.289062 55.878906 85.328125 135.367187 119.648438 18.90625 8.171874 33.664063 13.042968 45.175782 16.695312 18.984374 6.03125 36.253906 5.179688 49.910156 3.140625 15.226562-2.277344 46.878906-19.171875 53.488281-37.679687 6.601563-18.511719 6.601563-34.375 4.617187-37.683594-1.976562-3.304688-7.261718-5.285156-15.183593-9.253906zm0 0" fill-rule="evenodd"/></symbol><symbol id="user" viewBox="-42 0 512 512.001"><title>user</title><path d="m210.351562 246.632812c33.882813 0 63.21875-12.152343 87.195313-36.128906 23.96875-23.972656 36.125-53.304687 36.125-87.191406 0-33.875-12.152344-63.210938-36.128906-87.191406-23.976563-23.96875-53.3125-36.121094-87.191407-36.121094-33.886718 0-63.21875 12.152344-87.191406 36.125s-36.128906 53.308594-36.128906 87.1875c0 33.886719 12.15625 63.222656 36.128906 87.195312 23.980469 23.96875 53.316406 36.125 87.191406 36.125zm-65.972656-189.292968c18.394532-18.394532 39.972656-27.335938 65.972656-27.335938 25.996094 0 47.578126 8.941406 65.976563 27.335938 18.394531 18.398437 27.339844 39.980468 27.339844 65.972656 0 26-8.945313 47.578125-27.339844 65.976562-18.398437 18.398438-39.980469 27.339844-65.976563 27.339844-25.992187 0-47.570312-8.945312-65.972656-27.339844-18.398437-18.394531-27.34375-39.976562-27.34375-65.976562 0-25.992188 8.945313-47.574219 27.34375-65.972656zm0 0"/><path d="m426.128906 393.703125c-.691406-9.976563-2.089844-20.859375-4.148437-32.351563-2.078125-11.578124-4.753907-22.523437-7.957031-32.527343-3.3125-10.339844-7.808594-20.550781-13.375-30.335938-5.769532-10.15625-12.550782-19-20.160157-26.277343-7.957031-7.613282-17.699219-13.734376-28.964843-18.199219-11.226563-4.441407-23.667969-6.691407-36.976563-6.691407-5.226563 0-10.28125 2.144532-20.042969 8.5-6.007812 3.917969-13.035156 8.449219-20.878906 13.460938-6.707031 4.273438-15.792969 8.277344-27.015625 11.902344-10.949219 3.542968-22.066406 5.339844-33.042969 5.339844-10.96875 0-22.085937-1.796876-33.042968-5.339844-11.210938-3.621094-20.300782-7.625-26.996094-11.898438-7.769532-4.964844-14.800782-9.496094-20.898438-13.46875-9.753906-6.355468-14.808594-8.5-20.035156-8.5-13.3125 0-25.75 2.253906-36.972656 6.699219-11.257813 4.457031-21.003906 10.578125-28.96875 18.199219-7.609375 7.28125-14.390625 16.121094-20.15625 26.273437-5.558594 9.785157-10.058594 19.992188-13.371094 30.339844-3.199219 10.003906-5.875 20.945313-7.953125 32.523437-2.0625 11.476563-3.457031 22.363282-4.148437 32.363282-.679688 9.777344-1.023438 19.953125-1.023438 30.234375 0 26.726562 8.496094 48.363281 25.25 64.320312 16.546875 15.746094 38.4375 23.730469 65.066406 23.730469h246.53125c26.621094 0 48.511719-7.984375 65.0625-23.730469 16.757813-15.945312 25.253906-37.589843 25.253906-64.324219-.003906-10.316406-.351562-20.492187-1.035156-30.242187zm-44.90625 72.828125c-10.933594 10.40625-25.449218 15.464844-44.378906 15.464844h-246.527344c-18.933594 0-33.449218-5.058594-44.378906-15.460938-10.722656-10.207031-15.933594-24.140625-15.933594-42.585937 0-9.59375.316406-19.066407.949219-28.160157.617187-8.921874 1.878906-18.722656 3.75-29.136718 1.847656-10.285156 4.199219-19.9375 6.996094-28.675782 2.683593-8.378906 6.34375-16.675781 10.882812-24.667968 4.332031-7.617188 9.316407-14.152344 14.816407-19.417969 5.144531-4.925781 11.628906-8.957031 19.269531-11.980469 7.066406-2.796875 15.007812-4.328125 23.628906-4.558594 1.050781.558594 2.921875 1.625 5.953125 3.601563 6.167969 4.019531 13.277344 8.605469 21.136719 13.625 8.859375 5.648437 20.273437 10.75 33.910156 15.152344 13.941406 4.507812 28.160156 6.796875 42.273437 6.796875 14.113282 0 28.335938-2.289063 42.269532-6.792969 13.648437-4.410156 25.058594-9.507813 33.929687-15.164063 8.042969-5.140624 14.953125-9.59375 21.121094-13.617187 3.03125-1.972656 4.902344-3.042969 5.953125-3.601563 8.625.230469 16.566406 1.761719 23.636719 4.558594 7.636719 3.023438 14.121093 7.058594 19.265625 11.980469 5.5 5.261719 10.484375 11.796875 14.816406 19.421875 4.542969 7.988281 8.207031 16.289062 10.886719 24.660156 2.800781 8.75 5.15625 18.398438 7 28.675782 1.867187 10.433593 3.132812 20.238281 3.75 29.144531v.007812c.636719 9.058594.957031 18.527344.960937 28.148438-.003906 18.449219-5.214844 32.378906-15.9375 42.582031zm0 0"/></symbol><symbol id="icon-476700" viewBox="0 0 512 512"><title>icon-476700</title><g> <g> <path d="M451.72,237.26c-17.422-8.71-50.087-8.811-51.469-8.811c-4.142,0-7.5,3.358-7.5,7.5c0,4.142,3.358,7.5,7.5,7.5 c8.429,0.001,32.902,1.299,44.761,7.228c1.077,0.539,2.221,0.793,3.348,0.793c2.751,0,5.4-1.52,6.714-4.147 C456.927,243.618,455.425,239.113,451.72,237.26z"/> </g> </g><g> <g> <path d="M489.112,344.041l-30.975-8.85c-1.337-0.382-2.271-1.62-2.271-3.011v-10.339c2.52-1.746,4.924-3.7,7.171-5.881 c10.89-10.568,16.887-24.743,16.887-39.915v-14.267l2.995-5.989c3.287-6.575,5.024-13.936,5.024-21.286v-38.65 c0-4.142-3.358-7.5-7.5-7.5H408.27c-26.244,0-47.596,21.352-47.596,47.596v0.447c0,6.112,1.445,12.233,4.178,17.699l3.841,7.682 v12.25c0,19.414,9.567,36.833,24.058,47.315l0.002,10.836c0,1.671,0,2.363-6.193,4.133l-15.114,4.318l-43.721-15.898 c0.157-2.063-0.539-4.161-2.044-5.742l-13.971-14.678v-24.64c1.477-1.217,2.933-2.467,4.344-3.789 c17.625-16.52,27.733-39.844,27.733-63.991v-19.678c5.322-11.581,8.019-23.836,8.019-36.457v-80.19c0-4.142-3.358-7.5-7.5-7.5 H232.037c-39.51,0-71.653,32.144-71.653,71.653v16.039c0,12.621,2.697,24.876,8.019,36.457v16.931 c0,28.036,12.466,53.294,32.077,69.946v25.22l-13.971,14.678c-1.505,1.581-2.201,3.679-2.044,5.742l-46.145,16.779 c-3.344,1.216-6.451,2.863-9.272,4.858l-7.246-3.623c21.57-9.389,28.403-22.594,28.731-23.25c1.056-2.111,1.056-4.597,0-6.708 c-5.407-10.814-6.062-30.635-6.588-46.561c-0.175-5.302-0.341-10.311-0.658-14.771c-2.557-35.974-29.905-63.103-63.615-63.103 s-61.059,27.128-63.615,63.103c-0.317,4.461-0.483,9.47-0.658,14.773c-0.526,15.925-1.182,35.744-6.588,46.558 c-1.056,2.111-1.056,4.597,0,6.708c0.328,0.656,7.147,13.834,28.76,23.234l-20.127,10.063C6.684,358.176,0,368.991,0,381.02 v55.409c0,4.142,3.358,7.5,7.5,7.5s7.5-3.358,7.5-7.5V381.02c0-6.312,3.507-11.987,9.152-14.81l25.063-12.531l8.718,8.285 c6.096,5.793,13.916,8.688,21.739,8.688c7.821,0,15.645-2.897,21.739-8.688l8.717-8.284l8.172,4.086 c-3.848,6.157-6.032,13.377-6.032,20.94v57.725c0,4.142,3.358,7.5,7.5,7.5c4.142,0,7.5-3.358,7.5-7.5v-57.725 c0-10.296,6.501-19.578,16.178-23.097l48.652-17.691l20.253,30.381c2.589,3.884,6.738,6.375,11.383,6.835 c0.518,0.051,1.033,0.076,1.547,0.076c4.098,0,8.023-1.613,10.957-4.546l12.356-12.356v78.124c0,4.142,3.358,7.5,7.5,7.5 c4.142,0,7.5-3.358,7.5-7.5v-78.124l12.356,12.356c2.933,2.934,6.858,4.547,10.957,4.547c0.513,0,1.029-0.025,1.546-0.076 c4.646-0.46,8.795-2.951,11.384-6.835l20.254-30.38l48.651,17.691c9.676,3.519,16.178,12.801,16.178,23.097v57.725 c0,4.142,3.358,7.5,7.5,7.5c4.142,0,7.5-3.358,7.5-7.5v-57.725c0-10.428-4.143-20.208-11.093-27.441l1.853-0.529 c1.869-0.534,4.419-1.265,6.979-2.52l19.149,19.149v69.066c0,4.142,3.358,7.5,7.5,7.5c4.142,0,7.5-3.358,7.5-7.5v-69.066 l19.016-19.016c1.011,0.514,2.073,0.948,3.191,1.267l30.976,8.85c7.07,2.02,12.009,8.567,12.009,15.921v62.044 c0,4.142,3.358,7.5,7.5,7.5c4.142,0,7.5-3.358,7.5-7.5v-62.044C512,360.371,502.588,347.892,489.112,344.041z M48.115,330.794 c-14.029-5.048-21.066-11.778-24.07-15.453c2.048-5.354,3.376-11.486,4.275-17.959c4.136,9.917,11.063,18.383,19.795,24.423 V330.794z M91.08,351.092c-6.397,6.078-16.418,6.077-22.813-0.001l-6.975-6.628c1.177-2.205,1.824-4.705,1.824-7.324v-7.994 c5.232,1.635,10.794,2.517,16.558,2.517c5.757,0,11.316-0.886,16.557-2.512l-0.001,7.988c0,2.62,0.646,5.121,1.824,7.327 L91.08,351.092z M79.676,316.662c-22.396,0-40.615-18.22-40.615-40.615c0-4.142-3.358-7.5-7.5-7.5c-0.42,0-0.83,0.043-1.231,0.11 c0.022-0.645,0.043-1.291,0.065-1.93c0.167-5.157,0.328-10.028,0.625-14.206c0.958-13.476,6.343-25.894,15.163-34.968 c8.899-9.156,20.793-14.198,33.491-14.198s24.591,5.042,33.491,14.198c8.82,9.074,14.205,21.492,15.163,34.968 c0.296,4.177,0.458,9.047,0.628,14.203c0.015,0.443,0.03,0.892,0.045,1.338c-8.16-12.572-20.762-21.837-37.045-27.069 c-15.043-4.833-27.981-4.534-28.527-4.52c-1.964,0.055-3.828,0.877-5.191,2.291l-13.532,14.034 c-2.875,2.982-2.789,7.73,0.193,10.605s7.73,2.788,10.605-0.193l11.26-11.677c9.697,0.474,40.894,4.102,53.027,30.819 C116.738,302.04,99.816,316.662,79.676,316.662z M111.229,330.819l0.001-8.945c8.725-6.007,15.662-14.457,19.801-24.449 c0.899,6.458,2.226,12.576,4.27,17.918C132.314,318.983,125.244,325.773,111.229,330.819z M183.403,209.145v-18.608 c0-1.129-0.255-2.244-0.746-3.261c-4.826-9.994-7.273-20.598-7.273-31.518V139.72c0-31.239,25.415-56.653,56.653-56.653h104.769 v72.692c0,10.92-2.447,21.524-7.273,31.518c-0.491,1.017-0.746,2.132-0.746,3.261v21.355c0,20.311-8.165,39.15-22.991,53.047 c-1.851,1.734-3.772,3.36-5.758,4.875c-0.044,0.03-0.086,0.063-0.129,0.094c-13.889,10.545-30.901,15.67-48.667,14.519 C213.201,281.965,183.403,248.897,183.403,209.145z M225.632,360.056c-0.052,0.052-0.173,0.175-0.418,0.149 c-0.244-0.024-0.34-0.167-0.381-0.229l-23.325-34.988l7.506-7.887l35.385,24.187L225.632,360.056z M256.095,331.113 l-40.615-27.762v-14c10.509,5.681,22.276,9.234,34.791,10.044c1.977,0.128,3.942,0.191,5.901,0.191 c14.341,0,28.143-3.428,40.538-9.935v13.7L256.095,331.113z M287.357,359.978c-0.041,0.062-0.137,0.205-0.381,0.229 c-0.245,0.031-0.365-0.098-0.418-0.149l-18.767-18.767l35.385-24.188l7.507,7.887L287.357,359.978z M424.308,353.65l-17.02-17.019 c0.297-1.349,0.465-2.826,0.464-4.455l-0.001-3.165c4.723,1.55,9.701,2.47,14.852,2.624c0.578,0.018,1.151,0.026,1.727,0.026 c5.692,0,11.248-0.86,16.536-2.501v3.02c0,1.496,0.188,2.962,0.542,4.371L424.308,353.65z M452.591,305.196 c-7.949,7.714-18.45,11.788-29.537,11.446c-21.704-0.651-39.361-19.768-39.361-42.613v-14.021c0-1.165-0.271-2.313-0.792-3.354 l-4.633-9.266c-1.697-3.395-2.594-7.195-2.594-10.991v-0.447c0-17.974,14.623-32.596,32.596-32.596h64.673v31.15 c0,5.034-1.19,10.075-3.441,14.578l-3.786,7.572c-0.521,1.042-0.792,2.189-0.792,3.354v16.038 C464.924,287.126,460.544,297.478,452.591,305.196z"/> </g> </g><g> <g> <path d="M472.423,380.814c-4.142,0-7.5,3.358-7.5,7.5v48.115c0,4.142,3.358,7.5,7.5,7.5c4.142,0,7.5-3.358,7.5-7.5v-48.115 C479.923,384.173,476.565,380.814,472.423,380.814z"/> </g> </g><g> <g> <path d="M39.577,390.728c-4.142,0-7.5,3.358-7.5,7.5v38.201c0,4.142,3.358,7.5,7.5,7.5c4.142,0,7.5-3.358,7.5-7.5v-38.201 C47.077,394.087,43.719,390.728,39.577,390.728z"/> </g> </g><g> <g> <path d="M317.532,158.475c-28.366-28.366-87.715-22.943-111.917-19.295c-7.623,1.149-13.155,7.6-13.155,15.339v17.278 c0,4.142,3.358,7.5,7.5,7.5c4.142,0,7.5-3.358,7.5-7.5v-17.279c0-0.255,0.168-0.473,0.392-0.507 c9.667-1.457,28.85-3.705,48.725-2.38c23.388,1.557,40.328,7.428,50.349,17.45c2.929,2.929,7.678,2.929,10.606,0 C320.461,166.152,320.461,161.403,317.532,158.475z"/> </g> </g><g> <g> <path d="M167.884,396.853c-4.142,0-7.5,3.358-7.5,7.5v32.077c0,4.142,3.358,7.5,7.5,7.5c4.142,0,7.5-3.358,7.5-7.5v-32.077 C175.384,400.212,172.026,396.853,167.884,396.853z"/> </g> </g><g> <g> <path d="M344.306,396.853c-4.142,0-7.5,3.358-7.5,7.5v32.077c0,4.142,3.358,7.5,7.5,7.5c4.142,0,7.5-3.358,7.5-7.5v-32.077 C351.806,400.212,348.448,396.853,344.306,396.853z"/> </g> </g></symbol><symbol id="clock" viewBox="0 0 512.009 512.009"><title>clock</title><path d="M272.392,249.215l-0.009-132.207c0-9.043-7.339-16.383-16.383-16.383s-16.383,7.331-16.383,16.383l0.009,138.996 c0,4.349,1.731,8.511,4.801,11.581l85.765,85.765c3.204,3.195,7.393,4.801,11.59,4.801c4.189,0,8.378-1.597,11.573-4.801 c6.399-6.39,6.399-16.764,0-23.163L272.392,249.215z"/><path d="M512.009,256.004c0-0.079-0.011-0.155-0.012-0.234C511.87,114.717,397.083,0.004,256,0.004 c-141.161,0-256,114.839-256,256s114.839,256,256,256c141.083,0,255.87-114.712,255.997-255.767 C511.998,256.159,512.009,256.083,512.009,256.004z M272.383,478.636v-25.471c0-9.052-7.339-16.383-16.383-16.383 s-16.383,7.331-16.383,16.383v25.471c-110.061-8.021-198.227-96.18-206.249-206.249h25.471c9.052,0,16.383-7.339,16.383-16.383 c0-9.043-7.331-16.383-16.383-16.383H33.369c8.022-110.061,96.188-198.227,206.248-206.248v25.462 c0,9.052,7.339,16.392,16.383,16.392c9.052,0,16.383-7.339,16.383-16.392V33.373c110.068,8.021,198.227,96.187,206.249,206.249 h-25.462c-9.052,0-16.392,7.339-16.392,16.383c0,9.043,7.339,16.383,16.392,16.383h25.462 C470.611,382.456,382.451,470.615,272.383,478.636z"/></symbol><symbol id="motor" viewBox="0 -31 512 512"><title>motor</title><path d="m497 270c8.285156 0 15-6.714844 15-15s-6.714844-15-15-15h-45v-135c0-20.054688-13.609375-36.507812-31-42.492188v-17.507812c0-24.8125-20.1875-45-45-45s-45 20.1875-45 45v15h-30v-15c0-24.8125-20.1875-45-45-45s-45 20.1875-45 45v15h-30v-15c0-24.8125-20.1875-45-45-45s-45 20.1875-45 45v17.507812c-17.425781 5.996094-31 22.457032-31 42.492188v75h-30v-15c0-8.285156-6.714844-15-15-15s-15 6.714844-15 15v120c0 8.285156 6.714844 15 15 15s15-6.714844 15-15v-15h30v75c0 24.867188 21.105469 45 46 45h135v15c0 24.8125 20.1875 45 45 45h120c24.859375 0 46-20.089844 46-45v-15h45c8.285156 0 15-6.714844 15-15v-60c0-8.285156-6.714844-15-15-15h-45v-30zm-136-225c0-8.269531 6.730469-15 15-15s15 6.730469 15 15v15h-30zm-120 0c0-8.269531 6.730469-15 15-15s15 6.730469 15 15v15h-30zm-105-15c8.269531 0 15 6.730469 15 15v15h-30v-15c0-8.269531 6.730469-15 15-15zm-30 60h300c8.523438 0 16 7.007812 16 15v15h-332v-15c0-7.992188 7.476562-15 16-15zm-76 150v-30h30v30zm392 165c0 7.992188-7.476562 15-16 15h-120c-8.269531 0-15-6.730469-15-15v-30c0-8.285156-6.714844-15-15-15h-150c-8.523438 0-16-7.007812-16-15v-15h332zm60-75v30h-30v-30zm-60-30h-332v-150h332v90h-46c-8.269531 0-15-6.730469-15-15v-30c0-8.285156-6.714844-15-15-15s-15 6.714844-15 15v30c0 5.257812.914062 10.304688 2.578125 15h-17.578125c-8.269531 0-15-6.730469-15-15v-30c0-8.285156-6.714844-15-15-15s-15 6.714844-15 15v30c0 5.257812.914062 10.304688 2.578125 15h-17.578125c-8.269531 0-15-6.730469-15-15v-30c0-8.285156-6.714844-15-15-15s-15 6.714844-15 15v30c0 5.257812.914062 10.304688 2.578125 15h-17.578125c-8.269531 0-15-6.730469-15-15v-30c0-8.285156-6.714844-15-15-15s-15 6.714844-15 15v30c0 24.8125 20.1875 45 45 45h226zm0 0"/></symbol><symbol id="user-1" viewBox="0 0 512 512"><title>user-1</title><g> <g> <path d="M256,0c-74.439,0-135,60.561-135,135s60.561,135,135,135s135-60.561,135-135S330.439,0,256,0z"/> </g> </g><g> <g> <path d="M423.966,358.195C387.006,320.667,338.009,300,286,300h-60c-52.008,0-101.006,20.667-137.966,58.195 C51.255,395.539,31,444.833,31,497c0,8.284,6.716,15,15,15h420c8.284,0,15-6.716,15-15 C481,444.833,460.745,395.539,423.966,358.195z"/> </g> </g></symbol><symbol id="shopping-cart" viewBox="0 -31 512.00033 512"><title>shopping-cart</title><path d="m166 300.003906h271.003906c6.710938 0 12.597656-4.4375 14.414063-10.882812l60.003906-210.003906c1.289063-4.527344.40625-9.390626-2.433594-13.152344-2.84375-3.75-7.265625-5.964844-11.984375-5.964844h-365.632812l-10.722656-48.25c-1.523438-6.871094-7.617188-11.75-14.648438-11.75h-91c-8.289062 0-15 6.710938-15 15 0 8.292969 6.710938 15 15 15h78.960938l54.167968 243.75c-15.9375 6.929688-27.128906 22.792969-27.128906 41.253906 0 24.8125 20.1875 45 45 45h271.003906c8.292969 0 15-6.707031 15-15 0-8.289062-6.707031-15-15-15h-271.003906c-8.261719 0-15-6.722656-15-15s6.738281-15 15-15zm0 0"/><path d="m151 405.003906c0 24.816406 20.1875 45 45.003906 45 24.8125 0 45-20.183594 45-45 0-24.8125-20.1875-45-45-45-24.816406 0-45.003906 20.1875-45.003906 45zm0 0"/><path d="m362.003906 405.003906c0 24.816406 20.1875 45 45 45 24.816406 0 45-20.183594 45-45 0-24.8125-20.183594-45-45-45-24.8125 0-45 20.1875-45 45zm0 0"/></symbol><symbol id="telephone" viewBox="0 0 512 512"><title>telephone</title><g> <g> <path d="M453.202,386.293L378.52,311.61c-15.546-15.544-40.751-15.562-56.314,0l-21.75,21.75 c-49.696-30.349-91.448-72.101-121.798-121.798l23.848-23.847c15.524-15.526,15.524-40.789-0.001-56.315l-74.682-74.682 c-15.502-15.5-40.671-15.644-56.361,0.047l-46.93,47.295C2.078,122.914-5.82,153.87,4.42,183.209 c52.546,150.577,173.814,271.844,324.39,324.39c28.33,9.884,57.422,2.492,75.919-16.565c0.267-0.236,0.528-0.48,0.783-0.736 l47.69-47.691C468.728,427.082,468.728,401.82,453.202,386.293z M429.412,418.817L382.8,465.429 c-0.569,0.472-1.107,0.985-1.613,1.535c-9.811,10.665-25.594,14.347-41.29,8.867C198.919,426.636,85.384,313.1,36.188,172.121 c-5.633-16.141-1.569-32.864,10.354-42.605c0.453-0.37,0.887-0.764,1.299-1.179l47.459-47.829 c1.573-1.574,3.412-1.809,4.367-1.809c0.956,0,2.793,0.234,4.367,1.809l74.68,74.682c2.408,2.408,2.408,6.325,0.001,8.733 l-33.043,33.043c-5.341,5.34-6.468,13.583-2.758,20.161c35.858,63.569,88.409,116.122,151.978,151.977 c6.577,3.711,14.82,2.582,20.161-2.757l30.945-30.945c2.409-2.409,6.32-2.412,8.733,0l74.682,74.682 C431.819,412.492,431.819,416.41,429.412,418.817z"/> </g> </g><g> <g> <path d="M268.902,131.332c-9.291,0-16.823,7.532-16.823,16.823c0,9.291,7.531,16.823,16.823,16.823 c43.086,0,78.139,35.053,78.139,78.139c0,9.291,7.532,16.823,16.823,16.823s16.823-7.532,16.823-16.823 C380.687,181.479,330.54,131.332,268.902,131.332z"/> </g> </g><g> <g> <path d="M268.902,65.304c-9.291,0-16.823,7.532-16.823,16.823s7.531,16.823,16.823,16.823 c79.494,0,144.167,64.673,144.167,144.167c0,9.291,7.532,16.823,16.823,16.823s16.823-7.532,16.823-16.823 C446.715,145.071,366.948,65.304,268.902,65.304z"/> </g> </g><g> <g> <path d="M440.799,71.22C394.884,25.305,333.835,0.019,268.901,0.019c-9.291,0-16.823,7.532-16.823,16.823 c0,9.291,7.532,16.823,16.823,16.823c115.494,0,209.454,93.96,209.454,209.453c0,9.291,7.532,16.823,16.823,16.823 c9.291,0,16.823-7.532,16.823-16.823C512,178.183,486.714,117.136,440.799,71.22z"/> </g> </g></symbol><symbol id="send" viewBox="0 0 512 512.03248"><title>send</title><path d="m353.671875 7.429688c-4.695313-4.5625-10.964844-7.144532-17.511719-7.203126-.144531 0-.265625-.1289058-.417968-.1523432-1.34375-.1796878-2.707032-.0273438-3.976563.4414062-5.394531.6875-10.417969 3.113281-14.3125 6.914063l-253.4375 253.421874c-3.992187 4.023438-6.519531 9.269532-7.175781 14.898438-1.039063 7.832031 1.609375 15.703125 7.175781 21.308594l150.867187 150.867187c4.796876 4.804688 11.3125 7.496094 18.101563 7.484375.382813 0 .757813-.09375 1.132813-.109375h.144531c.113281 0 .214843-.050781.324219-.050781 6.214843-.34375 12.085937-2.953125 16.503906-7.332031l253.441406-253.4375c9.992188-10 9.992188-26.203125 0-36.199219zm138.777344 162.917968c.152343.152344.210937.367188.347656.519532l-178.867187 32.152343 27.539062-183.609375s.09375.050782.125.085938zm-169.183594-144.582031-31.410156 209.453125-209.484375 31.433594zm-247.160156 259.226563s-.050781-.09375-.085938-.128907l183.578125-27.546875-32.117187 178.878906c-.164063-.144531-.367188-.199218-.53125-.359374zm170.070312 143.691406 31.25-174.035156 16.980469-2.5625c7.40625-1.0625 13.226562-6.878907 14.292969-14.285157l2.558593-16.996093 174.082032-31.25zm0 0"/><path d="m113.449219 386.425781-93.867188 93.867188c-2.21875 2.144531-3.109375 5.316406-2.328125 8.300781s3.113282 5.3125 6.09375 6.09375c2.984375.78125 6.15625-.109375 8.300782-2.328125l93.867187-93.867187c3.234375-3.347657 3.1875-8.667969-.105469-11.960938-3.292968-3.292969-8.613281-3.335938-11.960937-.105469zm0 0"/><path d="m8.546875 392.460938c2.265625 0 4.433594-.898438 6.035156-2.5l51.199219-51.199219c3.234375-3.347657 3.1875-8.671875-.105469-11.964844-3.289062-3.289063-8.613281-3.335937-11.960937-.101563l-51.199219 51.199219c-2.4414062 2.441407-3.171875 6.109375-1.851563 9.296875 1.324219 3.191406 4.433594 5.269532 7.882813 5.269532zm0 0"/><path d="m121.980469 509.425781c3.332031 3.332031 8.734375 3.332031 12.066406 0l51.199219-51.199219c3.234375-3.347656 3.1875-8.671874-.101563-11.960937-3.292969-3.292969-8.613281-3.339844-11.964843-.105469l-51.199219 51.199219c-3.332031 3.332031-3.332031 8.734375 0 12.066406zm0 0"/><path d="m8.546875 443.660156c2.265625 0 4.433594-.898437 6.035156-2.5l25.597657-25.601562c3.234374-3.347656 3.1875-8.667969-.101563-11.960938-3.292969-3.289062-8.613281-3.335937-11.964844-.101562l-25.597656 25.597656c-2.4414062 2.441406-3.171875 6.109375-1.851563 9.300781 1.324219 3.1875 4.433594 5.265625 7.882813 5.265625zm0 0"/><path d="m96.382812 471.761719-25.601562 25.597656c-2.21875 2.144531-3.109375 5.316406-2.328125 8.300781s3.113281 5.3125 6.097656 6.09375c2.980469.78125 6.15625-.109375 8.296875-2.328125l25.601563-25.597656c3.230469-3.347656 3.1875-8.671875-.105469-11.964844-3.292969-3.289062-8.613281-3.335937-11.960938-.101562zm0 0"/><path d="m147.582031 236.359375c3.332031 3.332031 8.734375 3.332031 12.066407 0l42.664062-42.664063c3.234375-3.351562 3.191406-8.671874-.101562-11.964843-3.292969-3.289063-8.613282-3.335938-11.960938-.101563l-42.667969 42.664063c-3.332031 3.332031-3.332031 8.734375 0 12.066406zm0 0"/><path d="m221.882812 170.59375c2.261719 0 4.433594-.898438 6.03125-2.5l8.535157-8.535156c3.230469-3.347656 3.1875-8.667969-.105469-11.960938-3.292969-3.289062-8.613281-3.335937-11.960938-.101562l-8.535156 8.53125c-2.4375 2.441406-3.167968 6.109375-1.847656 9.296875 1.320312 3.191406 4.429688 5.269531 7.882812 5.269531zm0 0"/></symbol><symbol id="heart" viewBox="0 -28 512.00002 512"><title>heart</title><path d="m471.382812 44.578125c-26.503906-28.746094-62.871093-44.578125-102.410156-44.578125-29.554687 0-56.621094 9.34375-80.449218 27.769531-12.023438 9.300781-22.917969 20.679688-32.523438 33.960938-9.601562-13.277344-20.5-24.660157-32.527344-33.960938-23.824218-18.425781-50.890625-27.769531-80.445312-27.769531-39.539063 0-75.910156 15.832031-102.414063 44.578125-26.1875 28.410156-40.613281 67.222656-40.613281 109.292969 0 43.300781 16.136719 82.9375 50.78125 124.742187 30.992188 37.394531 75.535156 75.355469 127.117188 119.3125 17.613281 15.011719 37.578124 32.027344 58.308593 50.152344 5.476563 4.796875 12.503907 7.4375 19.792969 7.4375 7.285156 0 14.316406-2.640625 19.785156-7.429687 20.730469-18.128907 40.707032-35.152344 58.328125-50.171876 51.574219-43.949218 96.117188-81.90625 127.109375-119.304687 34.644532-41.800781 50.777344-81.4375 50.777344-124.742187 0-42.066407-14.425781-80.878907-40.617188-109.289063zm0 0"/></symbol><symbol id="facebook" viewBox="0 0 512 512"><title>facebook</title><path d="M288,176v-64c0-17.664,14.336-32,32-32h32V0h-64c-53.024,0-96,42.976-96,96v80h-64v80h64v256h96V256h64l32-80H288z"/></symbol><symbol id="envelope-1" viewBox="0 0 512 512"><title>envelope-1</title><path d="M10.688,95.156C80.958,154.667,204.26,259.365,240.5,292.01c4.865,4.406,10.083,6.646,15.5,6.646 c5.406,0,10.615-2.219,15.469-6.604c36.271-32.677,159.573-137.385,229.844-196.896c4.375-3.698,5.042-10.198,1.5-14.719 C494.625,69.99,482.417,64,469.333,64H42.667c-13.083,0-25.292,5.99-33.479,16.438C5.646,84.958,6.313,91.458,10.688,95.156z"/><path d="M505.813,127.406c-3.781-1.76-8.229-1.146-11.375,1.542C416.51,195.01,317.052,279.688,285.76,307.885 c-17.563,15.854-41.938,15.854-59.542-0.021c-33.354-30.052-145.042-125-208.656-178.917c-3.167-2.688-7.625-3.281-11.375-1.542 C2.417,129.156,0,132.927,0,137.083v268.25C0,428.865,19.135,448,42.667,448h426.667C492.865,448,512,428.865,512,405.333 v-268.25C512,132.927,509.583,129.146,505.813,127.406z"/></symbol><symbol id="print" viewBox="-18 -48 597.33331 597"><title>print</title><path d="m530 128.167969h-500c-16.566406 0-30 13.429687-30 30v240c0 16.566406 13.433594 30 30 30h70v-130h-20c-5.523438 0-10-4.480469-10-10 0-5.523438 4.476562-10 10-10h400c5.523438 0 10 4.476562 10 10 0 5.519531-4.476562 10-10 10h-20v130h70c16.566406 0 30-13.433594 30-30v-240c0-16.570313-13.433594-30-30-30zm0 0"/><path d="m120-1.832031h320v110h-320zm0 0"/><path d="m120 498.167969h320v-200h-320zm40-170h240c5.523438 0 10 4.476562 10 10 0 5.519531-4.476562 10-10 10h-240c-5.523438 0-10-4.480469-10-10 0-5.523438 4.476562-10 10-10zm0 40h240c5.523438 0 10 4.476562 10 10 0 5.519531-4.476562 10-10 10h-240c-5.523438 0-10-4.480469-10-10 0-5.523438 4.476562-10 10-10zm0 40h240c5.523438 0 10 4.476562 10 10 0 5.519531-4.476562 10-10 10h-240c-5.523438 0-10-4.480469-10-10 0-5.523438 4.476562-10 10-10zm0 40h240c5.523438 0 10 4.476562 10 10 0 5.519531-4.476562 10-10 10h-240c-5.523438 0-10-4.480469-10-10 0-5.523438 4.476562-10 10-10zm0 0"/></symbol><symbol id="search" viewBox="0 0 512 512.00049"><title>search</title><path d="m90.742188 180.734375c-5.519532 0-10 4.476563-10 9.996094s4.480468 10 10 10c5.519531 0 10-4.480469 10-10s-4.480469-9.996094-10-9.996094zm0 0"/><path d="m370.921875 300.21875c-1.871094-1.875-4.417969-2.929688-7.070313-2.929688-.101562.019532-3.945312-.195312-7.070312 2.929688l-7.066406 7.066406-22.976563-22.972656c50.703125-71.074219 42.992188-169.117188-19.449219-231.554688-70.335937-70.335937-184.1875-70.347656-254.53125 0-70.335937 70.332032-70.347656 184.1875 0 254.53125 62.285157 62.289063 160.289063 70.28125 231.550782 19.449219l22.976562 22.976563-7.066406 7.066406c-3.902344 3.902344-3.90625 10.238281 0 14.144531l126.421875 126.410157c19.535156 19.546874 51.15625 19.558593 70.695313.003906 19.546874-19.53125 19.554687-51.15625 0-70.695313zm-49.496094 35.355469-21.410156-21.410157c2.488281-2.230468 4.921875-4.519531 7.273437-6.875 2.355469-2.351562 4.644532-4.785156 6.875-7.269531l21.410157 21.410157zm-254.527343-42.425781c-62.523438-62.519532-62.53125-163.722657 0-226.25 62.519531-62.523438 163.722656-62.53125 226.25 0 62.382812 62.378906 62.699218 163.558593 0 226.25-63.40625 63.414062-164.582032 61.671874-226.25 0zm296.953124 28.28125 28.277344 28.28125-42.417968 42.417968-28.28125-28.277344zm119.34375 161.769531c-11.71875 11.730469-30.683593 11.734375-42.410156 0l-76.933594-76.929688 42.417969-42.417969 76.929688 76.9375c11.726562 11.714844 11.738281 30.679688-.003907 42.410157zm0 0"/><path d="m279.011719 81.042969c-54.683594-54.683594-143.273438-54.714844-197.980469-.007813-54.570312 54.582032-54.570312 143.394532 0 197.980469 54.714844 54.710937 143.253906 54.714844 197.972656 0 54.582032-54.585937 54.585938-143.394531.007813-197.972656zm-14.148438 183.828125c-46.894531 46.894531-122.785156 46.90625-169.691406.003906-46.773437-46.789062-46.773437-122.914062 0-169.703125 46.871094-46.867187 122.8125-46.878906 169.699219.011719 46.78125 46.78125 46.777344 122.902344-.007813 169.6875zm0 0"/><path d="m180.023438 80.042969c-26.726563 0-51.835938 10.398437-70.703126 29.277343-10.9375 10.9375-18.988281 23.859376-23.925781 38.414063-1.773437 5.226563 1.023438 10.90625 6.253907 12.679687 5.238281 1.777344 10.910156-1.035156 12.683593-6.253906 3.941407-11.621094 10.378907-21.949218 19.128907-30.703125 15.09375-15.097656 35.179687-23.414062 56.5625-23.414062 5.523437 0 10-4.476563 10-10 0-5.523438-4.476563-10-10-10zm0 0"/></symbol></svg>
