<?xml version="1.0" encoding="UTF-8"?><svg xmlns="http://www.w3.org/2000/svg" viewBox="0 0 76 43"><defs><style>.c{fill:#030202;}.d{fill:#fff;}.e{fill:#ec1c24;}.f{fill:#faa81a;}</style></defs><g id="a"><g><g><polygon class="e" points="53.88 33.61 65.31 33.61 75.48 23.44 63.85 11.81 53.88 21.8 53.88 33.61"/><g><path class="d" d="M55.24,22.23h.69v.99c.27-.37,.59-.66,.94-.84,.35-.19,.75-.28,1.19-.28,.76,0,1.41,.27,1.96,.82,.54,.55,.81,1.21,.81,1.98s-.27,1.46-.81,2.01c-.54,.55-1.18,.83-1.94,.83-.43,0-.82-.09-1.18-.27-.36-.18-.68-.44-.97-.79v2.88h-.69v-7.33Zm2.76,.53c-.6,0-1.1,.21-1.51,.63-.41,.42-.61,.94-.61,1.56,0,.41,.09,.77,.27,1.1,.18,.32,.44,.58,.78,.77,.34,.19,.7,.29,1.07,.29s.72-.1,1.05-.29c.33-.19,.59-.46,.78-.81,.19-.34,.29-.71,.29-1.08s-.1-.74-.29-1.08c-.19-.34-.45-.61-.77-.8-.32-.19-.68-.28-1.06-.28Z"/><path class="d" d="M61.21,20.16h.69v7.43h-.69v-7.43Z"/><path class="d" d="M62.43,22.23h.69v2.5c0,.61,.03,1.03,.1,1.26,.1,.33,.29,.59,.57,.78,.28,.19,.61,.29,1,.29s.71-.09,.98-.28c.27-.19,.45-.43,.56-.73,.07-.21,.1-.65,.1-1.32v-2.5h.7v2.63c0,.74-.09,1.3-.26,1.67-.17,.37-.43,.67-.78,.88-.35,.21-.78,.32-1.3,.32s-.96-.11-1.31-.32c-.35-.21-.61-.51-.78-.89-.17-.38-.26-.95-.26-1.71v-2.58Z"/><path class="d" d="M70.55,22.82l-.44,.46c-.37-.36-.73-.54-1.08-.54-.22,0-.42,.07-.58,.22-.16,.15-.24,.32-.24,.52,0,.17,.07,.34,.2,.5,.13,.16,.41,.35,.83,.57,.51,.27,.86,.52,1.05,.77,.18,.25,.27,.53,.27,.84,0,.44-.15,.81-.46,1.12-.31,.31-.7,.46-1.16,.46-.31,0-.6-.07-.89-.2s-.51-.32-.7-.56l.43-.49c.35,.4,.73,.6,1.12,.6,.28,0,.51-.09,.71-.27,.19-.18,.29-.39,.29-.63,0-.2-.06-.37-.19-.53-.13-.15-.42-.34-.87-.57-.48-.25-.81-.5-.99-.74-.17-.24-.26-.52-.26-.83,0-.41,.14-.75,.42-1.02,.28-.27,.63-.4,1.05-.4,.49,0,.99,.24,1.49,.72Z"/></g></g><g><path class="c" d="M.52,5.75h3.7l3.03,9.01,3.26-9.01h2.26l3.2,8.9,3.03-8.9h3.72l-5.49,15.83h-2.39l-3.21-9.02-3.31,9.02h-2.37L.52,5.75Z"/><path class="c" d="M36.65,14.82h-12.76c.18,1.13,.68,2.02,1.48,2.68,.8,.66,1.82,1,3.06,1,1.48,0,2.76-.52,3.83-1.56,0,0,2.49,0,3.86,0,0,.83-.51,1.58-.51,1.58-.83,1.18-1.83,2.06-3,2.63-1.16,.57-2.55,.85-4.15,.85-2.48,0-4.51-.78-6.07-2.35-1.56-1.57-2.34-3.53-2.34-5.89s.78-4.42,2.34-6.02c1.56-1.6,3.51-2.39,5.86-2.39,2.49,0,4.52,.8,6.08,2.39,1.56,1.6,2.34,3.7,2.34,6.32v.76Zm-3.99-3.13c-.26-.88-.78-1.6-1.55-2.15-.77-.55-1.67-.83-2.69-.83-1.11,0-2.08,.31-2.92,.93-.52,.39-1.01,1.07-1.46,2.05h8.61Z"/><path class="c" d="M40.24,.52V7.5c.72-.72,1.49-1.26,2.33-1.62,.83-.36,1.73-.54,2.68-.54,2.07,0,3.82,.78,5.27,2.34,1.45,1.56,2.17,3.57,2.17,6.01s-.75,4.33-2.24,5.91c-1.49,1.59-3.26,2.38-5.31,2.38-.91,0-1.76-.16-2.55-.49-.79-.32-1.57-.86-2.34-1.59v1.67h-3.94V.52h3.94Zm4.18,8.49c-1.25,0-2.29,.43-3.11,1.28-.82,.85-1.24,1.97-1.24,3.35s.41,2.54,1.24,3.41c.82,.87,1.86,1.3,3.11,1.3s2.23-.44,3.06-1.32c.83-.88,1.24-2.01,1.24-3.38s-.41-2.47-1.22-3.34c-.81-.87-1.84-1.3-3.08-1.3Z"/><path class="f" d="M9.87,21.38v1.7c.7-.7,1.46-1.23,2.27-1.58,.81-.35,1.68-.53,2.61-.53,2.02,0,3.73,.76,5.14,2.29,1.41,1.52,2.12,3.48,2.12,5.86s-.73,4.22-2.19,5.77c-1.46,1.55-3.18,2.32-5.18,2.32-.89,0-1.72-.16-2.48-.48-.77-.32-1.53-.84-2.29-1.55v6.76h-3.85V21.38h3.85Zm4.07,3.18c-1.22,0-2.23,.42-3.04,1.25-.8,.83-1.21,1.92-1.21,3.27s.4,2.48,1.21,3.33c.8,.85,1.82,1.27,3.04,1.27s2.18-.43,2.99-1.29c.81-.86,1.21-1.96,1.21-3.29s-.4-2.41-1.19-3.26c-.79-.85-1.8-1.27-3.01-1.27Z"/><path class="f" d="M33.89,21.38h3.38v15.45h-3.38v-1.63c-.8,.72-1.61,1.24-2.41,1.55-.81,.32-1.68,.48-2.62,.48-2.11,0-3.94-.77-5.49-2.32-1.54-1.55-2.31-3.47-2.31-5.77s.75-4.34,2.24-5.86c1.49-1.52,3.31-2.29,5.44-2.29,.98,0,1.9,.18,2.77,.53,.86,.35,1.66,.88,2.39,1.58v-1.7Zm-4.32,3.18c-1.27,0-2.32,.42-3.16,1.27-.84,.85-1.26,1.93-1.26,3.26s.43,2.43,1.28,3.29c.86,.86,1.91,1.29,3.16,1.29s2.36-.42,3.21-1.27c.85-.85,1.27-1.96,1.27-3.33s-.43-2.43-1.27-3.27c-.85-.83-1.92-1.25-3.22-1.25Z"/><path class="f" d="M37.27,21.38h3.96l4.01,9.69,4.43-9.69h3.97l-9.67,21.1h-4l3.18-6.8-5.87-14.29Z"/></g></g></g><g id="b"/></svg>