<?xml version="1.0" encoding="UTF-8"?><svg id="a" xmlns="http://www.w3.org/2000/svg" viewBox="0 0 201.26 33.95"><defs><style>.b,.c{fill:#fff;}.d{stroke:#0570b7;stroke-width:.6px;}.d,.e,.f{fill:none;stroke-miterlimit:10;}.c{fill-rule:evenodd;}.g{fill:#0570b7;}.e{stroke-width:.5px;}.e,.f{stroke:#fff;}.f{stroke-width:.25px;}</style></defs><g><g><path class="b" d="M43.38,11.3c0,1.03-.76,1.86-2.01,1.86-1.18,0-1.94-.83-1.94-1.86s.78-1.86,1.98-1.86,1.94,.81,1.96,1.86Zm-3.85,15.31V14.63h3.72v11.98h-3.72Z"/><path class="b" d="M45.75,18.45c0-1.49-.05-2.74-.1-3.82h3.16l.15,1.62h.07c.51-.78,1.59-1.91,3.63-1.91,1.57,0,2.77,.81,3.28,2.06h.05c.47-.64,.98-1.13,1.57-1.47,.66-.37,1.4-.59,2.28-.59,2.3,0,4.04,1.62,4.04,5.22v7.06h-3.63v-6.52c0-1.74-.56-2.74-1.76-2.74-.88,0-1.47,.59-1.74,1.3-.07,.27-.12,.64-.12,.96v7.01h-3.63v-6.74c0-1.49-.54-2.52-1.74-2.52-.96,0-1.52,.73-1.74,1.32-.12,.29-.15,.64-.15,.96v6.98h-3.63v-8.16Z"/><path class="b" d="M66.33,18.65c0-1.57-.05-2.89-.1-4.02h3.23l.17,1.67h.05c.88-1.25,2.25-1.94,3.99-1.94,2.62,0,4.97,2.28,4.97,6.1,0,4.36-2.77,6.42-5.44,6.42-1.45,0-2.57-.59-3.11-1.37h-.05v5.95h-3.72v-12.81Zm3.72,2.82c0,.29,.02,.54,.07,.78,.24,1,1.1,1.76,2.18,1.76,1.62,0,2.57-1.35,2.57-3.38,0-1.91-.86-3.36-2.52-3.36-1.05,0-1.98,.78-2.23,1.89-.05,.2-.07,.44-.07,.66v1.64Z"/><path class="b" d="M80.58,9.22h3.72V26.61h-3.72V9.22Z"/><path class="b" d="M89.71,21.81c.1,1.54,1.64,2.28,3.38,2.28,1.27,0,2.3-.17,3.31-.51l.49,2.52c-1.22,.51-2.72,.76-4.34,.76-4.07,0-6.39-2.35-6.39-6.1,0-3.04,1.89-6.39,6.05-6.39,3.87,0,5.34,3.01,5.34,5.98,0,.64-.07,1.2-.12,1.47h-7.72Zm4.39-2.55c0-.91-.39-2.43-2.11-2.43-1.57,0-2.2,1.45-2.3,2.43h4.41Z"/><path class="b" d="M99.42,18.45c0-1.49-.05-2.74-.1-3.82h3.16l.15,1.62h.07c.51-.78,1.59-1.91,3.63-1.91,1.57,0,2.77,.81,3.28,2.06h.05c.47-.64,.98-1.13,1.57-1.47,.66-.37,1.4-.59,2.28-.59,2.3,0,4.04,1.62,4.04,5.22v7.06h-3.63v-6.52c0-1.74-.56-2.74-1.76-2.74-.88,0-1.47,.59-1.74,1.3-.07,.27-.12,.64-.12,.96v7.01h-3.63v-6.74c0-1.49-.54-2.52-1.74-2.52-.96,0-1.52,.73-1.74,1.32-.12,.29-.15,.64-.15,.96v6.98h-3.63v-8.16Z"/><path class="b" d="M122.91,21.81c.1,1.54,1.64,2.28,3.38,2.28,1.27,0,2.3-.17,3.31-.51l.49,2.52c-1.23,.51-2.72,.76-4.34,.76-4.07,0-6.39-2.35-6.39-6.1,0-3.04,1.89-6.39,6.05-6.39,3.87,0,5.34,3.01,5.34,5.98,0,.64-.07,1.2-.12,1.47h-7.72Zm4.39-2.55c0-.91-.39-2.43-2.11-2.43-1.57,0-2.21,1.45-2.3,2.43h4.41Z"/><path class="b" d="M132.62,18.45c0-1.49-.05-2.74-.1-3.82h3.23l.17,1.67h.07c.49-.78,1.69-1.94,3.7-1.94,2.45,0,4.29,1.64,4.29,5.17v7.08h-3.72v-6.64c0-1.54-.54-2.6-1.89-2.6-1.03,0-1.64,.71-1.91,1.4-.1,.24-.12,.59-.12,.93v6.91h-3.72v-8.16Z"/><path class="b" d="M150.52,11.4v3.23h2.67v2.74h-2.67v4.34c0,1.45,.37,2.11,1.47,2.11,.51,0,.76-.02,1.1-.1l.02,2.82c-.47,.17-1.37,.32-2.4,.32-1.2,0-2.2-.42-2.82-1.03-.69-.71-1.03-1.86-1.03-3.55v-4.9h-1.59v-2.74h1.59v-2.23l3.65-1Z"/><path class="b" d="M166.67,20.49c0,4.39-3.11,6.39-6.32,6.39-3.5,0-6.2-2.3-6.2-6.17s2.55-6.37,6.42-6.37c3.65,0,6.1,2.52,6.1,6.15Zm-8.67,.12c0,2.06,.86,3.6,2.45,3.6,1.47,0,2.38-1.45,2.38-3.63,0-1.76-.69-3.58-2.38-3.58s-2.45,1.84-2.45,3.6Z"/><path class="b" d="M168.37,23.38c.69,.42,2.11,.88,3.21,.88s1.59-.37,1.59-.98-.37-.93-1.74-1.4c-2.5-.83-3.45-2.18-3.43-3.6,0-2.25,1.91-3.94,4.88-3.94,1.4,0,2.62,.34,3.36,.71l-.64,2.57c-.54-.29-1.59-.69-2.6-.69-.91,0-1.42,.37-1.42,.96s.47,.88,1.94,1.4c2.28,.78,3.21,1.96,3.23,3.7,0,2.25-1.74,3.9-5.17,3.9-1.57,0-2.96-.37-3.87-.86l.66-2.65Z"/></g><g><path class="b" d="M179.29,24.72c0-1.32,.91-2.28,2.2-2.28s2.18,.93,2.18,2.28-.88,2.25-2.2,2.25-2.18-.95-2.18-2.25Z"/><path class="b" d="M194.95,26.41c-.66,.29-1.91,.54-3.33,.54-3.87,0-6.34-2.35-6.34-6.12,0-3.5,2.4-6.36,6.85-6.36,.98,0,2.06,.17,2.84,.46l-.59,2.77c-.44-.2-1.1-.37-2.08-.37-1.96,0-3.23,1.39-3.21,3.35,0,2.2,1.47,3.35,3.28,3.35,.88,0,1.57-.15,2.13-.37l.44,2.74Z"/><path class="b" d="M197.06,9.32h3.72V26.7h-3.72V9.32Z"/></g></g><g><path class="b" d="M4.6,33.36c-1.89,0-3.44-1.54-3.44-3.44V6.98c0-1.76,1.32-3.23,3.07-3.42,.52-.11,1.1-.13,1.66-.13,.3,0,.62,0,.98,.01,.44,0,.93,.02,1.47,.02,1.1,0,2.02,.04,2.64,.07,.29,.01,.53,.03,.67,.03l.02-.02H31.19c1.9,0,3.44,1.54,3.44,3.44V29.92c0,1.89-1.54,3.44-3.44,3.44H4.6Z"/><path class="g" d="M5.88,3.82c.66,0,1.46,.03,2.46,.03,1.65,0,2.89,.1,3.34,.1,.11,0,.17,0,.18-.02H31.19c1.68,0,3.05,1.37,3.05,3.05V29.92c0,1.69-1.37,3.05-3.05,3.05H4.6c-1.69,0-3.05-1.37-3.05-3.05V6.98c0-1.58,1.2-2.88,2.74-3.04,.44-.1,.96-.12,1.6-.12m0-.77v0c-.57,0-1.17,.02-1.72,.13-1.94,.22-3.39,1.84-3.39,3.8V29.92c0,2.11,1.71,3.82,3.82,3.82H31.19c2.11,0,3.82-1.71,3.82-3.82V6.98c0-2.11-1.71-3.82-3.82-3.82H11.48v.02c-.14,0-.3-.01-.48-.02-.62-.03-1.55-.07-2.66-.07-.55,0-1.04,0-1.47-.02-.36,0-.69-.01-.99-.01"/><path class="g" d="M8.25,.51c-2.17,0-4.07,1.62-4.07,4.02,0,2.08,1.43,3.47,3.37,3.47h.05c2.26,0,4.2-1.48,4.2-4.02,0-2.13-1.48-3.46-3.56-3.46"/><path class="d" d="M8.25,.51c-2.17,0-4.07,1.62-4.07,4.02,0,2.08,1.43,3.47,3.37,3.47h.05c2.26,0,4.2-1.48,4.2-4.02,0-2.13-1.48-3.46-3.56-3.46Z"/><path class="g" d="M4.6,4.8H31.19c1.2,0,2.18,.98,2.18,2.18V29.92c0,1.2-.98,2.18-2.18,2.18H4.6c-1.2,0-2.18-.98-2.18-2.18V6.98c0-1.2,.98-2.18,2.18-2.18Z"/><path class="b" d="M29.06,26.34h4.33V8.66c-.42-.12-.89-.18-1.4-.18-2.29,0-4.46,1.07-6.04,3.32-.14-1.54-1.36-3.32-4.14-3.32-2.25,0-4.36,1-5.97,3.25h-.07l.32-2.86h-4.43c-.21,1.57-.46,3.47-.89,5.68l-2.18,11.79h4.97l1.46-7.86c.61-3.43,2.43-5.86,4.18-5.86,1.25,0,1.64,.93,1.64,2.14,0,.61-.11,1.29-.21,1.97l-1.82,9.61h4.97l1.46-7.89c.68-3.54,2.39-5.82,4.11-5.82,1.18,0,1.71,.86,1.71,2.07,0,.68-.11,1.43-.25,2.11l-1.75,9.54Z"/><path class="e" d="M29.06,26.34h4.33V8.66c-.42-.12-.89-.18-1.4-.18-2.29,0-4.46,1.07-6.04,3.32-.14-1.54-1.36-3.32-4.14-3.32-2.25,0-4.36,1-5.97,3.25h-.07l.32-2.86h-4.43c-.21,1.57-.46,3.47-.89,5.68l-2.18,11.79h4.97l1.46-7.86c.61-3.43,2.43-5.86,4.18-5.86,1.25,0,1.64,.93,1.64,2.14,0,.61-.11,1.29-.21,1.97l-1.82,9.61h4.97l1.46-7.89c.68-3.54,2.39-5.82,4.11-5.82,1.18,0,1.71,.86,1.71,2.07,0,.68-.11,1.43-.25,2.11l-1.75,9.54Z"/><polygon class="b" points="4.52 8.87 2.38 20.13 2.38 26.34 6.34 26.34 9.63 8.87 4.52 8.87"/><polygon class="e" points="4.52 8.87 2.38 20.13 2.38 26.34 6.34 26.34 9.63 8.87 4.52 8.87"/><path class="b" d="M8.24,1.41c-1.68,0-3.14,1.25-3.14,3.11,0,1.61,1.11,2.68,2.61,2.68h.04c1.75,0,3.25-1.14,3.25-3.11,0-1.64-1.14-2.68-2.75-2.68"/><path class="f" d="M8.24,1.41c-1.68,0-3.14,1.25-3.14,3.11,0,1.61,1.11,2.68,2.61,2.68h.04c1.75,0,3.25-1.14,3.25-3.11,0-1.64-1.14-2.68-2.75-2.68Z"/><path class="c" d="M17.44,29.8l-.64-1.36h1.63l.21,.73,1.29-.73h1.62l-2.64,1.36c-.04,.05-.31,.42-.47,.63-.14,.17-.29,.15-.29,.15h-1.29l.58-.79Zm9.45,.07l.11-.78-1.03,.78h.92Zm-1.86,.72h-1.45l3.17-2.15h1.48v2.15h-1.45l.04-.28h-1.42l-.37,.28Zm-.31-1.52h-1.38c.07-.2-.35-.19-.44-.19-.15,0-.48,0-.59,.15-.1,.14,.42,.17,.45,.17,.42,.05,1.11,.05,1.43,.33,.31,.28-.16,.6-.38,.72-.64,.34-1.39,.41-2.11,.41-.31,0-.59-.02-.83-.05-.22-.04-.7-.13-.75-.41-.02-.07,0-.15,.05-.25h1.4c-.04,.23,.44,.21,.56,.21,.16,0,.5,.01,.62-.14,.03-.05,.04-.08,0-.11-.16-.12-.66-.12-.87-.15-.24-.03-.9-.09-1.03-.34-.18-.24,.28-.55,.44-.63,.6-.31,1.32-.38,1.99-.38,.28,0,.51,.02,.73,.04,.33,.05,.94,.16,.73,.64m-10.05-.1h-.46l-.33,.45h.51c.25,0,.59,0,.8-.15,.08-.06,.19-.2,.03-.25-.1-.04-.28-.05-.55-.05m-2.27,1.62h-.82l1.58-2.14h1.81c.43,0,.74,0,.94,.03,.2,.02,.36,.04,.47,.08,.32,.1,.51,.31,.28,.62-.08,.11-.19,.21-.33,.3-.59,.37-1.31,.45-2,.45h-.83c-.29,.43-.66,.66-1.11,.67m-1.84,0h-3l1.59-2.15h3.61l-.37,.5h-2.2l-.22,.3h1.86l-.36,.49h-1.86l-.25,.34h2.22c-.27,.33-.65,.52-1.01,.52"/></g></svg>