<?xml version="1.0" encoding="UTF-8"?><svg id="a" xmlns="http://www.w3.org/2000/svg" viewBox="0 0 229.61 9.89"><defs><style>.b{fill:#fff;}</style></defs><path class="b" d="M.21,.4c.68-.11,1.69-.19,2.81-.19,1.39,0,2.36,.21,3.02,.73,.55,.44,.86,1.09,.86,1.95,0,1.19-.84,2.01-1.65,2.3v.04c.65,.26,1.01,.89,1.25,1.75,.29,1.05,.58,2.27,.76,2.63h-2.16c-.15-.26-.37-1.03-.65-2.18-.25-1.16-.65-1.48-1.51-1.5h-.64v3.67H.21V.4ZM2.31,4.42h.83c1.05,0,1.68-.53,1.68-1.34,0-.86-.58-1.29-1.55-1.3-.51,0-.8,.04-.96,.07v2.58Z"/><path class="b" d="M14.02,5.67h-3.44v2.22h3.84v1.73h-5.96V.28h5.76v1.73h-3.64v1.94h3.44v1.72Z"/><path class="b" d="M15.89,.4c.65-.11,1.57-.19,2.85-.19s2.23,.25,2.85,.75c.6,.47,1,1.25,1,2.16s-.3,1.69-.86,2.22c-.72,.68-1.79,.98-3.03,.98-.28,0-.53-.01-.72-.04v3.34h-2.09V.4Zm2.09,4.24c.18,.04,.4,.06,.71,.06,1.12,0,1.82-.57,1.82-1.52,0-.86-.6-1.37-1.65-1.37-.43,0-.72,.04-.87,.08v2.76Z"/><path class="b" d="M26.08,.28V5.65c0,1.61,.61,2.42,1.69,2.42s1.72-.78,1.72-2.42V.28h2.11V5.52c0,2.88-1.46,4.25-3.89,4.25s-3.74-1.3-3.74-4.28V.28h2.12Z"/><path class="b" d="M39.01,5.67h-3.44v2.22h3.84v1.73h-5.96V.28h5.76v1.73h-3.64v1.94h3.44v1.72Z"/><path class="b" d="M40.95,7.44c.57,.29,1.44,.58,2.34,.58,.97,0,1.48-.4,1.48-1.01s-.44-.91-1.57-1.32c-1.55-.54-2.56-1.4-2.56-2.76,0-1.59,1.33-2.81,3.53-2.81,1.05,0,1.83,.22,2.38,.47l-.47,1.7c-.37-.18-1.04-.44-1.95-.44s-1.36,.42-1.36,.9c0,.6,.53,.86,1.73,1.32,1.65,.61,2.42,1.47,2.42,2.78,0,1.57-1.21,2.9-3.77,2.9-1.07,0-2.12-.28-2.65-.57l.43-1.75Z"/><path class="b" d="M50.2,2.05h-2.51V.28h7.18v1.77h-2.55v7.56h-2.12V2.05Z"/><path class="b" d="M64.16,4.85c0,3.06-1.86,4.92-4.59,4.92s-4.39-2.09-4.39-4.75c0-2.8,1.79-4.89,4.54-4.89s4.43,2.15,4.43,4.72Zm-6.75,.12c0,1.83,.86,3.12,2.27,3.12s2.24-1.36,2.24-3.17c0-1.68-.8-3.12-2.26-3.12s-2.26,1.36-2.26,3.17Z"/><path class="b" d="M65.65,7.44c.57,.29,1.44,.58,2.34,.58,.97,0,1.48-.4,1.48-1.01s-.44-.91-1.57-1.32c-1.55-.54-2.56-1.4-2.56-2.76,0-1.59,1.33-2.81,3.53-2.81,1.05,0,1.83,.22,2.38,.47l-.47,1.7c-.37-.18-1.04-.44-1.95-.44s-1.36,.42-1.36,.9c0,.6,.53,.86,1.73,1.32,1.65,.61,2.42,1.47,2.42,2.78,0,1.57-1.21,2.9-3.77,2.9-1.07,0-2.12-.28-2.65-.57l.43-1.75Z"/><path class="b" d="M75.56,6.03c0-.75,.53-1.29,1.25-1.29s1.23,.53,1.25,1.29c0,.73-.5,1.27-1.25,1.27s-1.25-.54-1.25-1.27Z"/><path class="b" d="M84.5,.28V9.62h-2.12V.28h2.12Z"/><path class="b" d="M86.36,9.62V.28h2.47l1.94,3.42c.55,.98,1.11,2.15,1.52,3.2h.04c-.14-1.23-.18-2.49-.18-3.89V.28h1.94V9.62h-2.22l-2-3.6c-.55-1-1.16-2.2-1.62-3.3h-.04c.06,1.25,.08,2.56,.08,4.09v2.81h-1.94Z"/><path class="b" d="M96.02,7.44c.57,.29,1.44,.58,2.34,.58,.97,0,1.48-.4,1.48-1.01s-.44-.91-1.57-1.32c-1.55-.54-2.56-1.4-2.56-2.76,0-1.59,1.33-2.81,3.53-2.81,1.05,0,1.83,.22,2.38,.47l-.47,1.7c-.37-.18-1.04-.44-1.95-.44s-1.36,.42-1.36,.9c0,.6,.53,.86,1.73,1.32,1.65,.61,2.42,1.47,2.42,2.78,0,1.57-1.21,2.9-3.77,2.9-1.07,0-2.12-.28-2.65-.57l.43-1.75Z"/><path class="b" d="M105.57,.28V5.65c0,1.61,.61,2.42,1.69,2.42s1.72-.78,1.72-2.42V.28h2.11V5.52c0,2.88-1.46,4.25-3.89,4.25s-3.74-1.3-3.74-4.28V.28h2.12Z"/><path class="b" d="M120.84,6.04c-.04-1.12-.08-2.48-.08-3.84h-.04c-.29,1.19-.68,2.52-1.04,3.62l-1.14,3.64h-1.65l-1-3.62c-.3-1.09-.62-2.42-.84-3.64h-.03c-.05,1.26-.1,2.7-.17,3.87l-.17,3.55h-1.95l.6-9.34h2.81l.91,3.12c.29,1.08,.58,2.24,.79,3.34h.04c.26-1.08,.58-2.31,.89-3.35l1-3.1h2.76l.51,9.34h-2.06l-.14-3.57Z"/><path class="b" d="M133.25,4.85c0,3.06-1.86,4.92-4.59,4.92s-4.39-2.09-4.39-4.75c0-2.8,1.79-4.89,4.54-4.89s4.43,2.15,4.43,4.72Zm-6.75,.12c0,1.83,.86,3.12,2.27,3.12s2.25-1.36,2.25-3.17c0-1.68-.8-3.12-2.26-3.12s-2.26,1.36-2.26,3.17Z"/><path class="b" d="M134.73,7.44c.57,.29,1.44,.58,2.34,.58,.97,0,1.48-.4,1.48-1.01s-.44-.91-1.57-1.32c-1.55-.54-2.56-1.4-2.56-2.76,0-1.59,1.33-2.81,3.53-2.81,1.05,0,1.83,.22,2.38,.47l-.47,1.7c-.37-.18-1.04-.44-1.95-.44s-1.36,.42-1.36,.9c0,.6,.53,.86,1.73,1.32,1.65,.61,2.42,1.47,2.42,2.78,0,1.57-1.21,2.9-3.77,2.9-1.07,0-2.12-.28-2.65-.57l.43-1.75Z"/><path class="b" d="M144.64,6.03c0-.75,.53-1.29,1.25-1.29s1.23,.53,1.25,1.29c0,.73-.5,1.27-1.25,1.27s-1.25-.54-1.25-1.27Z"/><path class="b" d="M153.64,7.22l-.67,2.4h-2.19l2.85-9.34h2.77l2.9,9.34h-2.27l-.72-2.4h-2.67Zm2.37-1.58l-.58-1.98c-.17-.55-.33-1.25-.47-1.8h-.03c-.14,.55-.28,1.26-.43,1.8l-.55,1.98h2.06Z"/><path class="b" d="M167.1,9.35c-.39,.19-1.26,.4-2.4,.4-3.23,0-4.89-2.01-4.89-4.67,0-3.19,2.27-4.96,5.1-4.96,1.09,0,1.93,.22,2.3,.42l-.43,1.68c-.43-.18-1.03-.35-1.77-.35-1.68,0-2.98,1.01-2.98,3.09,0,1.87,1.11,3.05,2.99,3.05,.64,0,1.34-.14,1.76-.3l.32,1.65Z"/><path class="b" d="M174.96,9.35c-.39,.19-1.26,.4-2.4,.4-3.23,0-4.89-2.01-4.89-4.67,0-3.19,2.27-4.96,5.1-4.96,1.09,0,1.93,.22,2.3,.42l-.43,1.68c-.43-.18-1.03-.35-1.77-.35-1.68,0-2.98,1.01-2.98,3.09,0,1.87,1.11,3.05,2.99,3.05,.64,0,1.34-.14,1.76-.3l.32,1.65Z"/><path class="b" d="M181.93,5.67h-3.44v2.22h3.84v1.73h-5.96V.28h5.76v1.73h-3.64v1.94h3.44v1.72Z"/><path class="b" d="M183.87,7.44c.57,.29,1.44,.58,2.34,.58,.97,0,1.48-.4,1.48-1.01s-.44-.91-1.57-1.32c-1.55-.54-2.56-1.4-2.56-2.76,0-1.59,1.33-2.81,3.53-2.81,1.05,0,1.83,.22,2.38,.47l-.47,1.7c-.37-.18-1.04-.44-1.95-.44s-1.36,.42-1.36,.9c0,.6,.53,.86,1.73,1.32,1.65,.61,2.42,1.47,2.42,2.78,0,1.57-1.21,2.9-3.77,2.9-1.07,0-2.12-.28-2.65-.57l.43-1.75Z"/><path class="b" d="M199.86,4.85c0,3.06-1.86,4.92-4.59,4.92s-4.39-2.09-4.39-4.75c0-2.8,1.79-4.89,4.54-4.89s4.43,2.15,4.43,4.72Zm-6.75,.12c0,1.83,.86,3.12,2.27,3.12s2.25-1.36,2.25-3.17c0-1.68-.8-3.12-2.26-3.12s-2.26,1.36-2.26,3.17Z"/><path class="b" d="M201.28,.4c.68-.11,1.69-.19,2.81-.19,1.39,0,2.36,.21,3.02,.73,.55,.44,.86,1.09,.86,1.95,0,1.19-.84,2.01-1.65,2.3v.04c.65,.26,1.01,.89,1.25,1.75,.29,1.05,.58,2.27,.76,2.63h-2.16c-.15-.26-.37-1.03-.65-2.18-.25-1.16-.65-1.48-1.51-1.5h-.64v3.67h-2.09V.4Zm2.09,4.02h.83c1.05,0,1.68-.53,1.68-1.34,0-.86-.58-1.29-1.55-1.3-.51,0-.8,.04-.96,.07v2.58Z"/><path class="b" d="M211.65,.28V9.62h-2.12V.28h2.12Z"/><path class="b" d="M222.05,4.85c0,3.06-1.86,4.92-4.59,4.92s-4.39-2.09-4.39-4.75c0-2.8,1.79-4.89,4.54-4.89s4.43,2.15,4.43,4.72Zm-6.75,.12c0,1.83,.86,3.12,2.27,3.12s2.25-1.36,2.25-3.17c0-1.68-.8-3.12-2.26-3.12s-2.26,1.36-2.26,3.17Z"/><path class="b" d="M223.54,7.44c.57,.29,1.44,.58,2.34,.58,.97,0,1.48-.4,1.48-1.01s-.44-.91-1.57-1.32c-1.55-.54-2.56-1.4-2.56-2.76,0-1.59,1.33-2.81,3.53-2.81,1.05,0,1.83,.22,2.38,.47l-.47,1.7c-.37-.18-1.04-.44-1.95-.44s-1.36,.42-1.36,.9c0,.6,.53,.86,1.73,1.32,1.65,.61,2.42,1.47,2.42,2.78,0,1.57-1.21,2.9-3.77,2.9-1.07,0-2.12-.28-2.65-.57l.43-1.75Z"/></svg>