<?xml version="1.0" encoding="UTF-8"?><svg id="a" xmlns="http://www.w3.org/2000/svg" viewBox="0 0 119.06 25.51"><defs><style>.b,.c,.d{fill:#fff;}.e{fill:#0570b7;}.c{font-size:12.77px;}.c,.d{font-family:MyriadPro-Bold, Myriad Pro;}.d{font-size:7.66px;}</style></defs><g><circle class="b" cx="13.79" cy="12.76" r="12.14" transform="translate(-1.79 23.25) rotate(-76.72)"/><g><path class="e" d="M19.78,6.75H7.81c-.56,0-1,.45-1,1v9.98c0,.55,.45,1,1,1h11.97c.55,0,1-.45,1-1V7.75c0-.56-.45-1-1-1h0Zm-8.2,.75c.27,0,.5,.22,.5,.5s-.22,.5-.5,.5-.5-.22-.5-.5,.22-.5,.5-.5h0Zm-1.53,0c.28,0,.5,.22,.5,.5s-.22,.5-.5,.5-.5-.22-.5-.5,.22-.5,.5-.5h0Zm-1.5,0c.28,0,.5,.22,.5,.5s-.22,.5-.5,.5-.5-.22-.5-.5,.22-.5,.5-.5h0Zm11.23,10.23H7.81V9.26h11.97v8.47Zm0,0"/><rect class="e" x="9.34" y="11.47" width="1.9" height=".64"/><rect class="e" x="12.19" y="11.47" width="6.05" height=".64"/><rect class="e" x="9.34" y="13.06" width="1.9" height=".64"/><rect class="e" x="9.34" y="14.57" width="1.9" height=".64"/><rect class="e" x="12.19" y="13.06" width="6.05" height=".64"/><rect class="e" x="12.19" y="14.57" width="6.05" height=".64"/></g></g><text class="d" transform="translate(29.66 10.73)"><tspan x="0" y="0">Tienda Web</tspan></text><text class="c" transform="translate(29.66 21.42)"><tspan x="0" y="0">implementos.cl</tspan></text></svg>