<?xml version="1.0" encoding="UTF-8"?><svg id="a" xmlns="http://www.w3.org/2000/svg" viewBox="0 0 184.25 25.51"><defs><style>.b,.c,.d{fill:#fff;}.e{fill:#0570b7;}.c{font-size:12.77px;}.c,.d{font-family:MyriadPro-Bold, Myriad Pro;}.d{font-size:7.66px;}</style></defs><g><circle class="b" cx="12.61" cy="12.76" r="12.14" transform="translate(-2.7 22.1) rotate(-76.72)"/><text class="d" transform="translate(28.48 10.73)"><tspan x="0" y="0">32 Puntos de Venta</tspan></text><text class="c" transform="translate(28.48 21.42)"><tspan x="0" y="0">Desde Arica a Punta Arenas</tspan></text></g><g><path class="e" d="M17.26,10.33c.02,2.62-4.58,9.56-4.58,9.56,0,0-4.7-6.88-4.71-9.49-.02-2.62,2.05-4.75,4.62-4.77s4.66,2.09,4.68,4.71Z"/><path class="b" d="M14.79,10.14c0,1.23-.96,2.23-2.17,2.24-1.21,0-2.19-.98-2.2-2.21,0-1.23,.96-2.23,2.17-2.24,1.21,0,2.19,.98,2.2,2.21Z"/></g></svg>