<?xml version="1.0" encoding="UTF-8"?><svg id="a" xmlns="http://www.w3.org/2000/svg" viewBox="0 0 99.21 25.51"><defs><style>.b,.c,.d{fill:#fff;}.e{fill:#0570b7;}.c{font-size:12.77px;}.c,.d{font-family:MyriadPro-Bold, Myriad Pro;}.d{font-size:7.66px;}</style></defs><g><circle class="b" cx="13.23" cy="12.76" r="12.14" transform="translate(-2.23 22.7) rotate(-76.72)"/><path class="e" d="M19.78,16.63l-.07-.2c-.15-.46-.66-.93-1.12-1.06l-1.72-.47c-.47-.13-1.13,.04-1.47,.39l-.62,.62c-2.26-.61-4.03-2.38-4.64-4.64l.62-.62c.34-.34,.51-1,.38-1.47l-.47-1.72c-.13-.47-.61-.97-1.06-1.12l-.2-.07c-.46-.15-1.11,0-1.45,.34l-.93,.93c-.17,.16-.27,.64-.27,.64-.03,2.95,1.13,5.8,3.21,7.88,2.08,2.08,4.92,3.24,7.86,3.21,.02,0,.5-.1,.67-.27l.93-.93c.34-.34,.49-.99,.34-1.45h0Z"/></g><text class="d" transform="translate(29.2 10.73)"><tspan x="0" y="0">Venta Telefónica</tspan></text><text class="c" transform="translate(29.2 21.42)"><tspan x="0" y="0">800 330 088</tspan></text></svg>