<?xml version="1.0" encoding="UTF-8"?><svg id="a" xmlns="http://www.w3.org/2000/svg" viewBox="0 0 195.59 25.51"><defs><style>.b,.c,.d{fill:#fff;}.e{fill:#0570b7;fill-rule:evenodd;}.c{font-size:12.77px;}.c,.d{font-family:MyriadPro-Bold, Myriad Pro;}.d{font-size:7.66px;}</style></defs><g><g><circle class="b" cx="43.04" cy="12.76" r="12.14" transform="translate(20.74 51.72) rotate(-76.72)"/><path class="e" d="M42.89,6.68c-1.51,0-1.73,0-2.35,.04-.65,.03-1.09,.13-1.47,.28-.4,.16-.74,.36-1.08,.7-.34,.34-.55,.68-.7,1.08-.15,.39-.25,.83-.28,1.47-.03,.65-.04,.85-.04,2.5s0,1.86,.04,2.5c.03,.65,.13,1.09,.28,1.47,.16,.4,.36,.74,.7,1.08,.34,.34,.68,.55,1.08,.7,.39,.15,.83,.25,1.47,.28,.65,.03,.85,.04,2.5,.04s1.86,0,2.5-.04c.65-.03,1.09-.13,1.47-.28,.4-.16,.74-.36,1.08-.7,.34-.34,.55-.68,.7-1.08,.15-.39,.25-.83,.28-1.47,.03-.63,.04-.84,.04-2.35v-.3c0-1.51,0-1.73-.04-2.35-.03-.65-.13-1.09-.28-1.47-.16-.4-.36-.74-.7-1.08-.34-.34-.68-.55-1.08-.7-.39-.15-.83-.25-1.47-.28-.63-.03-.84-.04-2.35-.04h-.3Zm4.12,2.83c0,.4-.33,.73-.73,.73s-.73-.33-.73-.73,.33-.73,.73-.73,.73,.33,.73,.73h0Zm-3.97,5.26c-1.12,0-2.02-.91-2.02-2.02s.91-2.02,2.02-2.02,2.02,.91,2.02,2.02-.91,2.02-2.02,2.02h0Zm0-5.14c1.72,0,3.12,1.4,3.12,3.12s-1.4,3.12-3.12,3.12-3.12-1.4-3.12-3.12,1.4-3.12,3.12-3.12h0Zm0-1.86c1.62,0,1.81,0,2.45,.04,.59,.03,.91,.13,1.13,.21,.28,.11,.49,.24,.7,.45,.21,.21,.34,.41,.45,.7,.08,.21,.18,.54,.21,1.13,.03,.64,.04,.83,.04,2.45s0,1.81-.04,2.45c-.03,.59-.13,.91-.21,1.13-.11,.28-.24,.49-.45,.7s-.41,.34-.7,.45c-.21,.08-.54,.18-1.13,.21-.64,.03-.83,.04-2.45,.04s-1.81,0-2.45-.04c-.59-.03-.91-.13-1.13-.21-.28-.11-.49-.24-.7-.45-.21-.21-.34-.41-.45-.7-.08-.21-.18-.54-.21-1.13-.03-.64-.04-.83-.04-2.45s0-1.81,.04-2.45c.03-.59,.13-.91,.21-1.13,.11-.28,.24-.49,.45-.7s.41-.34,.7-.45c.21-.08,.54-.18,1.13-.21,.64-.03,.83-.04,2.45-.04Z"/></g><g><circle class="b" cx="14.93" cy="12.76" r="12.14" transform="translate(-.95 24.3) rotate(-76.54)"/><path class="e" d="M17.79,10.89h-1.8v-1.2c.13-1.13,2-.92,2-.92v-.08h0v-1.87h0c-.06-.02-3.73-.88-4.45,1.9h0v.02c-.12,.35-.11,1.94-.11,2.14h-1.56v2.13h1.66v5.8h2.42v-5.8h1.85l.21-2.13h-.21Z"/></g></g><text class="d" transform="translate(58.52 10.73)"><tspan x="0" y="0">Redes Sociales</tspan></text><text class="c" transform="translate(58.52 21.42)"><tspan x="0" y="0">implementos repuestos</tspan></text></svg>