<?xml version="1.0" encoding="UTF-8"?><svg id="a" xmlns="http://www.w3.org/2000/svg" viewBox="0 0 90.71 90.71"><defs><style>.b{fill:#fff;}.c{fill:#1e1e1c;}.d{fill:#db0032;}.e{fill:#ffdd08;}</style></defs><rect class="d" x=".35" y=".35" width="90" height="90" rx="3.12" ry="3.12"/><g><path class="c" d="M68.49,53.75c2.03-.34,3.82-.58,5.35-.7,2.22-.12,4.16-.02,5.82,.33,.77,.16,1.38,.63,1.84,1.41,.46,.78,.62,1.64,.48,2.58-.15,.94-.55,1.67-1.21,2.2-.66,.53-1.37,.72-2.14,.56-1.22-.28-2.71-.36-4.48-.23-1.35,.09-2.96,.31-4.83,.66-.79,.13-1.51-.09-2.14-.66-.63-.56-1.01-1.31-1.13-2.25-.12-.94,.06-1.78,.53-2.53,.48-.75,1.11-1.2,1.9-1.36Z"/><path class="e" d="M67.78,52.94c2.03-.34,3.82-.58,5.35-.7,2.22-.12,4.16-.02,5.82,.33,.77,.16,1.38,.63,1.84,1.41,.46,.78,.62,1.64,.48,2.58-.15,.94-.55,1.67-1.21,2.2-.66,.53-1.37,.72-2.14,.56-1.22-.28-2.71-.36-4.48-.23-1.35,.09-2.96,.31-4.83,.66-.79,.13-1.51-.09-2.14-.66-.63-.56-1.01-1.31-1.13-2.25-.12-.94,.06-1.78,.53-2.53,.48-.75,1.11-1.2,1.9-1.36Z"/></g><g><path class="c" d="M17.86,33.06c.06-2.1,.2-4,.42-5.68,.09-.66,.39-1.18,.9-1.58s1.1-.55,1.74-.48c.65,.08,1.16,.38,1.55,.9,.39,.53,.55,1.12,.48,1.77-.19,1.42-.32,2.99-.39,4.7,1.16-.04,2.29-.08,3.39-.1,.65-.02,1.2,.2,1.68,.66,.47,.46,.72,1.02,.73,1.69,.01,.67-.21,1.24-.66,1.71-.45,.47-1,.72-1.65,.74-1.14,.02-2.31,.07-3.52,.13,0,.53,.01,1.36,.03,2.5v3.74c0,.66-.23,1.22-.68,1.69-.45,.47-1.01,.71-1.66,.71s-1.22-.24-1.68-.71c-.46-.47-.69-1.03-.69-1.69v-3.68c-.02-.99-.03-1.73-.03-2.23-1.61,.15-3.29,.34-5.04,.56-.65,.09-1.22-.07-1.73-.48-.51-.4-.8-.94-.89-1.59-.09-.66,.07-1.25,.47-1.77,.4-.53,.92-.83,1.57-.92,1.96-.24,3.84-.44,5.65-.59Z"/><path class="e" d="M16.91,32.42c.06-2.1,.2-4,.42-5.68,.09-.66,.39-1.18,.9-1.58s1.1-.55,1.74-.48c.65,.08,1.16,.38,1.55,.9,.39,.53,.55,1.12,.48,1.77-.19,1.42-.32,2.99-.39,4.7,1.16-.04,2.29-.08,3.39-.1,.65-.02,1.2,.2,1.68,.66,.47,.46,.72,1.02,.73,1.69,.01,.67-.21,1.24-.66,1.71-.45,.47-1,.72-1.65,.74-1.14,.02-2.31,.07-3.52,.13,0,.53,.01,1.36,.03,2.5v3.74c0,.66-.23,1.22-.68,1.69-.45,.47-1.01,.71-1.66,.71s-1.22-.24-1.68-.71c-.46-.47-.69-1.03-.69-1.69v-3.68c-.02-.99-.03-1.73-.03-2.23-1.61,.15-3.29,.34-5.04,.56-.65,.09-1.22-.07-1.73-.48-.51-.4-.8-.94-.89-1.59-.09-.66,.07-1.25,.47-1.77,.4-.53,.92-.83,1.57-.92,1.96-.24,3.84-.44,5.65-.59Z"/></g><g><path class="b" d="M18.89,5.75h3.54v12.49h6.24v2.93h-9.79V5.75Z"/><path class="b" d="M30.8,5.75h3.54v12.49h6.24v2.93h-9.79V5.75Z"/><path class="b" d="M52.02,14.65h-5.78v3.66h6.45v2.86h-10V5.75h9.67v2.86h-6.13v3.2h5.78v2.84Z"/><path class="b" d="M58.99,21.17l-5.03-15.42h3.89l1.91,6.52c.53,1.85,1.02,3.59,1.4,5.51h.07c.4-1.85,.89-3.68,1.42-5.44l2-6.59h3.77l-5.29,15.42h-4.15Z"/><path class="b" d="M72.48,17.21l-1.1,3.96h-3.68l4.8-15.42h4.64l4.89,15.42h-3.82l-1.21-3.96h-4.52Zm3.98-2.61l-.98-3.27c-.26-.92-.54-2.08-.77-2.97h-.07c-.21,.91-.47,2.08-.7,2.97l-.96,3.27h3.47Z"/></g><g><path class="b" d="M50.16,38.19c-.07-1.85-.14-4.07-.14-6.34h-.05c-.51,1.97-1.16,4.16-1.77,5.97l-1.91,6.02h-2.77l-1.68-5.97c-.51-1.81-1.03-3.98-1.42-6.02h-.05c-.07,2.08-.16,4.46-.26,6.38l-.3,5.86h-3.29l1-15.42h4.73l1.54,5.15c.51,1.78,.98,3.71,1.33,5.51h.09c.42-1.78,.96-3.82,1.49-5.54l1.65-5.12h4.66l.84,15.42h-3.45l-.26-5.9Z"/><path class="b" d="M60.23,40.13l-1.1,3.96h-3.68l4.8-15.42h4.64l4.89,15.42h-3.82l-1.21-3.96h-4.52Zm3.98-2.61l-.98-3.27c-.26-.92-.54-2.08-.77-2.97h-.07c-.21,.91-.47,2.08-.7,2.97l-.96,3.27h3.47Zm2.42-12.49l-2.84,2.81h-2.84l1.96-2.81h3.73Z"/><path class="b" d="M71.99,40.5c.93,.48,2.42,.96,3.94,.96,1.63,0,2.49-.66,2.49-1.67s-.75-1.51-2.63-2.15c-2.61-.92-4.33-2.33-4.33-4.57,0-2.63,2.26-4.62,5.94-4.62,1.79,0,3.08,.34,4.01,.78l-.79,2.79c-.61-.3-1.75-.73-3.26-.73s-2.28,.71-2.28,1.49c0,.98,.86,1.42,2.91,2.17,2.77,1.01,4.05,2.42,4.05,4.6,0,2.58-2,4.78-6.31,4.78-1.79,0-3.56-.48-4.45-.96l.72-2.86Z"/></g><g><path class="b" d="M10.61,49.77c1.03-.18,2.48-.32,4.52-.32s3.54,.41,4.52,1.26c.97,.76,1.58,2.04,1.58,3.56s-.46,2.83-1.36,3.68c-1.14,1.1-2.83,1.63-4.81,1.63-.44,0-.83-.02-1.14-.09v5.56h-3.32v-15.28Zm3.32,7.03c.29,.07,.61,.09,1.12,.09,1.78,0,2.88-.94,2.88-2.5,0-1.42-.94-2.27-2.63-2.27-.66,0-1.12,.05-1.36,.11v4.57Z"/><path class="b" d="M25.47,61.07l-1.03,3.97h-3.47l4.52-15.48h4.37l4.61,15.48h-3.6l-1.14-3.97h-4.26Zm3.75-2.62l-.92-3.28c-.24-.92-.51-2.09-.72-2.99h-.07c-.2,.92-.44,2.09-.66,2.99l-.9,3.28h3.27Z"/><path class="b" d="M48.27,64.33c-1.03,.37-2.99,.87-4.94,.87-2.7,0-4.65-.71-6.02-2.07-1.34-1.36-2.09-3.38-2.09-5.65,.02-5.15,3.6-8.09,8.45-8.09,1.91,0,3.38,.39,4.11,.74l-.7,2.83c-.81-.39-1.8-.67-3.43-.67-2.79,0-4.92,1.65-4.92,5.01s1.93,5.08,4.68,5.08c.75,0,1.36-.09,1.63-.21v-3.26h-2.28v-2.73h5.51v8.15Z"/><path class="b" d="M54.31,61.07l-1.03,3.97h-3.47l4.52-15.48h4.37l4.61,15.48h-3.6l-1.14-3.97h-4.26Zm3.75-2.62l-.92-3.28c-.24-.92-.51-2.09-.73-2.99h-.07c-.2,.92-.44,2.09-.66,2.99l-.9,3.28h3.27Z"/></g><g><path class="b" d="M22.73,78.97c-.07-1.86-.13-4.09-.13-6.36h-.04c-.49,1.98-1.11,4.18-1.69,6l-1.83,6.04h-2.65l-1.6-6c-.49-1.81-.98-4-1.36-6.04h-.04c-.07,2.09-.16,4.48-.25,6.41l-.29,5.88h-3.14l.96-15.48h4.52l1.47,5.17c.49,1.79,.94,3.72,1.27,5.54h.09c.4-1.79,.91-3.84,1.43-5.56l1.58-5.15h4.45l.8,15.48h-3.3l-.24-5.93Z"/><path class="b" d="M37.81,78.35h-5.52v3.68h6.17v2.87h-9.55v-15.48h9.24v2.87h-5.86v3.22h5.52v2.85Z"/><path class="b" d="M40.77,84.9v-15.48h3.96l3.12,5.67c.89,1.63,1.76,3.56,2.45,5.31h.05c-.2-2.05-.27-4.13-.27-6.48v-4.5h3.12v15.48h-3.56l-3.21-5.97c-.89-1.68-1.89-3.65-2.61-5.47h-.09c.11,2.07,.16,4.25,.16,6.78v4.66h-3.12Z"/><path class="b" d="M62.48,85.39c-4.3,0-6.86-3.52-6.86-8,0-4.71,2.81-8.23,7.09-8.23s6.92,3.61,6.92,7.95c0,5.18-2.88,8.28-7.14,8.28h-.02Zm.17-2.82c2.23,0,3.5-2.26,3.5-5.34,0-2.82-1.23-5.25-3.5-5.25s-3.55,2.38-3.55,5.32,1.32,5.27,3.53,5.27h.02Z"/><path class="b" d="M72.22,81.29c.89,.48,2.32,.97,3.76,.97,1.56,0,2.38-.67,2.38-1.68s-.71-1.52-2.52-2.16c-2.49-.92-4.14-2.34-4.14-4.59,0-2.64,2.16-4.64,5.68-4.64,1.71,0,2.94,.34,3.83,.78l-.76,2.8c-.58-.3-1.67-.74-3.12-.74s-2.18,.71-2.18,1.49c0,.99,.82,1.42,2.78,2.18,2.65,1.01,3.88,2.43,3.88,4.62,0,2.6-1.92,4.8-6.04,4.8-1.71,0-3.41-.48-4.25-.96l.69-2.87Z"/></g></svg>