<?xml version="1.0" encoding="UTF-8"?><svg id="D2" xmlns="http://www.w3.org/2000/svg" viewBox="0 0 100 25"><defs><style>.cls-1{fill:#fff;}.cls-2{fill:#fd0;}.cls-3{fill:#db0032;}.cls-4{fill:#1d1d1b;}</style></defs><rect class="cls-3" width="100" height="25" rx="1.27" ry="1.27"/><g><path class="cls-1" d="M61.02,19.22c-.04-1.03-.08-2.27-.08-3.54h-.03c-.28,1.1-.64,2.32-.98,3.33l-1.05,3.36h-1.53l-.92-3.33c-.28-1.01-.56-2.22-.78-3.36h-.03c-.04,1.16-.09,2.49-.14,3.56l-.17,3.27h-1.81l.55-8.6h2.61l.85,2.87c.28,1,.54,2.07,.73,3.08h.05c.23-1,.53-2.13,.82-3.09l.91-2.86h2.57l.46,8.6h-1.9l-.14-3.29Z"/><path class="cls-1" d="M69.7,18.88h-3.18v2.04h3.56v1.59h-5.51V13.91h5.33v1.6h-3.38v1.79h3.18v1.58Z"/><path class="cls-1" d="M71.41,22.51V13.91h2.28l1.8,3.15c.51,.91,1.01,1.98,1.41,2.95h.03c-.12-1.14-.15-2.3-.15-3.6v-2.5h1.8v8.6h-2.05l-1.85-3.32c-.51-.93-1.09-2.03-1.5-3.04h-.05c.06,1.15,.09,2.36,.09,3.76v2.59h-1.8Z"/><path class="cls-1" d="M83.92,22.79c-2.48,0-3.95-1.96-3.95-4.44,0-2.62,1.62-4.57,4.09-4.57s3.99,2.01,3.99,4.42c0,2.88-1.66,4.6-4.11,4.6h-.01Zm.1-1.57c1.28,0,2.02-1.26,2.02-2.97,0-1.57-.71-2.92-2.02-2.92s-2.04,1.32-2.04,2.95,.76,2.93,2.03,2.93h.01Z"/><path class="cls-1" d="M89.54,20.51c.51,.27,1.33,.54,2.17,.54,.9,0,1.37-.37,1.37-.93s-.41-.84-1.45-1.2c-1.44-.51-2.39-1.3-2.39-2.55,0-1.47,1.24-2.58,3.27-2.58,.99,0,1.69,.19,2.21,.43l-.44,1.56c-.33-.17-.96-.41-1.8-.41s-1.26,.4-1.26,.83c0,.55,.48,.79,1.6,1.21,1.53,.56,2.23,1.35,2.23,2.57,0,1.44-1.1,2.67-3.48,2.67-.99,0-1.96-.27-2.45-.54l.4-1.6Z"/></g><g><path class="cls-1" d="M53.91,2.61c.57-.1,1.38-.18,2.51-.18s1.96,.23,2.51,.7c.54,.42,.88,1.14,.88,1.98s-.26,1.57-.76,2.04c-.63,.61-1.57,.91-2.67,.91-.24,0-.46-.01-.63-.05v3.09h-1.84V2.61Zm1.84,3.9c.16,.04,.34,.05,.62,.05,.99,0,1.6-.52,1.6-1.39,0-.79-.52-1.26-1.46-1.26-.37,0-.62,.03-.76,.06v2.54Z"/><path class="cls-1" d="M62.17,8.89l-.57,2.21h-1.93l2.51-8.6h2.43l2.56,8.6h-2l-.63-2.21h-2.37Zm2.09-1.45l-.51-1.82c-.13-.51-.28-1.16-.4-1.66h-.04c-.11,.51-.24,1.16-.37,1.66l-.5,1.82h1.82Z"/><path class="cls-1" d="M74.84,10.7c-.57,.2-1.66,.49-2.74,.49-1.5,0-2.59-.4-3.34-1.15-.74-.75-1.16-1.88-1.16-3.14,.01-2.86,2-4.49,4.7-4.49,1.06,0,1.88,.22,2.28,.41l-.39,1.57c-.45-.22-1-.37-1.9-.37-1.55,0-2.73,.92-2.73,2.78s1.07,2.82,2.6,2.82c.41,0,.76-.05,.9-.12v-1.81h-1.27v-1.52h3.06v4.53Z"/><path class="cls-1" d="M78.19,8.89l-.57,2.21h-1.93l2.51-8.6h2.43l2.56,8.6h-2l-.63-2.21h-2.37Zm2.09-1.45l-.51-1.82c-.13-.51-.28-1.16-.4-1.66h-.04c-.11,.51-.24,1.16-.37,1.66l-.5,1.82h1.82Z"/></g><g><path class="cls-1" d="M2.5,2.5h1.97v6.94h3.47v1.63H2.5V2.5Z"/><path class="cls-1" d="M9.12,2.5h1.97v6.94h3.47v1.63h-5.44V2.5Z"/><path class="cls-1" d="M20.91,7.44h-3.21v2.03h3.59v1.59h-5.55V2.5h5.37v1.59h-3.4v1.78h3.21v1.58Z"/><path class="cls-1" d="M24.78,11.06l-2.8-8.56h2.16l1.06,3.62c.3,1.03,.57,1.99,.78,3.06h.04c.22-1.03,.49-2.05,.79-3.02l1.11-3.66h2.1l-2.94,8.56h-2.3Z"/><path class="cls-1" d="M32.27,8.87l-.61,2.2h-2.05l2.67-8.56h2.58l2.72,8.56h-2.12l-.67-2.2h-2.51Zm2.21-1.45l-.54-1.82c-.14-.51-.3-1.16-.43-1.65h-.04c-.12,.51-.26,1.16-.39,1.65l-.53,1.82h1.93Z"/></g><g><path class="cls-1" d="M19.93,19.22c-.04-1.03-.08-2.26-.08-3.52h-.03c-.28,1.09-.65,2.31-.98,3.32l-1.06,3.34h-1.54l-.93-3.32c-.29-1-.57-2.21-.79-3.34h-.03c-.04,1.16-.09,2.48-.14,3.55l-.17,3.25h-1.83l.56-8.56h2.63l.85,2.86c.28,.99,.54,2.06,.74,3.06h.05c.23-.99,.53-2.12,.83-3.08l.92-2.85h2.59l.47,8.56h-1.92l-.14-3.28Z"/><path class="cls-1" d="M25.52,20.3l-.61,2.2h-2.05l2.67-8.56h2.58l2.72,8.56h-2.12l-.67-2.2h-2.51Zm2.21-1.45l-.54-1.82c-.14-.51-.3-1.16-.43-1.65h-.04c-.12,.51-.26,1.16-.39,1.65l-.53,1.82h1.93Zm1.35-6.94l-1.58,1.56h-1.58l1.09-1.56h2.07Z"/><path class="cls-1" d="M32.06,20.51c.52,.27,1.35,.53,2.19,.53,.91,0,1.39-.37,1.39-.93s-.41-.84-1.46-1.19c-1.45-.51-2.41-1.3-2.41-2.54,0-1.46,1.26-2.57,3.3-2.57,1,0,1.71,.19,2.23,.43l-.44,1.55c-.34-.17-.97-.41-1.81-.41s-1.27,.39-1.27,.83c0,.55,.48,.79,1.62,1.21,1.54,.56,2.25,1.35,2.25,2.55,0,1.44-1.11,2.66-3.51,2.66-1,0-1.98-.27-2.47-.53l.4-1.59Z"/></g><g><path class="cls-4" d="M87.6,5.37c1.49-.22,2.79-.36,3.91-.44,1.62-.08,3.04,0,4.26,.21,.56,.1,1.01,.39,1.35,.89,.34,.49,.45,1.03,.35,1.62-.11,.59-.4,1.05-.88,1.39-.48,.33-1,.45-1.56,.35-.89-.18-1.98-.23-3.27-.15-.99,.06-2.16,.2-3.54,.41-.58,.08-1.1-.06-1.56-.41-.46-.35-.74-.83-.83-1.42-.09-.59,.04-1.12,.39-1.59,.35-.47,.81-.76,1.39-.86Z"/><path class="cls-2" d="M86.98,4.72c1.49-.22,2.79-.36,3.91-.44,1.62-.08,3.04,0,4.26,.21,.56,.1,1.01,.39,1.35,.89,.34,.49,.45,1.03,.35,1.62-.11,.59-.4,1.05-.88,1.39-.48,.33-1,.45-1.56,.35-.89-.18-1.98-.23-3.27-.15-.99,.06-2.16,.2-3.54,.41-.58,.08-1.1-.06-1.56-.41-.46-.35-.74-.83-.83-1.42-.09-.59,.04-1.12,.39-1.59,.35-.47,.81-.76,1.39-.86Z"/></g><g><path class="cls-4" d="M45.08,11.44c.05-1.76,.14-3.34,.3-4.75,.06-.55,.27-.99,.64-1.32s.78-.46,1.23-.4c.46,.06,.82,.32,1.1,.75,.27,.44,.39,.93,.34,1.48-.14,1.19-.23,2.5-.27,3.93,.82-.04,1.62-.06,2.4-.08,.46-.02,.85,.16,1.19,.55,.33,.38,.51,.86,.51,1.41,0,.56-.15,1.03-.47,1.43-.32,.39-.71,.6-1.17,.62-.81,.02-1.64,.05-2.49,.11,0,.44,0,1.14,.02,2.09v3.13c0,.55-.16,1.02-.48,1.41-.32,.39-.71,.59-1.18,.59s-.86-.2-1.19-.59c-.33-.39-.49-.86-.49-1.41v-3.07c-.02-.82-.02-1.45-.02-1.87-1.14,.13-2.33,.28-3.56,.47-.46,.07-.86-.06-1.22-.4-.36-.34-.57-.78-.63-1.33-.06-.55,.05-1.04,.33-1.48,.28-.44,.65-.7,1.11-.77,1.39-.2,2.72-.37,4-.49Z"/><path class="cls-2" d="M44.41,10.9c.05-1.76,.14-3.34,.3-4.75,.06-.55,.27-.99,.64-1.32s.78-.46,1.23-.4c.46,.06,.82,.32,1.1,.75,.27,.44,.39,.93,.34,1.48-.14,1.19-.23,2.5-.27,3.93,.82-.04,1.62-.06,2.4-.08,.46-.02,.85,.16,1.19,.55,.33,.38,.51,.86,.51,1.41,0,.56-.15,1.03-.47,1.43-.32,.39-.71,.6-1.17,.62-.81,.02-1.64,.05-2.49,.11,0,.44,0,1.14,.02,2.09v3.13c0,.55-.16,1.02-.48,1.41-.32,.39-.71,.59-1.18,.59s-.86-.2-1.19-.59c-.33-.39-.49-.86-.49-1.41v-3.07c-.02-.82-.02-1.45-.02-1.87-1.14,.13-2.33,.28-3.56,.47-.46,.07-.86-.06-1.22-.4-.36-.34-.57-.78-.63-1.33-.06-.55,.05-1.04,.33-1.48,.28-.44,.65-.7,1.11-.77,1.39-.2,2.72-.37,4-.49Z"/></g></svg>