<?xml version="1.0" encoding="utf-8"?>
<!-- Generator: Adobe Illustrator 26.3.1, SVG Export Plug-In . SVG Version: 6.00 Build 0)  -->
<svg version="1.1" id="Capa_1" xmlns="http://www.w3.org/2000/svg" xmlns:xlink="http://www.w3.org/1999/xlink" x="0px" y="0px"
	 viewBox="0 0 63.33 53.71" style="enable-background:new 0 0 63.33 53.71;" xml:space="preserve">
<style type="text/css">
	.st0{clip-path:url(#SVGID_00000011722589495957022750000002360470587558221703_);}
	.st1{fill:#fff;}
</style>
<g>
	<defs>
		<rect id="SVGID_1_" x="2.49" y="3.5" width="58.12" height="47.69"/>
	</defs>
	<clipPath id="SVGID_00000017476022264477774190000017183212410182306176_">
		<use xlink:href="#SVGID_1_"  style="overflow:visible;"/>
	</clipPath>
	<g id="Grupo_7384" style="clip-path:url(#SVGID_00000017476022264477774190000017183212410182306176_);">
		<path id="Trazado_4834" class="st1" d="M15.18,38.97c-0.48-0.4-1.2-0.34-1.6,0.14l-2.84,3.39l-1.03-0.87
			c-0.49-0.39-1.2-0.31-1.6,0.18c-0.38,0.47-0.32,1.16,0.13,1.56l1.9,1.61c0.2,0.17,0.47,0.27,0.73,0.27c0.03,0,0.06,0,0.1,0
			c0.3-0.03,0.58-0.17,0.77-0.4l3.57-4.26C15.73,40.09,15.66,39.38,15.18,38.97"/>
		<path id="Trazado_4835" class="st1" d="M58.21,21.46h-1.63c-1.37-0.06-2.47-1.23-3.74-2.57c-0.85-0.97-1.8-1.83-2.85-2.58V6.6
			c0-1.71-1.39-3.1-3.1-3.1H9.86c-1.71,0-3.1,1.39-3.1,3.1v7.88c0.02,0.63,0.54,1.12,1.17,1.1c0.6-0.02,1.08-0.5,1.1-1.1V6.6
			C9.04,6.15,9.4,5.78,9.86,5.77h12.56v10.05c0,0.41,0.22,0.79,0.58,0.99c0.17,0.09,0.36,0.14,0.55,0.14c0.21,0,0.42-0.06,0.6-0.17
			l4.22-2.63l4.22,2.63c0.53,0.33,1.23,0.17,1.56-0.36c0.11-0.18,0.17-0.39,0.17-0.61V5.77h12.56c0.46,0.01,0.82,0.37,0.83,0.83
			v8.74c-0.38-0.08-0.78-0.12-1.17-0.13h-6.44c-0.95-0.06-1.87,0.38-2.42,1.16c-0.55,0.93-0.6,2.08-0.14,3.06
			c0.1,0.27,0.23,0.53,0.38,0.77h-8.61c-1.85,0-3.35,1.5-3.35,3.35c0,0.37,0.06,0.74,0.18,1.09h-0.3c-1.85,0-3.35,1.5-3.35,3.35
			s1.5,3.35,3.35,3.35h0.3c-0.6,1.75,0.34,3.66,2.09,4.26c0.29,0.1,0.6,0.16,0.91,0.18c-0.6,1.75,0.33,3.66,2.09,4.26
			c0.35,0.12,0.72,0.18,1.08,0.18h14.06c0.45,0,0.9-0.05,1.33-0.16v3.56c0,0.46-0.37,0.83-0.83,0.83h-26.3
			c1.38-4.9-1.48-9.99-6.38-11.37c-1.7-0.48-3.49-0.46-5.18,0.06v-8.46c-0.02-0.63-0.54-1.12-1.17-1.1c-0.6,0.02-1.08,0.5-1.1,1.1
			v9.51c-4.3,2.73-5.56,8.43-2.83,12.73s8.43,5.56,12.73,2.83c1.2-0.77,2.21-1.8,2.95-3.02h27.28c1.71,0,3.1-1.39,3.1-3.1v-4.68
			c0.25-0.18,0.49-0.36,0.72-0.54c0.87-0.86,2.03-1.37,3.25-1.44h4.25c1.33,0,2.4-1.07,2.4-2.4c0,0,0,0,0,0V23.86
			C60.61,22.54,59.53,21.47,58.21,21.46 M32.05,13.77l-3.08-1.93c-0.37-0.23-0.83-0.23-1.2,0l-3.09,1.93v-8h7.36L32.05,13.77z
			 M11.71,48.92c-3.84,0-6.96-3.11-6.96-6.95c0-3.84,3.11-6.96,6.95-6.96c3.84,0,6.96,3.11,6.96,6.95c0,0,0,0,0,0
			C18.66,45.81,15.55,48.92,11.71,48.92 M58.34,34.57c0,0.07-0.06,0.13-0.13,0.13h-4.25c-1.73,0.06-3.37,0.74-4.63,1.91
			c-0.79,0.79-1.83,1.26-2.94,1.35H32.32c-0.6,0.02-1.1-0.45-1.12-1.05c-0.02-0.6,0.45-1.1,1.05-1.12c0.02,0,0.04,0,0.07,0h3.77
			c0.63,0,1.14-0.51,1.14-1.13s-0.51-1.14-1.14-1.14h-6.77c-0.6,0-1.09-0.49-1.09-1.09c0-0.6,0.49-1.09,1.09-1.09h6.77
			c0.63,0,1.14-0.51,1.14-1.14s-0.51-1.14-1.14-1.14H25.85c-0.6,0-1.08-0.49-1.08-1.08c0-0.6,0.49-1.08,1.08-1.08h10.24
			c0.63,0,1.14-0.51,1.14-1.14s-0.51-1.14-1.14-1.14h-6.77c-0.6-0.02-1.07-0.52-1.05-1.12c0.02-0.57,0.48-1.04,1.05-1.05H46.1
			c0.63,0,1.14-0.51,1.14-1.14s-0.51-1.14-1.14-1.14h-4.11c-1.03,0.01-1.95-0.63-2.32-1.59c-0.22-0.56-0.16-0.88-0.1-0.97
			c0.16-0.12,0.36-0.18,0.57-0.16h6.38c1.91,0.04,3.25,1.46,4.67,2.96c1.48,1.57,3.02,3.2,5.32,3.28h1.7c0.07,0,0.13,0.06,0.13,0.13
			L58.34,34.57z"/>
		<path id="Trazado_4836" class="st1" d="M7.89,20.72c0.63,0,1.14-0.51,1.14-1.14c0-0.63-0.51-1.14-1.13-1.14
			c-0.63,0-1.14,0.51-1.14,1.13v0.01C6.75,20.21,7.26,20.72,7.89,20.72C7.89,20.72,7.89,20.72,7.89,20.72"/>
	</g>
</g>
</svg>
