<?xml version="1.0" encoding="utf-8"?>
<!-- Generator: Adobe Illustrator 26.3.1, SVG Export Plug-In . SVG Version: 6.00 Build 0)  -->
<svg version="1.1" id="Capa_1" xmlns="http://www.w3.org/2000/svg" xmlns:xlink="http://www.w3.org/1999/xlink" x="0px" y="0px"
	 viewBox="0 0 60.97 48.72" style="enable-background:new 0 0 60.97 48.72;" xml:space="preserve">
<style type="text/css">
	.st0{clip-path:url(#SVGID_00000088093909281978484710000008073470930019785392_);}
	.st1{fill:#fff;}
	.st2{clip-path:url(#SVGID_00000098206063653888811960000008063710923009676721_);}
</style>
<g id="Grupo_7377" transform="translate(0 0)">
	<g>
		<defs>
			<rect id="SVGID_00000126311911907937015880000003427143421236992899_" x="1.66" y="1.04" width="58.62" height="45.47"/>
		</defs>
		<clipPath id="SVGID_00000127013664634495528310000015733405137881738887_">
			<use xlink:href="#SVGID_00000126311911907937015880000003427143421236992899_"  style="overflow:visible;"/>
		</clipPath>
		<g id="Grupo_7376" style="clip-path:url(#SVGID_00000127013664634495528310000015733405137881738887_);">
			<path id="Trazado_4823" class="st1" d="M48.09,42.73c1.57,0,2.84-1.27,2.84-2.84c0-1.57-1.27-2.84-2.84-2.84
				s-2.84,1.27-2.84,2.84c0,0.37,0.07,0.74,0.22,1.09C45.9,42.03,46.94,42.73,48.09,42.73 M48.09,38.94c0.52,0,0.95,0.42,0.95,0.95
				c0,0.52-0.42,0.95-0.95,0.95c-0.52,0-0.95-0.42-0.95-0.95c0-0.12,0.02-0.25,0.07-0.36C47.36,39.17,47.7,38.94,48.09,38.94"/>
			<path id="Trazado_4824" class="st1" d="M3.56,4.83c-0.52,0-0.95,0.42-0.95,0.95c0,0,0,0,0,0v34.11c0,0.52,0.42,0.95,0.95,0.95
				c0,0,0,0,0,0h4.82c0.26,1.55,1.16,2.92,2.47,3.79H6.4c-0.52,0-0.95,0.42-0.95,0.95c0,0.52,0.42,0.95,0.95,0.95h52.94
				c0.52,0,0.95-0.42,0.95-0.95c0-0.52-0.42-0.95-0.95-0.95l0,0h-8.11c1.31-0.87,2.2-2.24,2.47-3.79h4.82
				c0.52,0,0.95-0.42,0.95-0.95V26.62c0-0.16-0.04-0.33-0.12-0.47l-5.96-10.42l-1.62-2.84c-0.17-0.3-0.48-0.48-0.82-0.48H40.51V5.78
				c0-0.52-0.42-0.95-0.95-0.95h-8.53c-0.17,0-0.33,0.04-0.47,0.13c-4.63-4.97-12.41-5.25-17.38-0.62c-0.17,0.16-0.33,0.32-0.5,0.49
				H3.56z M21.56,2.93c5.76,0,10.42,4.67,10.42,10.42c0,5.76-4.67,10.42-10.42,10.42c-5.76,0-10.42-4.67-10.42-10.42
				c0-1.37,0.27-2.72,0.79-3.99C13.55,5.47,17.35,2.94,21.56,2.93 M56.87,25.67H45.24v-8.53H52L56.87,25.67z M57.56,32.3h-1.9
				c-0.52,0-0.95-0.42-0.95-0.95s0.42-0.95,0.95-0.95h1.9L57.56,32.3z M53.69,38.94c-0.52-3.09-3.46-5.18-6.55-4.66
				c-2.38,0.4-4.25,2.27-4.66,4.66h-1.98V14.3h9.87l0.54,0.95H44.3c-0.52,0-0.95,0.42-0.95,0.95v10.42c0,0.52,0.42,0.95,0.95,0.95
				h13.27v0.95h-1.9c-1.57,0-2.84,1.27-2.84,2.84c0,1.57,1.27,2.84,2.84,2.84c0,0,0,0,0,0h1.9v4.74H53.69z M48.09,43.68
				c-2.09,0-3.79-1.7-3.79-3.79c0-2.09,1.7-3.79,3.79-3.79c2.09,0,3.79,1.7,3.79,3.79c0,0.5-0.1,0.99-0.29,1.45
				C51,42.75,49.62,43.68,48.09,43.68 M17.12,44.62c1.31-0.87,2.2-2.24,2.47-3.79h22.9c0.26,1.55,1.16,2.92,2.47,3.79H17.12z
				 M13.98,43.68c-2.09,0-3.79-1.7-3.79-3.79c0-2.09,1.7-3.79,3.79-3.79s3.79,1.7,3.79,3.79c0,0.5-0.1,0.99-0.29,1.45
				C16.89,42.75,15.51,43.67,13.98,43.68 M4.51,33.25h34.11v5.69H19.58c-0.52-3.09-3.46-5.18-6.55-4.66
				c-2.38,0.4-4.25,2.27-4.66,4.66H4.51V33.25z M4.51,6.72h6.68c-3.67,5.73-1.99,13.35,3.74,17.01S28.27,25.73,31.93,20
				c2.59-4.05,2.59-9.23,0-13.27h6.68v24.63H4.51V6.72z"/>
			<path id="Trazado_4825" class="st1" d="M2.61,44.62c-0.52,0-0.95,0.42-0.95,0.95c0,0.52,0.42,0.95,0.95,0.95h0.95
				c0.52,0,0.95-0.42,0.95-0.95c0-0.52-0.42-0.95-0.95-0.95l0,0H2.61z"/>
			<path id="Trazado_4826" class="st1" d="M15.31,16.96c-0.41-0.32-0.48-0.92-0.16-1.33c0.31-0.4,0.89-0.48,1.3-0.19l3.09,2.32
				l6.05-6.91c0.34-0.39,0.94-0.43,1.34-0.09s0.43,0.94,0.09,1.34l0,0l-6.63,7.58c-0.33,0.37-0.88,0.43-1.28,0.13L15.31,16.96z"/>
			<path id="Trazado_4827" class="st1" d="M13.98,37.04c-1.57,0-2.84,1.27-2.84,2.84s1.27,2.84,2.84,2.84
				c1.57,0,2.84-1.27,2.84-2.84c0-0.37-0.07-0.74-0.22-1.09C16.16,37.73,15.13,37.04,13.98,37.04 M13.98,40.83
				c-0.52,0-0.95-0.42-0.95-0.95c0-0.52,0.42-0.95,0.95-0.95c0.52,0,0.95,0.42,0.95,0.95c0,0.12-0.02,0.25-0.07,0.36
				C14.71,40.6,14.36,40.83,13.98,40.83"/>
		</g>
	</g>
</g>
</svg>
