<?xml version="1.0" encoding="utf-8"?>
<!-- Generator: Adobe Illustrator 26.3.1, SVG Export Plug-In . SVG Version: 6.00 Build 0)  -->
<svg version="1.1" id="Capa_1" xmlns="http://www.w3.org/2000/svg" xmlns:xlink="http://www.w3.org/1999/xlink" x="0px" y="0px"
	 viewBox="0 0 43.19 48.72" style="enable-background:new 0 0 43.19 48.72;" xml:space="preserve">
<style type="text/css">
	.st0{clip-path:url(#SVGID_00000031924717073919627600000001399135229129711242_);}
	.st1{fill:#fff;}
	.st2{clip-path:url(#SVGID_00000031924727289446613390000013505952474412529811_);}
	.st3{clip-path:url(#SVGID_00000175310025775058265910000011509455771133631388_);}
	.st4{clip-path:url(#SVGID_00000132777798683607713580000017695177885854735254_);}
	.st5{clip-path:url(#SVGID_00000183211957660440522430000007169528386162976168_);}
</style>
<g id="Grupo_7379" transform="translate(0 0)">
	<g>
		<defs>
			<rect id="SVGID_00000140702212520312876910000009218817203444359084_" x="1.27" y="1.5" width="40.77" height="45.72"/>
		</defs>
		<clipPath id="SVGID_00000152969830512188723490000006340555235234863271_">
			<use xlink:href="#SVGID_00000140702212520312876910000009218817203444359084_"  style="overflow:visible;"/>
		</clipPath>
		<g id="Grupo_7378" style="clip-path:url(#SVGID_00000152969830512188723490000006340555235234863271_);">
			<path id="Trazado_4828" class="st1" d="M27.05,35.62c3.85-6.39,8.72-15.38,8.72-19.99c0-7.8-6.32-14.12-14.12-14.12
				S7.52,7.82,7.52,15.62c0,4.62,4.87,13.6,8.72,20c-4.57,0.34-14.97,1.58-14.97,5.7c0,4.05,10.56,5.9,20.39,5.9
				s20.39-1.85,20.39-5.9C42.03,37.2,31.62,35.96,27.05,35.62 M9.47,15.62C9.41,8.9,14.81,3.39,21.54,3.33S33.77,8.68,33.83,15.4
				c0,0.07,0,0.15,0,0.22c0,5.87-9.35,20.59-12.18,24.92C18.81,36.22,9.47,21.49,9.47,15.62 M21.65,45.27
				c-11.93,0-18.44-2.61-18.44-3.96c0-1.03,4.29-3.26,14.18-3.83c1.86,2.99,3.27,5.11,3.45,5.37c0.33,0.45,0.95,0.54,1.4,0.22
				c0.08-0.06,0.16-0.13,0.22-0.22c0.2-0.23,1.6-2.37,3.45-5.36c9.89,0.57,14.18,2.79,14.18,3.83
				C40.08,42.66,33.58,45.27,21.65,45.27"/>
			<path id="Trazado_4829" class="st1" d="M27.8,15.62c0-3.4-2.75-6.15-6.15-6.15c-3.4,0-6.15,2.75-6.15,6.15
				c0,3.4,2.75,6.15,6.15,6.15C25.04,21.77,27.8,19.02,27.8,15.62C27.8,15.62,27.8,15.62,27.8,15.62 M17.44,15.62
				c0-2.32,1.88-4.21,4.21-4.21s4.21,1.88,4.21,4.21s-1.88,4.21-4.21,4.21l0,0C19.32,19.83,17.44,17.95,17.44,15.62"/>
		</g>
	</g>
</g>
</svg>
