<?xml version="1.0" encoding="utf-8"?>
<!-- Generator: Adobe Illustrator 26.3.1, SVG Export Plug-In . SVG Version: 6.00 Build 0)  -->
<svg version="1.1" id="Capa_1" xmlns="http://www.w3.org/2000/svg" xmlns:xlink="http://www.w3.org/1999/xlink" x="0px" y="0px"
	 viewBox="0 0 49.34 48.72" style="enable-background:new 0 0 49.34 48.72;" xml:space="preserve">
<style type="text/css">
	.st0{clip-path:url(#SVGID_00000155851123061391552070000008692401164080750770_);}
	.st1{fill:#fff;}
	.st2{clip-path:url(#SVGID_00000138557915680498113890000006037761714647774099_);}
	.st3{clip-path:url(#SVGID_00000120561185657086281060000005186247776094580636_);}
	.st4{clip-path:url(#SVGID_00000008829460635826040040000012411468694789272511_);}
	.st5{clip-path:url(#SVGID_00000118386813337162906620000017046835460649051054_);}
</style>
<g id="Grupo_7381" transform="translate(0 0)">
	<g>
		<defs>
			<rect id="SVGID_00000034792130393160758910000002138888588099272894_" x="2.38" y="0.81" width="45.81" height="45.81"/>
		</defs>
		<clipPath id="SVGID_00000064318136773307175400000007294512570605102236_">
			<use xlink:href="#SVGID_00000034792130393160758910000002138888588099272894_"  style="overflow:visible;"/>
		</clipPath>
		<g id="Grupo_7380" style="clip-path:url(#SVGID_00000064318136773307175400000007294512570605102236_);">
			<path id="Trazado_4830" class="st1" d="M25.29,0.81c-12.65,0-22.91,10.26-22.91,22.91c0,4.28,1.2,8.48,3.47,12.11
				c-0.9,3.17-2.54,9.17-2.56,9.23c-0.09,0.31,0,0.64,0.24,0.86c0.23,0.22,0.57,0.3,0.87,0.21l9.08-2.79
				c10.84,6.52,24.92,3.02,31.44-7.82s3.02-24.92-7.82-31.44C33.53,1.94,29.45,0.81,25.29,0.81 M25.29,44.86
				c-3.97,0-7.86-1.11-11.22-3.22c-0.14-0.09-0.3-0.13-0.47-0.13c-0.09,0-0.17,0.01-0.26,0.04l-7.93,2.44
				c0.58-2.13,1.62-5.93,2.23-8.04c0.07-0.25,0.03-0.51-0.11-0.73c-6.35-9.8-3.56-22.89,6.24-29.25s22.89-3.56,29.25,6.24
				s3.56,22.89-6.24,29.25C33.36,43.68,29.37,44.86,25.29,44.86"/>
			<path id="Trazado_4831" class="st1" d="M40.25,29.11c-1.63-0.9-3.01-1.81-4.02-2.47c-0.77-0.5-1.33-0.86-1.74-1.07
				c-0.73-0.45-1.67-0.39-2.33,0.16c-0.04,0.04-0.08,0.09-0.11,0.14c-1.19,1.78-2.74,3.48-3.19,3.58c-1.97-0.89-3.8-2.07-5.42-3.51
				c-2.49-2.07-4.06-4.06-4.29-5.41c1.6-1.65,2.17-2.68,2.17-3.86c0-1.21-2.83-6.28-3.34-6.79c-0.51-0.51-1.67-0.59-3.44-0.24
				c-0.17,0.04-0.33,0.12-0.45,0.24c-0.21,0.22-5.22,5.32-2.84,11.51c2.61,6.79,9.32,14.69,17.87,15.97
				c0.91,0.14,1.82,0.22,2.74,0.22c5.03,0,8-2.53,8.84-7.55C40.75,29.66,40.57,29.29,40.25,29.11 M29.38,35.62
				c-9.04-1.35-14.74-10.32-16.49-14.86c-1.74-4.51,1.46-8.53,2.27-9.44c0.54-0.11,1.08-0.14,1.63-0.11
				c1.1,1.73,2.02,3.56,2.77,5.46c0,0.46-0.15,1.11-1.94,2.9c-0.17,0.16-0.26,0.39-0.26,0.62c0,4.62,9.72,11.02,11.45,11.02
				c1.5,0,3.45-2.52,4.57-4.16c0.11,0.01,0.23,0.04,0.33,0.1c0.32,0.16,0.87,0.52,1.56,0.97c0.92,0.6,2.14,1.4,3.58,2.22
				C38.19,33.49,36.36,36.68,29.38,35.62"/>
		</g>
	</g>
</g>
</svg>
