<?xml version="1.0" encoding="utf-8"?>
<!-- Generator: Adobe Illustrator 26.3.1, SVG Export Plug-In . SVG Version: 6.00 Build 0)  -->
<svg version="1.1" id="Capa_1" xmlns="http://www.w3.org/2000/svg" xmlns:xlink="http://www.w3.org/1999/xlink" x="0px" y="0px"
	 viewBox="0 0 30.39 48.72" style="enable-background:new 0 0 30.39 48.72;" xml:space="preserve">
<style type="text/css">
	.st0{clip-path:url(#SVGID_00000011018415988704996890000004504922775787754166_);}
	.st1{fill:#fff;}
	.st2{clip-path:url(#SVGID_00000024707678206623105580000003214356047750999942_);}
	.st3{clip-path:url(#SVGID_00000173149002581862652990000012891520402330916798_);}
	.st4{clip-path:url(#SVGID_00000080186178361225256050000014258258969166166437_);}
	.st5{clip-path:url(#SVGID_00000183212261276323047840000016348693730573820092_);}
</style>
<g id="Grupo_7383" transform="translate(0 0)">
	<g>
		<defs>
			<rect id="SVGID_00000157279024279948925350000005452362565993322427_" x="1.2" y="1.45" width="28.19" height="45.81"/>
		</defs>
		<clipPath id="SVGID_00000055694011551250369620000010864437691042951570_">
			<use xlink:href="#SVGID_00000157279024279948925350000005452362565993322427_"  style="overflow:visible;"/>
		</clipPath>
		<g id="Grupo_7382" style="clip-path:url(#SVGID_00000055694011551250369620000010864437691042951570_);">
			<path id="Trazado_4832" class="st1" d="M15.3,47.26c7.78-0.01,14.09-6.31,14.1-14.1c0-2.11-1.71-3.82-3.82-3.83
				c-2.11,0-3.82,1.71-3.83,3.82c0,0,0,0,0,0c-0.03,3.56-2.94,6.42-6.5,6.39c-3.56-0.03-6.42-2.94-6.39-6.5
				c0.03-3.54,2.91-6.39,6.45-6.39c2.11,0,3.82-1.71,3.83-3.82v-7.52c0-2.11-1.71-3.82-3.82-3.82s-3.82,1.71-3.82,3.82v4.22
				C3.98,21.68-0.38,29.49,1.75,37C3.47,43.06,9,47.25,15.3,47.26 M12.8,21.47c0.5-0.11,0.86-0.55,0.86-1.07v-5.07
				c0-0.91,0.73-1.64,1.64-1.64c0.9,0,1.64,0.73,1.64,1.64v7.52c0,0.91-0.73,1.64-1.64,1.64c-4.78-0.02-8.67,3.85-8.69,8.63
				s3.85,8.67,8.63,8.69s8.67-3.85,8.69-8.63c0,0,0,0,0,0c0-0.91,0.73-1.64,1.64-1.64s1.64,0.73,1.64,1.64c0,0,0,0,0,0
				c-0.03,6.58-5.39,11.89-11.96,11.86C8.67,44.99,3.36,39.64,3.39,33.06C3.42,27.47,7.33,22.64,12.8,21.47"/>
			<path id="Trazado_4833" class="st1" d="M15.3,9.54c2.11,0,3.82-1.71,3.82-3.82V5.28c-0.03-2.11-1.77-3.8-3.89-3.76
				c-2.06,0.03-3.73,1.7-3.76,3.76v0.44C11.48,7.82,13.19,9.54,15.3,9.54 M13.66,5.28c0-0.91,0.73-1.64,1.64-1.64
				c0.91,0,1.64,0.73,1.64,1.64c0,0,0,0,0,0v0.44c0,0.91-0.73,1.64-1.64,1.64c-0.91,0-1.64-0.73-1.64-1.64c0,0,0,0,0,0V5.28z"/>
		</g>
	</g>
</g>
</svg>
