<?xml version="1.0" encoding="utf-8"?>
<!-- Generator: Adobe Illustrator 26.3.1, SVG Export Plug-In . SVG Version: 6.00 Build 0)  -->
<svg version="1.1" id="Capa_1" xmlns="http://www.w3.org/2000/svg" xmlns:xlink="http://www.w3.org/1999/xlink" x="0px" y="0px"
	 viewBox="0 0 30.39 38.17" style="enable-background:new 0 0 30.39 38.17;" xml:space="preserve">
<style type="text/css">
	.st0{clip-path:url(#SVGID_00000183963871240156820190000017614279778612312501_);}
	.st1{fill:#fff;}
	.st2{clip-path:url(#SVGID_00000062888937514730221740000002942969552769582999_);}
	.st3{clip-path:url(#SVGID_00000183955108621417408690000011365848056839983533_);}
	.st4{clip-path:url(#SVGID_00000171680678885963390160000008151389494906840511_);}
	.st5{clip-path:url(#SVGID_00000085217574775416206270000002779958517435440572_);}
	.st6{fill:none;stroke:#fff;stroke-width:2;}
	.st7{fill:none;stroke:#fff;}
	.st8{fill:none;stroke:#fff;stroke-width:1.5;stroke-linecap:round;stroke-linejoin:round;}
	.st9{clip-path:url(#SVGID_00000041987700205174980020000004401964349328767928_);}
	.st10{fill:#fff;}
	.st11{clip-path:url(#SVGID_00000179604552056360988580000012873110001171803325_);}
	.st12{fill:#fff;}
	.st13{clip-path:url(#SVGID_00000152981893544272371600000007112709855929965954_);}
	.st14{fill:#fff;}
</style>
<path id="Icon_material-location-on" class="st6" d="M15.19,2.39c-6.42,0-11.64,5.2-11.64,11.62c0,0.01,0,0.01,0,0.02
	c0,8.73,11.64,21.62,11.64,21.62s11.64-12.89,11.64-21.62c0-6.42-5.2-11.64-11.62-11.64C15.2,2.39,15.2,2.39,15.19,2.39z
	 M15.19,18.19c-2.3,0-4.16-1.86-4.16-4.16s1.86-4.16,4.16-4.16c2.3,0,4.16,1.86,4.16,4.16C19.35,16.33,17.49,18.19,15.19,18.19z"/>
</svg>
