<?xml version="1.0" encoding="utf-8"?>
<!-- Generator: Adobe Illustrator 26.3.1, SVG Export Plug-In . SVG Version: 6.00 Build 0)  -->
<svg version="1.1" id="Capa_1" xmlns="http://www.w3.org/2000/svg" xmlns:xlink="http://www.w3.org/1999/xlink" x="0px" y="0px"
	 viewBox="0 0 38.92 33.89" style="enable-background:new 0 0 38.92 33.89;" xml:space="preserve">
<style type="text/css">
	.st0{clip-path:url(#SVGID_00000067209379603385509730000014514523835911298227_);}
	.st1{fill:#fff;}
	.st2{clip-path:url(#SVGID_00000054978811972280472860000014878323772918390934_);}
	.st3{clip-path:url(#SVGID_00000011721979310641829040000009541895934495436932_);}
	.st4{clip-path:url(#SVGID_00000176751268027090081650000011946751452157587389_);}
	.st5{clip-path:url(#SVGID_00000003074252585917232830000008826288405395902124_);}
	.st6{fill:none;stroke:#fff;stroke-width:2;}
	.st7{fill:none;stroke:#fff;}
	.st8{fill:none;stroke:#fff;stroke-width:1.5;stroke-linecap:round;stroke-linejoin:round;}
	.st9{clip-path:url(#SVGID_00000103948098897088416030000011569584331930899375_);}
	.st10{fill:#fff;}
	.st11{clip-path:url(#SVGID_00000098209486508528449650000009537213148436490377_);}
	.st12{fill:#fff;}
	.st13{clip-path:url(#SVGID_00000078030056726600988250000005302861740105562008_);}
	.st14{fill:#fff;}
</style>
<path id="Icon_awesome-shopping-cart" class="st7" d="M33.62,19.8l2.85-12.55c0.18-0.78-0.31-1.56-1.09-1.73
	c-0.11-0.02-0.21-0.04-0.32-0.04h-23.7l-0.55-2.7c-0.14-0.67-0.73-1.16-1.41-1.16H3.21c-0.8,0-1.45,0.65-1.45,1.45c0,0,0,0,0,0v0.97
	c0,0.8,0.65,1.45,1.45,1.45c0,0,0,0,0,0h4.22l4.24,20.72c-1.62,0.93-2.18,2.99-1.25,4.61s2.99,2.18,4.61,1.25s2.18-2.99,1.25-4.61
	c-0.15-0.27-0.35-0.52-0.57-0.73h12.65c-1.33,1.31-1.35,3.44-0.05,4.78c1.31,1.33,3.44,1.35,4.78,0.05
	c1.33-1.31,1.35-3.44,0.05-4.78c-0.27-0.28-0.59-0.51-0.94-0.67l0.33-1.47c0.18-0.78-0.31-1.56-1.09-1.73
	c-0.11-0.02-0.21-0.04-0.32-0.04H14.92l-0.4-1.93h17.68C32.89,20.93,33.47,20.46,33.62,19.8z"/>
</svg>
