<?xml version="1.0" encoding="utf-8"?>
<!-- Generator: Adobe Illustrator 26.3.1, SVG Export Plug-In . SVG Version: 6.00 Build 0)  -->
<svg version="1.1" id="Capa_1" xmlns="http://www.w3.org/2000/svg" xmlns:xlink="http://www.w3.org/1999/xlink" x="0px" y="0px"
	 viewBox="0 0 31.32 32.15" style="enable-background:new 0 0 31.32 32.15;" xml:space="preserve">
<style type="text/css">
	.st0{clip-path:url(#SVGID_00000010992706684449771190000001361094386007214514_);}
	.st1{fill:#fff;}
	.st2{clip-path:url(#SVGID_00000161594532745090208000000012794769626410435714_);}
	.st3{clip-path:url(#SVGID_00000156587113199305915170000008160296660680461217_);}
	.st4{clip-path:url(#SVGID_00000163043107062834155680000007310333100518480051_);}
	.st5{clip-path:url(#SVGID_00000012458542795898897720000015284311884773681039_);}
	.st6{fill:none;stroke:#fff;stroke-width:2;}
	.st7{fill:none;stroke:#fff;}
	.st8{fill:none;stroke:#fff;stroke-width:1.5;stroke-linecap:round;stroke-linejoin:round;}
	.st9{clip-path:url(#SVGID_00000176736431062818729540000013551805292885129640_);}
	.st10{fill:#fff;}
	.st11{clip-path:url(#SVGID_00000170970973011575978970000011191155714414265517_);}
	.st12{fill:#fff;}
	.st13{clip-path:url(#SVGID_00000109009858914966000660000002162414830595160510_);}
	.st14{fill:#fff;}
</style>
<path id="Icon_awesome-user-alt" class="st7" d="M15.9,18.01c4.47,0,8.1-3.63,8.1-8.1c0-4.47-3.63-8.1-8.1-8.1s-8.1,3.63-8.1,8.1v0
	C7.8,14.39,11.43,18.01,15.9,18.01z M23.1,19.81H20c-2.6,1.2-5.6,1.2-8.2,0H8.7c-3.98,0-7.2,3.22-7.2,7.2c0,0,0,0,0,0v0.9
	c0,1.49,1.21,2.7,2.7,2.7c0,0,0,0,0,0h23.41c1.49,0,2.7-1.21,2.7-2.7c0,0,0,0,0,0v-0.9C30.31,23.04,27.08,19.81,23.1,19.81
	C23.11,19.81,23.11,19.81,23.1,19.81L23.1,19.81z"/>
</svg>
