<?xml version="1.0" encoding="utf-8"?>
<!-- Generator: Adobe Illustrator 26.3.1, SVG Export Plug-In . SVG Version: 6.00 Build 0)  -->
<svg version="1.1" id="Capa_1" xmlns="http://www.w3.org/2000/svg" xmlns:xlink="http://www.w3.org/1999/xlink" x="0px" y="0px"
	 viewBox="0 0 45.03 36.77" style="enable-background:new 0 0 45.03 36.77;" xml:space="preserve">
<style type="text/css">
	.st0{clip-path:url(#SVGID_00000039851417631519377940000002700072955761461403_);}
	.st1{fill:#fff;}
	.st2{clip-path:url(#SVGID_00000136412685814272323570000013239522333176287418_);}
	.st3{clip-path:url(#SVGID_00000044867265333731325940000008175186376828162179_);}
	.st4{clip-path:url(#SVGID_00000054251800528800626800000006432248677324465793_);}
	.st5{clip-path:url(#SVGID_00000007413050948768360230000011515794495443245454_);}
	.st6{fill:none;stroke:#fff;stroke-width:2;}
	.st7{fill:none;stroke:#fff;}
	.st8{fill:none;stroke:#fff;stroke-width:1.5;stroke-linecap:round;stroke-linejoin:round;}
	.st9{clip-path:url(#SVGID_00000039128004338922017580000012477026043921732782_);}
	.st10{fill:#fff;}
	.st11{clip-path:url(#SVGID_00000147900553843203453690000005125713688451959947_);}
	.st12{fill:#fff;}
	.st13{clip-path:url(#SVGID_00000046305868415806652360000016530852598578482870_);}
	.st14{fill:#fff;}
</style>
<path id="Icon_awesome-truck" class="st7" d="M42.43,24.65H41.4v-7c0-0.83-0.33-1.62-0.91-2.2l-6.48-6.48
	c-0.58-0.58-1.37-0.91-2.2-0.91h-2.85V4.95c0-1.72-1.39-3.11-3.11-3.11H5.11C3.39,1.84,2,3.23,2,4.95v20.74
	c0,1.72,1.39,3.11,3.11,3.11h1.04c-0.04,3.44,2.71,6.26,6.14,6.3s6.26-2.71,6.3-6.14c0-0.05,0-0.11,0-0.16h8.29
	c-0.04,3.44,2.71,6.26,6.14,6.3c3.44,0.04,6.26-2.71,6.3-6.14c0-0.05,0-0.11,0-0.16h3.11c0.57,0,1.04-0.46,1.04-1.04v-2.07
	C43.47,25.11,43,24.65,42.43,24.65z M12.37,31.91c-1.72,0-3.11-1.39-3.11-3.11s1.39-3.11,3.11-3.11s3.11,1.39,3.11,3.11
	C15.48,30.51,14.08,31.91,12.37,31.91z M33.1,31.91c-1.72,0-3.11-1.39-3.11-3.11s1.39-3.11,3.11-3.11c1.72,0,3.11,1.39,3.11,3.11
	C36.21,30.52,34.82,31.91,33.1,31.91C33.1,31.91,33.1,31.91,33.1,31.91L33.1,31.91z M38.29,18.43h-9.33v-7.26h2.86l6.47,6.47
	L38.29,18.43z"/>
</svg>
