<?xml version="1.0" encoding="utf-8"?>
<!-- Generator: Adobe Illustrator 26.3.1, SVG Export Plug-In . SVG Version: 6.00 Build 0)  -->
<svg version="1.1" id="Capa_1" xmlns="http://www.w3.org/2000/svg" xmlns:xlink="http://www.w3.org/1999/xlink" x="0px" y="0px"
	 viewBox="0 0 126.83 116.04" style="enable-background:new 0 0 126.83 116.04;" xml:space="preserve">
<style type="text/css">
	.st0{clip-path:url(#SVGID_00000170979985986736424720000011696856547100418225_);}
	.st1{fill:#0063B9;}
	.st2{clip-path:url(#SVGID_00000151514883766747345690000018010218015801513887_);}
	.st3{clip-path:url(#SVGID_00000064331431419722522400000010793962776840447131_);}
	.st4{clip-path:url(#SVGID_00000034800029457404897420000012916918319225291437_);}
	.st5{clip-path:url(#SVGID_00000041292076959082991700000001082935965264668823_);}
	.st6{fill:none;stroke:#0063B9;stroke-width:2;}
	.st7{fill:none;stroke:#0063B9;}
	.st8{fill:none;stroke:#0A4CAC;stroke-width:1.5;stroke-linecap:round;stroke-linejoin:round;}
	.st9{clip-path:url(#SVGID_00000098914178727861091910000006150997835139303845_);}
	.st10{fill:#0A4CAC;}
	.st11{clip-path:url(#SVGID_00000104689405981980919590000005968303079141595791_);}
	.st12{fill:#0D61BB;}
	.st13{clip-path:url(#SVGID_00000075883920584671358700000006446380407551923106_);}
	.st14{fill:#0E61BB;}
</style>
<g>
	<defs>
		<rect id="SVGID_00000137107547758906482390000002820611503079466130_" x="2.76" y="1.84" width="121.82" height="111.83"/>
	</defs>
	<clipPath id="SVGID_00000046307224187579478200000005763301557911841965_">
		<use xlink:href="#SVGID_00000137107547758906482390000002820611503079466130_"  style="overflow:visible;"/>
	</clipPath>
	<g id="Grupo_7299" style="clip-path:url(#SVGID_00000046307224187579478200000005763301557911841965_);">
		<path id="Trazado_4606" class="st10" d="M25.64,52.51c-1.38-0.67-1.66-1.77-0.78-3.27s6.23-11.74,6.91-12.05
			s26.64-7.27,27.21-7.27s27.11,7.37,27.47,7.84s6.02,11.27,6.44,12.05c0.36,0.78,0.26,1.7-0.26,2.39c-0.41,0.31-5.71,2.7-5.71,2.7
			V71c-0.08,0.59-0.4,1.11-0.88,1.45c0,0-24.25,11.68-25.6,12.31s-1.61,0.73-2.23,0.57S32.54,72.87,31.61,72.45
			s-0.88-1.04-0.88-1.04v-16.2C30.73,55.21,26.5,52.92,25.64,52.51 M28.86,50.02l22.43,10.54l4.78-10.65L33.43,41.5L28.86,50.02z
			 M39.35,39.32l19.37,7.43l19.53-7.43l-19.45-5.4L39.35,39.32z M66.19,60.25l22.17-10.59l-4.51-8.15l-22.54,8.15L66.19,60.25z
			 M60.69,58.17v22.07l22.23-10.7V56.77l-16.94,8.05c0,0-1.51,0.47-2.02-0.26C63.44,63.83,60.69,58.17,60.69,58.17 M53.99,63.99
			c-0.42,1.04-1.71,1.04-2.6,0.78s-16.88-7.79-16.88-7.79v12.67l22.33,10.59V58.06C56.84,58.06,54.4,62.95,53.99,63.99"/>
		<path id="Trazado_4607" class="st10" d="M112.83,71.61c0,1.23-1,2.23-2.23,2.23s-2.23-1-2.23-2.23s1-2.23,2.23-2.23
			S112.83,70.37,112.83,71.61L112.83,71.61"/>
		<path id="Trazado_4608" class="st10" d="M107.48,84.59c0,1.23-1,2.23-2.23,2.23s-2.23-1-2.23-2.23s1-2.23,2.23-2.23
			S107.48,83.36,107.48,84.59L107.48,84.59"/>
		<path id="Trazado_4609" class="st10" d="M99.02,95.7c0,1.23-1,2.23-2.23,2.23s-2.23-1-2.23-2.23s1-2.23,2.23-2.23
			S99.02,94.47,99.02,95.7L99.02,95.7"/>
		<path id="Trazado_4610" class="st10" d="M87.85,104.22c0,1.23-1,2.23-2.23,2.23s-2.23-1-2.23-2.23s1-2.23,2.23-2.23
			S87.85,102.99,87.85,104.22L87.85,104.22"/>
		<path id="Trazado_4611" class="st10" d="M74.87,109.62c0,1.23-1,2.23-2.23,2.23s-2.23-1-2.23-2.23s1-2.23,2.23-2.23
			S74.87,108.39,74.87,109.62L74.87,109.62"/>
		<path id="Trazado_4612" class="st10" d="M52.44,108.88c0,0,3.15,0.35,4.24,0.31s1.99,0.08,2.03,0.43s0,3.39,0,3.39
			c-0.19,0.41-0.6,0.67-1.05,0.66c-0.82,0.04-12.03-0.35-20.6-4.44s-13.36-7.21-18.85-13.05c-5.09-5.23-9.05-11.45-11.65-18.27
			C4.47,72.48,3.24,66.75,2.9,60.94c-0.4-6.16,0.28-12.35,2.03-18.27c1.52-5.61,3.91-10.95,7.09-15.81
			c4.59-6.82,10.61-12.56,17.64-16.83c7.52-4.75,15.19-7.48,28.16-8.14S83.1,7.07,87.73,9.95c4.45,2.87,8.54,6.25,12.19,10.09
			c2.49,2.73,7.01,8.8,8.96,13.2s3.35,6.35,4.36,12.07c0.46,2.21,0.8,4.45,1.01,6.7l7.09-7.91c0,0,0.12-0.19,0.82,0.35
			s2.26,2.03,2.26,2.03c0.2,0.27,0.2,0.63,0,0.9c-0.35,0.39-12.31,13.83-12.31,13.83S99.42,47.07,99.3,46.95s0-0.19,0.31-0.47
			s2.8-2.65,2.92-2.65s7.36,8.45,7.36,8.45s-1.21-8.06-2.8-12.15s-5.49-12.66-11.45-18.35S80.1,8.35,61.95,6.45
			s-29.09,7.44-34.31,10.59S15.87,28.61,12.96,34.25s-5.5,15.89-5.61,20.29s0.43,14.33,3.16,20.92s8.57,17.14,15.46,22.04
			S37.17,105.88,52.44,108.88"/>
	</g>
</g>
</svg>
