<?xml version="1.0" encoding="utf-8"?>
<!-- Generator: Adobe Illustrator 26.3.1, SVG Export Plug-In . SVG Version: 6.00 Build 0)  -->
<svg version="1.1" id="Capa_1" xmlns="http://www.w3.org/2000/svg" xmlns:xlink="http://www.w3.org/1999/xlink" x="0px" y="0px"
	 viewBox="0 0 107.01 98.86" style="enable-background:new 0 0 107.01 98.86;" xml:space="preserve">
<style type="text/css">
	.st0{clip-path:url(#SVGID_00000034785418569016904740000011465437181201251758_);}
	.st1{fill:#0063B9;}
	.st2{clip-path:url(#SVGID_00000166653555800426975060000013654592841786111389_);}
	.st3{clip-path:url(#SVGID_00000073713930265152317460000009844169280556949889_);}
	.st4{clip-path:url(#SVGID_00000011028915968472544060000016443494486561489833_);}
	.st5{clip-path:url(#SVGID_00000075853063833621540940000002517362494209498008_);}
	.st6{fill:none;stroke:#0063B9;stroke-width:2;}
	.st7{fill:none;stroke:#0063B9;}
	.st8{fill:none;stroke:#0A4CAC;stroke-width:1.5;stroke-linecap:round;stroke-linejoin:round;}
	.st9{clip-path:url(#SVGID_00000069356420499980005420000004287390299567371438_);}
	.st10{fill:#0A4CAC;}
	.st11{clip-path:url(#SVGID_00000164488685285447781230000006091604434133547956_);}
	.st12{fill:#0D61BB;}
	.st13{clip-path:url(#SVGID_00000096038980210318883570000017659271122820134073_);}
	.st14{fill:#0E61BB;}
</style>
<g>
	<defs>
		<rect id="SVGID_00000035532156569006083520000015756066426605129094_" x="2.73" y="2.87" width="102.43" height="92.34"/>
	</defs>
	<clipPath id="SVGID_00000134972402187512561050000005418564307460571571_">
		<use xlink:href="#SVGID_00000035532156569006083520000015756066426605129094_"  style="overflow:visible;"/>
	</clipPath>
	
		<g id="Grupo_6548" transform="translate(0 0)" style="clip-path:url(#SVGID_00000134972402187512561050000005418564307460571571_);">
		<path id="Trazado_74" class="st12" d="M53.89,95.13c-14.77,0-29.53,0-44.29,0c-0.49,0.07-0.98,0.03-1.45-0.12
			c-0.47-0.3-0.85-0.72-1.11-1.22C6.88,93.54,7,93.11,7,92.76c0-16.77,0-33.54,0.01-50.31c0.06-0.69-0.26-1.36-0.84-1.74
			c-2.12-1.48-3.4-3.9-3.41-6.49c-0.05-3.56-0.04-7.12-0.03-10.68c0.01-0.38,0.11-0.76,0.28-1.1c2.76-6,5.55-11.99,8.28-18
			c0.35-1.02,1.36-1.67,2.43-1.57c26.81,0.03,53.63,0.03,80.44,0c1.07-0.1,2.08,0.56,2.43,1.58c2.74,6.01,5.53,12,8.29,18
			c0.16,0.35,0.25,0.72,0.27,1.11c0.01,3.56,0.02,7.12-0.04,10.68c-0.01,2.59-1.29,5.01-3.42,6.48c-0.63,0.43-0.98,1.17-0.91,1.93
			c0.02,16.63,0.02,33.26,0.01,49.89c0.01,0.42,0,0.84-0.05,1.26c-0.05,0.7-0.61,1.26-1.32,1.3c-0.28,0.03-0.56,0.04-0.84,0.04
			c-11.77,0.03-23.53,0.05-35.3,0.07c-3.14,0.01-6.27,0-9.41,0L53.89,95.13 M61.21,92.08v-1.43c0-12.37,0-24.74,0-37.11
			c0-1.96,0.39-2.34,2.36-2.34c7.75,0,15.5,0,23.26,0c1.88,0,2.23,0.35,2.23,2.21v38.63h8.64V42.44c-3.86,0.08-5.69-0.82-8.21-3.58
			C86.56,42.8,81,43.62,77.07,40.7c-0.71-0.53-1.35-1.16-1.87-1.88c-1.62,2.29-4.25,3.63-7.05,3.61c-2.82,0-5.47-1.37-7.1-3.67
			c-2.8,3.93-8.27,4.85-12.2,2.05c-0.78-0.56-1.47-1.24-2.03-2.03c-2.79,3.91-8.22,4.82-12.13,2.03c-0.8-0.57-1.49-1.26-2.05-2.06
			c-1.63,2.31-4.28,3.69-7.11,3.68c-2.83-0.01-5.48-1.38-7.13-3.68c-1.89,2.68-5.11,4.08-8.35,3.63v49.69H61.21z M101.26,21.84
			c-0.14-0.34-0.23-0.64-0.37-0.91c-2.18-4.72-4.38-9.44-6.52-14.18c-0.19-0.61-0.79-0.98-1.42-0.9c-26,0.02-52.01,0.02-78.01,0
			c-0.63-0.09-1.23,0.29-1.43,0.9c-2.14,4.74-4.34,9.45-6.52,14.18c-0.13,0.28-0.23,0.57-0.36,0.91L101.26,21.84z M64.32,92.02
			h21.72V54.25H64.32V92.02z M31.12,25.03h-11.2c0,3.17-0.12,6.27,0.03,9.36c0.29,3.08,3.02,5.33,6.1,5.04
			c2.86-0.27,5.05-2.67,5.07-5.54c0.01-1.34,0-2.68,0.01-4.01L31.12,25.03 M90.99,25c0,3.22-0.2,6.39,0.05,9.53
			c0.25,3.17,2.94,5.12,6.15,4.9c2.89-0.32,5.05-2.8,4.97-5.7c0.01-2.61,0.01-5.21,0-7.82c0-0.3-0.04-0.6-0.06-0.91L90.99,25z
			 M5.72,25c0,2.51-0.01,4.97,0.01,7.43c-0.05,0.88,0,1.76,0.13,2.62c0.59,2.86,3.29,4.77,6.19,4.37c2.81-0.37,4.9-2.77,4.9-5.6
			c0.03-2.39,0.01-4.79,0.01-7.18v-1.63L5.72,25z M87.99,25.03h-11.2c0,3-0.01,5.91,0,8.83c-0.02,3.08,2.46,5.6,5.55,5.62
			c2.62,0.02,4.9-1.79,5.48-4.34c0.09-0.3,0.15-0.61,0.17-0.93C87.99,31.15,87.98,28.1,87.99,25.03 M62.61,25c0,3.33,0,6.56,0,9.79
			c0.02,0.17,0.06,0.35,0.13,0.51c0.77,2.99,3.83,4.79,6.82,4.02c2.48-0.64,4.21-2.88,4.2-5.44c0.04-2.5,0.01-5,0.01-7.5V25
			L62.61,25z M45.28,25.03H34.12c0,2.92-0.01,5.77,0.01,8.62c0,0.49,0.06,0.98,0.15,1.47c0.6,2.73,3.14,4.58,5.92,4.33
			c2.48-0.11,4.96-2.3,5.05-4.72C45.37,31.52,45.28,28.32,45.28,25.03 M48.41,25c0,3.15-0.03,6.18,0,9.2
			c0.17,3.06,2.78,5.4,5.84,5.23c2.84-0.15,5.1-2.44,5.23-5.28c0.03-2.78,0.01-5.57,0-8.35c-0.01-0.27-0.04-0.54-0.09-0.81L48.41,25
			z"/>
		<path id="Trazado_75" class="st12" d="M35.66,50.43c5.85,0,11.69,0,17.54,0c1.8,0,2.22,0.43,2.22,2.24c0,9.3,0,18.6,0,27.9
			c0,1.66-0.47,2.15-2.12,2.15c-11.77,0-23.53,0-35.3,0c-1.65,0-2.12-0.49-2.12-2.15v-28c0-1.67,0.46-2.13,2.12-2.14
			C23.89,50.44,29.77,50.44,35.66,50.43 M18.9,79.64h33.49V53.46H18.9V79.64z"/>
	</g>
</g>
</svg>
