<?xml version="1.0" encoding="utf-8"?>
<!-- Generator: Adobe Illustrator 26.3.1, SVG Export Plug-In . SVG Version: 6.00 Build 0)  -->
<svg version="1.1" id="Capa_1" xmlns="http://www.w3.org/2000/svg" xmlns:xlink="http://www.w3.org/1999/xlink" x="0px" y="0px"
	 viewBox="0 0 71.56 101.94" style="enable-background:new 0 0 71.56 101.94;" xml:space="preserve">
<style type="text/css">
	.st0{clip-path:url(#SVGID_00000158719154524746856340000006362104379121856647_);}
	.st1{fill:#0063B9;}
	.st2{clip-path:url(#SVGID_00000028306586043336631740000011570618516268312197_);}
	.st3{clip-path:url(#SVGID_00000034789249879605282050000016426613919224941474_);}
	.st4{clip-path:url(#SVGID_00000119810123972802517270000016605046131881343110_);}
	.st5{clip-path:url(#SVGID_00000171699628408123122060000001986335072794973115_);}
	.st6{fill:none;stroke:#0063B9;stroke-width:2;}
	.st7{fill:none;stroke:#0063B9;}
	.st8{fill:none;stroke:#0A4CAC;stroke-width:1.5;stroke-linecap:round;stroke-linejoin:round;}
	.st9{clip-path:url(#SVGID_00000097467572897328860730000006886325145987755653_);}
	.st10{fill:#0A4CAC;}
	.st11{clip-path:url(#SVGID_00000168078216409690823750000017132870977151349399_);}
	.st12{fill:#0D61BB;}
	.st13{clip-path:url(#SVGID_00000119097253301025163520000013224380571629160614_);}
	.st14{fill:#0E61BB;}
</style>
<g>
	<defs>
		<rect id="SVGID_00000100372874335646247290000008512853125237664394_" x="2.84" y="2.25" width="66.57" height="97.88"/>
	</defs>
	<clipPath id="SVGID_00000054238711771568934990000013240164624205741468_">
		<use xlink:href="#SVGID_00000100372874335646247290000008512853125237664394_"  style="overflow:visible;"/>
	</clipPath>
	<g id="Grupo_7402" style="clip-path:url(#SVGID_00000054238711771568934990000013240164624205741468_);">
		<path id="Trazado_4893" class="st14" d="M36.57,43.55H20.36c-1.22,0-2.21-0.99-2.21-2.21l0,0V26.37c0-1.22,0.99-2.21,2.21-2.21
			h16.21c1.22,0,2.21,0.99,2.21,2.21v14.97C38.78,42.56,37.79,43.55,36.57,43.55L36.57,43.55 M35.82,27.03H21.11v13.56h14.71V27.03z
			"/>
		<path id="Trazado_4894" class="st14" d="M36.57,69.34H20.36c-1.22,0-2.21-0.99-2.21-2.21V51.49c0-1.22,0.99-2.21,2.21-2.21h0
			h16.21c1.22,0,2.21,0.99,2.21,2.21l0,0v15.64C38.78,68.35,37.79,69.34,36.57,69.34 M35.82,52.63H21.11v13.75h14.71V52.63z"/>
		<path id="Trazado_4895" class="st14" d="M36.57,93.31H20.36c-1.22,0-2.21-0.99-2.21-2.21V75.75c0-1.22,0.99-2.21,2.21-2.21h16.21
			c1.22,0,2.21,0.99,2.21,2.21V91.1C38.78,92.32,37.79,93.31,36.57,93.31 M35.82,76.69H21.11v13.56h14.71V76.69z"/>
		<path id="Trazado_4896" class="st14" d="M61.13,32.57H43.37c-0.79,0.02-1.45-0.6-1.47-1.39c-0.02-0.79,0.6-1.45,1.39-1.47
			c0.03,0,0.05,0,0.08,0h17.76c0.79-0.02,1.45,0.6,1.47,1.39c0.02,0.79-0.6,1.45-1.39,1.47C61.18,32.57,61.16,32.57,61.13,32.57"/>
		<path id="Trazado_4897" class="st14" d="M49.86,37.92h-6.49c-0.79,0.02-1.45-0.6-1.47-1.39c-0.02-0.79,0.6-1.45,1.39-1.47
			c0.03,0,0.05,0,0.08,0h6.49c0.79,0.02,1.42,0.68,1.39,1.47C51.24,37.28,50.62,37.9,49.86,37.92"/>
		<path id="Trazado_4898" class="st14" d="M61.13,58.17H43.37c-0.79,0.02-1.45-0.6-1.47-1.39c-0.02-0.79,0.6-1.45,1.39-1.47
			c0.03,0,0.05,0,0.08,0h17.76c0.79-0.02,1.45,0.6,1.47,1.39c0.02,0.79-0.6,1.45-1.39,1.47C61.18,58.17,61.16,58.17,61.13,58.17"/>
		<path id="Trazado_4899" class="st14" d="M49.86,63.51h-6.49c-0.79,0.02-1.45-0.6-1.47-1.39c-0.02-0.79,0.6-1.45,1.39-1.47
			c0.03,0,0.05,0,0.08,0h6.49c0.79,0.02,1.42,0.68,1.39,1.47C51.23,62.88,50.62,63.49,49.86,63.51"/>
		<path id="Trazado_4900" class="st14" d="M61.13,82.23H43.37c-0.79-0.02-1.42-0.68-1.39-1.47c0.02-0.76,0.63-1.37,1.39-1.39h17.76
			c0.79-0.02,1.45,0.6,1.47,1.39c0.02,0.79-0.6,1.45-1.39,1.47C61.18,82.23,61.16,82.23,61.13,82.23"/>
		<path id="Trazado_4901" class="st14" d="M49.86,87.58h-6.49c-0.79,0.02-1.45-0.6-1.47-1.39c-0.02-0.79,0.6-1.45,1.39-1.47
			c0.03,0,0.05,0,0.08,0h6.49c0.79,0.02,1.42,0.68,1.39,1.47C51.23,86.95,50.62,87.56,49.86,87.58"/>
		<path id="Trazado_4902" class="st14" d="M5.83,6.21v73.92c0,1.91,1.15,2.1,1.15,2.1h4.39V21.87c0-2.48,0.76-3.63,2.67-4.39
			S52.63,5.06,52.63,5.06H22.45c-0.76,0-1.72-0.38-1.72-1.34s1.13-1.43,1.13-1.43s32.11-0.1,35.27,0c3.16,0.1,3.9,3.72,3.9,3.72
			v11.27h4.77c3.25,0,3.58,4.08,3.58,4.08s0.05,61.24,0,62.24s-0.52,1.87-1.67,1.87s-1.34-1.34-1.34-1.34V22.25
			c0-2.29-1.34-2.1-1.34-2.1H15.96c-1.91,0-1.91,1.34-1.91,1.34v73.73c0,1.91,1.34,2.1,1.34,2.1h49.85c1.15,0,1.15-1.34,1.15-1.34
			v-5.16c-0.04-0.81,0.58-1.49,1.39-1.53c0.05,0,0.09,0,0.14,0c0.71-0.07,1.35,0.44,1.43,1.14c0,0,0.1,2.87,0,5.92
			s-3.6,3.73-3.6,3.73s-46.54,0.1-50.34,0c-2.1,0.05-3.91-1.46-4.23-3.53l0.09-11.46H6.79c-3.44,0-3.82-3.82-3.82-3.82
			S2.78,10.03,2.87,6.3c-0.09-2.02,1.4-3.77,3.41-4.01h9.79c0.57,0.26,0.96,0.81,1.03,1.43c0,0.95-1.1,1.34-1.1,1.34H6.79
			C5.83,5.06,5.83,6.21,5.83,6.21 M58.17,17.3V6.59L24.74,17.1L58.17,17.3z"/>
	</g>
</g>
</svg>
