<?xml version="1.0" encoding="utf-8"?>
<!-- Generator: Adobe Illustrator 26.3.1, SVG Export Plug-In . SVG Version: 6.00 Build 0)  -->
<svg version="1.1" id="Capa_1" xmlns="http://www.w3.org/2000/svg" xmlns:xlink="http://www.w3.org/1999/xlink" x="0px" y="0px"
	 viewBox="0 0 27.24 27.69" style="enable-background:new 0 0 27.24 27.69;" xml:space="preserve">
<style type="text/css">
	.st0{clip-path:url(#SVGID_00000113317167165215197090000011436370390398511522_);}
	.st1{fill:#0063B9;}
	.st2{clip-path:url(#SVGID_00000027593633175904505540000003028618916968022673_);}
	.st3{clip-path:url(#SVGID_00000058573497119195860380000013620823003785867392_);}
	.st4{clip-path:url(#SVGID_00000019636158288529648310000010405994265781252497_);}
	.st5{clip-path:url(#SVGID_00000134967967331428904560000007881418366990118318_);}
	.st6{fill:none;stroke:#0063B9;stroke-width:2;}
	.st7{fill:none;stroke:#0063B9;}
	.st8{fill:none;stroke:#0A4CAC;stroke-width:1.5;stroke-linecap:round;stroke-linejoin:round;}
	.st9{clip-path:url(#SVGID_00000093176529433816120230000007781654730848130984_);}
	.st10{fill:#0A4CAC;}
	.st11{clip-path:url(#SVGID_00000049923760828968524910000003100987357981855123_);}
	.st12{fill:#0D61BB;}
	.st13{clip-path:url(#SVGID_00000154427727283620672400000003334056943455038127_);}
	.st14{fill:#0E61BB;}
	.st15{fill:none;stroke:#FFFFFF;stroke-width:1.5;stroke-linecap:round;stroke-linejoin:round;}
</style>
<path id="Icon_feather-phone-call" class="st15" d="M15.93,6.27c2.25,0.44,4.02,2.2,4.46,4.46 M15.93,1.76
	c4.72,0.52,8.44,4.25,8.97,8.96 M23.77,19.73v3.39c0.01,1.25-1,2.26-2.25,2.27c-0.07,0-0.14,0-0.21-0.01
	c-3.47-0.38-6.81-1.56-9.74-3.47c-2.73-1.73-5.04-4.04-6.77-6.77c-1.91-2.94-3.09-6.3-3.46-9.79C1.22,4.11,2.14,3.01,3.38,2.9
	c0.07-0.01,0.13-0.01,0.2-0.01h3.39c1.13-0.01,2.1,0.82,2.26,1.94C9.37,5.91,9.63,6.98,10.02,8c0.31,0.83,0.11,1.76-0.51,2.38
	l-1.43,1.43c1.61,2.83,3.95,5.17,6.77,6.77l1.43-1.43c0.63-0.62,1.56-0.82,2.38-0.51c1.02,0.38,2.09,0.65,3.17,0.79
	C22.97,17.6,23.8,18.58,23.77,19.73L23.77,19.73z"/>
</svg>
