<?xml version="1.0" encoding="utf-8"?>
<!-- Generator: Adobe Illustrator 26.3.1, SVG Export Plug-In . SVG Version: 6.00 Build 0)  -->
<svg version="1.1" id="Capa_1" xmlns="http://www.w3.org/2000/svg" xmlns:xlink="http://www.w3.org/1999/xlink" x="0px" y="0px"
	 viewBox="0 0 34.1 34.66" style="enable-background:new 0 0 34.1 34.66;" xml:space="preserve">
<style type="text/css">
	.st0{clip-path:url(#SVGID_00000022527146116604738600000008644120906526580889_);}
	.st1{fill:#0063B9;}
	.st2{clip-path:url(#SVGID_00000134940976982486933970000017273648381632401282_);}
	.st3{clip-path:url(#SVGID_00000110464462133926873520000010961719217879377287_);}
	.st4{clip-path:url(#SVGID_00000136398453589075843290000008217016659207783848_);}
	.st5{clip-path:url(#SVGID_00000116936975561636137540000016606086244769674886_);}
	.st6{fill:none;stroke:#0063B9;stroke-width:2;}
	.st7{fill:none;stroke:#0063B9;}
	.st8{fill:none;stroke:#0A4CAC;stroke-width:1.5;stroke-linecap:round;stroke-linejoin:round;}
	.st9{clip-path:url(#SVGID_00000011018873605808858770000000307188138505633202_);}
	.st10{fill:#0A4CAC;}
	.st11{clip-path:url(#SVGID_00000116222186689747130780000004695309978740122293_);}
	.st12{fill:#0D61BB;}
	.st13{clip-path:url(#SVGID_00000081625452579574317110000009388899456601774743_);}
	.st14{fill:#0E61BB;}
	.st15{fill:none;stroke:#FFFFFF;stroke-width:1.5;stroke-linecap:round;stroke-linejoin:round;}
	.st16{fill:#FFFFFF;}
</style>
<path id="Icon_metro-calendar" class="st16" d="M11.89,13.2h4.12v4.12h-4.12V13.2z M18.08,13.2h4.13v4.12h-4.13L18.08,13.2z
	 M24.27,13.2h4.12v4.12h-4.12L24.27,13.2z M5.71,25.58h4.13v4.12H5.71V25.58z M11.9,25.58h4.12v4.12h-4.13L11.9,25.58z M18.08,25.58
	h4.13v4.12h-4.13L18.08,25.58z M11.89,19.39h4.12v4.12h-4.12V19.39z M18.08,19.39h4.13v4.12h-4.13L18.08,19.39z M24.27,19.39h4.12
	v4.12h-4.12L24.27,19.39z M5.71,19.39h4.13v4.12H5.71V19.39z M28.39,0.83v2.06h-4.12V0.83H9.83v2.06H5.71V0.83H1.58v33h30.94v-33
	C32.52,0.83,28.39,0.83,28.39,0.83z M30.45,31.77H3.64V9.08h26.81L30.45,31.77z"/>
</svg>
