<?xml version="1.0" encoding="utf-8"?>
<!-- Generator: Adobe Illustrator 26.3.1, SVG Export Plug-In . SVG Version: 6.00 Build 0)  -->
<svg version="1.1" id="Capa_1" xmlns="http://www.w3.org/2000/svg" xmlns:xlink="http://www.w3.org/1999/xlink" x="0px" y="0px"
	 viewBox="0 0 40.84 41.87" style="enable-background:new 0 0 40.84 41.87;" xml:space="preserve">
<style type="text/css">
	.st0{clip-path:url(#SVGID_00000038407359900112033010000011474221267262153112_);}
	.st1{fill:#0063B9;}
	.st2{clip-path:url(#SVGID_00000133497778487092374990000009427522344620685458_);}
	.st3{clip-path:url(#SVGID_00000086684719451081246240000008818323397776331668_);}
	.st4{clip-path:url(#SVGID_00000109710592108575320020000000175497357301422995_);}
	.st5{clip-path:url(#SVGID_00000005237941316553139710000013958361837620851590_);}
	.st6{fill:none;stroke:#0063B9;stroke-width:2;}
	.st7{fill:none;stroke:#0063B9;}
	.st8{fill:none;stroke:#0A4CAC;stroke-width:1.5;stroke-linecap:round;stroke-linejoin:round;}
	.st9{clip-path:url(#SVGID_00000094587150992266267320000003273255497500839601_);}
	.st10{fill:#0A4CAC;}
	.st11{clip-path:url(#SVGID_00000077293407679873511340000000534399590943769732_);}
	.st12{fill:#0D61BB;}
	.st13{clip-path:url(#SVGID_00000094615292719970280460000013218874244158078609_);}
	.st14{fill:#0E61BB;}
	.st15{fill:none;stroke:#FFFFFF;stroke-width:1.5;stroke-linecap:round;stroke-linejoin:round;}
	.st16{fill:#FFFFFF;}
</style>
<path id="Icon_awesome-instagram" class="st16" d="M20.48,11.19c-5.53,0-10.02,4.49-10.01,10.02s4.49,10.02,10.02,10.01
	c5.53,0,10.01-4.48,10.01-10.02c0.01-5.52-4.46-10.01-9.98-10.02C20.5,11.19,20.49,11.19,20.48,11.19z M20.48,27.72
	c-3.6,0-6.51-2.92-6.51-6.51c0-3.6,2.92-6.51,6.51-6.51c3.6,0,6.51,2.92,6.51,6.51C26.99,24.8,24.08,27.71,20.48,27.72z
	 M33.24,10.78c0,1.29-1.05,2.34-2.34,2.34c-1.29,0-2.34-1.05-2.34-2.34c0-1.29,1.05-2.34,2.34-2.34c1.29,0,2.33,1.04,2.34,2.33
	C33.24,10.77,33.24,10.78,33.24,10.78z M39.88,13.15c-0.15-3.13-0.86-5.9-3.16-8.19s-5.06-3-8.19-3.16
	c-3.23-0.18-12.89-0.18-16.12,0C9.3,1.96,6.52,2.67,4.23,4.96s-3,5.06-3.16,8.19c-0.18,3.22-0.18,12.89,0,16.12
	c0.15,3.13,0.86,5.9,3.16,8.19s5.06,3,8.19,3.16c3.23,0.18,12.89,0.18,16.12,0c3.13-0.15,5.9-0.86,8.19-3.16s3-5.06,3.16-8.19
	C40.06,26.04,40.06,16.38,39.88,13.15z M35.71,32.72c-0.67,1.7-2.02,3.04-3.71,3.71c-2.57,1.02-8.67,0.78-11.52,0.78
	s-8.95,0.23-11.52-0.78c-1.7-0.67-3.04-2.02-3.71-3.71c-1.02-2.57-0.79-8.67-0.79-11.52S4.24,12.25,5.25,9.69
	c0.67-1.7,2.02-3.04,3.71-3.71c2.57-1.02,8.67-0.78,11.52-0.78S29.43,4.97,32,5.98c1.7,0.67,3.04,2.02,3.71,3.71
	c1.02,2.57,0.78,8.67,0.78,11.52S36.73,30.16,35.71,32.72z"/>
</svg>
