<?xml version="1.0" encoding="utf-8"?>
<!-- Generator: Adobe Illustrator 26.3.1, SVG Export Plug-In . SVG Version: 6.00 Build 0)  -->
<svg version="1.1" id="Capa_1" xmlns="http://www.w3.org/2000/svg" xmlns:xlink="http://www.w3.org/1999/xlink" x="0px" y="0px"
	 viewBox="0 0 40.84 41.87" style="enable-background:new 0 0 40.84 41.87;" xml:space="preserve">
<style type="text/css">
	.st0{clip-path:url(#SVGID_00000122718434644217802110000006939570807547624848_);}
	.st1{fill:#0063B9;}
	.st2{clip-path:url(#SVGID_00000119811569971645428280000002047420955223291786_);}
	.st3{clip-path:url(#SVGID_00000183226978240209947640000015958661302225082004_);}
	.st4{clip-path:url(#SVGID_00000083771533867028197240000010272044604868383654_);}
	.st5{clip-path:url(#SVGID_00000173154269484069746940000000188833604045809802_);}
	.st6{fill:none;stroke:#0063B9;stroke-width:2;}
	.st7{fill:none;stroke:#0063B9;}
	.st8{fill:none;stroke:#0A4CAC;stroke-width:1.5;stroke-linecap:round;stroke-linejoin:round;}
	.st9{clip-path:url(#SVGID_00000155846300311184988090000008772382110176104358_);}
	.st10{fill:#0A4CAC;}
	.st11{clip-path:url(#SVGID_00000124858533592578317650000000980979370264917146_);}
	.st12{fill:#0D61BB;}
	.st13{clip-path:url(#SVGID_00000041985908123438638550000011863718394206216619_);}
	.st14{fill:#0E61BB;}
	.st15{fill:none;stroke:#FFFFFF;stroke-width:1.5;stroke-linecap:round;stroke-linejoin:round;}
	.st16{fill:#FFFFFF;}
</style>
<path id="Icon_awesome-linkedin-in" class="st16" d="M9.83,40.16H1.85V14.49h7.97V40.16z M5.83,10.99C3.27,11,1.19,8.93,1.17,6.37
	s2.06-4.65,4.62-4.66c2.56-0.01,4.65,2.06,4.66,4.62C10.46,8.88,8.39,10.96,5.83,10.99z M39.66,40.16h-7.96v-12.5
	c0-2.98-0.06-6.8-4.15-6.8c-4.15,0-4.78,3.24-4.78,6.58v12.72h-7.97V14.49h7.65v3.5h0.11c1.56-2.66,4.46-4.26,7.54-4.14
	c8.07,0,9.55,5.31,9.55,12.22L39.66,40.16L39.66,40.16z"/>
</svg>
