<?xml version="1.0" encoding="utf-8"?>
<!-- Generator: Adobe Illustrator 26.3.1, SVG Export Plug-In . SVG Version: 6.00 Build 0)  -->
<svg version="1.1" id="Capa_1" xmlns="http://www.w3.org/2000/svg" xmlns:xlink="http://www.w3.org/1999/xlink" x="0px" y="0px"
	 viewBox="0 0 33.46 33.89" style="enable-background:new 0 0 33.46 33.89;" xml:space="preserve">
<style type="text/css">
	.st0{clip-path:url(#SVGID_00000141441701845771046550000003350279594647336069_);}
	.st1{fill:#0063B9;}
	.st2{clip-path:url(#SVGID_00000104686268454919208770000015275666281704445569_);}
	.st3{clip-path:url(#SVGID_00000032620391721195589410000015299534283277604538_);}
	.st4{clip-path:url(#SVGID_00000138542683923235776500000003633311972032248449_);}
	.st5{clip-path:url(#SVGID_00000005268420858099052700000001072718208536426156_);}
	.st6{fill:none;stroke:#0063B9;stroke-width:2;}
	.st7{fill:none;stroke:#0063B9;}
	.st8{fill:none;stroke:#0A4CAC;stroke-width:1.5;stroke-linecap:round;stroke-linejoin:round;}
	.st9{clip-path:url(#SVGID_00000144333916391587702360000010948857664146162874_);}
	.st10{fill:#0A4CAC;}
	.st11{clip-path:url(#SVGID_00000067215296660782507640000004427347522964667797_);}
	.st12{fill:#0D61BB;}
	.st13{clip-path:url(#SVGID_00000093886294900204384160000000779668212953094078_);}
	.st14{fill:#0E61BB;}
	.st15{fill:none;stroke:#FFFFFF;stroke-width:1.5;stroke-linecap:round;stroke-linejoin:round;}
	.st16{fill:#FFFFFF;}
	.st17{fill:none;stroke:#0063B9;stroke-width:6;}
	.st18{clip-path:url(#SVGID_00000011027842631905719110000015866950684640160947_);}
	.st19{clip-path:url(#SVGID_00000137114910981054505900000007346893618972611992_);}
	.st20{clip-path:url(#SVGID_00000178894162395478020370000001411982977123557257_);}
</style>
<g>
	<path class="st1" d="M11.06,17.2l-0.22-0.24c-0.01-0.01-1.36-1.51-2.69-3.48c-1.8-2.67-2.71-4.89-2.71-6.61V6.86
		c0-1.5,0.59-2.91,1.65-3.97c1.06-1.06,2.47-1.64,3.97-1.64c0,0,0,0,0,0v0h0.01c1.5,0,2.91,0.59,3.97,1.65
		c1.06,1.06,1.64,2.47,1.64,3.97c0,1.72-0.91,3.94-2.71,6.61c-1.33,1.97-2.67,3.46-2.69,3.48L11.06,17.2z M11.06,1.84
		c-1.34,0-2.6,0.52-3.55,1.47C6.55,4.26,6.03,5.52,6.03,6.86v0.01c0,3.38,4.04,8.29,5.03,9.45c0.99-1.15,5.03-6.06,5.03-9.45
		c0-1.34-0.52-2.61-1.47-3.56c-0.95-0.95-2.21-1.47-3.56-1.48H11.06L11.06,1.84C11.06,1.84,11.06,1.84,11.06,1.84z M11.06,9.06
		L11.06,9.06c-0.59,0-1.14-0.23-1.55-0.64C9.1,8.01,8.87,7.46,8.87,6.87S9.1,5.73,9.51,5.32c0.41-0.41,0.97-0.64,1.55-0.64
		c0,0,0,0,0,0c1.21,0,2.19,0.98,2.19,2.19C13.26,8.08,12.27,9.06,11.06,9.06z M11.06,5.26c-0.89,0-1.61,0.72-1.61,1.61
		s0.72,1.61,1.61,1.61c0.89,0,1.61-0.72,1.61-1.61C12.67,5.98,11.95,5.26,11.06,5.26C11.06,5.26,11.06,5.26,11.06,5.26z"/>
	<path class="st1" d="M8.36,14.7l-0.8,0.01l4.42,12.41l6.13,0.22l-0.04-0.18l0.64-0.22l0.03,0.24l4.77-3.96l-4.39-12.4l-4.62,3.65
		l0.12,0.39l-0.62,0.24l-0.1-0.4l-0.74-0.01l0.39-0.67h0.62l5.02-4.11h7.39l4.68,14.03l-7.24-0.31l-5.29,4.39l-6.89-0.3l-5.58,4.71
		L1.53,18.39l5.42-4.33h1.04L8.36,14.7z M6.87,14.96l-4.54,3.62l4.23,12.61l4.75-3.9L6.87,14.96z M24.15,23.07l6.13,0.16
		l-4.25-12.63h-6.25L24.15,23.07z"/>
	<polygon class="st1" points="14.7,17.25 15.35,17.02 15.77,18.22 15.12,18.45 	"/>
	<polygon class="st1" points="14.07,15.54 14.72,15.3 15.15,16.51 14.49,16.74 	"/>
	<polygon class="st1" points="15.31,18.95 15.96,18.71 16.38,19.92 15.73,20.14 	"/>
	<polygon class="st1" points="15.97,20.63 16.61,20.39 17.04,21.6 16.39,21.83 	"/>
	<polygon class="st1" points="16.5,22.32 17.15,22.08 17.58,23.29 16.92,23.52 	"/>
	<polygon class="st1" points="17.11,23.99 17.76,23.75 18.18,24.96 17.53,25.18 	"/>
	<polygon class="st1" points="17.75,25.62 18.31,25.41 18.67,26.46 18.11,26.65 	"/>
</g>
</svg>
