<?xml version="1.0" encoding="utf-8"?>
<!-- Generator: Adobe Illustrator 26.3.1, SVG Export Plug-In . SVG Version: 6.00 Build 0)  -->
<svg version="1.1" id="Capa_1" xmlns="http://www.w3.org/2000/svg" xmlns:xlink="http://www.w3.org/1999/xlink" x="0px" y="0px"
	 viewBox="0 0 31.32 32.15" style="enable-background:new 0 0 31.32 32.15;" xml:space="preserve">
<style type="text/css">
	.st0{clip-path:url(#SVGID_00000140729592639964211710000015843146363035606187_);}
	.st1{fill:#0063B9;}
	.st2{clip-path:url(#SVGID_00000034060823064707981480000001485466250033341060_);}
	.st3{clip-path:url(#SVGID_00000091729491225797670600000005230180750495126460_);}
	.st4{clip-path:url(#SVGID_00000021841369373935619970000011305624885228404374_);}
	.st5{clip-path:url(#SVGID_00000122713084356953199170000013645744311598361267_);}
	.st6{fill:none;stroke:#0063B9;stroke-width:2;}
	.st7{fill:none;stroke:#0063B9;}
	.st8{fill:none;stroke:#0A4CAC;stroke-width:1.5;stroke-linecap:round;stroke-linejoin:round;}
	.st9{clip-path:url(#SVGID_00000010306741691203081020000009189394352399733398_);}
	.st10{fill:#0A4CAC;}
	.st11{clip-path:url(#SVGID_00000138547657357598372190000000792924902111421321_);}
	.st12{fill:#0D61BB;}
	.st13{clip-path:url(#SVGID_00000174601868697365060270000007866030978254249398_);}
	.st14{fill:#0E61BB;}
	.st15{fill:none;stroke:#FFFFFF;stroke-width:1.5;stroke-linecap:round;stroke-linejoin:round;}
	.st16{fill:#FFFFFF;}
	.st17{fill:none;stroke:#0063B9;stroke-width:6;}
	.st18{clip-path:url(#SVGID_00000040539192123357933040000008629420711188970898_);}
	.st19{clip-path:url(#SVGID_00000043441283936643955190000016254376457250137484_);}
	.st20{clip-path:url(#SVGID_00000160876305363156369810000007859968498787776182_);}
</style>
<g>
	<g id="Grupo_7381_00000123402025838356252310000003151551485469822874_" transform="translate(0 0)">
		<g>
			<defs>
				<rect id="SVGID_00000156585726761596319230000006694689996707894932_" x="1.37" y="1.31" width="28.87" height="28.87"/>
			</defs>
			<clipPath id="SVGID_00000031203778976439824590000015882463587698575746_">
				<use xlink:href="#SVGID_00000156585726761596319230000006694689996707894932_"  style="overflow:visible;"/>
			</clipPath>
			
				<g id="Grupo_7380_00000052817818114122924380000014927969786091429272_" style="clip-path:url(#SVGID_00000031203778976439824590000015882463587698575746_);">
				<path id="Trazado_4830_00000178165512975935384060000015544145181369012105_" class="st1" d="M15.8,1.31
					c-7.97,0-14.44,6.47-14.44,14.44c0,2.7,0.76,5.34,2.18,7.63c-0.57,2-1.6,5.78-1.61,5.82c-0.05,0.19,0,0.4,0.15,0.54
					c0.15,0.14,0.36,0.19,0.55,0.13l5.72-1.76c6.83,4.11,15.7,1.9,19.81-4.93s1.9-15.7-4.93-19.81C21,2.02,18.42,1.31,15.8,1.31
					 M15.8,29.06c-2.5,0-4.95-0.7-7.07-2.03c-0.09-0.05-0.19-0.08-0.29-0.08c-0.05,0-0.11,0.01-0.16,0.02l-5,1.54
					c0.37-1.34,1.02-3.74,1.41-5.07c0.04-0.16,0.02-0.32-0.07-0.46c-4-6.17-2.25-14.43,3.93-18.43s14.43-2.25,18.43,3.93
					s2.25,14.43-3.93,18.43C20.89,28.32,18.38,29.06,15.8,29.06"/>
			</g>
		</g>
	</g>
	<g>
		<path class="st1" d="M18.15,8.1c0,1.3-1.05,2.35-2.35,2.35c-1.3,0-2.35-1.05-2.35-2.35s1.05-2.35,2.35-2.35
			C17.1,5.75,18.15,6.8,18.15,8.1z M15.8,6.57c-0.84,0-1.53,0.68-1.53,1.53c0,0.84,0.68,1.53,1.53,1.53c0.84,0,1.53-0.68,1.53-1.53
			C17.33,7.26,16.65,6.57,15.8,6.57z"/>
		<path class="st1" d="M13.04,11.29h3.58c0,0,1.72-0.07,1.72,1.82s0.01,9.08,0.01,9.08h2.01c0,0,1.36,0.32,1.36,1.62
			c0,1.42-0.95,1.9-1.58,1.92c-0.63,0.01-7.29,0-7.29,0s-1.59-0.05-1.59-1.74s1.84-1.69,1.84-1.69l1.69-0.03l-0.03-7.44l-1.94-0.01
			c0,0-1.57-0.09-1.55-1.72S12.53,11.29,13.04,11.29z M15.57,14.35v8.49c0,0-0.01,0.51-0.57,0.52s-2.09,0-2.09,0s-0.8-0.1-0.81,0.54
			c-0.01,0.68,0.17,0.9,0.73,0.9s7.19,0,7.19,0s0.89,0.03,0.89-0.69c0-0.74-0.4-0.68-0.68-0.68s-2.53-0.01-2.53-0.01
			s-0.21,0.03-0.2-0.87c0.01-0.9,0-9.66,0-9.66s0.11-0.78-0.91-0.78c-0.61,0-3.93,0-3.93,0s-0.53,0.24-0.54,0.87
			c-0.01,0.63,0.42,0.91,0.76,0.91c0.33,0,2.25-0.01,2.25-0.01S15.57,13.88,15.57,14.35z"/>
	</g>
</g>
</svg>
