<svg xmlns="http://www.w3.org/2000/svg" style="display: none;"><symbol id="archivo" viewBox="0 0 56 58"><title>archivo</title><path id="Shape" d="m44 14v-10c0-2.209139-1.790861-4-4-4h-35l-5 23v31c0 2.209139 1.790861 4 4 4h36c2.209139 0 4-1.790861 4-4z" fill="#f0c419"/><path id="Shape" d="m5 0 7.341 6.007c.910431.74520829 1.4466149 1.85344064 1.4658808 3.02981165.0192658 1.17637105-.4803406 2.30156685-1.3658808 3.07618835l-12.441 10.887z" fill="#f3d55b"/><path id="Shape" d="m4 28c-.55228475 0-1-.4477153-1-1v-2c0-.5522847.44771525-1 1-1s1 .4477153 1 1v2c0 .5522847-.44771525 1-1 1z" fill="#f3d55b"/><path id="Shape" d="m4 50c-.55228475 0-1-.4477153-1-1v-18c0-.5522847.44771525-1 1-1s1 .4477153 1 1v18c0 .5522847-.44771525 1-1 1z" fill="#f3d55b"/><g fill="#e57e25"><path id="Shape" d="m20 8h-2c-.5522847 0-1-.44771525-1-1s.4477153-1 1-1h2c.5522847 0 1 .44771525 1 1s-.4477153 1-1 1z"/><path id="Shape" d="m38 8h-14c-.5522847 0-1-.44771525-1-1s.4477153-1 1-1h14c.5522847 0 1 .44771525 1 1s-.4477153 1-1 1z"/><path id="Shape" d="m21 14h-4c-.5522847 0-1-.4477153-1-1s.4477153-1 1-1h4c.5522847 0 1 .4477153 1 1s-.4477153 1-1 1z"/><path id="Shape" d="m38 14h-13c-.5522847 0-1-.4477153-1-1s.4477153-1 1-1h13c.5522847 0 1 .4477153 1 1s-.4477153 1-1 1z"/></g><path id="Rectangle-path" d="m40.348 42.027h6v6.641h-6z" fill="#7f8c8d" transform="matrix(.707 -.707 .707 .707 -19.37 43.933)"/><path id="Shape" d="m48.8181748 45.3178932h2c1.6568543 0 3 1.3431458 3 3v9c0 .5522848-.4477152 1-1 1h-6c-.5522847 0-1-.4477152-1-1v-9c0-1.6568542 1.3431458-3 3-3z" fill="#ff5364" transform="matrix(-.707 .707 -.707 -.707 121.686 53.232)"/><circle id="Oval" cx="31.08" cy="33.08" fill="#95a5a5" r="15"/><circle id="Oval" cx="31.08" cy="33.08" fill="#7f8c8d" r="13.08"/><path id="Shape" d="m38.91 40.91c-3.1012816 3.0961157-7.7356578 4.0741477-11.8235526 2.4952253-4.0878948-1.5789223-6.8615891-5.4182725-7.0764474-9.7952253v-.01c-.1998258-4.3810786 2.2016218-8.4681981 6.1259807-10.4260508s8.6339785-1.4184266 12.0140193 1.3760508v.01c.2675563.2138301.5213913.4442855.76.69 2.0791706 2.0753038 3.2475621 4.8923417 3.2475621 7.83s-1.1683915 5.7546962-3.2475621 7.83z" fill="#2fa8cc"/><path id="Shape" d="m38.15 24.55v.01c.1998258 4.3810786-2.2016218 8.4681981-6.1259807 10.4260508s-8.6339785 1.4184266-12.0140193-1.3760508v-.01c-.1998258-4.3810786 2.2016218-8.4681981 6.1259807-10.4260508s8.6339785-1.4184266 12.0140193 1.3760508z" fill="#67b9cc"/></symbol><symbol id="marca" viewBox="0 -11 512.00045 512"><title>marca</title><path d="m132.472656 388.777344h99.167969v-42.0625c-36.957031-4.300782-70.277344-25.953125-89.0625-58.6875-.769531-1.332032-.769531-2.992188 0-4.328125 18.785156-32.730469 52.105469-54.386719 89.0625-58.6875v-103.875c0-2.792969-2.28125-5.078125-5.074219-5.078125h-221.492187c-2.789063 0-5.074219 2.285156-5.074219 5.078125v363.96875c0 2.792969 2.285156 5.078125 5.074219 5.078125h221.492187c2.789063 0 5.074219-2.285156 5.074219-5.078125v-40.394531h-99.167969c-4.027344 0-7.304687-3.269532-7.304687-7.285157v-41.363281c0-4.019531 3.277343-7.285156 7.304687-7.285156zm0 0" fill="#e6e9ed"/><path d="m142.578125 288.03125c-.769531-1.335938-.769531-2.996094 0-4.332031 13.28125-23.140625 33.828125-40.742188 57.785156-50.597657v-18.535156c0-2.792968-2.28125-5.078125-5.074219-5.078125h-158.9375c-2.789062 0-5.074218 2.285157-5.074218 5.078125v106.078125c0 2.792969 2.285156 5.078125 5.074218 5.078125h140.558594c-13.835937-9.78125-25.640625-22.550781-34.332031-37.691406zm0 0" fill="#fb8276"/><path d="m245.207031 348.519531c-42.601562 0-82.257812-22.988281-103.496093-59.992187-.945313-1.648438-.945313-3.675782 0-5.328125 21.238281-37.003907 60.894531-59.988281 103.496093-59.988281 42.597657 0 82.253907 22.984374 103.496094 59.988281.945313 1.652343.945313 3.679687 0 5.328125-21.242187 37.003906-60.898437 59.992187-103.496094 59.992187zm0 0" fill="#c7fffd"/><path d="m272.503906 291.089844c-20.714844 0-37.503906-16.808594-37.503906-37.546875 0-1.308594.089844-2.597657.222656-3.871094-15.863281 4.378906-27.519531 18.917969-27.519531 36.191406 0 20.738281 16.789063 37.546875 37.503906 37.546875 19.414063 0 35.386719-14.769531 37.3125-33.699218-3.191406.882812-6.542969 1.378906-10.015625 1.378906zm0 0" fill="#046699"/><path d="m245.207031 248.316406c-3.855469 0-7.570312.585938-11.070312 1.664063-.183594 1.519531-.292969 3.058593-.292969 4.625 0 20.738281 16.792969 37.546875 37.503906 37.546875 3.855469 0 7.574219-.582032 11.070313-1.664063.1875-1.515625.296875-3.054687.296875-4.625 0-20.738281-16.796875-37.546875-37.507813-37.546875zm0 0" fill="#fff"/><path d="m395.789062 44.679688c-39 0-70.726562 31.644531-70.726562 70.546874 0 12.433594 3.285156 24.652344 9.5 35.339844 6.035156 10.375 14.683594 19.113282 25.015625 25.269532l3.1875 1.898437v18.234375h66.050781v-18.234375l3.191406-1.898437c10.328126-6.15625 18.976563-14.894532 25.011719-25.269532 6.214844-10.6875 9.5-22.90625 9.5-35.339844 0-38.898437-31.730469-70.546874-70.730469-70.546874zm0 0" fill="#ffc502"/><path d="m396.183594 149.070312h-.789063c-2.632812 0-5.078125-.8125-7.105469-2.199218v49.097656h15v-49.097656c-2.023437 1.386718-4.472656 2.199218-7.105468 2.199218zm0 0" fill="#775436"/><path d="m395.394531 106.160156c-7.492187 0-13.621093 6.140625-13.621093 13.640625v16.632813c0 7.5 6.128906 13.640625 13.621093 13.640625h.789063c7.492187 0 13.625-6.140625 13.625-13.640625v-16.632813c0-7.5-6.132813-13.640625-13.625-13.640625zm0 0" fill="#fff"/><path d="m379.390625 237.878906v19.320313c0 3.097656 2.535156 5.632812 5.628906 5.632812h21.542969c3.097656 0 5.628906-2.535156 5.628906-5.632812v-19.320313zm0 0" fill="#9ea7af"/><path d="m435.664062 234.332031c0 2.503907-2.042968 4.546875-4.539062 4.546875h-70.667969c-2.496093 0-4.539062-2.042968-4.539062-4.546875v-34.816406c0-2.5 2.042969-4.546875 4.539062-4.546875h70.667969c2.496094 0 4.539062 2.046875 4.539062 4.546875zm0 0" fill="#c6a07d"/><path d="m395.789062 27.628906c-4.140624 0-7.5-3.359375-7.5-7.5v-12.628906c0-4.144531 3.359376-7.5 7.5-7.5 4.144532 0 7.5 3.355469 7.5 7.5v12.628906c0 4.140625-3.355468 7.5-7.5 7.5zm0 0" fill="#f7931e"/><path d="m356.261719 36.164062c-2.867188 0-5.601563-1.652343-6.851563-4.4375l-5.15625-11.527343c-1.695312-3.78125 0-8.21875 3.78125-9.910157 3.777344-1.691406 8.21875 0 9.90625 3.78125l5.160156 11.53125c1.691407 3.78125 0 8.214844-3.78125 9.90625-.996093.449219-2.035156.65625-3.058593.65625zm0 0" fill="#ffc502"/><path d="m323.644531 60.03125c-1.777343 0-3.566406-.628906-4.996093-1.910156l-9.425782-8.429688c-3.089844-2.757812-3.351562-7.5-.59375-10.589844 2.761719-3.085937 7.503906-3.351562 10.589844-.589843l9.425781 8.429687c3.089844 2.757813 3.355469 7.5.59375 10.589844-1.480469 1.65625-3.535156 2.5-5.59375 2.5zm0 0" fill="#f7931e"/><path d="m303.625 95.089844c-.757812 0-1.53125-.117188-2.292969-.359375l-12.050781-3.867188c-3.945312-1.265625-6.113281-5.488281-4.851562-9.433593 1.265624-3.945313 5.492187-6.113282 9.433593-4.851563l12.050781 3.867187c3.945313 1.265626 6.117188 5.488282 4.851563 9.433594-1.019531 3.183594-3.96875 5.210938-7.140625 5.210938zm0 0" fill="#ffc502"/><path d="m287.074219 136.609375c-3.78125 0-7.03125-2.847656-7.449219-6.6875-.445312-4.117187 2.527344-7.820313 6.644531-8.269531l12.585938-1.367188c4.121093-.457031 7.816406 2.527344 8.265625 6.648438.449218 4.117187-2.527344 7.816406-6.644532 8.265625l-12.585937 1.367187c-.273437.03125-.546875.042969-.816406.042969zm0 0" fill="#f7931e"/><path d="m301.535156 179.882812c-2.578125 0-5.09375-1.332031-6.484375-3.726562-2.085937-3.578125-.875-8.167969 2.703125-10.253906l10.933594-6.371094c3.578125-2.082031 8.167969-.875 10.253906 2.707031 2.085938 3.578125.875 8.171875-2.703125 10.253907l-10.933593 6.371093c-1.1875.691407-2.484376 1.019531-3.769532 1.019531zm0 0" fill="#ffc502"/><path d="m435.316406 36.164062c-1.023437 0-2.0625-.210937-3.058594-.65625-3.78125-1.691406-5.476562-6.128906-3.78125-9.910156l5.160157-11.527344c1.691406-3.78125 6.132812-5.472656 9.910156-3.78125 3.78125 1.691407 5.472656 6.128907 3.78125 9.910157l-5.160156 11.527343c-1.246094 2.785157-3.984375 4.4375-6.851563 4.4375zm0 0" fill="#ffc502"/><path d="m467.9375 60.03125c-2.058594 0-4.113281-.84375-5.59375-2.5-2.761719-3.089844-2.496094-7.828125.589844-10.589844l9.425781-8.429687c3.089844-2.761719 7.828125-2.496094 10.589844.589843 2.761719 3.089844 2.496093 7.828126-.589844 10.589844l-9.425781 8.429688c-1.429688 1.28125-3.21875 1.910156-4.996094 1.910156zm0 0" fill="#f7931e"/><path d="m487.957031 95.089844c-3.171875 0-6.121093-2.027344-7.140625-5.210938-1.265625-3.945312.90625-8.167968 4.851563-9.433594l12.050781-3.867187c3.945312-1.261719 8.167969.910156 9.433594 4.851563 1.261718 3.945312-.90625 8.167968-4.851563 9.433593l-12.050781 3.867188c-.761719.242187-1.535156.359375-2.292969.359375zm0 0" fill="#ffc502"/><path d="m504.507812 136.609375c-.269531 0-.542968-.011719-.820312-.042969l-12.582031-1.367187c-4.117188-.449219-7.09375-4.148438-6.644531-8.269531.445312-4.117188 4.136718-7.09375 8.265624-6.644532l12.582032 1.367188c4.121094.449218 7.09375 4.148437 6.648437 8.269531-.421875 3.839844-3.671875 6.6875-7.449219 6.6875zm0 0" fill="#f7931e"/><path d="m490.042969 179.882812c-1.28125 0-2.582031-.328124-3.769531-1.019531l-10.929688-6.371093c-3.578125-2.085938-4.789062-6.675782-2.703125-10.253907 2.082031-3.582031 6.675781-4.789062 10.253906-2.707031l10.929688 6.371094c3.578125 2.085937 4.789062 6.675781 2.707031 10.257812-1.394531 2.390625-3.90625 3.722656-6.488281 3.722656zm0 0" fill="#ffc502"/><g fill="#9ea7af"><path d="m154.429688 175.347656h-77.214844c-4.140625 0-7.5-3.359375-7.5-7.5 0-4.144531 3.359375-7.5 7.5-7.5h77.214844c4.140624 0 7.5 3.355469 7.5 7.5 0 4.140625-3.359376 7.5-7.5 7.5zm0 0"/><path d="m189.996094 366.964844h-148.351563c-4.144531 0-7.5-3.355469-7.5-7.5 0-4.140625 3.355469-7.5 7.5-7.5h148.351563c4.144531 0 7.5 3.359375 7.5 7.5 0 4.144531-3.355469 7.5-7.5 7.5zm0 0"/><path d="m124.167969 396.0625c0-3.816406 2.628906-7.046875 6.164062-7.996094h-88.6875c-4.144531 0-7.5 3.359375-7.5 7.5 0 4.144532 3.355469 7.5 7.5 7.5h82.523438zm0 0"/><path d="m124.167969 437.421875v-13.25h-82.523438c-4.144531 0-7.5 3.355469-7.5 7.5 0 4.140625 3.355469 7.5 7.5 7.5h82.714844c-.125-.566406-.191406-1.148437-.191406-1.75zm0 0"/></g><path d="m132.472656 445.707031c-4.566406 0-8.304687-3.726562-8.304687-8.285156v-41.359375c0-4.558594 3.738281-8.285156 8.304687-8.285156h239.195313c4.566406 0 11.585937 1.789062 15.59375 3.972656l38.546875 21.019531c4.007812 2.1875 4.007812 5.761719 0 7.949219l-38.546875 21.015625c-4.007813 2.1875-11.027344 3.976563-15.59375 3.976563h-239.195313zm0 0" fill="#ffc502"/><path d="m124.167969 396.0625v41.359375c0 4.558594 3.738281 8.285156 8.304687 8.285156h39.863282v-57.929687h-39.863282c-4.566406 0-8.304687 3.726562-8.304687 8.285156zm0 0" fill="#ef5050"/><path d="m368.320312 445.707031h3.347657c4.566406 0 11.585937-1.789062 15.59375-3.976562l38.546875-21.015625c4.007812-2.1875 4.007812-5.761719 0-7.949219l-38.546875-21.015625c-4.007813-2.1875-11.027344-3.976562-15.59375-3.976562h-3.347657zm0 0" fill="#ffd5b3"/><path d="m399.898438 434.84375 25.910156-14.128906c4.003906-2.183594 4.003906-5.761719 0-7.945313l-25.910156-14.128906zm0 0" fill="#046699"/><path d="m172.335938 409.242188h195.984374v15h-195.984374zm0 0" fill="#c6a07d"/></symbol><symbol id="crear" viewBox="-36 0 706 706.11505"><title>crear</title><path d="M 394.757812 618.800781 C 393.957031 616.300781 393.359375 613.800781 392.757812 611.199219 C 392.457031 609.800781 392.15625 608.398438 391.859375 607 C 391.359375 604.601562 390.957031 602.101562 390.65625 599.5 C 390.457031 598.101562 390.257812 596.601562 390.15625 595.199219 C 389.859375 592.5 389.757812 589.800781 389.757812 587.101562 C 389.757812 586.101562 389.65625 585.199219 389.65625 584.199219 C 389.65625 583.898438 389.65625 583.601562 389.65625 583.199219 C 389.65625 580.199219 389.859375 577.101562 390.15625 574.101562 C 390.257812 573.199219 390.257812 572.300781 390.359375 571.5 C 391.15625 563.898438 392.65625 556.398438 394.757812 549 C 406.359375 509.800781 436.957031 479.199219 476.15625 467.601562 C 483.558594 465.5 491.058594 464 498.65625 463.199219 C 499.558594 463.101562 500.457031 463.101562 501.359375 463 C 504.359375 462.699219 507.457031 462.601562 510.359375 462.5 C 510.65625 462.5 511.058594 462.5 511.359375 462.5 C 512.359375 462.5 513.257812 462.601562 514.257812 462.601562 C 516.957031 462.699219 519.65625 462.800781 522.359375 463 C 523.757812 463.101562 525.257812 463.300781 526.65625 463.5 C 529.15625 463.800781 531.65625 464.199219 534.15625 464.699219 C 535.558594 465 536.957031 465.199219 538.359375 465.601562 C 540.957031 466.199219 543.457031 466.800781 545.957031 467.601562 C 547.15625 468 548.359375 468.300781 549.457031 468.601562 C 553.15625 469.800781 556.558594 471.101562 560.058594 472.601562 L 560.058594 24.300781 C 560.058594 10.898438 549.15625 0 535.757812 0 L 316.558594 0 L 316.558594 389.5 L 351.859375 477.800781 C 356.859375 490.300781 350.757812 504.398438 338.257812 509.398438 C 335.359375 510.5 332.359375 511.101562 329.257812 511.101562 L 230.757812 511.101562 C 217.359375 511.101562 206.457031 500.199219 206.457031 486.699219 C 206.457031 483.601562 207.058594 480.601562 208.15625 477.699219 L 243.457031 389.398438 L 243.457031 0 L 158.257812 0 L 158.257812 121.699219 C 158.257812 135.101562 147.359375 146 133.957031 146 L 0.0585938 146 L 0.0585938 608.5 C 0.0585938 621.898438 10.957031 632.800781 24.359375 632.800781 L 399.757812 632.800781 C 398.257812 629.398438 396.957031 625.800781 395.757812 622.199219 C 395.359375 621.199219 395.058594 620 394.757812 618.800781 Z M 394.757812 618.800781 " style=" stroke:none;fill-rule:nonzero;fill:rgb(100%,91.372549%,80%);fill-opacity:1;"/><path d="M 158.257812 632.898438 L 535.558594 632.898438 C 548.957031 632.898438 559.859375 622 559.859375 608.601562 L 559.859375 256.699219 C 493.457031 438.800781 344.359375 578.5 158.257812 632.898438 Z M 158.257812 632.898438 " style=" stroke:none;fill-rule:nonzero;fill:rgb(100%,88.627451%,74.117647%);fill-opacity:1;"/><path d="M 559.957031 472.699219 C 556.558594 471.199219 552.957031 469.898438 549.359375 468.699219 C 552.957031 469.898438 556.558594 471.199219 559.957031 472.699219 Z M 559.957031 472.699219 " style=" stroke:none;fill-rule:nonzero;fill:rgb(100%,91.372549%,80%);fill-opacity:1;"/><path d="M 534.058594 464.800781 C 531.65625 464.300781 529.15625 463.898438 526.558594 463.601562 C 529.15625 463.898438 531.558594 464.300781 534.058594 464.800781 Z M 534.058594 464.800781 " style=" stroke:none;fill-rule:nonzero;fill:rgb(100%,91.372549%,80%);fill-opacity:1;"/><path d="M 545.859375 467.699219 C 543.457031 467 540.859375 466.300781 538.257812 465.699219 C 540.859375 466.199219 543.359375 466.898438 545.859375 467.699219 Z M 545.859375 467.699219 " style=" stroke:none;fill-rule:nonzero;fill:rgb(100%,91.372549%,80%);fill-opacity:1;"/><path d="M 390.65625 599.601562 C 390.957031 602.101562 391.359375 604.601562 391.859375 607.101562 C 391.359375 604.601562 390.957031 602.101562 390.65625 599.601562 Z M 390.65625 599.601562 " style=" stroke:none;fill-rule:nonzero;fill:rgb(100%,91.372549%,80%);fill-opacity:1;"/><path d="M 389.65625 587.101562 C 389.757812 589.800781 389.859375 592.601562 390.058594 595.199219 C 389.859375 592.601562 389.757812 589.800781 389.65625 587.101562 Z M 389.65625 587.101562 " style=" stroke:none;fill-rule:nonzero;fill:rgb(100%,91.372549%,80%);fill-opacity:1;"/><path d="M 522.257812 463.101562 C 519.558594 462.898438 516.859375 462.699219 514.15625 462.699219 C 516.859375 462.699219 519.558594 462.898438 522.257812 463.101562 Z M 522.257812 463.101562 " style=" stroke:none;fill-rule:nonzero;fill:rgb(100%,91.372549%,80%);fill-opacity:1;"/><path d="M 394.65625 549 C 392.558594 556.300781 391.058594 563.898438 390.257812 571.5 C 396.257812 514.398438 441.457031 469.199219 498.558594 463.199219 C 490.957031 464 483.359375 465.5 476.058594 467.601562 C 436.859375 479.199219 406.15625 509.898438 394.65625 549 Z M 394.65625 549 " style=" stroke:none;fill-rule:nonzero;fill:rgb(100%,91.372549%,80%);fill-opacity:1;"/><path d="M 399.757812 632.898438 C 398.257812 629.5 396.957031 625.898438 395.757812 622.300781 C 396.957031 625.898438 398.257812 629.5 399.757812 632.898438 Z M 399.757812 632.898438 " style=" stroke:none;fill-rule:nonzero;fill:rgb(100%,91.372549%,80%);fill-opacity:1;"/><path d="M 501.257812 463 C 504.257812 462.699219 507.257812 462.601562 510.257812 462.5 C 507.257812 462.601562 504.257812 462.800781 501.257812 463 Z M 501.257812 463 " style=" stroke:none;fill-rule:nonzero;fill:rgb(100%,91.372549%,80%);fill-opacity:1;"/><path d="M 392.65625 611.199219 C 393.257812 613.800781 393.859375 616.300781 394.65625 618.800781 C 393.957031 616.300781 393.257812 613.800781 392.65625 611.199219 Z M 392.65625 611.199219 " style=" stroke:none;fill-rule:nonzero;fill:rgb(100%,91.372549%,80%);fill-opacity:1;"/><path d="M 389.558594 583.300781 C 389.558594 580.199219 389.757812 577.199219 390.058594 574.199219 C 389.859375 577.199219 389.65625 580.199219 389.558594 583.300781 Z M 389.558594 583.300781 " style=" stroke:none;fill-rule:nonzero;fill:rgb(100%,91.372549%,80%);fill-opacity:1;"/><path d="M 158.257812 121.699219 L 158.257812 0 L 0.0585938 146.101562 L 133.957031 146.101562 C 147.359375 146.101562 158.257812 135.199219 158.257812 121.699219 Z M 158.257812 121.699219 " style=" stroke:none;fill-rule:nonzero;fill:rgb(100%,66.27451%,57.647059%);fill-opacity:1;"/><path d="M 316.558594 389.5 L 316.558594 0 L 243.558594 0 L 243.558594 389.5 Z M 280.058594 36.5 Z M 280.058594 85.199219 Z M 280.058594 133.898438 Z M 280.058594 182.601562 Z M 280.058594 231.300781 Z M 280.058594 279.898438 Z M 280.058594 328.601562 Z M 280.058594 328.601562 " style=" stroke:none;fill-rule:nonzero;fill:rgb(100%,89.803922%,46.666667%);fill-opacity:1;"/><path d="M 208.15625 477.800781 C 203.15625 490.300781 209.257812 504.398438 221.757812 509.398438 C 224.65625 510.5 227.65625 511.101562 230.757812 511.101562 L 329.257812 511.101562 C 342.65625 511.101562 353.558594 500.199219 353.558594 486.699219 C 353.558594 483.601562 352.957031 480.601562 351.859375 477.699219 L 316.558594 389.5 L 243.558594 389.5 Z M 304.359375 462.5 Z M 304.359375 462.5 " style=" stroke:none;fill-rule:nonzero;fill:rgb(79.215686%,99.215686%,100%);fill-opacity:1;"/><path d="M 559.957031 472.699219 C 556.558594 471.199219 552.957031 469.898438 549.359375 468.699219 C 548.15625 468.300781 547.058594 468 545.859375 467.699219 C 543.457031 467 540.859375 466.300781 538.257812 465.699219 C 536.859375 465.398438 535.457031 465.101562 534.058594 464.800781 C 531.65625 464.300781 529.15625 463.898438 526.558594 463.601562 C 525.15625 463.398438 523.65625 463.199219 522.257812 463.101562 C 519.558594 462.898438 516.859375 462.699219 514.15625 462.699219 C 512.859375 462.699219 511.558594 462.601562 510.257812 462.601562 C 507.257812 462.601562 504.257812 462.800781 501.257812 463.101562 C 500.359375 463.199219 499.457031 463.199219 498.558594 463.300781 C 441.457031 469.300781 396.257812 514.5 390.257812 571.601562 C 390.15625 572.5 390.15625 573.300781 390.058594 574.199219 C 389.757812 577.199219 389.65625 580.300781 389.558594 583.300781 C 389.558594 584.601562 389.65625 585.898438 389.65625 587.101562 C 389.757812 589.800781 389.859375 592.601562 390.058594 595.199219 C 390.15625 596.601562 390.359375 598.101562 390.558594 599.5 C 390.859375 602 391.257812 604.5 391.757812 607 C 392.058594 608.398438 392.257812 609.800781 392.65625 611.199219 C 393.257812 613.800781 393.859375 616.300781 394.65625 618.800781 C 395.058594 620 395.359375 621.101562 395.65625 622.300781 C 396.859375 626 398.15625 629.398438 399.65625 632.898438 C 426.457031 694.5 498.15625 722.800781 559.859375 696 C 621.558594 669.199219 649.757812 597.5 622.957031 535.800781 C 610.757812 507.601562 588.15625 485 559.957031 472.699219 Z M 511.257812 657.300781 L 511.257812 584.300781 Z M 511.257812 657.300781 " style=" stroke:none;fill-rule:nonzero;fill:rgb(49.411765%,74.117647%,31.372549%);fill-opacity:1;"/><path d="M 526.558594 463.601562 C 525.15625 463.398438 523.65625 463.199219 522.257812 463.101562 C 523.757812 463.199219 525.15625 463.398438 526.558594 463.601562 Z M 526.558594 463.601562 " style=" stroke:none;fill-rule:nonzero;fill:rgb(100%,91.372549%,80%);fill-opacity:1;"/><path d="M 390.257812 571.5 C 390.15625 572.398438 390.15625 573.199219 390.058594 574.101562 C 390.15625 573.300781 390.15625 572.398438 390.257812 571.5 Z M 390.257812 571.5 " style=" stroke:none;fill-rule:nonzero;fill:rgb(100%,91.372549%,80%);fill-opacity:1;"/><path d="M 391.859375 607 C 392.15625 608.398438 392.359375 609.800781 392.757812 611.199219 C 392.359375 609.800781 392.058594 608.398438 391.859375 607 Z M 391.859375 607 " style=" stroke:none;fill-rule:nonzero;fill:rgb(100%,91.372549%,80%);fill-opacity:1;"/><path d="M 390.15625 595.199219 C 390.257812 596.601562 390.457031 598.101562 390.65625 599.5 C 390.457031 598.101562 390.257812 596.699219 390.15625 595.199219 Z M 390.15625 595.199219 " style=" stroke:none;fill-rule:nonzero;fill:rgb(100%,91.372549%,80%);fill-opacity:1;"/><path d="M 538.257812 465.601562 C 536.859375 465.300781 535.457031 465 534.058594 464.699219 C 535.457031 465 536.859375 465.300781 538.257812 465.601562 Z M 538.257812 465.601562 " style=" stroke:none;fill-rule:nonzero;fill:rgb(100%,91.372549%,80%);fill-opacity:1;"/><path d="M 501.257812 463 C 500.359375 463.101562 499.457031 463.101562 498.558594 463.199219 C 499.457031 463.101562 500.359375 463.101562 501.257812 463 Z M 501.257812 463 " style=" stroke:none;fill-rule:nonzero;fill:rgb(100%,91.372549%,80%);fill-opacity:1;"/><path d="M 549.359375 468.699219 C 548.15625 468.300781 547.058594 468 545.859375 467.699219 C 547.058594 468 548.257812 468.300781 549.359375 468.699219 Z M 549.359375 468.699219 " style=" stroke:none;fill-rule:nonzero;fill:rgb(100%,91.372549%,80%);fill-opacity:1;"/><path d="M 510.257812 462.5 C 511.558594 462.5 512.859375 462.601562 514.15625 462.601562 C 513.15625 462.601562 512.257812 462.5 511.257812 462.5 C 510.957031 462.5 510.65625 462.5 510.257812 462.5 Z M 510.257812 462.5 " style=" stroke:none;fill-rule:nonzero;fill:rgb(100%,91.372549%,80%);fill-opacity:1;"/><path d="M 394.757812 618.800781 C 395.15625 620 395.457031 621.101562 395.757812 622.300781 C 395.359375 621.199219 395.058594 620 394.757812 618.800781 Z M 394.757812 618.800781 " style=" stroke:none;fill-rule:nonzero;fill:rgb(100%,91.372549%,80%);fill-opacity:1;"/><path d="M 389.65625 587.101562 C 389.65625 585.898438 389.558594 584.5 389.558594 583.300781 C 389.558594 583.601562 389.558594 583.898438 389.558594 584.300781 C 389.558594 585.199219 389.65625 586.101562 389.65625 587.101562 Z M 389.65625 587.101562 " style=" stroke:none;fill-rule:nonzero;fill:rgb(100%,91.372549%,80%);fill-opacity:1;"/><path d="M 267.859375 36.5 L 292.15625 36.5 L 292.15625 60.800781 L 267.859375 60.800781 Z M 267.859375 36.5 " style=" stroke:none;fill-rule:nonzero;fill:rgb(100%,47.45098%,33.72549%);fill-opacity:1;"/><path d="M 267.859375 85.199219 L 292.15625 85.199219 L 292.15625 109.5 L 267.859375 109.5 Z M 267.859375 85.199219 " style=" stroke:none;fill-rule:nonzero;fill:rgb(100%,47.45098%,33.72549%);fill-opacity:1;"/><path d="M 267.859375 133.898438 L 292.15625 133.898438 L 292.15625 158.199219 L 267.859375 158.199219 Z M 267.859375 133.898438 " style=" stroke:none;fill-rule:nonzero;fill:rgb(100%,47.45098%,33.72549%);fill-opacity:1;"/><path d="M 267.859375 182.601562 L 292.15625 182.601562 L 292.15625 206.898438 L 267.859375 206.898438 Z M 267.859375 182.601562 " style=" stroke:none;fill-rule:nonzero;fill:rgb(100%,47.45098%,33.72549%);fill-opacity:1;"/><path d="M 267.859375 231.300781 L 292.15625 231.300781 L 292.15625 255.601562 L 267.859375 255.601562 Z M 267.859375 231.300781 " style=" stroke:none;fill-rule:nonzero;fill:rgb(100%,47.45098%,33.72549%);fill-opacity:1;"/><path d="M 267.859375 279.898438 L 292.15625 279.898438 L 292.15625 304.199219 L 267.859375 304.199219 Z M 267.859375 279.898438 " style=" stroke:none;fill-rule:nonzero;fill:rgb(100%,47.45098%,33.72549%);fill-opacity:1;"/><path d="M 267.859375 328.601562 L 292.15625 328.601562 L 292.15625 352.898438 L 267.859375 352.898438 Z M 267.859375 328.601562 " style=" stroke:none;fill-rule:nonzero;fill:rgb(100%,47.45098%,33.72549%);fill-opacity:1;"/><path d="M 304.359375 474.699219 L 255.65625 474.699219 C 248.957031 474.699219 243.457031 469.300781 243.457031 462.5 C 243.457031 455.699219 248.859375 450.300781 255.65625 450.300781 L 304.359375 450.300781 C 311.058594 450.300781 316.558594 455.699219 316.558594 462.5 C 316.558594 469.300781 311.058594 474.699219 304.359375 474.699219 Z M 304.359375 474.699219 " style=" stroke:none;fill-rule:nonzero;fill:rgb(100%,47.45098%,33.72549%);fill-opacity:1;"/><path d="M 511.257812 669.398438 C 504.558594 669.398438 499.058594 664 499.058594 657.199219 L 499.058594 511.199219 C 499.058594 504.5 504.457031 499 511.257812 499 C 518.058594 499 523.457031 504.398438 523.457031 511.199219 L 523.457031 657.300781 C 523.457031 664 517.957031 669.398438 511.257812 669.398438 Z M 511.257812 669.398438 " style=" stroke:none;fill-rule:nonzero;fill:rgb(94.509804%,94.901961%,94.901961%);fill-opacity:1;"/><path d="M 584.257812 596.398438 L 438.257812 596.398438 C 431.558594 596.398438 426.058594 591 426.058594 584.199219 C 426.058594 577.5 431.457031 572 438.257812 572 L 584.359375 572 C 591.058594 572 596.558594 577.398438 596.558594 584.199219 C 596.457031 591 591.058594 596.398438 584.257812 596.398438 Z M 584.257812 596.398438 " style=" stroke:none;fill-rule:nonzero;fill:rgb(94.509804%,94.901961%,94.901961%);fill-opacity:1;"/></symbol><symbol id="modelo" viewBox="0 0 512 512"><title>modelo</title><path style="fill:#E8EBEF;" d="M476.778,512H35.222c-2.845,0-5.152-2.306-5.152-5.152V5.152C30.07,2.306,32.376,0,35.222,0h441.556 c2.845,0,5.152,2.306,5.152,5.152v501.696C481.929,509.694,479.623,512,476.778,512z"/><path style="fill:#C7D5E0;" d="M476.778,512h-37.402V0h37.402c2.845,0,5.152,2.306,5.152,5.152v501.696 C481.929,509.694,479.623,512,476.778,512z"/><circle style="fill:#E44849;" cx="347.62" cy="32.317" r="11.592"/><circle style="fill:#24DEDD;" cx="393.496" cy="32.317" r="11.592"/><circle style="fill:#F5D647;" cx="439.372" cy="32.317" r="11.592"/><path style="fill:#F7D95C;" d="M436.185,214.458H75.814c-2.845,0-5.152-2.306-5.152-5.152v-97.898c0-2.845,2.306-5.152,5.152-5.152 h360.372c2.845,0,5.152,2.306,5.152,5.152v97.898C441.338,212.151,439.03,214.458,436.185,214.458z"/><path style="fill:#F4BF4A;" d="M436.185,214.458h-42.688V106.256h42.688c2.845,0,5.152,2.306,5.152,5.152v97.898 C441.338,212.151,439.03,214.458,436.185,214.458z"/><path style="fill:#E44849;" d="M436.185,321.127h-87.468c-2.845,0-5.152-2.306-5.152-5.152v-65.96c0-2.845,2.306-5.152,5.152-5.152 h87.468c2.845,0,5.152,2.306,5.152,5.152v65.96C441.338,318.82,439.03,321.127,436.185,321.127z"/><path style="fill:#DD313A;" d="M436.185,321.127h-42.688v-76.264h42.688c2.845,0,5.152,2.306,5.152,5.152v65.96 C441.338,318.82,439.03,321.127,436.185,321.127z"/><path style="fill:#E44849;" d="M299.734,321.127h-87.468c-2.845,0-5.152-2.306-5.152-5.152v-65.96c0-2.845,2.306-5.152,5.152-5.152 h87.468c2.845,0,5.152,2.306,5.152,5.152v65.96C304.885,318.82,302.579,321.127,299.734,321.127z"/><path style="fill:#DD313A;" d="M299.734,321.127h-42.688v-76.264h42.688c2.845,0,5.152,2.306,5.152,5.152v65.96 C304.885,318.82,302.579,321.127,299.734,321.127z"/><path style="fill:#E44849;" d="M163.282,321.127H75.814c-2.845,0-5.152-2.306-5.152-5.152v-65.96c0-2.845,2.306-5.152,5.152-5.152 h87.468c2.845,0,5.152,2.306,5.152,5.152v65.96C168.434,318.82,166.128,321.127,163.282,321.127z"/><path style="fill:#DD313A;" d="M163.282,321.127h-42.688v-76.264h42.688c2.845,0,5.152,2.306,5.152,5.152v65.96 C168.434,318.82,166.128,321.127,163.282,321.127z"/><g> <path style="fill:#95A7C1;" d="M168.434,365.737H70.662c-4.268,0-7.728-3.46-7.728-7.728c0-4.268,3.459-7.728,7.728-7.728h97.772 c4.268,0,7.728,3.46,7.728,7.728C176.162,362.277,172.703,365.737,168.434,365.737z"/> <path style="fill:#95A7C1;" d="M168.434,399.74H70.662c-4.268,0-7.728-3.46-7.728-7.728c0-4.268,3.459-7.728,7.728-7.728h97.772 c4.268,0,7.728,3.46,7.728,7.728C176.162,396.28,172.703,399.74,168.434,399.74z"/> <path style="fill:#95A7C1;" d="M168.434,433.743H70.662c-4.268,0-7.728-3.46-7.728-7.728s3.459-7.728,7.728-7.728h97.772 c4.268,0,7.728,3.46,7.728,7.728C176.162,430.283,172.703,433.743,168.434,433.743z"/> <path style="fill:#95A7C1;" d="M168.434,467.746H70.662c-4.268,0-7.728-3.46-7.728-7.728c0-4.268,3.459-7.728,7.728-7.728h97.772 c4.268,0,7.728,3.46,7.728,7.728C176.162,464.286,172.703,467.746,168.434,467.746z"/> <path style="fill:#95A7C1;" d="M304.885,365.737h-97.771c-4.268,0-7.728-3.46-7.728-7.728c0-4.268,3.459-7.728,7.728-7.728h97.771 c4.268,0,7.728,3.46,7.728,7.728S309.154,365.737,304.885,365.737z"/> <path style="fill:#95A7C1;" d="M304.885,399.74h-97.771c-4.268,0-7.728-3.46-7.728-7.728c0-4.268,3.459-7.728,7.728-7.728h97.771 c4.268,0,7.728,3.46,7.728,7.728C312.613,396.28,309.154,399.74,304.885,399.74z"/> <path style="fill:#95A7C1;" d="M304.885,433.743h-97.771c-4.268,0-7.728-3.46-7.728-7.728s3.459-7.728,7.728-7.728h97.771 c4.268,0,7.728,3.46,7.728,7.728C312.613,430.283,309.154,433.743,304.885,433.743z"/> <path style="fill:#95A7C1;" d="M304.885,467.746h-97.771c-4.268,0-7.728-3.46-7.728-7.728c0-4.268,3.459-7.728,7.728-7.728h97.771 c4.268,0,7.728,3.46,7.728,7.728C312.613,464.286,309.154,467.746,304.885,467.746z"/> <path style="fill:#95A7C1;" d="M441.337,365.737h-97.772c-4.268,0-7.728-3.46-7.728-7.728c0-4.268,3.459-7.728,7.728-7.728h97.772 c4.268,0,7.728,3.46,7.728,7.728C449.065,362.277,445.606,365.737,441.337,365.737z"/> <path style="fill:#95A7C1;" d="M441.337,399.74h-97.772c-4.268,0-7.728-3.46-7.728-7.728c0-4.268,3.459-7.728,7.728-7.728h97.772 c4.268,0,7.728,3.46,7.728,7.728C449.065,396.28,445.606,399.74,441.337,399.74z"/> <path style="fill:#95A7C1;" d="M441.337,433.743h-97.772c-4.268,0-7.728-3.46-7.728-7.728s3.459-7.728,7.728-7.728h97.772 c4.268,0,7.728,3.46,7.728,7.728C449.065,430.283,445.606,433.743,441.337,433.743z"/> <path style="fill:#95A7C1;" d="M441.337,467.746h-97.772c-4.268,0-7.728-3.46-7.728-7.728c0-4.268,3.459-7.728,7.728-7.728h97.772 c4.268,0,7.728,3.46,7.728,7.728C449.065,464.286,445.606,467.746,441.337,467.746z"/> </g></symbol><symbol id="diseno" viewBox="0 0 512 512"><title>diseno</title><g><g><path d="m494.5 242.74h-214.61c-5.523 0-10-4.477-10-10v-215.24c0-5.523 4.477-10 10-10h214.61c5.523 0 10 4.477 10 10v215.24c0 5.523-4.477 10-10 10z" fill="#31a7fb"/><path d="m504.5 17.5v215.24c0 5.52-4.48 10-10 10h-34.18c5.52 0 10-4.48 10-10v-215.24c0-5.52-4.48-10-10-10h34.18c5.52 0 10 4.48 10 10z" fill="#1c96f9"/><g><path d="m232.11 504.5h-214.61c-5.523 0-10-4.477-10-10v-477c0-5.523 4.477-10 10-10h214.61c5.523 0 10 4.477 10 10v477c0 5.523-4.477 10-10 10z" fill="#fee265"/><path d="m242.11 17.5v477c0 5.52-4.48 10-10 10h-34.18c5.52 0 10-4.48 10-10v-477c0-5.52-4.48-10-10-10h34.18c5.52 0 10 4.48 10 10z" fill="#fdd330"/><path d="m504.5 279.26v215.24c0 5.52-4.48 10-10 10h-214.61c-5.52 0-10-4.48-10-10v-215.24c0-5.52 4.48-10 10-10h214.61c5.52 0 10 4.48 10 10z" fill="#fc9744"/><path d="m504.5 279.26v215.24c0 5.52-4.48 10-10 10h-34.18c5.52 0 10-4.48 10-10v-215.24c0-5.52-4.48-10-10-10h34.18c5.52 0 10 4.48 10 10z" fill="#fb8627"/><path d="m504.5 357.98v136.52c0 5.52-4.48 10-10 10h-214.61c-5.52 0-10-4.48-10-10v-76.27c24.46-15.88 62.93-31.35 120-31.35 56.16 0 92.02-13.57 114.61-28.9z" fill="#64e0c4"/><path d="m504.5 357.98v136.52c0 5.52-4.48 10-10 10h-34.18c5.52 0 10-4.48 10-10v-119.64c13.85-4.83 25.09-10.72 34.18-16.88z" fill="#27d1b3"/></g></g><path d="m188.473 459.621h-127.682c-2.761 0-5-2.239-5-5v-29.7c0-2.761 2.239-5 5-5h127.683c2.761 0 5 2.239 5 5v29.7c-.001 2.761-2.239 5-5.001 5z" fill="#31a7fb"/><g><g><circle cx="77.038" cy="158.231" fill="#31a7fb" r="33.111"/></g><circle cx="124.632" cy="121.327" fill="#27d1b3" r="48.991"/></g><g><g><circle cx="172.225" cy="158.231" fill="#fb3a82" r="33.111"/></g></g></g><g><path d="m279.89 250.24h214.61c9.649 0 17.5-7.851 17.5-17.5v-215.24c0-9.649-7.851-17.5-17.5-17.5h-214.61c-9.649 0-17.5 7.851-17.5 17.5v215.24c0 9.65 7.851 17.5 17.5 17.5zm214.61-15h-206.503l99.356-99.356 15.788 15.788c1.464 1.465 3.384 2.197 5.303 2.197s3.839-.732 5.303-2.197c2.929-2.929 2.929-7.678 0-10.606l-15.788-15.788 99.041-99.041v206.503c0 1.379-1.122 2.5-2.5 2.5zm-214.61-220.24h207.134l-99.671 99.671-15.788-15.788c-2.928-2.929-7.677-2.929-10.606 0s-2.929 7.678 0 10.606l15.788 15.788-99.356 99.356v-207.133c-.001-1.378 1.121-2.5 2.499-2.5z"/><path d="m232.11 0h-214.61c-9.649 0-17.5 7.851-17.5 17.5v477c0 9.649 7.851 17.5 17.5 17.5h214.61c9.649 0 17.5-7.851 17.5-17.5v-316.978c0-4.142-3.358-7.5-7.5-7.5s-7.5 3.358-7.5 7.5v316.978c0 1.378-1.122 2.5-2.5 2.5h-214.61c-1.378 0-2.5-1.122-2.5-2.5v-477c0-1.378 1.122-2.5 2.5-2.5h214.61c1.378 0 2.5 1.122 2.5 2.5v127.032c0 4.142 3.358 7.5 7.5 7.5s7.5-3.358 7.5-7.5v-127.032c0-9.649-7.851-17.5-17.5-17.5z"/><path d="m126.768 452.121c-4.142 0-7.5 3.358-7.5 7.5s3.358 7.5 7.5 7.5h61.706c6.893 0 12.5-5.607 12.5-12.5v-29.7c0-6.893-5.607-12.5-12.5-12.5h-127.683c-6.893 0-12.5 5.607-12.5 12.5v29.7c0 6.893 5.607 12.5 12.5 12.5h32.987c4.142 0 7.5-3.358 7.5-7.5s-3.358-7.5-7.5-7.5h-30.487v-24.7h122.683v24.7z"/><path d="m73.951 383.076c4.142 0 7.5-3.358 7.5-7.5s-3.358-7.5-7.5-7.5h-18.16c-4.142 0-7.5 3.358-7.5 7.5s3.358 7.5 7.5 7.5z"/><path d="m73.951 56.185c4.142 0 7.5-3.358 7.5-7.5s-3.358-7.5-7.5-7.5h-18.16c-4.142 0-7.5 3.358-7.5 7.5s3.358 7.5 7.5 7.5z"/><path d="m193.473 307.822h-137.682c-4.142 0-7.5 3.358-7.5 7.5s3.358 7.5 7.5 7.5h137.683c4.142 0 7.5-3.358 7.5-7.5s-3.359-7.5-7.501-7.5z"/><path d="m193.473 280.593h-137.682c-4.142 0-7.5 3.358-7.5 7.5s3.358 7.5 7.5 7.5h137.683c4.142 0 7.5-3.358 7.5-7.5s-3.359-7.5-7.501-7.5z"/><path d="m193.473 253.365h-137.682c-4.142 0-7.5 3.358-7.5 7.5s3.358 7.5 7.5 7.5h137.683c4.142 0 7.5-3.358 7.5-7.5s-3.359-7.5-7.501-7.5z"/><path d="m181.054 118.598c-1.429-29.887-26.188-53.762-56.422-53.762-30.231 0-54.989 23.871-56.422 53.754-18.414 4.047-31.783 20.325-31.783 39.642 0 22.393 18.218 40.611 40.611 40.611 15.563 0 29.379-8.682 36.206-22.178 3.679.756 7.488 1.154 11.388 1.154 3.856 0 7.677-.397 11.419-1.166 6.727 13.157 20.411 22.19 36.175 22.19 22.393 0 40.611-18.218 40.611-40.611 0-19.361-13.622-35.591-31.783-39.634zm-104.016 65.245c-14.122 0-25.611-11.489-25.611-25.611 0-11.497 7.504-21.29 18.103-24.501 3.717 16.519 14.685 30.315 29.378 37.865-4.563 7.509-12.739 12.247-21.87 12.247zm47.594-21.025c-22.878 0-41.491-18.613-41.491-41.491s18.613-41.491 41.491-41.491c21.791 0 39.7 16.89 41.354 38.264-19.441 3.011-34.372 19.86-34.372 40.131 0 1.337.069 2.658.196 3.962-2.359.411-4.758.625-7.178.625zm47.594 21.025c-14.122 0-25.611-11.489-25.611-25.611s11.489-25.611 25.611-25.611 25.611 11.489 25.611 25.611-11.489 25.611-25.611 25.611z"/><path d="m298.124 289.802c-4.142 0-7.5 3.358-7.5 7.5v12.901c0 4.142 3.358 7.5 7.5 7.5s7.5-3.358 7.5-7.5v-5.401h5.401c4.142 0 7.5-3.358 7.5-7.5s-3.358-7.5-7.5-7.5z"/><path d="m477.28 456.057c-4.142 0-7.5 3.358-7.5 7.5v5.401h-5.401c-4.142 0-7.5 3.358-7.5 7.5s3.358 7.5 7.5 7.5h12.901c4.142 0 7.5-3.358 7.5-7.5v-12.901c0-4.142-3.358-7.5-7.5-7.5z"/><path d="m512 357.945v-78.685c0-9.649-7.851-17.5-17.5-17.5h-54.356c-4.142 0-7.5 3.358-7.5 7.5s3.358 7.5 7.5 7.5h54.356c1.378 0 2.5 1.122 2.5 2.5v74.66c-26.691 16.893-62.695 25.46-107.11 25.46-43.526 0-81.292 8.631-112.5 25.666v-125.786c0-1.378 1.122-2.5 2.5-2.5h127.263c4.142 0 7.5-3.358 7.5-7.5s-3.358-7.5-7.5-7.5h-127.263c-9.649 0-17.5 7.851-17.5 17.5v215.24c0 9.649 7.851 17.5 17.5 17.5h214.61c9.649 0 17.5-7.851 17.5-17.5v-136.529c0-.009 0-.017 0-.026zm-17.5 139.055h-214.61c-1.378 0-2.5-1.122-2.5-2.5v-72.13c30.255-18.573 68.076-27.99 112.5-27.99 43.078 0 79.028-7.751 107.11-23.063v123.183c0 1.378-1.122 2.5-2.5 2.5z"/></g></symbol><symbol id="avion-de-papel" viewBox="0 0 512 512"><title>avion-de-papel</title><polyline style="fill:#F5C86E;" points="498.334,19 300.144,305.103 279.486,334.925 279.486,435.065 354.796,361.463 316.334,289.667 "/><polyline style="fill:#FAE196;" points="209.505,313.515 64,269 502,10 502,403 283,336 "/><polygon style="fill:#F5B955;" points="279.486,435.065 213.353,314.693 498.334,19 285.632,326.052 "/><path d="M506.955,1.314c-3.119-1.78-6.955-1.75-10.045,0.078L313.656,109.756c-4.754,2.811-6.329,8.943-3.518,13.697 c2.81,4.753,8.942,6.328,13.697,3.518l131.482-77.749L210.411,303.335L88.603,266.069l158.965-94 c4.754-2.812,6.329-8.944,3.518-13.698c-2.81-4.753-8.943-6.33-13.697-3.518L58.91,260.392c-3.41,2.017-5.309,5.856-4.84,9.791 s3.216,7.221,7.004,8.38l145.469,44.504L270.72,439.88c0.067,0.121,0.136,0.223,0.207,0.314c1.071,1.786,2.676,3.245,4.678,4.087 c1.253,0.527,2.57,0.784,3.878,0.784c2.563,0,5.086-0.986,6.991-2.849l73.794-72.12l138.806,42.466 c0.96,0.293,1.945,0.438,2.925,0.438c2.116,0,4.206-0.672,5.948-1.961C510.496,409.153,512,406.17,512,403V10 C512,6.409,510.074,3.093,506.955,1.314z M419.584,115.12L271.265,329.23c-1.158,1.673-1.779,3.659-1.779,5.694v61.171 l-43.823-79.765L419.584,115.12z M289.486,411.309v-62.867l48.99,14.988L289.486,411.309z M295.501,329.367L492,45.704v343.779 L295.501,329.367z"/><path d="M164.423,347.577c-3.906-3.905-10.236-3.905-14.143,0l-93.352,93.352c-3.905,3.905-3.905,10.237,0,14.143 C58.882,457.024,61.441,458,64,458c2.559,0,5.118-0.976,7.071-2.929l93.352-93.352C168.328,357.815,168.328,351.483,164.423,347.577 z"/><path d="M25.929,471.929l-23,23c-3.905,3.905-3.905,10.237,0,14.143C4.882,511.024,7.441,512,10,512s5.118-0.977,7.071-2.929l23-23 c3.905-3.905,3.905-10.237,0-14.143C36.165,468.025,29.835,468.025,25.929,471.929z"/><path d="M135.58,491.41c-2.641,0-5.21,1.07-7.07,2.93c-1.86,1.86-2.93,4.43-2.93,7.07c0,2.63,1.069,5.21,2.93,7.07 c1.86,1.86,4.44,2.93,7.07,2.93s5.21-1.07,7.069-2.93c1.86-1.86,2.931-4.44,2.931-7.07c0-2.64-1.07-5.21-2.931-7.07 C140.79,492.48,138.21,491.41,135.58,491.41z"/><path d="M202.909,419.935l-49.446,49.445c-3.905,3.905-3.905,10.237,0,14.142c1.953,1.953,4.512,2.929,7.071,2.929 s5.118-0.977,7.071-2.929l49.446-49.445c3.905-3.905,3.905-10.237,0-14.142C213.148,416.03,206.818,416.03,202.909,419.935z"/><path d="M373.562,416.139l-49.58,49.58c-3.905,3.905-3.905,10.237,0,14.143c1.953,1.952,4.512,2.929,7.071,2.929 s5.118-0.977,7.071-2.929l49.58-49.58c3.905-3.905,3.905-10.237,0-14.143C383.798,412.235,377.468,412.235,373.562,416.139z"/><path d="M276.43,153.38c2.63,0,5.21-1.06,7.07-2.93c1.859-1.86,2.93-4.43,2.93-7.06c0-2.64-1.07-5.22-2.93-7.08 s-4.44-2.93-7.07-2.93s-5.21,1.07-7.07,2.93c-1.859,1.86-2.93,4.44-2.93,7.08c0,2.63,1.07,5.2,2.93,7.06 C271.22,152.32,273.8,153.38,276.43,153.38z"/></symbol><symbol id="lista" viewBox="0 0 512 512"><title>lista</title><path d="m464.883 64.267h-417.766c-25.98 0-47.117 21.136-47.117 47.149 0 25.98 21.137 47.117 47.117 47.117h417.766c25.98 0 47.117-21.137 47.117-47.117 0-26.013-21.137-47.149-47.117-47.149z"/><path d="m464.883 208.867h-417.766c-25.98 0-47.117 21.136-47.117 47.149 0 25.98 21.137 47.117 47.117 47.117h417.766c25.98 0 47.117-21.137 47.117-47.117 0-26.013-21.137-47.149-47.117-47.149z"/><path d="m464.883 353.467h-417.766c-25.98 0-47.117 21.137-47.117 47.149 0 25.98 21.137 47.117 47.117 47.117h417.766c25.98 0 47.117-21.137 47.117-47.117 0-26.012-21.137-47.149-47.117-47.149z"/></symbol><symbol id="flecha-derecha" viewBox="0 0 492.004 492.004"><title>flecha-derecha</title><path d="M382.678,226.804L163.73,7.86C158.666,2.792,151.906,0,144.698,0s-13.968,2.792-19.032,7.86l-16.124,16.12 c-10.492,10.504-10.492,27.576,0,38.064L293.398,245.9l-184.06,184.06c-5.064,5.068-7.86,11.824-7.86,19.028 c0,7.212,2.796,13.968,7.86,19.04l16.124,16.116c5.068,5.068,11.824,7.86,19.032,7.86s13.968-2.792,19.032-7.86L382.678,265 c5.076-5.084,7.864-11.872,7.848-19.088C390.542,238.668,387.754,231.884,382.678,226.804z"/></symbol><symbol id="flecha-hacia-la-izquierda" viewBox="0 0 492 492"><title>flecha-hacia-la-izquierda</title><path d="M198.608,246.104L382.664,62.04c5.068-5.056,7.856-11.816,7.856-19.024c0-7.212-2.788-13.968-7.856-19.032l-16.128-16.12 C361.476,2.792,354.712,0,347.504,0s-13.964,2.792-19.028,7.864L109.328,227.008c-5.084,5.08-7.868,11.868-7.848,19.084 c-0.02,7.248,2.76,14.028,7.848,19.112l218.944,218.932c5.064,5.072,11.82,7.864,19.032,7.864c7.208,0,13.964-2.792,19.032-7.864 l16.124-16.12c10.492-10.492,10.492-27.572,0-38.06L198.608,246.104z"/></symbol><symbol id="foto" viewBox="0 0 34 34"><title>foto</title><path d="m31.7 4.1h-26c-1.7 0-3 1.3-3 3v19.8c0 1.7 1.3 3 3 3h.3 9.2 16.5c1.7 0 3-1.3 3-3v-1.4-18.4c0-1.7-1.4-3-3-3zm-27 22.8v-19.8c0-.6.4-1 1-1h26c.6 0 1 .4 1 1v15.7l-5.5-6.4c-.6-.7-1.4-1-2.3-1-1 0-1.9.5-2.5 1.3l-5.5 8-2.5-4.1c-.5-.9-1.5-1.4-2.6-1.4s-2.1.6-2.7 1.6l-3.7 7.1c-.4-.1-.7-.5-.7-1zm6.2-5.2c.2-.3.5-.5.9-.5.2 0 .6 0 .9.5l3 4.8-1 1.4h-7zm21.8 5.2c0 .6-.4 1-1 1h-14.6l.1-.2.4-.6 6.4-9.3c.4-.5 1.2-.6 1.6-.1l7.1 8.2z"/><path d="m16.6 17c2.2 0 4-1.8 4-4s-1.8-4-4-4-4 1.8-4 4 1.8 4 4 4zm0-6c1.1 0 2 .9 2 2s-.9 2-2 2-2-.9-2-2 .9-2 2-2z"/></symbol><symbol id="foto-1" viewBox="0 0 34 34"><title>foto-1</title><g><path d="m33 25.5v1.4c0 1.7-1.3 3-3 3h-25.6c-.3 0-.7-.2-.8-.5-.5-.9.2-1.1 4-8.7 1.1-2.1 4-2.2 5.2-.2l2.5 4.1 5.5-8c1.1-1.6 3.5-1.7 4.7-.3l7.3 8.4c.1.3.2.6.2.8z"/></g><g><g><circle cx="15" cy="11" r="2"/></g><g><path d="m30 4.1h-26c-1.6 0-3 1.3-3 3v19.8c0 .5.1 1.1.4 1.5 0-.3.1-.6.3-.9l4-7.7c1.8-3.4 6.6-3.6 8.7-.3l.9 1.5 3.8-5.5c1.9-2.7 5.8-2.9 7.9-.4l6 7v-15c0-1.7-1.4-3-3-3zm-15 10.9c-2.2 0-4-1.8-4-4s1.8-4 4-4 4 1.8 4 4c0 2.3-1.8 4-4 4z"/></g></g></symbol><symbol id="wireframe" viewBox="0 0 24 24"><title>wireframe</title><path d="m22.25 6h-20.5c-.965 0-1.75-.785-1.75-1.75v-2.5c0-.965.785-1.75 1.75-1.75h20.5c.965 0 1.75.785 1.75 1.75v2.5c0 .965-.785 1.75-1.75 1.75zm-20.5-4.5c-.138 0-.25.112-.25.25v2.5c0 .138.112.25.25.25h20.5c.138 0 .25-.112.25-.25v-2.5c0-.138-.112-.25-.25-.25z"/><path d="m13.75 19.25c-.192 0-.384-.073-.53-.22-.293-.293-.293-.768 0-1.061l2.04-2.04c.684-.684 1.797-.683 2.48 0l.521.521c.062.062.138.066.18.068.042-.002.123-.017.187-.093l1.025-1.235c.669-.801 2.026-.8 2.693-.001l1.48 1.781c.265.318.221.791-.097 1.057-.319.264-.791.222-1.056-.098l-1.48-1.78c-.129-.154-.257-.155-.387.001l-1.029 1.239c-.321.38-.784.606-1.273.627-.488.036-.961-.163-1.304-.505l-.521-.521c-.097-.098-.262-.098-.359 0l-2.04 2.04c-.146.147-.338.22-.53.22z"/><path d="m22.25 22.5h-7.5c-.965 0-1.75-.785-1.75-1.75v-10c0-.965.785-1.75 1.75-1.75h7.5c.965 0 1.75.785 1.75 1.75v10c0 .965-.785 1.75-1.75 1.75zm-7.5-12c-.138 0-.25.112-.25.25v10c0 .138.112.25.25.25h7.5c.138 0 .25-.112.25-.25v-10c0-.138-.112-.25-.25-.25z"/><path d="m10.25 10.5h-9.5c-.414 0-.75-.336-.75-.75s.336-.75.75-.75h9.5c.414 0 .75.336.75.75s-.336.75-.75.75z"/><path d="m10.25 13.5h-9.5c-.414 0-.75-.336-.75-.75s.336-.75.75-.75h9.5c.414 0 .75.336.75.75s-.336.75-.75.75z"/><path d="m10.25 16.5h-9.5c-.414 0-.75-.336-.75-.75s.336-.75.75-.75h9.5c.414 0 .75.336.75.75s-.336.75-.75.75z"/><path d="m10.25 19.5h-9.5c-.414 0-.75-.336-.75-.75s.336-.75.75-.75h9.5c.414 0 .75.336.75.75s-.336.75-.75.75z"/><path d="m10.25 22.5h-9.5c-.414 0-.75-.336-.75-.75s.336-.75.75-.75h9.5c.414 0 .75.336.75.75s-.336.75-.75.75z"/></symbol><symbol id="alinear-a-la-izquierda" viewBox="0 0 333 333"><title>alinear-a-la-izquierda</title><g> <g> <path d="M323,31.5H10c-5.5,0-10,4.5-10,10s4.5,10,10,10h313c5.5,0,10-4.5,10-10S328.5,31.5,323,31.5z"/> </g> </g><g> <g> <path d="M230,114.5H10c-5.5,0-10,4.5-10,10s4.5,10,10,10h220c5.5,0,10-4.5,10-10S235.5,114.5,230,114.5z"/> </g> </g><g> <g> <path d="M323,198.5H10c-5.5,0-10,4.5-10,10s4.5,10,10,10h313c5.5,0,10-4.5,10-10S328.5,198.5,323,198.5z"/> </g> </g><g> <g> <path d="M151,281.5H10c-5.5,0-10,4.5-10,10s4.5,10,10,10h141c5.5,0,10-4.5,10-10S156.5,281.5,151,281.5z"/> </g> </g></symbol><symbol id="carros" viewBox="0 0 490.674 490.674"><title>carros</title><g> <circle style="fill:#455A64;" cx="394.667" cy="426.671" r="53.333"/> <circle style="fill:#455A64;" cx="181.333" cy="426.671" r="53.333"/> </g><path style="fill:#FFC107;" d="M488,78.276c-2.026-2.294-4.94-3.607-8-3.605H96c-5.891-0.001-10.668,4.773-10.669,10.664 c0,0.717,0.072,1.433,0.216,2.136l42.667,213.333c1.014,4.967,5.384,8.534,10.453,8.533c0.469,0.031,0.939,0.031,1.408,0l320-42.667 c4.807-0.642,8.576-4.446,9.173-9.259l21.333-170.667C490.989,83.681,490.047,80.592,488,78.276z"/><g> <path style="fill:#FAFAFA;" d="M181.333,266.671c-5.214-0.002-9.662-3.774-10.517-8.917l-21.333-128 c-0.791-5.838,3.3-11.211,9.138-12.002c5.59-0.758,10.804,2.969,11.897,8.504l21.333,128c0.963,5.808-2.961,11.298-8.768,12.267 C182.505,266.622,181.92,266.672,181.333,266.671z"/> <path style="fill:#FAFAFA;" d="M234.667,256.004c-5.536,0.022-10.169-4.193-10.667-9.707l-10.667-117.333 c-0.552-5.865,3.755-11.067,9.621-11.619c0.029-0.003,0.057-0.005,0.086-0.008c5.867-0.531,11.053,3.796,11.584,9.663 c0,0,0,0.001,0,0.001l10.667,117.333c0.53,5.867-3.796,11.053-9.663,11.584c0,0-0.001,0-0.001,0L234.667,256.004z"/> <path style="fill:#FAFAFA;" d="M288,245.337c-5.891,0-10.667-4.776-10.667-10.667V128.004c0-5.891,4.776-10.667,10.667-10.667 c5.891,0,10.667,4.776,10.667,10.667v106.667C298.667,240.562,293.891,245.337,288,245.337z"/> <path style="fill:#FAFAFA;" d="M341.333,234.671h-1.195c-5.858-0.62-10.104-5.872-9.484-11.731 c0.004-0.036,0.008-0.073,0.012-0.109l10.667-96c0.692-5.867,5.963-10.093,11.84-9.493c5.855,0.648,10.077,5.919,9.43,11.775 c0,0,0,0.001,0,0.001l-10.667,96C351.368,230.543,346.793,234.667,341.333,234.671z"/> <path style="fill:#FAFAFA;" d="M394.667,224.004c-5.891-0.002-10.665-4.779-10.664-10.67c0-0.869,0.107-1.735,0.317-2.578 l21.333-85.333c1.293-5.747,7.001-9.358,12.748-8.065c5.747,1.293,9.358,7.001,8.065,12.748c-0.036,0.161-0.076,0.321-0.12,0.48 l-21.333,85.333C403.829,220.669,399.562,224.003,394.667,224.004z"/> </g><path style="fill:#455A64;" d="M437.333,352.004H191.125c-35.558-0.082-66.155-25.16-73.216-60.011L65.92,32.004H10.667 C4.776,32.004,0,27.228,0,21.337s4.776-10.667,10.667-10.667h64c5.07-0.001,9.439,3.566,10.453,8.533l53.717,268.587 c5.035,24.896,26.888,42.817,52.288,42.88h246.208c5.891,0,10.667,4.776,10.667,10.667C448,347.228,443.224,352.004,437.333,352.004 z"/></symbol><symbol id="carrito-de-compras" viewBox="0 0 497.945 497.945"><title>carrito-de-compras</title><polygon style="fill:#FFCA19;" points="431.543,335.281 482.743,96.836 90.697,96.836 147.749,335.281 "/><polygon style="fill:#E9AE21;" points="482.743,96.836 90.697,96.836 99.474,134.87 471.04,134.87 "/><path d="M431.543,351.373H147.749c-7.314,0-13.166-4.389-14.629-11.703L76.069,99.761c-1.463-4.389,0-8.777,2.926-11.703 c2.926-2.926,7.314-5.851,11.703-5.851h392.046c4.389,0,8.777,1.463,11.703,5.851c2.926,2.926,4.389,8.777,2.926,13.166 l-51.2,236.983C444.709,345.521,438.857,351.373,431.543,351.373z M159.451,320.653H419.84l43.886-209.189H109.714L159.451,320.653z "/><path d="M90.697,111.464c-7.314,0-13.166-4.389-14.629-11.703L64.366,57.338H14.629C5.851,57.338,0,50.024,0,42.71 s7.314-14.629,14.629-14.629h61.44c7.314,0,13.166,4.389,14.629,11.703l14.629,54.126c1.463,7.314-2.926,14.629-10.24,17.554 C93.623,111.464,92.16,111.464,90.697,111.464z"/><path d="M416.914,425.978H99.474c-29.257,0-52.663-23.406-52.663-52.663s23.406-52.663,52.663-52.663h317.44 c8.777,0,14.629,7.314,14.629,14.629c0,7.314-7.314,14.629-14.629,14.629H99.474c-13.166,0-23.406,10.24-23.406,23.406 s10.24,23.406,23.406,23.406h317.44c8.777,0,14.629,7.314,14.629,14.629C433.006,420.127,425.691,425.978,416.914,425.978z"/><circle style="fill:#C0D0D6;" cx="383.269" cy="412.813" r="42.423"/><circle style="fill:#849DA9;" cx="383.269" cy="412.813" r="14.629"/><path d="M383.269,469.864c-32.183,0-58.514-26.331-58.514-58.514s26.331-58.514,58.514-58.514s58.514,26.331,58.514,58.514 S415.451,469.864,383.269,469.864z M383.269,385.018c-16.091,0-27.794,13.166-27.794,27.794c0,16.091,13.166,27.794,27.794,27.794 s27.794-13.166,27.794-27.794C411.063,396.721,397.897,385.018,383.269,385.018z"/><circle style="fill:#C0D0D6;" cx="150.674" cy="412.813" r="42.423"/><circle style="fill:#849DA9;" cx="150.674" cy="412.813" r="14.629"/><path d="M150.674,469.864c-32.183,0-58.514-26.331-58.514-58.514s26.331-58.514,58.514-58.514s58.514,26.331,58.514,58.514 S182.857,469.864,150.674,469.864z M150.674,385.018c-16.091,0-27.794,13.166-27.794,27.794c0,16.091,13.166,27.794,27.794,27.794 s27.794-13.166,27.794-27.794C178.469,396.721,166.766,385.018,150.674,385.018z"/><path d="M219.429,266.527c-8.777,0-14.629-7.314-14.629-14.629V165.59c0-8.777,7.314-14.629,14.629-14.629 c8.777,0,14.629,7.314,14.629,14.629v86.309C234.057,260.676,228.206,266.527,219.429,266.527z"/><path d="M286.72,266.527c-8.777,0-14.629-7.314-14.629-14.629V165.59c0-8.777,7.314-14.629,14.629-14.629 c8.777,0,14.629,7.314,14.629,14.629v86.309C301.349,260.676,295.497,266.527,286.72,266.527z"/><path d="M354.011,266.527c-8.777,0-14.629-7.314-14.629-14.629V165.59c0-8.777,7.314-14.629,14.629-14.629 c8.777,0,14.629,7.314,14.629,14.629v86.309C368.64,260.676,362.789,266.527,354.011,266.527z"/></symbol><symbol id="carretilla" viewBox="0 0 48 48"><title>carretilla</title><circle cx="12.263" cy="38.971" r="1"/><circle cx="37.74" cy="38.941" r="1"/><path d="m3.27 8.03h3.039l8.062 24.179-2.791 2.791c-1.88.33-3.32 1.97-3.32 3.94 0 2.21 1.8 4 4 4 2.21 0 4-1.79 4-4 0-.68-.17-1.33-.48-1.89l18.49-.07c-.34.59-.53 1.27-.53 1.99 0 2.21 1.79 4 4 4 2.2 0 4-1.79 4-4 0-2.2-1.8-4-4-4l-23.38.09 1.57-1.58h17.39c2.03 0 3.85-1.22 4.62-3.1l6.27-15.24c.38-.93.27-1.98-.29-2.81-.55-.83-1.48-1.33-2.49-1.33h-32.022l-1.208-3.621c.05-.11.07-.229.07-.349v-4c0-.55-.44-1-1-1h-4c-.55 0-1 .45-1 1v4c0 .55.45 1 1 1zm34.47 28.94c1.1 0 2 .9 2 2s-.9 2-2 2c-1.11 0-2-.9-2-2s.89-2 2-2zm-25.48 3.97c-1.1 0-2-.9-2-2 0-.89.59-1.66 1.41-1.91 0 0 .39-.09.59-.09.24 0 .46.04.67.12.78.27 1.33 1.01 1.33 1.88 0 1.1-.89 2-2 2zm29.17-27.94c.34 0 .64.16.83.44s.23.63.1.94l-6.27 15.24c-.46 1.13-1.55 1.86-2.77 1.86h-17.084l-6.162-18.48zm-37.16-8.97h2v2h-2z"/><path d="m17.554 26.7 3.427-8.14c.214-.509-.025-1.096-.534-1.31-.51-.215-1.095.024-1.31.534l-3.427 8.14c-.214.509.025 1.096.534 1.31.501.209 1.098-.032 1.31-.534z"/><path d="m24.442 27.233c.501.21 1.098-.031 1.31-.534l3.427-8.14c.214-.509-.025-1.096-.534-1.31-.509-.215-1.096.024-1.31.534l-3.427 8.14c-.214.51.025 1.096.534 1.31z"/><path d="m32.64 27.233c.501.21 1.098-.031 1.31-.534l3.427-8.14c.214-.509-.025-1.096-.534-1.31-.511-.215-1.095.024-1.31.534l-3.427 8.14c-.214.51.025 1.096.534 1.31z"/></symbol><symbol id="carro" viewBox="0 0 512 512"><title>carro</title><path style="fill:#FFC107;" d="M394.667,256C318.122,255.906,256.094,193.878,256,117.333c0-3.605,0.277-7.125,0.533-10.667H96 c-5.891,0.005-10.662,4.785-10.657,10.677c0.001,0.655,0.062,1.309,0.182,1.953l32,170.667c0.944,5.043,5.344,8.699,10.475,8.704 h292.992c26.9,0.003,49.592-20.027,52.928-46.72l2.901-23.168C453.072,246.443,424.265,255.988,394.667,256z"/><g> <circle style="fill:#455A64;" cx="394.667" cy="458.667" r="53.333"/> <circle style="fill:#455A64;" cx="181.333" cy="458.667" r="53.333"/> <path style="fill:#455A64;" d="M437.333,384H191.125c-35.561-0.074-66.163-25.156-73.216-60.011L65.92,64H10.667 C4.776,64,0,59.224,0,53.333s4.776-10.667,10.667-10.667h64c5.07-0.001,9.439,3.566,10.453,8.533l53.717,268.587 c5.035,24.896,26.888,42.817,52.288,42.88h246.208c5.891,0,10.667,4.776,10.667,10.667S443.224,384,437.333,384z"/> </g><circle style="fill:#4CAF50;" cx="394.667" cy="117.333" r="117.333"/><g> <path style="fill:#FAFAFA;" d="M437.333,128H352c-5.891,0-10.667-4.776-10.667-10.667s4.776-10.667,10.667-10.667h85.333 c5.891,0,10.667,4.776,10.667,10.667S443.224,128,437.333,128z"/> <path style="fill:#FAFAFA;" d="M394.667,170.667c-5.891,0-10.667-4.776-10.667-10.667V74.667C384,68.776,388.776,64,394.667,64 c5.891,0,10.667,4.776,10.667,10.667V160C405.333,165.891,400.558,170.667,394.667,170.667z"/> </g></symbol><symbol id="carro-1" viewBox="0 0 512 512"><title>carro-1</title><path style="fill:#FFC107;" d="M394.667,256C318.122,255.906,256.094,193.878,256,117.333c0-3.605,0.277-7.125,0.533-10.667H96 c-5.891,0.005-10.662,4.785-10.657,10.677c0.001,0.655,0.062,1.309,0.182,1.953l32,170.667c0.944,5.043,5.344,8.699,10.475,8.704 h292.992c26.9,0.003,49.592-20.027,52.928-46.72l2.901-23.168C453.072,246.443,424.265,255.988,394.667,256z"/><g> <circle style="fill:#455A64;" cx="394.667" cy="458.667" r="53.333"/> <circle style="fill:#455A64;" cx="181.333" cy="458.667" r="53.333"/> <path style="fill:#455A64;" d="M437.333,384H191.125c-35.561-0.074-66.163-25.156-73.216-60.011L65.92,64H10.667 C4.776,64,0,59.224,0,53.333s4.776-10.667,10.667-10.667h64c5.07-0.001,9.439,3.566,10.453,8.533l53.717,268.587 c5.035,24.896,26.888,42.817,52.288,42.88h246.208c5.891,0,10.667,4.776,10.667,10.667S443.224,384,437.333,384z"/> </g><circle style="fill:#4CAF50;" cx="394.667" cy="117.333" r="117.333"/><g> <path style="fill:#FAFAFA;" d="M437.333,128H352c-5.891,0-10.667-4.776-10.667-10.667s4.776-10.667,10.667-10.667h85.333 c5.891,0,10.667,4.776,10.667,10.667S443.224,128,437.333,128z"/> <path style="fill:#FAFAFA;" d="M394.667,170.667c-5.891,0-10.667-4.776-10.667-10.667V74.667C384,68.776,388.776,64,394.667,64 c5.891,0,10.667,4.776,10.667,10.667V160C405.333,165.891,400.558,170.667,394.667,170.667z"/> </g><path d="M394.667,512c-29.455,0-53.333-23.878-53.333-53.333s23.878-53.333,53.333-53.333S448,429.211,448,458.667 S424.122,512,394.667,512z M394.667,426.667c-17.673,0-32,14.327-32,32s14.327,32,32,32s32-14.327,32-32 S412.34,426.667,394.667,426.667z"/><path d="M181.333,512C151.878,512,128,488.122,128,458.667s23.878-53.333,53.333-53.333c29.455,0,53.333,23.878,53.333,53.333 S210.789,512,181.333,512z M181.333,426.667c-17.673,0-32,14.327-32,32s14.327,32,32,32s32-14.327,32-32 S199.006,426.667,181.333,426.667z"/><path d="M437.333,384H191.125c-35.561-0.074-66.163-25.156-73.216-60.011L65.92,64H10.667C4.776,64,0,59.224,0,53.333 s4.776-10.667,10.667-10.667h64c5.07-0.001,9.439,3.566,10.453,8.533l53.717,268.587c5.035,24.896,26.888,42.817,52.288,42.88 h246.208c5.891,0,10.667,4.776,10.667,10.667S443.224,384,437.333,384z"/><path d="M420.992,298.667H128c-5.891,0-10.667-4.776-10.667-10.667c0-5.891,4.776-10.667,10.667-10.667h292.992 c16.143,0.006,29.764-12.013,31.765-28.032c0.592-5.861,5.824-10.132,11.685-9.54c5.861,0.592,10.132,5.824,9.54,11.685 c-0.017,0.167-0.038,0.334-0.063,0.5C470.584,278.639,447.892,298.67,420.992,298.667z"/><path d="M245.333,128H96c-5.891,0-10.667-4.776-10.667-10.667S90.109,106.667,96,106.667h149.333 c5.891,0,10.667,4.776,10.667,10.667S251.224,128,245.333,128z"/><path d="M394.667,234.667c-64.801,0-117.333-52.532-117.333-117.333S329.865,0,394.667,0S512,52.532,512,117.333 C511.929,182.106,459.439,234.596,394.667,234.667z M394.667,21.333c-53.019,0-96,42.981-96,96s42.981,96,96,96s96-42.981,96-96 S447.686,21.333,394.667,21.333z"/></symbol><symbol id="carrito-de-compras-1" viewBox="0 0 512.008 512.008"><title>carrito-de-compras-1</title><path style="fill:#FFC107;" d="M508.288,85.764c-3.04-3.648-7.552-5.76-12.288-5.76H107.52c-4.96,0-9.664,2.304-12.704,6.24 c-3.008,3.968-4.032,9.088-2.752,13.888l51.2,191.36c1.888,7.04,8.224,11.872,15.456,11.872c0.256,0,0.544,0,0.8-0.032l305.28-15.36 c7.392-0.384,13.6-5.792,14.944-13.088l32-176C512.608,94.18,511.328,89.38,508.288,85.764z"/><g> <circle style="fill:#455A64;" cx="208" cy="448.004" r="48"/> <circle style="fill:#455A64;" cx="400" cy="448.004" r="48"/> <path style="fill:#455A64;" d="M432,368.004H176c-7.264,0-13.6-4.864-15.456-11.872L78.272,48.004H16c-8.832,0-16-7.168-16-16 s7.168-16,16-16h74.56c7.264,0,13.6,4.864,15.456,11.872l82.272,308.128H432c8.832,0,16,7.168,16,16S440.832,368.004,432,368.004z"/> </g><g> <path style="fill:#FAFAFA;" d="M320,256.004c-8.832,0-16-7.168-16-16v-96c0-8.832,7.168-16,16-16s16,7.168,16,16v96 C336,248.836,328.832,256.004,320,256.004z"/> <path style="fill:#FAFAFA;" d="M368,208.004h-96c-8.832,0-16-7.168-16-16s7.168-16,16-16h96c8.832,0,16,7.168,16,16 S376.832,208.004,368,208.004z"/> </g></symbol><symbol id="add-cart" viewBox="0 0 512 512"><title>add-cart</title><path style="fill:#EAE9E8;" d="M348.747,289.213c-0.271-4.259,2.962-7.931,7.221-8.202l96.511-6.138 c2.447-0.177,14.663-1.752,14.663-15.369V140.591c0-9.391-4.924-14.885-14.636-16.333l-300.59-29.016 c-4.248-0.409-7.359-4.186-6.949-8.435c0.409-4.248,4.184-7.353,8.434-6.948c0.308,0.03,300.826,29.035,301.133,29.077 c13.565,1.946,28.061,11.282,28.061,31.655v118.912c0,23.066-19.096,30.23-29.194,30.796l-96.454,6.134 C352.609,296.696,349.014,293.407,348.747,289.213z"/><g> <path style="fill:#BABABA;" d="M323.094,288.443c-4.267,0-7.727-3.46-7.727-7.727V96.55c0-4.267,3.46-7.727,7.727-7.727 s7.727,3.46,7.727,7.727v184.167C330.82,284.983,327.361,288.443,323.094,288.443z"/> <path style="fill:#BABABA;" d="M270.345,289.559c-4.267,0-7.727-3.459-7.727-7.727V91.408c0-4.268,3.46-7.727,7.727-7.727 s7.727,3.459,7.727,7.727v190.425C278.072,286.101,274.613,289.559,270.345,289.559z"/> <path style="fill:#BABABA;" d="M217.598,295.34c-4.267,0-7.727-3.46-7.727-7.727V87.551c0-4.267,3.46-7.727,7.727-7.727 c4.267,0,7.727,3.46,7.727,7.727v200.063C225.325,291.879,221.866,295.34,217.598,295.34z"/> </g><path style="fill:#49B5CE;" d="M453.454,404.771H172.585v-18.93l37.795-69.283l131.351-10.138 c8.848-0.684,15.468-8.409,14.785-17.259c-0.683-8.848-8.41-15.478-17.258-14.784l-127.264,9.821l-74.26-246.112 c-1.582-5.24-5.722-9.317-10.987-10.814L33.076,0.618c-8.539-2.43-17.426,2.519-19.853,11.058 C10.794,20.212,15.745,29.1,24.28,31.528l85.224,24.251l73.548,243.762c-44.022,80.7-42.606,76.556-42.606,82.201v39.097 c0,8.876,7.193,16.069,16.07,16.069h3.66c13.028,0,288.521,0,293.277,0c8.876,0,16.069-7.193,16.069-16.069 C469.523,411.966,462.33,404.771,453.454,404.771z"/><path style="fill:#4A94CC;" d="M465.95,410.747c-1.056,7.853-7.766,13.911-15.907,13.911h-7.921c-9.156,0-249.772,0-270.473,0 c-8.876,0-16.07-7.191-16.07-16.069v-21.582c0-5.665-1.248-1.864,41.41-79.376l0,0c1.075-1.558,3.04-6.628,1.115-13.007 c0-0.001,0-0.002,0-0.002L122.577,44.56L37.352,20.309C28.787,17.87,23.742,8.878,26.39,0.176C9.378,2.63,7.618,26.787,24.28,31.528 l85.224,24.251l73.548,243.762c-44.022,80.7-42.606,76.556-42.606,82.201v39.097c0,8.876,7.193,16.069,16.07,16.069 c7.757,0,10.041,0,17.783,0c4.985,0,272.589,0,279.156,0c8.876,0,16.069-7.193,16.069-16.069 C469.523,417.016,468.182,413.507,465.95,410.747z"/><circle style="fill:#414356;" cx="203.321" cy="468.829" r="43.146"/><path style="fill:#2E3244;" d="M180.782,468.834c0-20.278,13.991-37.278,32.844-41.899c-27.367-6.703-53.449,14.07-53.449,41.899 c0,27.878,26.145,48.596,53.449,41.9C194.773,506.113,180.782,489.111,180.782,468.834z"/><circle style="fill:#BABABA;" cx="203.321" cy="468.829" r="14.275"/><path style="fill:#9C9CA0;" d="M213.626,458.97c-8.858-9.25-24.578-3.001-24.578,9.865c0,12.862,15.715,19.118,24.578,9.865 C208.323,473.163,208.332,464.498,213.626,458.97z"/><g> <path style="fill:#BABABA;" d="M383.568,294.741V100.407c0-4.268-3.46-7.727-7.727-7.727s-7.727,3.459-7.727,7.727v195.316 C371.504,295.508,377.017,295.157,383.568,294.741z"/> <path style="fill:#BABABA;" d="M436.316,291.386V106.834c0-4.267-3.46-7.727-7.727-7.727s-7.727,3.46-7.727,7.727v185.535 C426.951,291.981,432.357,291.637,436.316,291.386z"/> </g><circle style="fill:#414356;" cx="411.124" cy="468.829" r="43.146"/><path style="fill:#2E3244;" d="M388.587,468.834c0-20.278,13.992-37.278,32.844-41.899c-27.367-6.703-53.449,14.07-53.449,41.899 c0,27.878,26.145,48.596,53.449,41.9C402.579,506.113,388.587,489.111,388.587,468.834z"/><circle style="fill:#BABABA;" cx="411.124" cy="468.829" r="14.275"/><path style="fill:#9C9CA0;" d="M421.431,458.97c-8.858-9.25-24.578-3.001-24.578,9.865c0,12.862,15.715,19.12,24.578,9.865 C416.128,473.163,416.138,464.498,421.431,458.97z"/><path style="fill:#3BBC56;" d="M434.77,169.397c-35.691,0-64.624-28.934-64.624-64.625s28.933-64.625,64.624-64.625 s64.625,28.934,64.625,64.625C499.394,140.464,470.461,169.397,434.77,169.397z"/><path style="fill:#149334;" d="M390.752,104.772c0-32.183,23.528-58.863,54.321-63.798c-3.356-0.538-6.795-0.827-10.303-0.827 c-35.691,0-64.624,28.934-64.624,64.625c0,39.706,35.508,70.12,74.927,63.798C414.28,163.635,390.752,136.955,390.752,104.772z"/><g> <path style="fill:#EAE9E8;" d="M461.247,113.472h-52.953c-4.267,0-7.727-3.459-7.727-7.727s3.46-7.727,7.727-7.727h52.953 c4.267,0,7.727,3.459,7.727,7.727S465.514,113.472,461.247,113.472z"/> <path style="fill:#EAE9E8;" d="M434.77,139.949c-4.267,0-7.727-3.459-7.727-7.727V79.269c0-4.268,3.46-7.727,7.727-7.727 s7.727,3.459,7.727,7.727v52.952C442.497,136.49,439.038,139.949,434.77,139.949z"/> </g></symbol><symbol id="espalda" viewBox="0 0 220.682 220.682"><title>espalda</title><polygon points="99.702,210.043 127.986,181.758 56.569,110.341 127.986,38.924 99.702,10.639 0,110.341 "/><polygon points="192.398,10.639 92.695,110.341 192.398,210.043 220.682,181.758 149.264,110.341 220.682,38.924 "/></symbol><symbol id="derecho" viewBox="0 0 220.682 220.682"><title>derecho</title><polygon points="92.695,38.924 164.113,110.341 92.695,181.758 120.979,210.043 220.682,110.341 120.979,10.639 "/><polygon points="28.284,210.043 127.986,110.341 28.284,10.639 0,38.924 71.417,110.341 0,181.758 "/></symbol></svg>