<?xml version="1.0" encoding="UTF-8" standalone="no"?>
<svg
   xmlns:dc="http://purl.org/dc/elements/1.1/"
   xmlns:cc="http://creativecommons.org/ns#"
   xmlns:rdf="http://www.w3.org/1999/02/22-rdf-syntax-ns#"
   xmlns:svg="http://www.w3.org/2000/svg"
   xmlns="http://www.w3.org/2000/svg"
   viewBox="0 0 773.33332 773.0373"
   height="773.03729"
   width="773.33331"
   xml:space="preserve"
   id="svg2"
   version="1.1"><metadata
     id="metadata8"><rdf:RDF><cc:Work
         rdf:about=""><dc:format>image/svg+xml</dc:format><dc:type
           rdf:resource="http://purl.org/dc/dcmitype/StillImage" /></cc:Work></rdf:RDF></metadata><defs
     id="defs6"><clipPath
       id="clipPath18"
       clipPathUnits="userSpaceOnUse"><path
         id="path16"
         d="M 0,650 H 650 V 0 H 0 Z" /></clipPath></defs><g
     transform="matrix(1.3333333,0,0,-1.3333333,-47.333332,819.90171)"
     id="g10"><g
       id="g12"><g
         clip-path="url(#clipPath18)"
         id="g14"><g
           transform="translate(325.5,609.9263)"
           id="g20"><path
             id="path22"
             style="fill:#005db9;fill-opacity:1;fill-rule:nonzero;stroke:none"
             d="m 0,0 c 157.401,0 285,-127.549 285,-284.889 0,-157.34 -127.599,-284.889 -285,-284.889 -157.401,0 -285,127.549 -285,284.889 C -285,-127.549 -157.401,0 0,0" /></g><g
           transform="translate(221.9648,271.1758)"
           id="g24"><path
             id="path26"
             style="fill:#546366;fill-opacity:1;fill-rule:nonzero;stroke:none"
             d="m 0,0 c 15.363,27.376 39.855,59.203 15.141,107.501 -49.207,176.72 131.367,201.647 156.75,132.429 41.191,-16.471 40.3,-106.611 18.925,-154.018 C 189.926,66.548 174.562,50.301 209.297,0.223 117.34,-15.135 63.902,-10.016 0,0" /></g><g
           transform="translate(297.668,321.9219)"
           id="g28"><path
             id="path30"
             style="fill:#ffd18d;fill-opacity:1;fill-rule:nonzero;stroke:none"
             d="m 0,0 c -1.559,-30.047 -12.246,-39.396 -27.164,-47.186 -7.57,-6.676 -61.008,-10.682 -80.602,-35.165 -16.922,-21.144 -30.504,-92.144 -38.074,-140.664 15.809,-12.018 32.731,-22.479 50.766,-31.16 l 8.238,88.583 c 0,0 6.012,-43.846 11.578,-49.855 3.117,-3.562 4.008,-23.37 4.231,-42.734 l 23.601,-13.577 c 24.047,-6.677 49.207,-10.015 75.481,-10.015 24.715,0 48.539,3.116 71.25,8.903 l 25.383,14.689 c 0.222,19.141 -0.223,37.837 4.23,42.734 4.453,4.896 11.578,49.855 11.578,49.855 l 6.902,-90.14 c 18.481,8.457 35.848,18.918 51.879,30.936 -5.566,46.74 -15.363,116.404 -29.168,139.775 -16.922,28.488 -72.586,31.381 -79.488,37.168 -14.473,8.013 -24.937,18.029 -26.496,48.075 0,0 -21.598,-16.693 -34.957,-14.244 C 15.809,-11.352 0.445,0.222 0.445,0.222 Z" /></g><g
           transform="translate(288.5391,288.9814)"
           id="g32"><path
             id="path34"
             style="fill:#e3e7ed;fill-opacity:1;fill-rule:nonzero;stroke:none"
             d="m 0,0 c -4.676,-6.455 -10.688,-10.684 -17.812,-14.245 -7.571,-6.677 -61.008,-10.683 -80.602,-35.165 -16.922,-21.145 -30.281,-92.367 -37.852,-140.887 16.477,-12.686 34.512,-23.593 53.438,-32.495 l 5.121,89.918 c 0,0 7.348,-45.404 11.578,-49.855 3.117,-3.339 3.563,-27.599 3.785,-48.521 30.949,-11.573 64.348,-17.806 99.305,-17.806 34.066,0 66.797,6.01 97.078,16.916 0.223,20.921 0.668,46.072 3.785,49.411 4.231,4.451 11.578,49.855 11.578,49.855 l 6.012,-90.586 c 19.816,9.125 38.297,20.254 55.441,33.386 -6.457,46.294 -18.257,114.4 -31.839,137.548 -16.922,28.488 -72.586,31.381 -79.489,37.169 -6.234,3.56 -11.578,7.344 -16.031,12.909 L 43.418,-79.013 -0.223,0 Z" /></g><g
           transform="translate(297,312.5732)"
           id="g36"><path
             id="path38"
             style="fill:#ffb97a;fill-opacity:1;fill-rule:nonzero;stroke:none"
             d="m 0,0 c 7.793,-4.674 20.93,-19.363 33.398,-19.586 12.247,-0.223 29.614,18.028 32.063,19.363 -0.223,1.782 -0.445,3.562 -0.445,5.342 L 64.793,4.896 C 64.125,4.452 42.973,-12.241 29.836,-9.57 16.699,-7.122 2.004,4.229 1.113,4.896 L 0.891,5.119 C 0.668,3.339 0.668,1.559 0.445,0 Z" /></g><g
           transform="translate(262.9336,369.9966)"
           id="g40"><path
             id="path42"
             style="fill:#ffd18d;fill-opacity:1;fill-rule:nonzero;stroke:none"
             d="m 0,0 c 13.359,-28.489 18.258,-39.618 34.734,-52.527 0,0 15.364,-11.796 28.723,-14.467 13.359,-2.671 34.957,14.467 34.957,14.467 16.477,12.909 21.598,24.038 34.734,52.527 3.34,-1.781 6.68,-4.006 9.352,-1.113 2.672,3.116 15.363,42.511 12.914,47.852 -2.227,5.342 -6.902,1.558 -7.793,-0.445 -0.668,-0.89 -1.336,-4.896 -2.226,-4.896 -0.891,0 -1.114,1.78 -2.45,5.564 -3.785,10.906 -11.8,22.034 -14.695,58.313 C 67.91,45.404 11.355,72.78 -8.238,68.774 c -5.121,-1.113 -5.567,-13.577 -5.121,-20.922 0,-0.89 1.336,-4.228 0.89,-4.451 -0.668,0 -2.672,3.338 -3.117,3.561 -19.594,12.686 5.566,-47.407 6.012,-48.075 2.672,-3.116 6.011,-0.668 9.351,1.113 z" /></g><g
           transform="translate(224.8594,58.3994)"
           id="g44"><path
             id="path46"
             style="fill:#537290;fill-opacity:1;fill-rule:nonzero;stroke:none"
             d="m 0,0 c -0.223,20.254 -0.668,43.624 -0.891,45.627 -14.695,16.024 -14.472,52.304 -14.472,52.304 0,0 16.922,19.586 30.058,44.291 20.93,2.448 85.278,0.445 85.278,0.445 0,0 64.125,2.003 85.277,-0.445 4.898,-16.47 30.059,-44.291 30.059,-44.291 0.668,-5.342 -4.454,-45.85 -13.805,-50.746 -0.445,-1.558 -0.891,-26.708 -1.336,-47.853 C 169.441,-12.019 136.043,-18.251 101.309,-18.251 65.906,-18.251 31.84,-11.796 0.445,0 Z" /></g><g
           transform="translate(266.0508,272.9561)"
           id="g48"><path
             id="path50"
             style="fill:#6280a0;fill-opacity:1;fill-rule:nonzero;stroke:none"
             d="m 0,0 -7.793,-105.721 c -0.223,-3.338 -4.453,-7.567 -15.141,-7.344 -10.687,0.445 -9.129,9.348 -9.129,9.348 l 10.243,97.04 22.043,6.454 z" /></g><g
           transform="translate(396.3047,271.3984)"
           id="g52"><path
             id="path54"
             style="fill:#6280a0;fill-opacity:1;fill-rule:nonzero;stroke:none"
             d="m 0,0 -0.445,-102.827 c 0,-3.339 4.453,-8.681 15.363,-8.236 10.687,0.446 11.133,10.016 11.133,10.016 L 22.488,-5.787 0,0.223 Z" /></g><g
           transform="translate(245.5664,179.6992)"
           id="g56"><path
             id="path58"
             style="fill:#ffe347;fill-opacity:1;fill-rule:nonzero;stroke:none"
             d="m 0,0 c 3.785,0 6.902,-3.115 6.902,-6.899 0,-3.784 -3.117,-6.9 -6.902,-6.9 -3.785,0 -6.902,3.116 -6.902,6.9 C -6.902,-3.115 -3.785,0 0,0" /></g><g
           transform="translate(408.7734,179.6992)"
           id="g60"><path
             id="path62"
             style="fill:#ffe347;fill-opacity:1;fill-rule:nonzero;stroke:none"
             d="m 0,0 c 3.785,0 6.902,-3.115 6.902,-6.899 0,-3.784 -3.117,-6.9 -6.902,-6.9 -3.785,0 -6.902,3.116 -6.902,6.9 C -6.902,-3.115 -3.785,0 0,0" /></g><g
           transform="translate(288.0937,289.6484)"
           id="g64"><path
             id="path66"
             style="fill:#ffffff;fill-opacity:1;fill-rule:nonzero;stroke:none"
             d="m 0,0 25.383,-46.071 c 0,0 -24.938,2.448 -29.836,-6.233 -4.899,-8.679 -16.031,-19.14 -16.031,-19.14 l 14.472,64.099 z" /></g><g
           transform="translate(372.7031,288.5361)"
           id="g68"><path
             id="path70"
             style="fill:#ffffff;fill-opacity:1;fill-rule:nonzero;stroke:none"
             d="m 0,0 -23.379,-45.182 c 0,0 24.047,2.894 28.945,-5.787 4.899,-8.679 15.364,-16.247 15.364,-16.247 L 7.348,-6.232 Z" /></g><g
           transform="translate(425.6953,479.2778)"
           id="g72"><path
             id="path74"
             style="fill:#ffffff;fill-opacity:1;fill-rule:nonzero;stroke:none"
             d="M 0,0 V -71 H -13.137 V 0 c 0,30.937 -22.043,50.746 -50.097,59.426 -11.133,3.561 -23.379,5.119 -35.625,5.119 -12.246,0 -24.493,-1.78 -35.625,-5.119 C -162.539,50.746 -184.582,30.937 -184.582,0 v -71 h -13.137 V 0 c 0,36.947 25.828,60.539 59.004,71 12.692,4.006 26.274,5.787 39.856,5.787 13.582,0 27.164,-2.004 39.855,-5.787 C -25.828,60.762 0,37.169 0,0" /></g><g
           transform="translate(243.5625,423.6357)"
           id="g76"><path
             id="path78"
             style="fill:#6280a0;fill-opacity:1;fill-rule:nonzero;stroke:none"
             d="m 0,0 h -6.234 c -5.789,0 -10.688,-4.896 -10.688,-10.684 v -41.62 c 0,-5.787 4.899,-10.683 10.688,-10.683 H 0 c 5.789,0 10.688,4.896 10.688,10.683 v 41.62 C 10.688,-4.896 5.789,0 0,0" /></g><g
           transform="translate(238.6641,427.1968)"
           id="g80"><path
             id="path82"
             style="fill:#ffe347;fill-opacity:1;fill-rule:nonzero;stroke:none"
             d="m 0,0 h -12.914 c -1.781,0 -3.117,-1.558 -3.117,-3.116 v -63.655 c 0,-1.78 1.558,-3.116 3.117,-3.116 H 0 c 1.781,0 3.117,1.558 3.117,3.116 V -3.116 C 3.117,-1.335 1.559,0 0,0" /></g><g
           transform="translate(410.7773,423.6357)"
           id="g84"><path
             id="path86"
             style="fill:#6280a0;fill-opacity:1;fill-rule:nonzero;stroke:none"
             d="m 0,0 h 6.234 c 5.789,0 10.688,-4.896 10.688,-10.684 v -41.62 c 0,-5.787 -4.899,-10.683 -10.688,-10.683 H 0 c -5.789,0 -10.688,4.896 -10.688,10.683 v 41.62 C -10.688,-4.896 -5.789,0 0,0" /></g><g
           transform="translate(415.6758,427.1968)"
           id="g88"><path
             id="path90"
             style="fill:#ffe347;fill-opacity:1;fill-rule:nonzero;stroke:none"
             d="m 0,0 h 12.914 c 1.781,0 3.117,-1.558 3.117,-3.116 v -63.655 c 0,-1.78 -1.558,-3.116 -3.117,-3.116 H 0 c -1.781,0 -3.117,1.558 -3.117,3.116 V -3.116 C -3.117,-1.335 -1.559,0 0,0" /></g><g
           transform="translate(309.4687,304.1162)"
           id="g92"><path
             id="path94"
             style="fill:#ffffff;fill-opacity:1;fill-rule:nonzero;stroke:none"
             d="m 0,0 c -9.574,0.223 -18.926,1.558 -27.609,4.229 -23.379,7.344 -41.637,23.814 -41.637,49.41 V 64.99 c 0.223,4.229 -9.352,6.454 -10.91,0 V 53.639 c 0,-30.715 21.597,-50.524 49.207,-58.981 9.797,-3.116 20.484,-4.674 31.172,-4.896 v 10.015 z" /></g><g
           transform="translate(309.9141,315.2441)"
           id="g96"><path
             id="path98"
             style="fill:#546366;fill-opacity:1;fill-rule:nonzero;stroke:none"
             d="m 0,0 h 26.719 c 3.117,0 5.789,-2.671 5.789,-5.786 v -18.028 c 0,-3.117 -2.672,-5.788 -5.789,-5.788 H 0 c -3.117,0 -5.789,2.671 -5.789,5.788 V -5.786 C -5.789,-2.671 -3.117,0 0,0" /></g><g
           transform="translate(305.4609,310.793)"
           id="g100"><path
             id="path102"
             style="fill:#687779;fill-opacity:1;fill-rule:nonzero;stroke:none"
             d="m 0,0 h 35.625 c 0.668,0 1.336,-0.668 1.336,-1.335 v -17.806 c 0,-0.668 -0.668,-1.336 -1.336,-1.336 H 0 c -0.668,0 -1.336,0.668 -1.336,1.336 V -1.335 C -1.336,-0.668 -0.668,0 0,0" /></g><g
           transform="translate(586.5,364.4995)"
           id="g104"><path
             id="path106"
             style="fill:#ffffff;fill-opacity:1;fill-rule:nonzero;stroke:none"
             d="m 0,0 v -21.181 c 0,-24.153 -19.595,-43.746 -43.772,-43.746 h -17.35 c -3.426,0 -6.698,-1.082 -9.436,-3.006 -1.519,-1.06 -2.877,-2.378 -4.006,-3.903 -6.893,-9.277 -17.932,-15.294 -30.378,-15.294 -3.371,0 -6.628,0.436 -9.732,1.259 -2.059,0.547 -2.427,3.271 -0.619,4.39 5.661,3.508 10.314,8.465 13.47,14.365 0.116,0.228 0.177,0.465 0.177,0.693 0,0.785 -0.642,1.496 -1.512,1.496 -24.163,0 -43.763,19.593 -43.763,43.746 V 0 c 0,24.168 19.6,43.76 43.763,43.76 h 59.386 C -19.595,43.76 0,24.168 0,0" /></g><g
           transform="translate(485.6846,353.2886)"
           id="g108"><path
             id="path110"
             style="fill:#005db9;fill-opacity:1;fill-rule:nonzero;stroke:none"
             d="m 0,0 c 0,-5.12 -4.149,-9.269 -9.272,-9.269 -5.118,0 -9.267,4.149 -9.267,9.269 0,5.115 4.149,9.264 9.267,9.264 C -4.149,9.264 0,5.115 0,0" /></g><g
           transform="translate(325.5,609.9263)"
           id="g112"><path
             id="path114"
             style="fill:none;stroke:#009579;stroke-width:10;stroke-linecap:butt;stroke-linejoin:miter;stroke-miterlimit:10;stroke-dasharray:none;stroke-opacity:1"
             d="m 0,0 c 157.401,0 285,-127.549 285,-284.889 0,-157.34 -127.599,-284.889 -285,-284.889 -157.401,0 -285,127.549 -285,284.889 C -285,-127.549 -157.401,0 0,0 Z" /></g><g
           transform="translate(295.0312,106.4473)"
           id="g116"><path
             id="path118"
             style="fill:#ffffff;fill-opacity:1;fill-rule:nonzero;stroke:none"
             d="m 0,0 c -4.329,0 -7.852,3.522 -7.852,7.852 v 52.419 c 0,4.032 3.008,7.38 7.005,7.808 1.187,0.256 2.521,0.291 3.785,0.291 0.682,0 1.426,-0.013 2.247,-0.025 0.999,-0.017 2.114,-0.035 3.37,-0.035 2.503,0 4.623,-0.103 6.025,-0.169 0.67,-0.033 1.208,-0.059 1.542,-0.062 l 0.035,0.045 h 44.612 c 4.331,0 7.852,-3.522 7.852,-7.853 V 7.852 C 68.621,3.522 65.1,0 60.769,0 Z" /></g><g
           transform="translate(297.9697,175.6963)"
           id="g120"><path
             id="path122"
             style="fill:#005db9;fill-opacity:1;fill-rule:nonzero;stroke:none"
             d="M 0,0 V -1.757 0 c -1.298,0 -2.671,-0.037 -3.926,-0.302 -4.421,-0.496 -7.742,-4.209 -7.742,-8.676 v -52.419 c 0,-4.814 3.917,-8.73 8.73,-8.73 H 57.83 c 4.815,0 8.731,3.916 8.731,8.73 v 52.419 c 0,4.816 -3.916,8.732 -8.731,8.732 H 13.658 12.78 L 12.755,-0.28 c -0.291,0.011 -0.654,0.028 -1.071,0.049 -1.412,0.068 -3.543,0.169 -6.068,0.169 -1.247,0 -2.368,0.019 -3.356,0.036 C 1.434,-0.013 0.686,0 0,0 m 0,-1.757 c 1.509,0 3.331,-0.06 5.616,-0.06 3.774,0 6.614,-0.232 7.634,-0.232 0.243,0 0.383,0.014 0.408,0.046 H 57.83 c 3.851,0 6.974,-3.122 6.974,-6.975 v -52.419 c 0,-3.852 -3.123,-6.973 -6.974,-6.973 H -2.938 c -3.851,0 -6.972,3.121 -6.972,6.973 v 52.419 c 0,3.614 2.745,6.585 6.264,6.939 1.013,0.225 2.183,0.282 3.646,0.282" /></g><g
           transform="translate(303.3799,181.5078)"
           id="g124"><path
             id="path126"
             style="fill:#005db9;fill-opacity:1;fill-rule:nonzero;stroke:none"
             d="m 0,0 c -4.959,0 -9.289,-3.694 -9.289,-9.183 0,-4.752 3.273,-7.919 7.706,-7.919 h 0.106 c 5.174,0 9.607,3.379 9.607,9.186 C 8.13,-3.06 4.753,0 0,0" /></g><g
           transform="translate(303.3799,181.5078)"
           id="g128"><path
             id="path130"
             style="fill:none;stroke:#005db9;stroke-width:0.347;stroke-linecap:butt;stroke-linejoin:miter;stroke-miterlimit:10;stroke-dasharray:none;stroke-opacity:1"
             d="m 0,0 c -4.959,0 -9.289,-3.694 -9.289,-9.183 0,-4.752 3.273,-7.919 7.706,-7.919 h 0.106 c 5.174,0 9.607,3.379 9.607,9.186 C 8.13,-3.06 4.753,0 0,0 Z" /></g><g
           transform="translate(360.7812,114.2988)"
           id="g132"><path
             id="path134"
             style="fill:#005db9;fill-opacity:1;fill-rule:nonzero;stroke:none"
             d="M 0,0 C 0,-2.749 -2.229,-4.981 -4.981,-4.981 H -65.75 c -2.751,0 -4.982,2.232 -4.982,4.981 v 52.419 c 0,2.752 2.231,4.983 4.982,4.983 H -4.981 C -2.229,57.402 0,55.171 0,52.419 Z" /></g><g
           transform="translate(360.7812,114.2988)"
           id="g136"><path
             id="path138"
             style="fill:none;stroke:#005db9;stroke-width:0.65399998;stroke-linecap:butt;stroke-linejoin:miter;stroke-miterlimit:18;stroke-dasharray:none;stroke-opacity:1"
             d="M 0,0 C 0,-2.749 -2.229,-4.981 -4.981,-4.981 H -65.75 c -2.751,0 -4.982,2.232 -4.982,4.981 v 52.419 c 0,2.752 2.231,4.983 4.982,4.983 H -4.981 C -2.229,57.402 0,55.171 0,52.419 Z" /></g><g
           transform="translate(350.9209,122.4893)"
           id="g140"><path
             id="path142"
             style="fill:#ffffff;fill-opacity:1;fill-rule:nonzero;stroke:none"
             d="m 0,0 h 9.891 v 40.389 c -0.971,0.278 -2.04,0.422 -3.198,0.422 -5.225,0 -10.202,-2.45 -13.795,-7.591 -0.326,3.509 -3.101,7.591 -9.466,7.591 -5.142,0 -9.958,-2.287 -13.631,-7.43 h -0.164 l 0.733,6.532 h -10.119 c -0.489,-3.592 -1.061,-7.918 -2.042,-12.976 L -46.768,0 h 11.345 l 3.346,17.957 c 1.389,7.835 5.551,13.387 9.55,13.387 2.857,0 3.755,-2.124 3.755,-4.898 0,-1.389 -0.245,-2.938 -0.491,-4.49 L -23.425,0 h 11.346 l 3.345,18.038 c 1.55,8.08 5.468,13.306 9.387,13.306 2.694,0 3.919,-1.96 3.919,-4.737 0,-1.55 -0.247,-3.263 -0.574,-4.815 z" /></g><g
           transform="translate(350.9209,122.4893)"
           id="g144"><path
             id="path146"
             style="fill:none;stroke:#ffffff;stroke-width:0.59799999;stroke-linecap:butt;stroke-linejoin:miter;stroke-miterlimit:10;stroke-dasharray:none;stroke-opacity:1"
             d="m 0,0 h 9.891 v 40.389 c -0.971,0.278 -2.04,0.422 -3.198,0.422 -5.225,0 -10.202,-2.45 -13.795,-7.591 -0.326,3.509 -3.101,7.591 -9.466,7.591 -5.142,0 -9.958,-2.287 -13.631,-7.43 h -0.164 l 0.733,6.532 h -10.119 c -0.489,-3.592 -1.061,-7.918 -2.042,-12.976 L -46.768,0 h 11.345 l 3.346,17.957 c 1.389,7.835 5.551,13.387 9.55,13.387 2.857,0 3.755,-2.124 3.755,-4.898 0,-1.389 -0.245,-2.938 -0.491,-4.49 L -23.425,0 h 11.346 l 3.345,18.038 c 1.55,8.08 5.468,13.306 9.387,13.306 2.694,0 3.919,-1.96 3.919,-4.737 0,-1.55 -0.247,-3.263 -0.574,-4.815 z" /></g><g
           transform="translate(294.8545,162.4023)"
           id="g148"><path
             id="path150"
             style="fill:#ffffff;fill-opacity:1;fill-rule:nonzero;stroke:none"
             d="M 0,0 -4.891,-25.726 V -39.913 H 4.164 L 11.673,0 Z" /></g><g
           transform="translate(294.8545,162.4023)"
           id="g152"><path
             id="path154"
             style="fill:none;stroke:#ffffff;stroke-width:0.59799999;stroke-linecap:butt;stroke-linejoin:miter;stroke-miterlimit:10;stroke-dasharray:none;stroke-opacity:1"
             d="M 0,0 -4.891,-25.726 V -39.913 H 4.164 L 11.673,0 Z" /></g><g
           transform="translate(303.3437,179.4414)"
           id="g156"><path
             id="path158"
             style="fill:#ffffff;fill-opacity:1;fill-rule:nonzero;stroke:none"
             d="m 0,0 c -3.835,0 -7.182,-2.856 -7.182,-7.099 0,-3.675 2.53,-6.122 5.957,-6.122 h 0.082 c 4,0 7.428,2.61 7.428,7.1 C 6.285,-2.367 3.673,0 0,0" /></g><g
           transform="translate(303.3437,179.4414)"
           id="g160"><path
             id="path162"
             style="fill:none;stroke:#ffffff;stroke-width:1.19599998;stroke-linecap:butt;stroke-linejoin:miter;stroke-miterlimit:10;stroke-dasharray:none;stroke-opacity:1"
             d="m 0,0 c -3.835,0 -7.182,-2.856 -7.182,-7.099 0,-3.675 2.53,-6.122 5.957,-6.122 h 0.082 c 4,0 7.428,2.61 7.428,7.1 C 6.285,-2.367 3.673,0 0,0 Z" /></g><g
           transform="translate(304.4414,112.1689)"
           id="g164"><path
             id="path166"
             style="fill:#ffffff;fill-opacity:1;fill-rule:evenodd;stroke:none"
             d="m 0,0 h -8.562 l 4.528,6.132 H 6.27 L 5.214,4.698 H -1.083 L -1.717,3.836 3.598,3.837 2.566,2.435 H -2.748 L -3.456,1.472 H 2.881 C 2.106,0.531 1.037,0 0,0 M 5.268,0 H 2.937 l 4.515,6.12 h 5.175 c 1.224,0 2.12,-0.016 2.698,-0.084 C 15.884,5.983 16.358,5.917 16.668,5.815 17.574,5.521 18.113,4.931 17.46,4.047 17.225,3.725 16.907,3.438 16.512,3.185 14.831,2.115 12.759,1.905 10.81,1.905 H 8.434 C 7.618,0.666 6.562,0.031 5.268,0 m 6.473,4.637 v 0 H 10.414 L 9.468,3.354 h 1.469 c 0.715,0 1.682,-0.028 2.288,0.433 0.228,0.173 0.542,0.565 0.097,0.714 -0.276,0.101 -0.81,0.136 -1.581,0.136 M 40.453,4.345 v 0 h -3.95 c 0.2,0.558 -0.987,0.541 -1.245,0.541 -0.429,0 -1.38,-0.022 -1.677,-0.423 -0.294,-0.399 1.2,-0.48 1.282,-0.49 C 36.055,3.824 38.047,3.842 38.936,3.045 39.827,2.247 38.478,1.342 37.848,1 36.01,0.031 33.866,-0.166 31.816,-0.166 c -0.874,0 -1.676,0.052 -2.369,0.15 -0.639,0.113 -1.998,0.363 -2.137,1.185 -0.062,0.203 0.007,0.438 0.135,0.709 h 3.987 c -0.114,-0.665 1.252,-0.59 1.595,-0.59 0.468,0 1.441,-0.04 1.767,0.404 0.1,0.135 0.104,0.237 -0.023,0.303 -0.461,0.35 -1.875,0.345 -2.485,0.424 -0.677,0.079 -2.567,0.254 -2.929,0.965 -0.502,0.678 0.802,1.564 1.262,1.804 1.702,0.897 3.773,1.1 5.67,1.1 0.805,0 1.466,-0.052 2.08,-0.118 0.956,-0.134 2.681,-0.466 2.084,-1.825 M 41.352,0 h -4.139 l 9.062,6.132 H 50.51 V 0 h -4.135 l 0.108,0.812 h -4.064 z m 5.318,2.062 0.312,2.23 -2.937,-2.23 z M 19.667,2.247 17.842,6.132 h 4.65 l 0.606,-2.077 3.695,2.077 h 4.616 L 23.857,2.244 C 23.748,2.1 22.97,1.047 22.521,0.436 22.121,-0.058 21.693,0 21.693,0 h -3.68 z" /></g></g></g></g></svg>