<?xml version="1.0" encoding="utf-8"?>
<!-- Generator: Adobe Illustrator 26.5.0, SVG Export Plug-In . SVG Version: 6.00 Build 0)  -->
<svg version="1.1" xmlns="http://www.w3.org/2000/svg" xmlns:xlink="http://www.w3.org/1999/xlink" x="0px" y="0px"
	 viewBox="0 0 331 63" style="enable-background:new 0 0 331 63;" xml:space="preserve">
<style type="text/css">
	.st0{display:none;}
	.st1{display:inline;}
	.st2{fill:#009579;}
	.st3{fill:#005CB9;}
	.st4{fill:#FFFFFF;}
	.st5{fill-rule:evenodd;clip-rule:evenodd;fill:#FFFFFF;}
</style>
<g id="_x36_1x63_px_logo_web_mobile" class="st0">
	<g class="st1">
		<g>
			<rect x="0.14" y="100.6" class="st2" width="61" height="50.6"/>
		</g>
		<g>
			<g>
				<g>
					<path class="st3" d="M50.99,92.41H10.27c-2.45,0-4.44,2-4.44,4.46v36.45c0,2.46,1.99,4.46,4.44,4.46h40.72
						c2.45,0,4.44-2,4.44-4.46V96.86C55.43,94.4,53.44,92.41,50.99,92.41z"/>
				</g>
			</g>
			<g>
				<g>
					<path class="st4" d="M49.96,93.45H11.31c-2.45,0-4.44,2-4.44,4.46v34.37c0,2.46,1.99,4.46,4.44,4.46h38.65
						c2.45,0,4.44-2,4.44-4.46V97.9C54.39,95.44,52.41,93.45,49.96,93.45z"/>
				</g>
			</g>
			<g>
				<g>
					<path class="st3" d="M49.66,94.49H11.6c-2.04,0-3.7,1.66-3.7,3.71v33.78c0,2.05,1.66,3.71,3.7,3.71h38.06
						c2.04,0,3.7-1.66,3.7-3.71V98.2C53.36,96.15,51.7,94.49,49.66,94.49z"/>
				</g>
			</g>
			<g>
				<g>
					<g>
						<path class="st5" d="M30.29,131.43l-0.96-2.1h2.44l0.32,1.12l1.94-1.12h2.42l-3.97,2.1c-0.06,0.08-0.47,0.65-0.7,0.98
							c-0.21,0.27-0.43,0.24-0.43,0.24h-1.93L30.29,131.43z M44.48,131.53l0.16-1.21l-1.54,1.21H44.48z M41.68,132.65h-2.17
							l4.76-3.31l2.22,0v3.31h-2.17l0.06-0.44h-2.13L41.68,132.65z M41.21,130.3L41.21,130.3h-2.08c0.11-0.3-0.52-0.29-0.65-0.29
							c-0.23,0-0.72,0.01-0.88,0.23c-0.15,0.22,0.63,0.26,0.67,0.27c0.63,0.08,1.67,0.07,2.14,0.5c0.47,0.43-0.24,0.92-0.57,1.1
							c-0.97,0.52-2.09,0.63-3.17,0.63c-0.46,0-0.88-0.03-1.24-0.08c-0.34-0.06-1.05-0.2-1.12-0.64c-0.03-0.11,0-0.24,0.07-0.38
							h2.09c-0.06,0.36,0.66,0.32,0.84,0.32c0.25,0,0.76,0.02,0.93-0.22c0.05-0.07,0.05-0.13-0.01-0.16
							c-0.24-0.19-0.99-0.19-1.31-0.23c-0.36-0.04-1.35-0.14-1.54-0.52c-0.26-0.37,0.42-0.85,0.66-0.98
							c0.89-0.48,1.98-0.59,2.98-0.59c0.42,0,0.77,0.03,1.09,0.06C40.62,129.39,41.53,129.57,41.21,130.3L41.21,130.3z
							 M26.13,130.14L26.13,130.14h-0.7l-0.5,0.69h0.77c0.38,0,0.88,0.01,1.2-0.23c0.12-0.09,0.29-0.31,0.05-0.39
							C26.82,130.16,26.54,130.14,26.13,130.14L26.13,130.14z M22.73,132.65h-1.22l2.37-3.31h2.72c0.64,0,1.11,0.01,1.42,0.05
							c0.29,0.03,0.54,0.06,0.7,0.12c0.48,0.16,0.76,0.48,0.42,0.96c-0.12,0.17-0.29,0.33-0.5,0.47c-0.88,0.58-1.97,0.69-2.99,0.69
							l-1.25,0C23.97,132.29,23.41,132.63,22.73,132.65L22.73,132.65z M19.97,132.65l-4.5,0l2.38-3.31h5.41l-0.55,0.77H19.4
							l-0.33,0.47h2.79l-0.54,0.76h-2.79l-0.37,0.52h3.33C21.07,132.36,20.51,132.65,19.97,132.65L19.97,132.65z"/>
					</g>
				</g>
			</g>
			<path class="st3" d="M16.71,88.25c-3.16,0-5.93,2.42-5.93,6.03c0,3.12,2.09,5.2,4.92,5.2h0.07c3.3,0,6.13-2.22,6.13-6.03
				C21.9,90.26,19.74,88.25,16.71,88.25z"/>
			<path class="st4" d="M47.01,127.1h6.37v-26.73c-0.62-0.19-1.31-0.28-2.06-0.28c-3.36,0-6.57,1.62-8.88,5.02
				c-0.21-2.32-2-5.02-6.09-5.02c-3.31,0-6.41,1.51-8.77,4.92h-0.1l0.47-4.32h-6.51c-0.32,2.38-0.68,5.24-1.31,8.59l-3.2,17.83h7.3
				l2.15-11.89c0.89-5.19,3.57-8.86,6.15-8.86c1.84,0,2.42,1.41,2.42,3.24c0,0.92-0.16,1.95-0.32,2.97l-2.68,14.53h7.3l2.15-11.94
				c1-5.35,3.52-8.81,6.04-8.81c1.73,0,2.52,1.3,2.52,3.13c0,1.03-0.16,2.16-0.37,3.19L47.01,127.1z"/>
			<polygon class="st4" points="10.93,100.68 7.78,117.71 7.78,127.1 13.6,127.1 18.44,100.68 			"/>
			<path class="st4" d="M16.68,89.61c-2.45,0-4.58,1.87-4.58,4.66c0,2.41,1.61,4.02,3.8,4.02h0.05c2.55,0,4.74-1.71,4.74-4.66
				C20.7,91.16,19.03,89.61,16.68,89.61z"/>
		</g>
		<g>
			<g>
				<path class="st4" d="M9.18,141.51c0,0.34-0.25,0.61-0.66,0.61c-0.39,0-0.64-0.28-0.64-0.61c0-0.35,0.26-0.61,0.65-0.61
					C8.93,140.89,9.17,141.16,9.18,141.51 M7.91,142.61h1.22v3.96H7.91V142.61z"/>
				<path class="st4" d="M9.99,143.87c0-0.49-0.02-0.91-0.03-1.26H11l0.05,0.53h0.02c0.17-0.26,0.52-0.63,1.19-0.63
					c0.52,0,0.91,0.27,1.08,0.68h0.02c0.15-0.21,0.32-0.37,0.52-0.49c0.22-0.12,0.46-0.19,0.75-0.19c0.76,0,1.33,0.53,1.33,1.72
					v2.33h-1.19v-2.15c0-0.57-0.19-0.91-0.58-0.91c-0.29,0-0.48,0.19-0.57,0.43c-0.02,0.09-0.04,0.21-0.04,0.32v2.31h-1.19v-2.22
					c0-0.49-0.18-0.83-0.57-0.83c-0.31,0-0.5,0.24-0.57,0.44c-0.04,0.1-0.05,0.21-0.05,0.32v2.31H9.99V143.87z"/>
				<path class="st4" d="M16.79,143.94c0-0.52-0.02-0.95-0.03-1.33h1.06l0.06,0.55h0.02c0.29-0.41,0.74-0.64,1.31-0.64
					c0.86,0,1.63,0.75,1.63,2.01c0,1.44-0.91,2.12-1.79,2.12c-0.47,0-0.85-0.19-1.02-0.45h-0.02v1.97h-1.22V143.94z M18.02,144.87
					c0,0.1,0.01,0.18,0.02,0.26c0.08,0.33,0.36,0.58,0.72,0.58c0.53,0,0.85-0.44,0.85-1.12c0-0.63-0.28-1.11-0.83-1.11
					c-0.35,0-0.65,0.26-0.73,0.62c-0.02,0.06-0.02,0.15-0.02,0.22V144.87z"/>
				<rect x="21.51" y="140.82" class="st4" width="1.22" height="5.74"/>
				<path class="st4" d="M24.55,144.98c0.03,0.51,0.54,0.75,1.11,0.75c0.42,0,0.76-0.06,1.09-0.17l0.16,0.83
					c-0.4,0.17-0.89,0.25-1.43,0.25c-1.34,0-2.1-0.78-2.1-2.01c0-1,0.62-2.11,1.99-2.11c1.27,0,1.76,1,1.76,1.97
					c0,0.21-0.02,0.4-0.04,0.49H24.55z M25.99,144.14c0-0.3-0.13-0.8-0.69-0.8c-0.52,0-0.73,0.48-0.76,0.8H25.99z"/>
				<path class="st4" d="M27.78,143.87c0-0.49-0.02-0.91-0.03-1.26h1.04l0.05,0.53h0.02c0.17-0.26,0.52-0.63,1.19-0.63
					c0.52,0,0.91,0.27,1.08,0.68h0.02c0.15-0.21,0.32-0.37,0.52-0.49c0.22-0.12,0.46-0.19,0.75-0.19c0.76,0,1.33,0.53,1.33,1.72
					v2.33h-1.19v-2.15c0-0.57-0.19-0.91-0.58-0.91c-0.29,0-0.48,0.19-0.57,0.43c-0.02,0.09-0.04,0.21-0.04,0.32v2.31h-1.19v-2.22
					c0-0.49-0.18-0.83-0.57-0.83c-0.31,0-0.5,0.24-0.57,0.44c-0.04,0.1-0.05,0.21-0.05,0.32v2.31h-1.19V143.87z"/>
				<path class="st4" d="M35.53,144.98c0.03,0.51,0.54,0.75,1.11,0.75c0.42,0,0.76-0.06,1.09-0.17l0.16,0.83
					c-0.4,0.17-0.89,0.25-1.43,0.25c-1.34,0-2.1-0.78-2.1-2.01c0-1,0.62-2.11,1.99-2.11c1.27,0,1.76,1,1.76,1.97
					c0,0.21-0.02,0.4-0.04,0.49H35.53z M36.98,144.14c0-0.3-0.13-0.8-0.69-0.8c-0.52,0-0.72,0.48-0.76,0.8H36.98z"/>
				<path class="st4" d="M38.76,143.87c0-0.49-0.02-0.91-0.03-1.26h1.06l0.06,0.55h0.02c0.16-0.26,0.56-0.64,1.22-0.64
					c0.81,0,1.41,0.54,1.41,1.71v2.34h-1.22v-2.19c0-0.51-0.18-0.86-0.62-0.86c-0.34,0-0.54,0.23-0.63,0.46
					c-0.03,0.08-0.04,0.19-0.04,0.31v2.28h-1.22V143.87z"/>
				<path class="st4" d="M44.68,141.54v1.07h0.88v0.91h-0.88v1.43c0,0.48,0.12,0.7,0.48,0.7c0.17,0,0.25-0.01,0.36-0.03l0.01,0.93
					c-0.15,0.06-0.45,0.11-0.79,0.11c-0.4,0-0.72-0.14-0.93-0.34c-0.23-0.23-0.34-0.61-0.34-1.17v-1.62h-0.52v-0.91h0.52v-0.74
					L44.68,141.54z"/>
				<path class="st4" d="M50.02,144.54c0,1.45-1.02,2.11-2.08,2.11c-1.15,0-2.04-0.76-2.04-2.04c0-1.29,0.84-2.1,2.11-2.1
					C49.22,142.51,50.02,143.34,50.02,144.54 M47.17,144.58c0,0.68,0.28,1.19,0.81,1.19c0.48,0,0.78-0.48,0.78-1.2
					c0-0.58-0.23-1.18-0.78-1.18C47.4,143.39,47.17,144,47.17,144.58"/>
				<path class="st4" d="M50.62,145.5c0.23,0.14,0.69,0.29,1.06,0.29c0.37,0,0.52-0.12,0.52-0.32c0-0.21-0.12-0.31-0.57-0.46
					c-0.82-0.27-1.14-0.72-1.13-1.19c0-0.74,0.63-1.3,1.6-1.3c0.46,0,0.86,0.11,1.1,0.23L53,143.6c-0.18-0.1-0.52-0.23-0.85-0.23
					c-0.3,0-0.47,0.12-0.47,0.32c0,0.19,0.15,0.29,0.64,0.46c0.75,0.26,1.06,0.65,1.06,1.22c0,0.74-0.57,1.29-1.7,1.29
					c-0.52,0-0.97-0.12-1.27-0.28L50.62,145.5z"/>
			</g>
		</g>
	</g>
</g>
<g id="_x33_31x63_px_logo_web_home_escritorio">
	<rect x="0" y="15.28" class="st2" width="331" height="47.71"/>
	<g>
		<g>
			<g>
				<path class="st4" d="M26.07,56.85c-3.12,0-5.66-2.59-5.66-5.78V12.24c0-2.97,2.17-5.43,5.05-5.75c0.86-0.19,1.82-0.22,2.74-0.22
					c0.49,0,1.04,0,1.62,0.02c0.72,0.01,1.53,0.02,2.44,0.02c1.81,0,3.34,0.07,4.36,0.13c0.49,0.02,0.88,0.04,1.12,0.05l0.02-0.03
					h32.27c3.12,0,5.66,2.6,5.66,5.78v38.82c0,3.19-2.54,5.78-5.66,5.78H26.07V56.85z"/>
				<path class="st3" d="M28.2,6.9c1.09,0,2.41,0.04,4.06,0.04c2.73,0,4.78,0.17,5.52,0.17c0.18,0,0.28,0,0.29-0.03h31.95
					c2.79,0,5.04,2.31,5.04,5.16v38.82c0,2.85-2.26,5.16-5.04,5.16H26.07c-2.79,0-5.04-2.31-5.04-5.16V12.24
					c0-2.68,1.99-4.88,4.53-5.14c0.73-0.17,1.58-0.21,2.64-0.21 M28.2,5.65L28.2,5.65c-0.94,0-1.94,0.03-2.84,0.22
					c-3.18,0.37-5.57,3.09-5.57,6.36v38.83c0,3.53,2.82,6.4,6.28,6.4h43.96c3.46,0,6.28-2.87,6.28-6.4V12.24
					c0-3.53-2.82-6.4-6.28-6.4H37.45l-0.02,0.02c-0.21,0-0.48-0.02-0.78-0.04c-1.02-0.05-2.56-0.13-4.39-0.13
					c-0.9,0-1.71-0.01-2.43-0.02C29.25,5.66,28.7,5.65,28.2,5.65C28.2,5.65,28.2,5.65,28.2,5.65z"/>
			</g>
			<path class="st3" d="M32.11,1.29c-3.59,0-6.72,2.74-6.72,6.8c0,3.52,2.37,5.86,5.57,5.86h0.08c3.74,0,6.95-2.5,6.95-6.8
				C37.99,3.56,35.55,1.29,32.11,1.29z"/>
			<path class="st3" d="M73.64,51.06c0,2.03-1.61,3.69-3.6,3.69H26.07c-1.99,0-3.6-1.65-3.6-3.69V12.24c0-2.04,1.61-3.69,3.6-3.69
				h43.96c1.99,0,3.6,1.65,3.6,3.69v38.82l0,0H73.64z"/>
			<path class="st4" d="M66.5,45h7.16V15.09c-0.7-0.21-1.48-0.31-2.31-0.31c-3.78,0-7.38,1.81-9.98,5.62
				c-0.24-2.6-2.24-5.62-6.85-5.62c-3.72,0-7.2,1.69-9.86,5.5h-0.12l0.53-4.84h-7.32c-0.35,2.66-0.77,5.86-1.48,9.61L32.67,45h8.21
				l2.42-13.3c1-5.8,4.02-9.91,6.91-9.91c2.07,0,2.72,1.57,2.72,3.63c0,1.03-0.18,2.18-0.35,3.33l-3.01,16.26h8.21l2.42-13.36
				c1.12-5.98,3.95-9.85,6.79-9.85c1.95,0,2.84,1.45,2.84,3.51c0,1.15-0.18,2.42-0.42,3.57l-2.89,16.14L66.5,45z"/>
			<polygon class="st4" points="25.94,15.44 22.41,34.49 22.41,45 28.96,45 34.39,15.44 			"/>
			<path class="st4" d="M32.08,2.82c-2.77,0-5.2,2.12-5.2,5.26c0,2.72,1.83,4.53,4.31,4.53h0.06c2.89,0,5.37-1.93,5.37-5.26
				c0-2.78-1.89-4.53-4.55-4.53L32.08,2.82z"/>
		</g>
		<path class="st5" d="M47.51,50.01l-1.09-2.37h2.77l0.36,1.27l2.2-1.27h2.75L50,50.01c-0.07,0.09-0.53,0.73-0.8,1.1
			c-0.24,0.3-0.49,0.27-0.49,0.27h-2.19C46.52,51.38,47.51,50.01,47.51,50.01z M63.59,50.12l0.19-1.36l-1.75,1.36H63.59z
			 M60.42,51.38h-2.46l5.4-3.74h2.52v3.74h-2.46l0.07-0.5h-2.42l-0.64,0.5H60.42z M59.89,48.73h-2.35c0.12-0.34-0.59-0.33-0.74-0.33
			c-0.25,0-0.82,0.01-1,0.26c-0.17,0.24,0.71,0.29,0.76,0.3c0.71,0.09,1.9,0.08,2.43,0.57c0.53,0.49-0.27,1.04-0.65,1.25
			c-1.09,0.59-2.37,0.71-3.59,0.71c-0.52,0-1-0.03-1.41-0.09c-0.38-0.07-1.19-0.22-1.27-0.72c-0.04-0.12,0-0.27,0.08-0.43h2.37
			c-0.07,0.41,0.75,0.36,0.95,0.36c0.28,0,0.86,0.02,1.05-0.25c0.06-0.08,0.06-0.15-0.01-0.19c-0.28-0.21-1.12-0.21-1.48-0.26
			c-0.4-0.05-1.53-0.16-1.74-0.59c-0.3-0.41,0.48-0.95,0.75-1.1c1.01-0.55,2.25-0.67,3.37-0.67c0.48,0,0.87,0.03,1.24,0.07
			C59.22,47.7,60.24,47.9,59.89,48.73L59.89,48.73z M42.8,48.55h-0.79l-0.56,0.78h0.87c0.42,0,1,0.02,1.36-0.26
			c0.14-0.11,0.32-0.34,0.06-0.43C43.58,48.58,43.26,48.56,42.8,48.55L42.8,48.55L42.8,48.55z M38.95,51.38h-1.39l2.69-3.73h3.08
			c0.73,0,1.26,0.01,1.61,0.05c0.33,0.03,0.61,0.07,0.8,0.13c0.54,0.18,0.86,0.54,0.47,1.08c-0.14,0.2-0.33,0.37-0.56,0.52
			c-1,0.65-2.23,0.78-3.39,0.78h-1.41c-0.48,0.76-1.11,1.14-1.88,1.16l0,0L38.95,51.38z M35.81,51.38h-5.1l2.7-3.74h6.14l-0.63,0.87
			h-3.75l-0.38,0.52h3.16l-0.61,0.86h-3.16l-0.42,0.59h3.77c-0.46,0.57-1.1,0.89-1.72,0.89l0,0L35.81,51.38z"/>
	</g>
	<g>
		<path class="st4" d="M92.23,24.23c0,1.7-1.25,3.07-3.31,3.07c-1.94,0-3.19-1.37-3.19-3.07s1.29-3.07,3.27-3.07
			S92.19,22.49,92.23,24.23z M85.89,49.48V29.73h6.14v19.76L85.89,49.48L85.89,49.48z"/>
		<path class="st4" d="M96.13,36.03c0-2.46-0.08-4.53-0.16-6.3h5.21l0.24,2.67h0.12c0.85-1.29,2.63-3.15,5.98-3.15
			c2.59,0,4.57,1.33,5.41,3.39h0.08c0.77-1.05,1.62-1.86,2.59-2.42c1.09-0.61,2.3-0.97,3.76-0.97c3.8,0,6.67,2.67,6.67,8.6v11.63
			h-5.98V38.73c0-2.87-0.93-4.53-2.91-4.53c-1.45,0-2.42,0.97-2.87,2.14c-0.12,0.44-0.2,1.05-0.2,1.58v11.55h-5.98V38.36
			c0-2.46-0.89-4.16-2.87-4.16c-1.58,0-2.51,1.21-2.87,2.18c-0.2,0.48-0.24,1.05-0.24,1.58v11.51h-5.98L96.13,36.03L96.13,36.03z"/>
		<path class="st4" d="M130.07,36.35c0-2.59-0.08-4.77-0.16-6.63h5.33l0.28,2.75h0.08c1.45-2.06,3.72-3.19,6.59-3.19
			c4.32,0,8.2,3.76,8.2,10.06c0,7.19-4.57,10.59-8.97,10.59c-2.38,0-4.24-0.97-5.13-2.26h-0.08v9.82h-6.14L130.07,36.35
			L130.07,36.35L130.07,36.35z M136.21,41c0,0.48,0.04,0.89,0.12,1.29c0.4,1.66,1.82,2.91,3.59,2.91c2.67,0,4.24-2.22,4.24-5.57
			c0-3.15-1.41-5.53-4.16-5.53c-1.74,0-3.27,1.29-3.68,3.11c-0.08,0.32-0.12,0.73-0.12,1.09L136.21,41L136.21,41L136.21,41z"/>
		<path class="st4" d="M153.57,20.8h6.14v28.68h-6.14V20.8z"/>
		<path class="st4" d="M168.63,41.56c0.16,2.55,2.71,3.76,5.58,3.76c2.1,0,3.8-0.28,5.45-0.85l0.81,4.16
			c-2.02,0.85-4.49,1.25-7.15,1.25c-6.71,0-10.54-3.88-10.54-10.06c0-5.01,3.11-10.54,9.98-10.54c6.38,0,8.81,4.97,8.81,9.86
			c0,1.05-0.12,1.98-0.2,2.42h-12.73L168.63,41.56z M175.86,37.36c0-1.5-0.65-4-3.47-4c-2.59,0-3.64,2.38-3.8,4H175.86z"/>
		<path class="st4" d="M184.64,36.03c0-2.46-0.08-4.53-0.16-6.3h5.21l0.24,2.67h0.12c0.85-1.29,2.63-3.15,5.98-3.15
			c2.59,0,4.57,1.33,5.41,3.39h0.08c0.77-1.05,1.62-1.86,2.59-2.42c1.09-0.61,2.3-0.97,3.76-0.97c3.8,0,6.67,2.67,6.67,8.6v11.63
			h-5.98V38.73c0-2.87-0.93-4.53-2.91-4.53c-1.45,0-2.42,0.97-2.87,2.14c-0.12,0.44-0.2,1.05-0.2,1.58v11.55h-5.98V38.36
			c0-2.46-0.89-4.16-2.87-4.16c-1.58,0-2.5,1.21-2.87,2.18c-0.2,0.48-0.24,1.05-0.24,1.58v11.51h-5.98L184.64,36.03L184.64,36.03
			L184.64,36.03z"/>
		<path class="st4" d="M223.38,41.56c0.16,2.55,2.71,3.76,5.57,3.76c2.1,0,3.8-0.28,5.45-0.85l0.81,4.16
			c-2.02,0.85-4.48,1.25-7.15,1.25c-6.71,0-10.54-3.88-10.54-10.06c0-5.01,3.11-10.54,9.98-10.54c6.38,0,8.81,4.97,8.81,9.86
			c0,1.05-0.12,1.98-0.2,2.42h-12.72L223.38,41.56z M230.61,37.36c0-1.5-0.65-4-3.47-4c-2.59,0-3.64,2.38-3.8,4H230.61z"/>
		<path class="st4" d="M239.39,36.03c0-2.46-0.08-4.53-0.16-6.3h5.33l0.28,2.75h0.12c0.81-1.29,2.79-3.19,6.1-3.19
			c4.04,0,7.07,2.71,7.07,8.52v11.68h-6.14V38.54c0-2.55-0.89-4.28-3.11-4.28c-1.7,0-2.71,1.17-3.15,2.3
			c-0.16,0.4-0.2,0.97-0.2,1.54v11.39h-6.14V36.04l0,0L239.39,36.03z"/>
		<path class="st4" d="M268.89,24.4v5.33h4.4v4.53h-4.4v7.15c0,2.38,0.61,3.47,2.42,3.47c0.85,0,1.25-0.04,1.82-0.16l0.04,4.65
			c-0.77,0.28-2.26,0.52-3.96,0.52c-1.98,0-3.64-0.69-4.65-1.7c-1.13-1.17-1.7-3.07-1.7-5.86v-8.08h-2.63v-4.53h2.63v-3.68
			l6.02-1.66L268.89,24.4z"/>
		<path class="st4" d="M295.53,39.38c0,7.23-5.13,10.54-10.42,10.54c-5.78,0-10.22-3.8-10.22-10.18s4.2-10.5,10.59-10.5
			C291.5,29.24,295.54,33.4,295.53,39.38L295.53,39.38z M281.23,39.58c0,3.39,1.41,5.94,4.04,5.94c2.42,0,3.92-2.38,3.92-5.98
			c0-2.91-1.13-5.9-3.92-5.9C282.36,33.64,281.23,36.67,281.23,39.58z"/>
		<path class="st4" d="M298.34,44.15c1.13,0.69,3.47,1.45,5.29,1.45s2.63-0.6,2.63-1.62s-0.6-1.54-2.87-2.3
			c-4.12-1.37-5.7-3.59-5.66-5.94c0-3.72,3.15-6.5,8.04-6.5c2.3,0,4.32,0.57,5.53,1.17l-1.05,4.24c-0.89-0.48-2.63-1.13-4.28-1.13
			c-1.5,0-2.34,0.61-2.34,1.58s0.77,1.45,3.19,2.3c3.76,1.29,5.29,3.23,5.33,6.1c0,3.72-2.87,6.42-8.52,6.42
			c-2.59,0-4.89-0.61-6.38-1.41L298.34,44.15L298.34,44.15z"/>
	</g>
</g>
<g id="Capa_3" class="st0">
	<text transform="matrix(1 0 0 1 0.6383 81.0542)" class="st1" style="font-family:'MyriadPro-Regular'; font-size:12px;">61x63 px logo web mobile</text>
	<text transform="matrix(1 0 0 1 139.8724 -10.8443)" class="st1" style="font-family:'MyriadPro-Regular'; font-size:12px;">331x63 px logo web home escritorio</text>
</g>
</svg>
