<?xml version="1.0" encoding="utf-8"?>
<!-- Generator: Adobe Illustrator 16.0.0, SVG Export Plug-In . SVG Version: 6.00 Build 0)  -->
<!DOCTYPE svg PUBLIC "-//W3C//DTD SVG 1.1//EN" "http://www.w3.org/Graphics/SVG/1.1/DTD/svg11.dtd">
<svg version="1.1" xmlns="http://www.w3.org/2000/svg" xmlns:xlink="http://www.w3.org/1999/xlink" x="0px" y="0px"
	 width="1495.837px" height="54.689px" viewBox="0 0 1495.837 54.689" enable-background="new 0 0 1495.837 54.689"
	 xml:space="preserve">
<g id="Capa_2" display="none">
	<path display="inline" fill="#005CB9" d="M866.831,32.042c0,12.3-9.976,22.274-22.276,22.274c-12.249,0-22.224-9.975-22.224-22.274
		c0-12.249,9.976-22.224,22.224-22.224C856.855,9.818,866.831,19.793,866.831,32.042"/>
	<path display="inline" fill="#005CB9" d="M920.643,32.042c0,12.3-9.975,22.274-22.274,22.274c-12.249,0-22.224-9.975-22.224-22.274
		c0-12.249,9.976-22.224,22.224-22.224C910.668,9.818,920.643,19.793,920.643,32.042"/>
	<path display="inline" fill="#005CB9" d="M974.697,32.442c0,12.3-9.975,22.223-22.275,22.223c-12.3,0-22.225-9.923-22.225-22.223
		c0-12.301,9.925-22.224,22.225-22.224C964.723,10.219,974.697,20.142,974.697,32.442"/>
	<path display="inline" fill="#005CB9" d="M1028.469,32.442c0,12.3-9.894,22.223-22.225,22.223
		c-12.249,0-22.225-9.923-22.225-22.223c0-12.301,9.976-22.224,22.225-22.224C1018.575,10.219,1028.469,20.142,1028.469,32.442"/>
	<path display="inline" fill="#005CB9" d="M1082.841,32.418c0,12.299-9.923,22.271-22.224,22.271s-22.273-9.973-22.273-22.271
		c0-12.301,9.973-22.224,22.273-22.224S1082.841,20.117,1082.841,32.418"/>
	<path display="inline" fill="#005CB9" d="M1136.787,32.418c0,12.299-9.99,22.271-22.27,22.271
		c-12.301,0-22.276-9.973-22.276-22.271c0-12.301,9.976-22.224,22.276-22.224C1126.797,10.194,1136.787,20.117,1136.787,32.418"/>
	<path display="inline" fill="#005CB9" d="M1191.068,32.092c0,12.249-9.975,22.225-22.273,22.225
		c-12.25,0-22.227-9.976-22.227-22.225c0-12.3,9.977-22.273,22.227-22.273C1181.094,9.818,1191.068,19.792,1191.068,32.092"/>
	<path display="inline" fill="#005CB9" d="M1244.828,32.092c0,12.249-9.99,22.225-22.273,22.225
		c-12.301,0-22.275-9.976-22.275-22.225c0-12.3,9.975-22.273,22.275-22.273C1234.838,9.818,1244.828,19.792,1244.828,32.092"/>
	<path display="inline" fill="#005CB9" d="M1297.586,30.27c0,12.298-9.922,22.273-22.223,22.273s-22.225-9.976-22.225-22.273
		c0-12.29,9.924-22.196,22.225-22.196S1297.586,17.979,1297.586,30.27"/>
	<path display="inline" fill="#005CB9" d="M1351.438,30.27c0,12.298-9.975,22.273-22.274,22.273
		c-12.301,0-22.225-9.976-22.225-22.273c0-12.29,9.924-22.196,22.225-22.196C1341.464,8.073,1351.438,17.979,1351.438,30.27"/>
</g>
<g id="Capa_1">
	<path fill="#FFFFFF" d="M424.004,35.671c-3.379,0-6.124,2.739-6.124,6.122c0,3.379,2.745,6.111,6.124,6.111
		s6.123-2.732,6.123-6.111C430.127,38.41,427.383,35.671,424.004,35.671 M424.004,44.46c-1.468,0-2.667-1.186-2.667-2.667
		c0-1.47,1.199-2.651,2.667-2.651c1.471,0,2.667,1.182,2.667,2.651C426.671,43.274,425.476,44.46,424.004,44.46"/>
	<path fill="#FFFFFF" d="M484.865,35.671c-3.378,0-6.122,2.739-6.122,6.122c0,3.379,2.744,6.111,6.122,6.111
		c3.384,0,6.122-2.732,6.122-6.111C490.987,38.41,488.249,35.671,484.865,35.671 M484.865,44.46c-1.469,0-2.658-1.186-2.658-2.667
		c0-1.47,1.189-2.651,2.658-2.651c1.472,0,2.663,1.182,2.663,2.651C487.528,43.274,486.337,44.46,484.865,44.46"/>
	<path fill="#FFFFFF" d="M493.922,10.884h-77.208c-2.009,0-3.984,1.619-4.385,3.594l-2.194,7.999c-0.4,1.975-0.74,5.241-0.74,7.244
		v8.407c0,2.017,1.647,3.665,3.664,3.665h3.732c0-3.976,3.236-7.21,7.214-7.21c3.979,0,7.222,3.234,7.222,7.21h46.422
		c0-3.976,3.24-7.21,7.215-7.21c3.985,0,7.22,3.234,7.22,7.21h1.839c2.015,0,3.661-1.648,3.661-3.665V14.549
		C497.583,12.532,495.937,10.884,493.922,10.884 M431.992,26.328h-15.918l1.352-3.199c0.235-0.563-0.023-1.2-0.582-1.434
		c-0.561-0.236-1.206,0.023-1.434,0.57l-1.685,3.973c-1.117-0.304-1.817-1.363-1.583-2.612l1.971-7.852
		c0.271-1.484,1.731-2.686,3.245-2.686h14.635V26.328z M465.803,26.328h-14.084V13.087h14.084V26.328z M448.747,26.328h-14.083
		V13.087h14.083V26.328z M482.078,26.328h-14.081V13.087h14.081V26.328z M495.339,23.58c0,1.506-1.232,2.749-2.743,2.749h-8.133
		v-13.24h8.133c1.511,0,2.743,1.225,2.743,2.733V23.58z"/>
	<path fill-rule="evenodd" clip-rule="evenodd" fill="#FFFFFF" d="M65.142,35.998c0.229,0.203,0.461,0.408,0.693,0.611
		c-0.231,1.846-0.458,3.704-0.689,5.546l-3.771,0.952c0.095-0.47,0.145-0.948,0.145-1.456c0-1.991-0.813-3.817-2.126-5.134
		c-1.318-1.315-3.136-2.121-5.142-2.121c-2.003,0-3.82,0.806-5.135,2.121c-1.315,1.316-2.131,3.143-2.131,5.134
		c0,0.88,0.156,1.702,0.435,2.481H18.976c0.281-0.779,0.434-1.602,0.434-2.481c0-1.991-0.813-3.817-2.13-5.134
		c-1.317-1.315-3.131-2.121-5.138-2.121c-2.008,0-3.824,0.806-5.139,2.121c-1.315,1.316-2.126,3.143-2.126,5.134
		c0,0.659,0.085,1.306,0.25,1.917l-3.933-0.564c-0.892-1.484-1.373-3.241-1.131-5.481c0.552-1.791,1.486-3.355,2.732-4.703
		c5.371-1.553,9.456-2.207,14.951-2.63c3.309-3.363,7.009-6.163,11.376-8.417c10.081-0.501,19.813-0.382,29.142,0.47
		c0.313,0.446,0.629,0.889,0.945,1.334c-0.316,0.403-0.631,0.806-0.945,1.224c2.202,2.475,4.403,4.964,6.601,7.454
		C64.958,33.503,65.048,34.747,65.142,35.998 M12.142,35.414c-1.727,0-3.287,0.693-4.419,1.826
		c-1.126,1.123-1.828,2.696-1.828,4.411c0,1.73,0.702,3.29,1.828,4.419c1.132,1.129,2.692,1.832,4.419,1.832
		c1.724,0,3.284-0.703,4.413-1.832c1.134-1.129,1.833-2.688,1.833-4.419c0-1.715-0.699-3.288-1.833-4.411
		C15.426,36.107,13.866,35.414,12.142,35.414 M54.252,35.414c-1.721,0-3.285,0.693-4.416,1.826
		c-1.131,1.123-1.827,2.696-1.827,4.411c0,1.73,0.696,3.29,1.827,4.419c1.131,1.129,2.695,1.832,4.416,1.832
		c1.724,0,3.29-0.703,4.42-1.832c1.127-1.129,1.828-2.688,1.828-4.419c0-1.715-0.7-3.288-1.828-4.411
		C57.542,36.107,55.976,35.414,54.252,35.414 M53.685,41.863l-1.843,1.944c0.226,0.28,0.495,0.479,0.792,0.652l1.601-2.208
		l1.317,2.391c0.341-0.132,0.625-0.319,0.869-0.551l-1.635-2.221l2.695-0.65c-0.031-0.359-0.145-0.672-0.301-0.979l-2.568,0.978
		l0.167-2.74c-0.357-0.08-0.691-0.068-1.023,0.01l0.188,2.732l-2.59-0.94c-0.171,0.325-0.254,0.656-0.283,0.987L53.685,41.863z
		 M51.726,39.138c-0.647,0.635-1.049,1.526-1.049,2.514c0,0.986,0.402,1.88,1.049,2.532c0.649,0.654,1.54,1.042,2.526,1.042
		c0.99,0,1.881-0.39,2.532-1.042c0.643-0.652,1.043-1.546,1.043-2.532c0-0.987-0.4-1.879-1.043-2.514
		c-0.65-0.647-1.542-1.057-2.532-1.057C53.266,38.081,52.375,38.49,51.726,39.138 M11.608,41.863L9.76,43.808
		c0.226,0.28,0.496,0.479,0.795,0.652l1.597-2.208l1.321,2.391c0.339-0.132,0.626-0.319,0.869-0.551l-1.635-2.221l2.695-0.65
		c-0.03-0.359-0.145-0.672-0.305-0.979l-2.567,0.978l0.168-2.74c-0.354-0.08-0.694-0.068-1.024,0.01l0.188,2.732l-2.59-0.94
		c-0.171,0.325-0.25,0.656-0.277,0.987L11.608,41.863z M9.614,39.138c-0.647,0.635-1.044,1.526-1.044,2.514
		c0,0.986,0.397,1.88,1.044,2.532c0.647,0.654,1.541,1.042,2.528,1.042c0.983,0,1.882-0.39,2.525-1.042
		c0.647-0.652,1.043-1.546,1.043-2.532c0-0.987-0.396-1.879-1.043-2.514c-0.644-0.647-1.542-1.057-2.525-1.057
		C11.155,38.081,10.262,38.49,9.614,39.138 M54.649,29.955c0.234-0.499,0.472-1.013,0.708-1.508
		c-0.731-1.856-1.352-3.147-2.526-4.818c-0.746-0.026-1.474-0.052-2.188-0.095l0.53,6.442L54.649,29.955z M64.248,34.708
		l-0.17-2.188l-1.643-1.858l-1.637,0.442C61.462,33.364,61.699,34.519,64.248,34.708 M48.931,23.463
		c-3.819-0.162-7.352-0.261-11.075-0.191l-0.663,6.797l11.338-0.07L48.931,23.463z M36.167,23.319
		c-1.919,0.068-3.91,0.169-6.035,0.357c-2.825,1.625-5.136,3.5-7.02,5.568l0.196,0.353c0.713-0.701,1.521-1.287,2.405-1.786
		l0.621,2.33l8.203-0.05L36.167,23.319z M33.674,32.776H30.66C30.66,34.322,33.674,34.322,33.674,32.776 M47.779,32.776h-3.023
		C44.755,34.322,47.779,34.322,47.779,32.776 M0.796,37.146c2.152-0.023,3.258-2.156,2.053-3.455
		C1.941,34.751,1.297,35.921,0.796,37.146"/>
	<path fill="#FFFFFF" d="M259.854,37.517c-1.255,0-2.271,1.021-2.271,2.277c0,1.238,1.017,2.262,2.271,2.262
		c1.251,0,2.265-1.023,2.265-2.262C262.119,38.538,261.105,37.517,259.854,37.517"/>
	<path fill="#FFFFFF" d="M266.655,37.517h-0.094c-0.162-0.388-0.373-0.828-0.631-1.264l0.001-0.004c0.298-0.294,0.298-0.769,0-1.055
		l-1.48-1.483c-0.283-0.282-0.781-0.282-1.062,0h-0.001c-0.439-0.255-0.884-0.469-1.268-0.629v-0.095
		c0-0.421-0.334-0.755-0.755-0.755h-3.026c-0.413,0-0.755,0.334-0.755,0.755v0.095c-0.382,0.16-0.826,0.374-1.257,0.629h-0.011
		c-0.14-0.155-0.333-0.229-0.528-0.229c-0.205,0-0.395,0.074-0.536,0.229l-1.481,1.483c-0.293,0.286-0.293,0.761,0,1.055
		l0.005,0.004c-0.257,0.436-0.473,0.876-0.63,1.264h-0.089c-0.417,0-0.757,0.349-0.757,0.753v3.033c0,0.42,0.341,0.757,0.757,0.757
		h0.089c0.157,0.382,0.373,0.815,0.63,1.262l-0.005,0.004c-0.293,0.29-0.293,0.765,0,1.054l1.481,1.492
		c0.298,0.289,0.774,0.289,1.063,0l0.011-0.002c0.431,0.244,0.875,0.471,1.257,0.617v0.096c0,0.42,0.343,0.754,0.755,0.754h3.026
		c0.421,0,0.755-0.334,0.755-0.754v-0.096c0.384-0.146,0.829-0.373,1.268-0.617l0.001,0.002c0.289,0.289,0.775,0.289,1.062,0
		l1.48-1.492c0.298-0.289,0.298-0.764,0-1.054l-0.001-0.004c0.258-0.446,0.469-0.88,0.631-1.262h0.094
		c0.41,0,0.754-0.337,0.754-0.757V38.27C267.409,37.865,267.065,37.517,266.655,37.517 M259.854,43.566
		c-2.085,0-3.779-1.693-3.779-3.771c0-2.095,1.693-3.788,3.779-3.788c2.079,0,3.771,1.693,3.771,3.788
		C263.625,41.873,261.933,43.566,259.854,43.566"/>
	<path fill="#FFFFFF" d="M228.881,37.517c-1.667,0-3.024,1.353-3.024,3.032c0,1.657,1.357,3.018,3.024,3.018
		c1.667,0,3.02-1.36,3.02-3.018C231.901,38.869,230.548,37.517,228.881,37.517"/>
	<rect x="256.829" y="14.855" fill="#FFFFFF" width="6.043" height="7.551"/>
	<path fill="#FFFFFF" d="M252.75,34.165c0.418-0.521,0.88-0.991,1.394-1.411c0.071-0.054,0.148-0.117,0.229-0.168
		c0.17-0.138,0.338-0.26,0.521-0.376c0.121-0.075,0.24-0.159,0.359-0.231c0.148-0.075,0.301-0.168,0.447-0.239
		c0.139-0.071,0.279-0.14,0.417-0.209c0.149-0.069,0.307-0.122,0.454-0.187c0.141-0.054,0.282-0.103,0.424-0.149
		c0.172-0.064,0.345-0.111,0.513-0.159c0.139-0.027,0.268-0.069,0.405-0.096c0.207-0.047,0.414-0.074,0.611-0.114
		c0.114-0.022,0.23-0.028,0.346-0.05c0.32-0.026,0.653-0.05,0.983-0.05c0.254,0,0.512,0.007,0.762,0.03
		c0.094,0.016,0.187,0.02,0.28,0.041c0.157,0.004,0.307,0.028,0.461,0.053c0.118,0.022,0.232,0.043,0.353,0.066
		c0.084,0.023,0.175,0.047,0.267,0.07c0.308,0.072,0.619,0.163,0.924,0.265c0.023,0.018,0.043,0.02,0.066,0.021
		c0.589,0.231,1.157,0.512,1.696,0.845c0.018,0.002,0.025,0.002,0.041,0.018c0.501,0.312,0.977,0.687,1.417,1.109
		c0.304,0.286,0.784,0.28,1.076-0.023c0.284-0.304,0.276-0.778-0.024-1.063c-0.371-0.353-0.763-0.672-1.171-0.959l1.342-3.203
		c0.042-0.092,0.063-0.204,0.063-0.299V11.088c0-0.423-0.341-0.769-0.755-0.769h-21.152c-0.419,0-0.759,0.346-0.759,0.769v2.26
		h8.309c0.42,0,0.758,0.332,0.758,0.753v9.057c0,0.423-0.338,0.753-0.758,0.753h-12.842v-4.52c0-0.421-0.337-0.754-0.756-0.754
		h-0.754v-2.276c0-0.828,0.679-1.507,1.511-1.507c0.417,0,0.755-0.332,0.755-0.753s-0.339-0.753-0.755-0.753
		c-1.665,0-3.02,1.348-3.02,3.014v2.276h-0.754c-0.42,0-0.753,0.333-0.753,0.754v4.52h-7.557c-2.083,0-3.778,1.711-3.778,3.785
		v7.785c-1.386,1.253-2.265,3.054-2.265,5.068c0,3.729,3.047,6.785,6.799,6.785c3.229,0,5.933-2.263,6.624-5.276h14.026
		c0.128,0.613,0.312,1.221,0.561,1.795c0.118,0.286,0.4,0.467,0.692,0.467c0.098,0,0.2-0.008,0.294-0.051
		c0.386-0.177,0.565-0.608,0.407-0.988c-0.28-0.689-0.469-1.368-0.583-2.092c0-0.009,0-0.011,0-0.015
		c-0.034-0.241-0.067-0.473-0.081-0.677c-0.018-0.232-0.038-0.468-0.038-0.703c0-0.261,0.022-0.498,0.041-0.739
		c0.015-0.199,0.047-0.425,0.078-0.662c0.181-1.129,0.567-2.213,1.145-3.196c0.024-0.031,0.045-0.066,0.063-0.096
		c0.172-0.284,0.363-0.564,0.564-0.841C252.706,34.23,252.727,34.207,252.75,34.165 M255.321,14.102
		c0-0.421,0.333-0.753,0.753-0.753h7.552c0.421,0,0.755,0.332,0.755,0.753v9.057c0,0.423-0.334,0.753-0.755,0.753h-7.552
		c-0.42,0-0.753-0.331-0.753-0.753V14.102z M243.987,34.495h3.78c0.416,0,0.757,0.343,0.757,0.752c0,0.424-0.341,0.761-0.757,0.761
		h-3.78c-0.415,0-0.755-0.337-0.755-0.761C243.232,34.838,243.572,34.495,243.987,34.495 M237.189,29.204v-9.058h1.509v11.333
		h-1.509V29.204z M234.124,41.209v0.002c-0.333,2.595-2.556,4.615-5.243,4.615c-2.914,0-5.291-2.359-5.291-5.275
		c0-1.688,0.794-3.189,2.023-4.163c0.215-0.156,0.432-0.311,0.665-0.438c0.021-0.016,0.042-0.034,0.065-0.046
		c0.218-0.125,0.452-0.221,0.69-0.313c0.057-0.018,0.112-0.043,0.169-0.061c0.23-0.08,0.476-0.141,0.719-0.188
		c0.05-0.002,0.109-0.006,0.162-0.02c0.262-0.038,0.523-0.074,0.797-0.074c0.24,0,0.474,0.027,0.706,0.059
		c0.063,0.006,0.125,0.016,0.191,0.033c0.201,0.03,0.398,0.075,0.59,0.138c0.047,0.006,0.094,0.02,0.141,0.033
		c0.185,0.064,0.364,0.131,0.54,0.21c0.082,0.043,0.158,0.086,0.237,0.122c0.139,0.062,0.264,0.142,0.395,0.219
		c0.102,0.074,0.202,0.137,0.305,0.216c0.115,0.083,0.229,0.164,0.338,0.259c0.073,0.072,0.143,0.123,0.214,0.2
		c0.134,0.121,0.256,0.252,0.376,0.394c0.043,0.047,0.084,0.104,0.125,0.152c0.12,0.16,0.233,0.315,0.333,0.49
		c0.03,0.027,0.057,0.094,0.08,0.121c0.12,0.22,0.232,0.424,0.322,0.653c0.01,0.031,0.018,0.051,0.031,0.084
		c0.051,0.135,0.096,0.271,0.141,0.396c0.014,0.039,0.021,0.079,0.032,0.124c0.036,0.129,0.066,0.239,0.088,0.372
		c0.018,0.068,0.021,0.147,0.038,0.233c0.015,0.088,0.029,0.182,0.038,0.276c0.016,0.154,0.027,0.337,0.027,0.52
		C234.168,40.767,234.15,40.983,234.124,41.209 M225.856,28.45v-0.753c0-1.249,1.021-2.261,2.269-2.261h7.557v3.014H225.856z
		 M249.307,40.551h-13.625c0-0.263-0.02-0.506-0.043-0.743c-0.007-0.057-0.023-0.135-0.028-0.192
		c-0.023-0.182-0.052-0.362-0.093-0.525c-0.001-0.031-0.001-0.039-0.01-0.049h13.799c-0.024,0.249-0.03,0.494-0.03,0.755
		C249.277,40.033,249.283,40.278,249.307,40.551 M250.031,32.987h-3.772c-0.421,0-0.757-0.332-0.757-0.752
		c0-0.422,0.336-0.757,0.757-0.757h3.772c0.421,0,0.753,0.335,0.753,0.757C250.784,32.655,250.452,32.987,250.031,32.987"/>
	<rect x="244.74" y="14.855" fill="#FFFFFF" width="7.554" height="7.551"/>
	<path fill="#FFFFFF" d="M121.763,34.573c-3.512,0-6.363,2.85-6.363,6.371c0,0.265,0.023,0.53,0.056,0.8
		c0.397,3.124,3.064,5.562,6.307,5.562c3.338,0,6.075-2.549,6.349-5.831c0.017-0.18,0.023-0.346,0.023-0.53
		C128.136,37.423,125.286,34.573,121.763,34.573 M118.58,38.544l1.297,1.284c-0.1,0.186-0.181,0.371-0.232,0.564h-1.832
		C117.917,39.718,118.178,39.072,118.58,38.544 M117.807,41.509h1.85c0.05,0.192,0.126,0.38,0.232,0.539l-1.309,1.306
		C118.182,42.833,117.913,42.185,117.807,41.509 M121.215,44.902c-0.688-0.095-1.317-0.372-1.848-0.764l1.301-1.302
		c0.167,0.097,0.352,0.179,0.547,0.229V44.902z M121.215,38.826c-0.195,0.053-0.386,0.119-0.56,0.234l-1.298-1.305
		c0.537-0.409,1.168-0.662,1.858-0.765V38.826z M122.321,36.991c0.7,0.103,1.331,0.355,1.859,0.765l-1.292,1.305
		c-0.176-0.115-0.364-0.182-0.567-0.234V36.991z M122.321,44.902v-1.837c0.197-0.05,0.381-0.132,0.556-0.23l1.294,1.304
		C123.64,44.53,123.012,44.808,122.321,44.902 M124.957,43.356l-1.3-1.311c0.099-0.159,0.185-0.34,0.235-0.537h1.83
		C125.62,42.185,125.364,42.835,124.957,43.356 M123.892,40.393c-0.051-0.193-0.134-0.379-0.231-0.556l1.296-1.293
		c0.407,0.528,0.675,1.174,0.769,1.849H123.892z"/>
	<path fill="#FFFFFF" d="M167.685,34.573c-3.519,0-6.369,2.85-6.369,6.371c0,0.265,0.024,0.53,0.05,0.8
		c0.394,3.124,3.073,5.562,6.319,5.562c3.335,0,6.069-2.549,6.344-5.831c0.01-0.18,0.023-0.346,0.023-0.53
		C174.053,37.423,171.203,34.573,167.685,34.573 M164.492,38.544l1.304,1.284c-0.105,0.186-0.185,0.371-0.232,0.564h-1.833
		C163.826,39.718,164.09,39.072,164.492,38.544 M163.726,41.509h1.844c0.047,0.192,0.125,0.38,0.23,0.539l-1.306,1.306
		C164.097,42.833,163.826,42.185,163.726,41.509 M167.132,44.902c-0.689-0.095-1.319-0.372-1.848-0.764l1.292-1.302
		c0.17,0.097,0.357,0.179,0.555,0.229V44.902z M167.132,38.826c-0.205,0.053-0.387,0.119-0.564,0.234l-1.297-1.305
		c0.532-0.409,1.168-0.662,1.867-0.765L167.132,38.826z M168.234,36.991c0.694,0.103,1.327,0.355,1.863,0.765l-1.301,1.305
		c-0.171-0.115-0.357-0.182-0.562-0.234V36.991z M168.234,44.902v-1.837c0.198-0.05,0.386-0.132,0.555-0.23l1.295,1.304
		C169.557,44.53,168.926,44.808,168.234,44.902 M170.874,43.356l-1.307-1.311c0.103-0.159,0.182-0.34,0.238-0.537h1.832
		C171.54,42.185,171.279,42.835,170.874,43.356 M169.805,40.393c-0.052-0.193-0.125-0.379-0.225-0.556l1.295-1.293
		c0.403,0.528,0.667,1.174,0.762,1.849H169.805z"/>
	<path fill="#FFFFFF" d="M186.42,36.378h-1.263l-0.321-7.557c-0.017-0.469-0.407-0.827-0.869-0.825l-17.363,0.161v-6.274
		c0-0.587-0.472-1.058-1.06-1.058h-0.824c-0.583,0-1.054,0.471-1.054,1.058v6.3l-2.309,0.025l-0.462-5.552
		c-0.094-1.171-1.064-2.065-2.232-2.065h-21.081c-0.736,0-1.44,0.283-1.976,0.798l-7.08,6.796l-13.545,1.433
		c-1.882,0.191-3.598,1.15-4.771,2.632l-1.391,1.762c-1.061,0.656-1.598,1.91-1.324,3.132l0.418,1.896
		c0.179,0.829,0.826,1.464,1.647,1.643l4.624,1.014c-0.025-0.27-0.053-0.516-0.053-0.753c0-4.22,3.43-7.636,7.637-7.636
		c4.211,0,7.632,3.416,7.632,7.636c0,0.21-0.011,0.433-0.029,0.643c-0.005,0.064-0.018,0.116-0.021,0.168h30.756
		c-0.034-0.285-0.059-0.561-0.059-0.811c0-4.22,3.425-7.636,7.635-7.636c4.211,0,7.639,3.416,7.639,7.636
		c0,0.21-0.02,0.433-0.035,0.643c-0.004,0.064-0.017,0.116-0.02,0.168h3.873l3.518-1.932h3.765c0.569,0,1.035-0.467,1.035-1.035
		v-1.371C187.456,36.83,186.988,36.378,186.42,36.378 M134.083,28.604c0,0,0.45-1.082,0-2.326l2.794-3.477
		c0.159-0.19,0.402-0.307,0.654-0.307h8.363v6.11H134.083z M148.987,28.604v-6.11h7.592c0.449,0,0.816,0.353,0.834,0.8l0.222,5.31
		H148.987z"/>
	<path fill-rule="evenodd" clip-rule="evenodd" fill="#FFFFFF" d="M306.34,33.677c3.521-1.768,7.589-1.323,10.231,0.627
		C314.74,30.709,308.791,30.638,306.34,33.677 M323.649,20.734h-7.32c-1.494,1.883-2.735,3.878-3.597,6.001
		c0.292,0.707,0.592,1.431,0.89,2.138h10.027V20.734z M339.729,45.735h-12.81v-1.833h12.81V45.735z M358.336,36.188
		c-1.463,0-2.8,0.598-3.765,1.555c-0.965,0.974-1.555,2.303-1.555,3.767c0,1.485,0.59,2.814,1.555,3.766
		c0.965,0.977,2.302,1.583,3.765,1.583c1.478,0,2.816-0.606,3.78-1.583c0.965-0.951,1.554-2.28,1.554-3.766
		c0-1.464-0.589-2.793-1.554-3.767C361.152,36.786,359.814,36.188,358.336,36.188 M356.753,39.914
		c-0.418,0.414-0.674,0.979-0.674,1.596c0,0.624,0.256,1.203,0.674,1.599c0.403,0.416,0.967,0.66,1.583,0.66
		c0.631,0,1.195-0.244,1.598-0.66c0.417-0.396,0.659-0.975,0.659-1.599c0-0.617-0.242-1.182-0.659-1.596
		c-0.403-0.396-0.967-0.66-1.598-0.66C357.721,39.254,357.157,39.519,356.753,39.914 M311.045,36.188
		c-1.474,0-2.801,0.598-3.769,1.555c-0.961,0.974-1.562,2.303-1.562,3.767c0,1.485,0.601,2.814,1.562,3.766
		c0.968,0.977,2.295,1.583,3.769,1.583c1.473,0,2.807-0.606,3.767-1.583c0.968-0.951,1.564-2.28,1.564-3.766
		c0-1.464-0.596-2.793-1.564-3.767C313.852,36.786,312.518,36.188,311.045,36.188 M309.448,39.914
		c0.413-0.396,0.979-0.66,1.598-0.66c0.624,0,1.19,0.265,1.599,0.66c0.405,0.414,0.66,0.979,0.66,1.596
		c0,0.624-0.255,1.203-0.66,1.599c-0.409,0.416-0.975,0.66-1.599,0.66c-0.619,0-1.185-0.244-1.598-0.66
		c-0.41-0.396-0.659-0.975-0.659-1.599C308.789,40.893,309.038,40.328,309.448,39.914 M316.006,16.86
		c-2.252,2.536-4.075,6.814-5.425,10.246c-2.746,1.229-5.503,2.521-8.339,4.59c-0.393,1.344-0.601,2.986-0.699,4.635h-0.423
		c-0.336,2.256-0.248,4.439,0.774,6.5h2.833c-0.087-0.427-0.136-0.857-0.136-1.32c0-1.783,0.723-3.391,1.894-4.559
		c1.166-1.172,2.78-1.89,4.561-1.89s3.396,0.718,4.565,1.89c1.166,1.168,1.891,2.775,1.891,4.559c0,0.463-0.047,0.894-0.137,1.32
		h8.42V16.951C322.525,16.925,319.262,16.9,316.006,16.86"/>
	<path fill-rule="evenodd" clip-rule="evenodd" fill="#FFFFFF" d="M375.1,10.011c1.156,9.313,1.18,18.348,0.517,27.225h1.265v5.595
		h-12.223c0.092-0.427,0.14-0.857,0.14-1.32c0-1.803-0.75-3.443-1.95-4.648c-1.2-1.186-2.866-1.915-4.701-1.915
		c-1.833,0-3.484,0.729-4.686,1.915c-1.2,1.205-1.949,2.846-1.949,4.648c0,0.463,0.046,0.894,0.139,1.32H325.29V17.914l-9.68-0.583
		c0,0,5.211-7.319,9.349-7.319H375.1z"/>
	<path fill="#FFFFFF" d="M623.006,35.167h-3.173c0.669,0.937,1.148,2.017,1.383,3.183h1.791
		C624.677,35.846,623.006,35.167,623.006,35.167"/>
	<path fill="#FFFFFF" d="M606.17,35.167h-19.493v-1.545l4.459-0.284v-20.93c0,0-1.392-7.224-1.484-10.32
		c-0.093-3.086-5.113-1.821-5.113-1.821c-22.295,2.689-26.479,11.952-26.479,11.952h-1.021l-2.879,3.477
		c0.648,1.153,1.297,0.759,1.297,0.759c-0.928,0.87-2.694,6.275-2.694,6.275s-11.245,1.154-15.794,1.249
		c-4.551,0.096-5.388,1.55-5.388,1.55v9.639c0,0-4.739,5.684-1.396,4.541c3.15-1.09,1.198-6.013,7.652-6.579
		c0.809-0.261,1.671-0.404,2.572-0.404c4.613,0,8.365,3.745,8.365,8.36c0,0.357-0.029,0.694-0.067,1.027h44.285
		c0.929-1.646,0.655-3.763,0.655-3.763h11.138C605.021,37.184,605.504,36.104,606.17,35.167"/>
	<path fill="#0C5DA6" d="M568.36,11.725h-3.268c-4.296,0-6.448,10.746-6.448,10.746h9.715V11.725z"/>
	<path fill-rule="evenodd" clip-rule="evenodd" fill="#FFFFFF" d="M613.059,33.946c-1.938,0-3.698,0.781-4.972,2.06
		c-1.271,1.271-2.063,3.035-2.063,4.976c0,1.935,0.793,3.708,2.063,4.979c1.274,1.271,3.034,2.039,4.972,2.039
		c1.945,0,3.704-0.769,4.977-2.039c1.272-1.271,2.057-3.045,2.057-4.979c0-1.94-0.785-3.704-2.057-4.976
		C616.763,34.728,615.004,33.946,613.059,33.946 M615.308,40.643c-0.194,0-0.348,0.15-0.348,0.341c0,0.188,0.153,0.36,0.348,0.36
		c0.192,0,0.35-0.172,0.35-0.36C615.657,40.793,615.5,40.643,615.308,40.643 M614.889,42.332c0.14,0.117,0.14,0.345,0,0.483
		c-0.136,0.14-0.355,0.14-0.49,0c-0.132-0.139-0.132-0.366,0-0.483C614.533,42.194,614.753,42.194,614.889,42.332 M613.403,43.233
		c0,0.19-0.156,0.335-0.35,0.335c-0.191,0-0.346-0.145-0.346-0.335c0-0.192,0.155-0.362,0.346-0.362
		C613.247,42.871,613.403,43.041,613.403,43.233 M611.712,42.812c-0.136,0.14-0.358,0.14-0.493,0c-0.137-0.139-0.137-0.364,0-0.503
		c0.135-0.133,0.356-0.133,0.493,0C611.847,42.447,611.847,42.673,611.712,42.812 M610.811,41.314c0.193,0,0.348-0.148,0.348-0.337
		c0-0.194-0.155-0.362-0.348-0.362c-0.188,0-0.346,0.168-0.346,0.362C610.465,41.166,610.623,41.314,610.811,41.314 M611.228,39.627
		c0.134,0.134,0.36,0.134,0.491,0c0.135-0.133,0.135-0.351,0-0.483c-0.131-0.138-0.357-0.138-0.491,0
		C611.096,39.276,611.096,39.494,611.228,39.627 M612.718,38.726c0,0.194,0.156,0.36,0.353,0.36c0.188,0,0.345-0.166,0.345-0.36
		c0-0.189-0.157-0.339-0.345-0.339C612.874,38.387,612.718,38.536,612.718,38.726 M614.408,39.147c-0.135,0.139-0.135,0.364,0,0.481
		c0.132,0.14,0.357,0.14,0.492,0c0.134-0.117,0.134-0.343,0-0.481C614.765,39.008,614.54,39.008,614.408,39.147 M610.163,40.981
		c0,0.798,0.325,1.513,0.847,2.056c0.526,0.521,1.25,0.847,2.05,0.847c0.799,0,1.526-0.325,2.045-0.847
		c0.529-0.543,0.849-1.258,0.849-2.056c0-0.8-0.32-1.519-0.849-2.056c-0.52-0.52-1.246-0.847-2.045-0.847
		c-0.8,0-1.523,0.327-2.05,0.847C610.487,39.463,610.163,40.182,610.163,40.981"/>
	<path fill-rule="evenodd" clip-rule="evenodd" fill="#FFFFFF" d="M540.381,33.946c-1.944,0-3.703,0.781-4.977,2.06
		c-1.272,1.271-2.062,3.035-2.062,4.976c0,1.935,0.79,3.708,2.062,4.979c1.273,1.271,3.033,2.039,4.977,2.039
		c1.939,0,3.701-0.769,4.971-2.039c1.273-1.271,2.06-3.045,2.06-4.979c0-1.94-0.786-3.704-2.06-4.976
		C544.082,34.728,542.32,33.946,540.381,33.946 M542.627,40.643c-0.192,0-0.35,0.15-0.35,0.341c0,0.188,0.158,0.36,0.35,0.36
		c0.194,0,0.348-0.172,0.348-0.36C542.975,40.793,542.821,40.643,542.627,40.643 M542.209,42.332c0.141,0.117,0.141,0.345,0,0.483
		c-0.133,0.14-0.355,0.14-0.491,0c-0.133-0.139-0.133-0.366,0-0.483C541.854,42.194,542.076,42.194,542.209,42.332 M540.721,43.233
		c0,0.19-0.155,0.335-0.347,0.335c-0.197,0-0.345-0.145-0.345-0.335c0-0.192,0.148-0.362,0.345-0.362
		C540.566,42.871,540.721,43.041,540.721,43.233 M539.028,42.812c-0.132,0.14-0.355,0.14-0.489,0c-0.134-0.139-0.134-0.364,0-0.503
		c0.134-0.133,0.357-0.133,0.489,0C539.166,42.447,539.166,42.673,539.028,42.812 M538.13,41.314c0.191,0,0.353-0.148,0.353-0.337
		c0-0.194-0.162-0.362-0.353-0.362c-0.189,0-0.347,0.168-0.347,0.362C537.783,41.166,537.94,41.314,538.13,41.314 M538.55,39.627
		c0.134,0.134,0.355,0.134,0.492,0c0.131-0.133,0.131-0.351,0-0.483c-0.137-0.138-0.358-0.138-0.492,0
		C538.413,39.276,538.413,39.494,538.55,39.627 M540.037,38.726c0,0.194,0.161,0.36,0.352,0.36c0.186,0,0.347-0.166,0.347-0.36
		c0-0.189-0.161-0.339-0.347-0.339C540.198,38.387,540.037,38.536,540.037,38.726 M541.729,39.147c-0.14,0.139-0.14,0.364,0,0.481
		c0.135,0.14,0.353,0.14,0.492,0c0.133-0.117,0.133-0.343,0-0.481C542.083,39.008,541.864,39.008,541.729,39.147 M537.485,40.981
		c0,0.798,0.319,1.513,0.846,2.056c0.527,0.521,1.249,0.847,2.05,0.847c0.798,0,1.523-0.325,2.043-0.847
		c0.527-0.543,0.847-1.258,0.847-2.056c0-0.8-0.32-1.519-0.847-2.056c-0.52-0.52-1.246-0.847-2.043-0.847
		c-0.801,0-1.523,0.327-2.05,0.847C537.804,39.463,537.485,40.182,537.485,40.981"/>
	<path fill="#FFFFFF" d="M586.782,2.54h0.993c0.285,0,0.513,0.226,0.513,0.512v28.754l-1.506,0.146V2.54z"/>
	<rect x="549.771" y="34.365" fill="#FFFFFF" width="35.501" height="1.162"/>
	<path fill="#FFFFFF" d="M567.74,25.95c0,0.358-0.483,0.662-1.091,0.662h-2.169c-0.6,0-1.084-0.304-1.084-0.662
		c0-0.375,0.484-0.679,1.084-0.679h2.169C567.256,25.271,567.74,25.575,567.74,25.95"/>
	<path fill="#FFFFFF" d="M603.328,30.612h-9.421c-0.626,0-1.134,0.514-1.134,1.145v3.687h11.691v-3.687
		C604.465,31.126,603.951,30.612,603.328,30.612"/>
	<rect x="594.115" y="0.304" fill="#FFFFFF" width="104.559" height="31.81"/>
	<path fill="#FFFFFF" d="M648.199,33.974"/>
	<rect x="689.657" y="2.952" fill="#FFFFFF" width="1.767" height="27.283"/>
	<rect x="692.225" y="2.952" fill="#FFFFFF" width="1.762" height="27.283"/>
	<rect x="694.706" y="2.952" fill="#FFFFFF" width="1.762" height="27.283"/>
	<path fill="#FFFFFF" d="M653.215,29.928c7.89,0,9.273,5.568,9.273,5.568h-18.549C643.939,35.496,645.322,29.928,653.215,29.928"/>
	<path fill="#FFFFFF" d="M669.171,29.928c7.891,0,9.271,5.568,9.271,5.568h-18.545C659.897,35.496,661.279,29.928,669.171,29.928"/>
	<path fill-rule="evenodd" clip-rule="evenodd" fill="#FFFFFF" d="M653.106,34.116c-1.917,0-3.652,0.778-4.912,2.036
		c-1.258,1.257-2.035,2.995-2.035,4.921c0,1.921,0.777,3.657,2.035,4.897c1.259,1.265,2.994,2.029,4.912,2.029
		c1.918,0,3.659-0.765,4.911-2.029c1.256-1.24,2.034-2.977,2.034-4.897c0-1.926-0.777-3.664-2.034-4.921
		C656.766,34.895,655.025,34.116,653.106,34.116 M655.327,40.736c-0.195,0-0.344,0.149-0.344,0.339c0,0.188,0.149,0.336,0.344,0.336
		c0.189,0,0.34-0.147,0.34-0.336C655.667,40.886,655.517,40.736,655.327,40.736 M654.913,42.395c0.14,0.137,0.14,0.364,0,0.479
		c-0.135,0.139-0.352,0.139-0.488,0c-0.128-0.114-0.128-0.342,0-0.479C654.562,42.256,654.778,42.256,654.913,42.395
		 M653.443,43.286c0,0.187-0.153,0.337-0.342,0.337c-0.188,0-0.344-0.15-0.344-0.337c0-0.19,0.156-0.337,0.344-0.337
		C653.291,42.949,653.443,43.096,653.443,43.286 M651.773,42.869c-0.13,0.137-0.354,0.137-0.483,0c-0.136-0.138-0.136-0.34,0-0.479
		c0.13-0.139,0.353-0.139,0.483,0C651.906,42.529,651.906,42.731,651.773,42.869 M650.884,41.405c0.194,0,0.346-0.151,0.346-0.34
		c0-0.188-0.152-0.356-0.346-0.356c-0.188,0-0.343,0.169-0.343,0.356C650.542,41.254,650.697,41.405,650.884,41.405 M651.299,39.745
		c0.133,0.119,0.35,0.119,0.485,0c0.133-0.138,0.133-0.362,0-0.5c-0.135-0.133-0.353-0.133-0.485,0
		C651.165,39.383,651.165,39.607,651.299,39.745 M652.767,38.854c0,0.188,0.158,0.341,0.347,0.341c0.188,0,0.345-0.153,0.345-0.341
		c0-0.19-0.157-0.354-0.345-0.354C652.925,38.5,652.767,38.663,652.767,38.854 M654.438,39.255c-0.137,0.132-0.137,0.36,0,0.492
		c0.13,0.139,0.351,0.139,0.482,0c0.133-0.132,0.133-0.36,0-0.492C654.789,39.134,654.569,39.134,654.438,39.255 M650.248,41.073
		c0,0.792,0.315,1.504,0.836,2.021c0.517,0.52,1.233,0.841,2.022,0.841c0.789,0,1.507-0.321,2.02-0.841
		c0.518-0.517,0.839-1.229,0.839-2.021c0-0.797-0.321-1.507-0.839-2.024c-0.513-0.515-1.231-0.841-2.02-0.841
		c-0.789,0-1.505,0.326-2.022,0.841C650.563,39.566,650.248,40.276,650.248,41.073"/>
	<path fill-rule="evenodd" clip-rule="evenodd" fill="#FFFFFF" d="M668.979,34.116c-1.917,0-3.654,0.778-4.911,2.036
		c-1.26,1.257-2.037,2.995-2.037,4.921c0,1.921,0.777,3.657,2.037,4.897c1.257,1.265,2.994,2.029,4.911,2.029
		c1.916,0,3.659-0.765,4.91-2.029c1.255-1.24,2.032-2.977,2.032-4.897c0-1.926-0.777-3.664-2.032-4.921
		C672.638,34.895,670.895,34.116,668.979,34.116 M671.199,40.736c-0.193,0-0.344,0.149-0.344,0.339c0,0.188,0.151,0.336,0.344,0.336
		c0.188,0,0.342-0.147,0.342-0.336C671.541,40.886,671.387,40.736,671.199,40.736 M670.787,42.395c0.138,0.137,0.138,0.364,0,0.479
		c-0.134,0.139-0.352,0.139-0.487,0c-0.131-0.114-0.131-0.342,0-0.479C670.436,42.256,670.653,42.256,670.787,42.395
		 M669.317,43.286c0,0.187-0.156,0.337-0.344,0.337c-0.191,0-0.344-0.15-0.344-0.337c0-0.19,0.152-0.337,0.344-0.337
		C669.162,42.949,669.317,43.096,669.317,43.286 M667.643,42.869c-0.127,0.137-0.349,0.137-0.478,0c-0.137-0.138-0.137-0.34,0-0.479
		c0.128-0.139,0.35-0.139,0.478,0C667.779,42.529,667.779,42.731,667.643,42.869 M666.756,41.405c0.192,0,0.351-0.151,0.351-0.34
		c0-0.188-0.158-0.356-0.351-0.356c-0.185,0-0.341,0.169-0.341,0.356C666.415,41.254,666.571,41.405,666.756,41.405 M667.171,39.745
		c0.133,0.119,0.352,0.119,0.485,0c0.134-0.138,0.134-0.362,0-0.5c-0.134-0.133-0.353-0.133-0.485,0
		C667.038,39.383,667.038,39.607,667.171,39.745 M668.64,38.854c0,0.188,0.16,0.341,0.348,0.341c0.184,0,0.343-0.153,0.343-0.341
		c0-0.19-0.159-0.354-0.343-0.354C668.8,38.5,668.64,38.663,668.64,38.854 M670.308,39.255c-0.132,0.132-0.132,0.36,0,0.492
		c0.134,0.139,0.354,0.139,0.486,0c0.134-0.132,0.134-0.36,0-0.492C670.663,39.134,670.442,39.134,670.308,39.255 M666.121,41.073
		c0,0.792,0.316,1.504,0.839,2.021c0.516,0.52,1.231,0.841,2.02,0.841c0.79,0,1.507-0.321,2.021-0.841
		c0.518-0.517,0.838-1.229,0.838-2.021c0-0.797-0.321-1.507-0.838-2.024c-0.514-0.515-1.231-0.841-2.021-0.841
		c-0.788,0-1.504,0.326-2.02,0.841C666.438,39.566,666.121,40.276,666.121,41.073"/>
	<polygon fill="#FFFFFF" points="596.321,3.116 596.321,27.578 598.254,27.578 598.254,4.931 687.263,4.931 687.263,3.116 	"/>
	<path fill="#FFFFFF" d="M1235.125,12.161c0,2.805-5.876,5-13.152,5c-7.198,0-13.082-2.195-13.082-5
		c0-2.723,5.884-4.995,13.082-4.995C1229.249,7.166,1235.125,9.438,1235.125,12.161 M1222.07,9.772
		c-3.504,0-6.252,1.083-6.252,2.375c0,1.377,2.748,2.456,6.252,2.456c3.425,0,6.168-1.078,6.168-2.456
		C1228.238,10.854,1225.495,9.772,1222.07,9.772"/>
	<path fill="#FFFFFF" d="M1208.891,14.052c0,0,2.82,3.752,13.229,3.782c9.972,0.045,13.005-3.782,13.005-3.782
		s0.736,4.713-13.005,5.169C1208.332,18.868,1208.891,14.052,1208.891,14.052"/>
	<path fill="#FFFFFF" d="M1208.891,34.872c0,0,2.82,3.819,13.229,3.834c9.972,0.073,13.005-3.834,13.005-3.834
		s0.736,4.787-13.005,5.166C1208.332,39.68,1208.891,34.872,1208.891,34.872"/>
	<path fill="#FFFFFF" d="M1210.645,35.546V17.485c0,0-1.268-0.918-1.754-1.429v17.378
		C1208.891,33.434,1209.42,35.008,1210.645,35.546"/>
	<path fill="#FFFFFF" d="M1233.383,35.546V17.485c0,0,1.262-0.918,1.746-1.429v17.378
		C1235.129,33.434,1234.61,35.008,1233.383,35.546"/>
	<polygon fill="#FFFFFF" points="1212.062,18.2 1213.708,18.778 1213.708,36.801 1212.062,36.272 	"/>
	<polygon fill="#FFFFFF" points="1232.087,18.2 1230.361,18.778 1230.361,36.801 1232.087,36.272 	"/>
	<polygon fill="#FFFFFF" points="1214.997,19.223 1216.741,19.493 1216.741,37.646 1214.997,37.305 	"/>
	<polygon fill="#FFFFFF" points="1228.943,19.223 1227.281,19.493 1227.281,37.646 1228.943,37.305 	"/>
	<polygon fill="#FFFFFF" points="1218.154,19.77 1219.756,19.85 1219.756,37.886 1218.154,37.821 	"/>
	<polygon fill="#FFFFFF" points="1225.882,19.77 1224.282,19.85 1224.282,37.886 1225.882,37.821 	"/>
	<rect x="1221.218" y="19.959" fill="#FFFFFF" width="1.617" height="18.062"/>
	<path fill="#FFFFFF" d="M1121.873,36.669c0,0.566,0.511,1.075,1.082,1.075h35.223c0.647,0,1.08-0.509,1.08-1.075V18.424h-37.385
		V36.669z M1148.691,24.532c0-0.323,0.188-0.527,0.507-0.527h5.011c0.316,0,0.49,0.205,0.49,0.527v1.243
		c0,0.23-0.174,0.521-0.49,0.521h-5.011c-0.318,0-0.507-0.29-0.507-0.521V24.532z M1126.475,24.521c0-0.315,0.205-0.516,0.43-0.516
		h1.709v-1.63c0-0.306,0.207-0.51,0.434-0.51h1.275c0.309,0,0.509,0.204,0.509,0.51v1.63h1.63c0.31,0,0.513,0.201,0.513,0.516v1.267
		c0,0.305-0.203,0.509-0.513,0.509h-1.63v1.631c0,0.236-0.2,0.51-0.509,0.51h-1.275c-0.227,0-0.434-0.273-0.434-0.51v-1.631h-1.709
		c-0.225,0-0.43-0.204-0.43-0.509V24.521z"/>
	<path fill="#FFFFFF" d="M1160.563,17.246c0.5,0,1.04-0.412,1.04-0.961v-1.74c0-0.557-0.54-1.045-1.04-1.045h-5.664v-1.849
		c0-0.551-0.456-1.043-1.042-1.043h-4.335c-0.628,0-1.041,0.492-1.041,1.043V13.5h-15.373v-1.849c0-0.551-0.49-1.043-1.042-1.043
		h-4.333c-0.628,0-1.042,0.492-1.042,1.043V13.5h-6.074c-0.547,0-1.039,0.488-1.039,1.045v1.74c0,0.55,0.492,0.961,1.039,0.961
		H1160.563z"/>
	<path fill="#FFFFFF" d="M1332.086,15.193l-15.484,19.651h-22.863V22.983l-10.941-3.318v-7.716l11.224,3.355v3.647h9.107v-4.159
		h-4.74V12.29h12.649v2.502h-5.009v4.159h6.403l3.23,3.67L1332.086,15.193z M1331.331,17.867c0,1.609-1.593,4.655-1.593,5.673
		c0,0.762,0.518,1.772,1.577,1.772h0.022c1.123,0,1.483-1.032,1.483-1.772C1332.819,22.53,1331.331,19.476,1331.331,17.867"/>
	<path fill="#FFFFFF" d="M1415.039,13.954h-1.389c-0.366,0-0.696,0.181-0.696,0.698v1.93h-1.307v-4.007
		c0-0.37-0.329-0.692-0.698-0.692h-6.087V10.49h2.699c0.364,0,0.695-0.319,0.695-0.696V7.166c0-0.369-0.331-0.685-0.695-0.685
		h-11.485c-0.434,0-0.695,0.316-0.695,0.685v2.627c0,0.377,0.262,0.696,0.695,0.696h2.698v1.392h-5.478
		c-0.045,0-0.104,0.006-0.209,0.024l-5.33,2.048h-5.248c-0.37,0-0.695,0.181-0.695,0.698v5.393h-1.388v-5.393
		c0-0.517-0.252-0.698-0.688-0.698h-2.704c-0.37,0-0.613,0.181-0.613,0.698v15.493c0,0.371,0.243,0.691,0.613,0.691h2.704
		c0.437,0,0.688-0.32,0.688-0.691v-5.396h1.388v5.396c0,0.371,0.325,0.691,0.695,0.691h5.188l5.217,3.93
		c0.148,0.053,0.3,0.079,0.383,0.079h14.265c0.161,0,0.325-0.031,0.395-0.084l3.392-2.772c0.168-0.075,0.3-0.338,0.3-0.454V28.06
		h1.307v2.085c0,0.371,0.33,0.691,0.696,0.691h1.389c1.102,0,2.003-0.98,2.003-2.078V15.892
		C1417.042,14.784,1416.141,13.954,1415.039,13.954 M1379.116,20.739v8.707h-1.387V15.199h1.387V20.739z M1381.814,23.367h-1.388
		v-2.086h1.388V23.367z M1396.689,7.861h10.179v1.254h-10.179V7.861z M1403.477,11.881h-3.395v-1.387h3.395V11.881z"/>
	<path fill="#005CB9" d="M1404.698,24.047c0.751-0.752,1.255-1.804,1.385-2.89c0.004-0.067-0.077-0.272-0.118-0.298
		c-0.133-0.063-0.219-0.042-0.395,0.063l-1.896,1.969c-0.034,0.038-0.193,0.06-0.239,0.044l-3.095-0.939
		c-0.086-0.005-0.113-0.022-0.132-0.045c-0.101-0.022-0.122-0.045-0.126-0.07l-0.782-3.157c-0.013-0.046,0.012-0.127,0.042-0.315
		l1.835-1.831c0.272-0.12,0.13-0.351,0.113-0.372c-0.132-0.057-0.298-0.048-0.335-0.046c-1.073,0.061-2.027,0.633-2.844,1.37
		c-1.239,1.167-1.615,2.932-1.14,4.438c0.026,0.233,0.085,0.549-0.146,0.695l-4.13,4.213c-0.173,0.091-0.173,0.413,0,0.664
		l2.003,1.926c0.174,0.255,0.486,0.255,0.661,0l4.133-4.057c0.226-0.299,0.52-0.255,0.589-0.24
		C1401.671,25.745,1403.45,25.209,1404.698,24.047"/>
	<path fill="#005CB9" d="M1405.369,20.013l-0.633-2.137c-0.011-0.202-0.042-0.251-0.084-0.293c-0.119-0.042-0.169-0.077-0.293-0.24
		l-2.137-0.475c-0.175-0.035-0.384,0.005-0.537,0.086l-1.506,1.642c-0.14,0.08-0.173,0.359-0.146,0.461l0.554,2.135
		c0.009,0.047,0.044,0.253,0.161,0.294c0.041,0.041,0.17,0.07,0.214,0.084l2.14,0.631c0.174,0.024,0.381-0.006,0.537-0.235
		l1.571-1.492C1405.36,20.396,1405.4,20.118,1405.369,20.013 M1401.88,20.204c-0.391-0.398-0.391-1.09,0-1.486
		c0.471-0.395,1.172-0.395,1.561,0c0.396,0.396,0.396,1.088,0.003,1.486C1403.052,20.749,1402.351,20.749,1401.88,20.204"/>
	<path fill="#FFFFFF" d="M1060.771,35.57c0-0.549,0.485-1.028,1.028-1.03h6.088c0.545,0,0.965,0.478,0.965,1.023v1.055
		c0,0.78-0.586,1.48-1.348,1.623l-0.295,0.921c-0.147,0.523-0.57,0.879-1.106,0.879h-2.521c-0.532,0-1.028-0.355-1.182-0.879
		l-0.22-0.921c-0.757-0.139-1.41-0.843-1.41-1.611V35.57z M1056.094,21.613c0-4.839,3.939-8.765,8.781-8.744
		c4.844,0.02,8.737,3.951,8.713,8.8c-0.016,2.314-1.002,4.435-2.463,6.008c-1.123,1.136-1.935,2.715-2.158,4.331
		c-0.138,0.71-0.715,1.234-1.428,1.234h-5.395c-0.715,0-1.37-0.531-1.429-1.238c-0.299-1.614-1.03-3.099-2.145-4.325
		C1057.012,26.1,1056.094,23.957,1056.094,21.613 M1063.818,16.29c0,0.542,0.479,1.025,1.021,1.025c2.361,0,4.317,1.952,4.317,4.315
		c0,0.544,0.485,1.026,1.016,1.026c0.55,0,0.955-0.487,0.955-1.026c0-3.441-2.847-6.283-6.288-6.283
		C1064.298,15.348,1063.818,15.757,1063.818,16.29 M1064.839,10.001c0.542,0,0.947-0.481,0.947-1.024V5.552
		c0-0.542-0.401-0.944-0.947-0.944c-0.541,0-1.021,0.404-1.021,0.944v3.425C1063.818,9.52,1064.3,10.001,1064.839,10.001
		 M1076.449,21.609c0,0.544,0.404,0.945,0.941,0.945h3.429c0.623,0,1.029-0.403,1.029-0.945c0-0.542-0.411-1.023-1.029-1.023h-3.429
		C1076.854,20.585,1076.449,21.071,1076.449,21.609 M1048.781,20.585c-0.54,0-0.946,0.486-0.946,1.023
		c0,0.544,0.409,0.945,0.946,0.945h3.43c0.543,0,1.02-0.403,1.02-0.945c0-0.542-0.481-1.023-1.02-1.023H1048.781z M1074.377,29.817
		c-0.365-0.375-0.95-0.375-1.323,0c-0.45,0.375-0.45,0.958,0,1.414l2.392,2.391c0.196,0.181,0.486,0.324,0.703,0.324
		c0.296,0,0.515-0.144,0.705-0.324c0.369-0.374,0.369-0.957,0-1.413L1074.377,29.817z M1055.927,13.72
		c0.22,0,0.516-0.134,0.705-0.321c0.377-0.37,0.377-1.033,0-1.409l-2.472-2.47c-0.373-0.374-0.955-0.374-1.406,0
		c-0.376,0.456-0.376,1.04,0,1.412l2.467,2.468C1055.407,13.586,1055.706,13.72,1055.927,13.72 M1076.857,10.926
		c0.369-0.372,0.369-0.954,0-1.409c-0.377-0.375-1.036-0.375-1.412,0l-2.392,2.47c-0.45,0.375-0.45,1.034,0,1.409
		c0.184,0.186,0.403,0.316,0.701,0.316c0.22,0,0.438-0.13,0.622-0.316L1076.857,10.926z M1052.831,32.209
		c-0.449,0.456-0.449,1.039,0,1.413c0.113,0.181,0.411,0.324,0.628,0.324c0.296,0,0.519-0.144,0.701-0.324l2.472-2.391
		c0.377-0.456,0.377-1.039,0-1.414c-0.373-0.375-1.035-0.375-1.411,0L1052.831,32.209z"/>
	<path fill="#FFFFFF" d="M896.908,31.528c0,0,4.86,1.06,7.596,2.527c0.992,0.564,1.776,0.915,3.854-0.328
		c1.138-0.575,7.02-4.095,17.582-3.775l1.191,0.026c0,0,0.938,0.287,1.802-0.882l0.887-0.886l5.773-5.07
		c0,0,1.039-0.534,1.417-0.534c0.379,0,1.598-0.153,1.952-0.531c0.027-0.197,0.842-0.484,0.91,0.151
		c0.156,0.559,0.663,1.088,1.221,0.937c0.555-0.149,1.466-0.582,2.175-1.213c0.209-0.358,0.557-0.713,0.46-1.471
		c-0.105-0.559-0.105-1.216,0-1.777c0.028-0.553,0.097-3.214-1.191-4.152c-0.757-0.332-2.178-0.712-2.178-0.712
		s-1.016-0.022-1.016,0.584v1.621h-0.782c0,0-0.71,0.307-0.71,0.711c0,0.481-0.105,0.708-0.685,0.708
		c-0.581,0-1.622,0.025-1.953-0.15c-0.331-0.379-0.685-1.089-0.685-1.089s-0.558-1.066-1.646-1.239
		c-0.754-0.076-10.519-1.468-20.016,0.86c-0.938,0.301-10.564,3.017-18.015,8.232c-0.253,0.487-0.428,0.882-0.382,1.45
		c0.129,0.634,0.264,1.39,0.264,1.39s-0.288,0.331-0.492,0.331c-0.2,0-0.708-0.535-1.439-0.535c-0.459,0-0.711-0.506-0.839-0.683
		c-0.048-0.172-0.712-1.214-1.39-0.756c-0.611,0.379-1.802,1.419-1.802,1.419s-0.559,0.429-0.525,1.139
		c0.095,0.711,0.625,2.686,0.802,3.064c0.179,0.459,0.533,2.055,0.761,2.401c0.378,0.411,0.732,0.614,1.441,0.742
		c0.712,0.047,2.282,0.251,2.133-0.204c-0.153-0.538-0.178-1.197-0.178-1.197s0.125-0.759,0.555-0.729
		c0.509,0.027,1.063,0.156,1.55-0.03C895.714,31.703,896.552,31.354,896.908,31.528"/>
	<path fill="#065398" d="M934.431,15.995c0,0-0.1,1.275-0.114,2.302c-0.02,0.947-0.86,1.427-1.652,1.863
		c-1.221,0.679-6.009,5.152-6.236,5.36c-0.303,0.275-0.342,0.51-2.087,0.302c-11.137,0.013-17.607,3.952-18.822,4.51
		c-1.217,0.563-2.163,0.193-3.038-0.226c-1.421-0.553-5.321-1.77-6.412-2.071c-0.343-0.054-0.569-0.223-0.756-0.402
		c-0.498-0.391-0.664-0.94-0.664-0.94l0.098,0.224l1.674,3.063c0,0,0.382,0.303,0.841,0.46c0.378,0.078,4.026,0.603,6.875,2.199
		c0.648,0.351,1.447,0.938,2.663,0.153c1.199-0.68,7.848-4.63,19.438-4.483c0,0,1.048,0.195,1.77-0.511s3.815-3.936,6.667-5.702
		c0.535-0.341,1.03-0.53,1.03-1.654c0-1.197,0.037-1.347-0.117-1.613c-0.074-0.342-1.14-2.645-1.14-2.645L934.431,15.995z"/>
	<path fill="#FFFFFF" d="M1007.76,28.685c2.989,2.034,3.007,5.411,0.133,7.729c-2.152,1.749-4.654,2.694-7.305,3.335
		c-5.973,1.297-11.957,1.093-17.699-1.216c-1.78-0.713-3.41-1.637-4.643-3.221c-1.455-1.929-1.321-3.911,0.297-5.701
		c0.23-0.329,0.535-0.589,0.766-0.923c0.109,0.023,0.151,0.037,0.186,0.051c0,0.701,0.106,1.408-0.004,2.111
		c-0.019,0.38-0.362,0.68-0.706,0.89c-0.604,0.505-0.77,1.099-0.396,1.737c0.374,0.566,1.053,0.636,1.747,0.231
		c1.11-0.712,1.788-1.749,1.79-3.06c0.006-1.793,0-3.57-0.081-5.365c-0.004-0.853-0.393-1.36-1.103-1.37
		c-0.732-0.017-1.249,0.492-1.235,1.362c0.079,0.414-0.189,0.596-0.528,0.796c-1.7,1.212-3.227,2.651-3.815,4.758
		c-0.87,2.731,0.174,5.021,2.147,6.948c2.648,2.506,5.902,3.643,9.337,4.369c3.353,0.712,6.729,0.987,10.117,0.632
		c4.354-0.479,8.618-1.437,12.218-4.233c1.744-1.274,3.072-2.87,3.33-5.068c0.442-2.284-0.506-4.075-1.938-5.678
		c-0.664-0.707-1.383-1.265-2.14-1.776c-0.35-0.2-0.484-0.408-0.48-0.895c0.007-0.756-0.538-1.254-1.253-1.252
		c-0.713,0.002-1.118,0.511-1.118,1.278c0,1.893-0.015,3.704,0.013,5.525c0.02,1.436,0.812,2.481,2.11,3.072
		c0.612,0.328,1.094,0.127,1.44-0.412c0.336-0.513,0.343-1.106-0.224-1.431C1007.39,31.073,1007.856,29.902,1007.76,28.685"/>
	<path fill="#FFFFFF" d="M993.725,38.926c3.789-0.029,7.491-0.6,10.934-2.364c0.467-0.216,0.949-0.53,1.395-0.871
		c0.522-0.388,0.649-1.052,0.291-1.604c-0.295-0.533-1.002-0.716-1.635-0.347c-2.32,1.569-5.002,2.307-7.719,2.644
		c-4.487,0.526-8.92,0.184-13.063-1.795c-0.401-0.203-0.865-0.51-1.255-0.722c-0.673-0.364-1.377-0.207-1.669,0.25
		c-0.436,0.642-0.281,1.34,0.409,1.735c1.953,1.283,4.121,2.005,6.42,2.509C989.701,38.742,991.747,39.026,993.725,38.926"/>
	<path fill="#FFFFFF" d="M1004.077,29.629c0-0.793,0.005-1.669-0.004-2.542c-0.01-0.724-0.487-1.249-1.175-1.249
		c-0.606-0.002-1.134,0.541-1.137,1.249c-0.027,1.758-0.013,3.437,0.009,5.196c0.006,0.707,0.544,1.228,1.155,1.217
		c0.688-0.009,1.149-0.53,1.154-1.258C1004.084,31.367,1004.08,30.491,1004.077,29.629"/>
	<path fill="#FFFFFF" d="M985.173,24.815c-3.054-0.786-5.929-2.011-8.212-4.34c-1.619-1.649-2.502-3.706-1.992-6.069
		c0.395-2.007,1.654-3.557,3.264-4.788c3.6-2.718,7.857-3.753,12.292-4.162c3.385-0.348,6.683-0.16,10.051,0.553
		c3.419,0.727,6.689,1.965,9.407,4.435c2.891,2.67,3.239,6.299,0.775,9.362c-1.084,1.406-2.51,2.435-4.049,3.195
		c-4.141,2.125-8.499,2.854-13.098,2.864C990.742,25.885,987.902,25.625,985.173,24.815 M995.399,23.515
		c2.498-0.02,6.633-0.719,10.453-2.704c0.985-0.534,1.919-1.215,2.718-1.987c1.92-2.077,1.929-4.427,0-6.421
		c-1.777-1.798-4.025-2.846-6.413-3.531c-6.778-1.827-13.428-1.663-19.98,1.108c-1.616,0.712-3.058,1.729-4.13,3.178
		c-1.109,1.576-1.127,3.356-0.021,4.854c1.433,1.982,3.539,3.05,5.729,3.894C986.842,23.018,989.991,23.52,995.399,23.515"/>
	<path fill="#FFFFFF" d="M988.405,19.724c0.38,0.21,0.382,0.716-0.009,0.918c-0.487,0.2-0.906,0.201-1.397,0
		c-0.385-0.202-0.385-0.708-0.005-0.918c0.197-0.149,0.487-0.168,0.7-0.166C987.909,19.553,988.205,19.566,988.405,19.724
		 M987.675,18.35c-0.694-0.01-1.387,0.121-1.96,0.48c-1.109,0.62-1.113,2.027,0.021,2.681c1.269,0.605,2.655,0.602,3.926-0.002
		c1.214-0.655,1.21-2.057,0.021-2.679C989.097,18.385,988.393,18.338,987.675,18.35"/>
	<path fill="#FFFFFF" d="M992.146,18.194c-1.107-0.167-2.286-0.369-3.208-1.071c-1.055-0.75-1.083-2.03-0.155-2.911
		c0.313-0.297,0.644-0.486,0.916-0.568c1.734-0.704,3.509-0.836,5.298-0.665c1.061,0.138,2.105,0.336,3.007,0.883
		c1.455,0.898,1.462,2.51,0.021,3.426c-0.206,0.159-0.505,0.305-0.803,0.367c-1.124,0.501-2.36,0.642-3.638,0.663
		C993.182,18.303,992.662,18.308,992.146,18.194 M990.677,15.637c1.979,0.696,3.957,0.711,5.926-0.013
		C994.632,14.897,992.656,14.906,990.677,15.637"/>
	<path fill="#FFFFFF" d="M984.327,13.173c0.455,0.292,0.459,0.722-0.01,0.918c-0.408,0.287-0.908,0.288-1.319,0
		c-0.464-0.195-0.464-0.628-0.086-0.918c0.277-0.069,0.484-0.164,0.698-0.159C983.909,13.005,984.121,13.021,984.327,13.173
		 M983.599,11.886c-0.703-0.016-1.31,0.04-1.966,0.399c-1.105,0.693-1.11,2.104,0.031,2.681c1.344,0.68,2.649,0.676,3.915-0.002
		c1.218-0.58,1.214-1.981,0.104-2.679C985.019,11.915,984.315,11.867,983.599,11.886"/>
	<path fill="#FFFFFF" d="M994.306,9.783c0.383,0.292,0.385,0.719-0.009,0.914c-0.427,0.288-0.909,0.288-1.396,0
		c-0.388-0.193-0.388-0.626-0.006-0.914c0.199-0.072,0.483-0.167,0.698-0.163C993.886,9.612,994.104,9.707,994.306,9.783
		 M993.58,8.491c-0.703-0.016-1.387,0.042-1.966,0.4c-1.11,0.694-1.114,2.107,0.022,2.681c1.272,0.683,2.656,0.675,3.926-0.003
		c1.217-0.581,1.213-1.978,0.021-2.678C994.997,8.523,994.295,8.473,993.58,8.491"/>
	<path fill="#FFFFFF" d="M1004.272,13.173c0.382,0.292,0.382,0.722-0.008,0.918c-0.512,0.287-0.987,0.288-1.398,0
		c-0.389-0.195-0.389-0.628-0.005-0.918c0.171-0.069,0.403-0.164,0.697-0.159C1003.753,13.005,1003.992,13.021,1004.272,13.173
		 M1003.543,11.886c-0.698-0.016-1.386,0.04-2.039,0.399c-1.111,0.693-1.115,2.104,0.078,2.681c1.289,0.68,2.674,0.676,3.911-0.002
		c1.207-0.58,1.204-1.981,0.025-2.679C1004.914,11.915,1004.259,11.867,1003.543,11.886"/>
	<path fill="#FFFFFF" d="M1000.23,19.724c0.387,0.21,0.393,0.716-0.01,0.918c-0.434,0.2-0.918,0.201-1.391,0
		c-0.397-0.202-0.397-0.708-0.013-0.918c0.252-0.149,0.474-0.168,0.697-0.166C999.79,19.553,1000.015,19.566,1000.23,19.724
		 M999.494,18.35c-0.695-0.01-1.313,0.121-1.969,0.48c-1.108,0.62-1.113,2.027,0.021,2.681c1.354,0.605,2.652,0.602,3.925-0.002
		c1.211-0.655,1.197-2.057,0.026-2.679C1000.893,18.385,1000.214,18.338,999.494,18.35"/>
	<path fill="#FFFFFF" d="M748.441,23.189h32.898c1.383,0,2.467-1.079,2.467-2.461c0-0.9-0.515-1.652-1.24-2.127
		c-0.085-7.742-5.339-14.523-12.747-16.664V1.81c0-0.959-0.849-1.81-1.887-1.81h-6.086c-0.958,0-1.812,0.851-1.812,1.81v0.127
		c-7.482,2.141-12.676,8.922-12.821,16.664c-0.725,0.475-1.16,1.227-1.16,2.127C746.055,22.11,747.139,23.189,748.441,23.189
		 M748.441,19.494h30.512V18.34h-30.498c0.283-6.168,3.844-11.544,9.116-14.201v10.498h1.232V3.599
		c0.392-0.089,0.844-0.249,1.232-0.4v13.907h1.234V1.81c0-0.266,0.23-0.576,0.578-0.576h6.086c0.346,0,0.655,0.31,0.655,0.576
		v15.295h1.231V3.199c0.393,0.151,0.774,0.311,1.156,0.4v11.038h1.232V4.139c5.346,2.657,8.912,8.033,9.117,14.201h-1.144v1.154
		h1.157c0.692,0,1.233,0.542,1.233,1.234c0,0.69-0.541,1.227-1.233,1.227h-32.898c-0.619,0-1.232-0.536-1.232-1.227
		C747.208,20.036,747.822,19.494,748.441,19.494"/>
	<rect x="770.977" y="15.871" fill="#FFFFFF" width="1.232" height="1.235"/>
	<rect x="757.571" y="15.871" fill="#FFFFFF" width="1.232" height="1.235"/>
	<path fill="#FFFFFF" d="M777.143,24.427h-24.425c-1.659,0-3.186,0.946-3.806,2.383h-2.858v8.55h2.858
		c0.621,1.442,2.147,2.466,3.806,2.466h6.743c1.31,0,2.548-0.81,3.124-1.97l0.265-0.445c0.382-0.77,1.145-1.281,2.042-1.281
		c0.895,0,1.74,0.512,2.12,1.281l0.187,0.445c0.654,1.16,1.811,1.97,3.204,1.97h6.741c1.658,0,3.107-1.023,3.807-2.466h2.855v-8.55
		h-2.855C780.25,25.373,778.8,24.427,777.143,24.427 M747.21,34.13v-3.615h1.231v3.036c0,0.199,0.012,0.388,0.105,0.579H747.21z
		 M748.441,28.627v0.646h-1.231v-1.228h1.336C748.453,28.229,748.441,28.427,748.441,28.627 M780.178,33.551
		c0,1.655-1.388,3.05-3.036,3.05h-6.741c-0.897,0-1.74-0.516-2.122-1.285l-0.186-0.443c-0.576-1.159-1.811-1.968-3.203-1.968
		c-1.31,0-2.547,0.809-3.141,1.968l-0.25,0.443c-0.381,0.77-1.145,1.285-2.04,1.285h-6.743c-1.648,0-3.043-1.395-3.043-3.05v-4.924
		c0-1.66,1.396-3.048,3.043-3.048h24.425c1.647,0,3.036,1.388,3.036,3.048V33.551z M782.573,28.045v1.228h-1.234v-0.646
		c0-0.2-0.011-0.397-0.025-0.582H782.573z M781.339,33.551v-3.036h1.234v3.615h-1.259C781.328,33.938,781.339,33.75,781.339,33.551"
		/>
	<rect x="763.081" y="26.811" fill="#FFFFFF" width="1.234" height="1.234"/>
	<path fill="#FFFFFF" d="M750.907,28.628v4.275h1.234v-4.275c0-0.275,0.231-0.583,0.576-0.583h9.13v-1.234h-9.13
		C751.756,26.811,750.907,27.665,750.907,28.628"/>
	<path fill="#FFFFFF" d="M741.967,30.392c0,1.378,1.439,2.446,3.223,2.446v-4.829C743.406,28.009,741.967,29.093,741.967,30.392"/>
	<path fill="#FFFFFF" d="M743.747,35.537c0,0.405,0.24,0.697,0.591,0.697c0.357,0,0.67-0.292,0.67-0.697v-2.273
		c-0.485-0.01-0.889-0.053-1.267-0.206v2.479H743.747z"/>
	<path fill="#FFFFFF" d="M744.092,36.644v2.82c0,0.174,0.074,0.327,0.247,0.327c0.172,0,0.324-0.153,0.324-0.327v-2.82
		C744.478,36.744,744.283,36.744,744.092,36.644"/>
	<path fill="#FFFFFF" d="M787.724,30.392c0-1.299-1.44-2.383-3.223-2.383v4.829C786.284,32.838,787.724,31.77,787.724,30.392"/>
	<path fill="#FFFFFF" d="M785.95,35.537v-2.479c-0.379,0.153-0.86,0.196-1.269,0.206v2.273c0,0.405,0.233,0.697,0.59,0.697
		c0.351,0,0.673-0.292,0.673-0.697H785.95z"/>
	<path fill="#FFFFFF" d="M785.597,36.644c-0.189,0.101-0.383,0.101-0.57,0v2.82c0,0.174,0.074,0.327,0.245,0.327
		c0.173,0,0.326-0.153,0.326-0.327V36.644z"/>
	<path fill="#FFFFFF" d="M827.88,7.108l11.445,19.479c0.626,0.925,0.291,2.164-0.712,2.71c-0.256,0.18-0.608,0.307-0.957,0.307
		c-0.699,0-1.385-0.349-1.748-1.018l-10.355-17.562L827.88,7.108z"/>
	<path fill="#FFFFFF" d="M812.757,29.604c-0.329,0-0.681-0.126-1.016-0.306c-0.928-0.547-1.26-1.786-0.712-2.711l12.479-21.248
		c0.544-0.924,1.78-1.26,2.704-0.712c0.923,0.549,1.26,1.781,0.711,2.707l-12.478,21.253
		C814.083,29.255,813.393,29.604,812.757,29.604"/>
	<path fill="#005CB9" d="M825.176,5.666c0.542,0,1.028,0.41,1.028,0.952c0,0.543-0.486,1.03-1.028,1.03
		c-0.544,0-0.949-0.487-0.949-1.03C824.227,6.076,824.632,5.666,825.176,5.666"/>
	<path fill="#FFFFFF" d="M837.654,29.604h-24.882c-1.163,0-2.056-0.888-2.056-2.057c0-1.088,0.893-1.978,2.056-1.978h24.882
		c1.087,0,1.981,0.89,1.981,1.978C839.635,28.716,838.742,29.604,837.654,29.604"/>
	<path fill="#005CB9" d="M812.791,26.591c0.544,0,0.951,0.412,0.951,0.957c0,0.624-0.407,1.034-0.951,1.034
		c-0.616,0-1.029-0.41-1.029-1.034C811.762,27.003,812.175,26.591,812.791,26.591"/>
	<path fill="#005CB9" d="M837.641,26.591c0.545,0,0.95,0.412,0.95,0.957c0,0.624-0.405,1.034-0.95,1.034
		c-0.542,0-1.028-0.41-1.028-1.034C836.612,27.003,837.098,26.591,837.641,26.591"/>
	<polygon fill="#FFFFFF" points="864.004,36.287 861.704,36.287 860.028,31.74 845.348,31.747 843.737,36.287 841.123,36.287 
		841.123,38.582 864.004,38.582 	"/>
	<polygon fill="#FFFFFF" points="853.592,13.4 851.793,13.4 848.791,21.986 856.667,21.986 	"/>
	<polygon fill="#FFFFFF" points="857.602,24.835 847.806,24.835 846.388,28.894 859.017,28.894 	"/>
	<path fill="#005CB9" d="M1477.546,9.409c-5.394,0-9.818,4.348-9.818,9.893c0,5.395,4.425,9.731,9.818,9.731
		c5.388,0,9.779-4.336,9.779-9.731C1487.325,13.757,1482.934,9.409,1477.546,9.409 M1477.546,28.6c-5.146,0-9.299-4.228-9.299-9.298
		c0-5.229,4.12-9.448,9.299-9.448c5.128,0,9.296,4.219,9.296,9.448C1486.842,24.372,1482.674,28.6,1477.546,28.6"/>
	<path fill="#005CB9" d="M1479.931,21.595c0.184-0.111,0.184-0.43,0-0.696l-0.281-0.353c0.092-0.151,0.254-0.479,0.345-0.815h0.463
		c0.325,0,0.527-0.261,0.527-0.429c0-0.328-0.202-0.589-0.527-0.589h-0.539c-0.043-0.326-0.202-0.493-0.37-0.787l0.383-0.379
		c0.184-0.269,0.184-0.584,0-0.696c-0.2-0.269-0.456-0.269-0.636,0l-0.453,0.38c-0.229-0.246-0.542-0.314-0.786-0.355v-0.646
		c0-0.315-0.192-0.43-0.51-0.43c-0.324,0-0.516,0.114-0.516,0.43v0.646c-0.246,0.041-0.559,0.109-0.854,0.355l-0.381-0.38
		c-0.195-0.269-0.438-0.269-0.706,0c-0.189,0.112-0.189,0.428,0,0.696l0.458,0.379c-0.173,0.294-0.331,0.461-0.45,0.787h-0.549
		c-0.243,0-0.428,0.261-0.428,0.589c0,0.168,0.185,0.429,0.428,0.429h0.538c0.111,0.336,0.177,0.664,0.352,0.815l-0.349,0.353
		c-0.189,0.267-0.189,0.585,0,0.696c0.133,0.209,0.269,0.242,0.349,0.242c0.142,0,0.299-0.032,0.357-0.242l0.34-0.339
		c0.304,0.254,0.554,0.332,0.895,0.371v0.589c0,0.318,0.191,0.428,0.516,0.428c0.317,0,0.51-0.11,0.51-0.428v-0.589
		c0.262-0.04,0.591-0.117,0.895-0.371l0.345,0.339c0.059,0.209,0.18,0.242,0.354,0.242
		C1479.73,21.837,1479.903,21.805,1479.931,21.595 M1476.089,19.327c0-0.906,0.593-1.461,1.457-1.461c0.856,0,1.45,0.556,1.45,1.461
		c0,0.757-0.699,1.455-1.45,1.455C1476.788,20.781,1476.089,20.084,1476.089,19.327"/>
	<path fill="#005CB9" d="M1471.643,16.643c0.051,0.207,0.215,0.232,0.346,0.232c0.164,0,0.215-0.025,0.351-0.232l2.751-2.686
		c0.266-0.264,0.266-0.578,0-0.703l-0.429-0.573c-0.162-0.038-0.294-0.063-0.402-0.063h-0.248c-1.611,0.257-2.858,1.429-3.042,3.121
		v0.088c0,0.086,0.102,0.319,0.154,0.378L1471.643,16.643z M1471.448,15.798c0.158-1.401,1.243-2.48,2.563-2.57l0.248-0.168
		l0.452,0.579l-2.822,2.822l-0.44-0.574V15.798z"/>
	<path fill="#005CB9" d="M1475.061,5.122c0.356,0,0.673-0.309,0.673-0.659c0-0.353-0.316-0.544-0.673-0.544
		c-0.348,0-0.597,0.191-0.597,0.544C1474.464,4.813,1474.713,5.122,1475.061,5.122"/>
	<path fill="#005CB9" d="M1480.027,33.378c-0.354,0-0.674,0.326-0.674,0.67c0,0.352,0.319,0.675,0.674,0.675
		c0.346,0,0.602-0.323,0.602-0.675C1480.629,33.704,1480.373,33.378,1480.027,33.378"/>
	<path fill="#005CB9" d="M1482.506,5.793c0.051,0.032,0.192,0.057,0.292,0.057c0.169,0,0.463-0.057,0.515-0.352
		c0.187-0.306,0.083-0.685-0.2-0.825c-0.314-0.21-0.691-0.028-0.901,0.168c-0.031,0.225-0.061,0.351-0.031,0.573
		C1482.211,5.499,1482.325,5.726,1482.506,5.793"/>
	<path fill="#005CB9" d="M1472.559,32.671c-0.324-0.079-0.701-0.02-0.896,0.295c-0.157,0.327-0.021,0.704,0.226,0.819
		c0.131,0.179,0.287,0.211,0.346,0.211c0.295,0,0.482-0.241,0.622-0.351c0.02-0.235,0.051-0.353,0.02-0.597
		C1472.856,32.966,1472.717,32.882,1472.559,32.671"/>
	<path fill="#005CB9" d="M1489.097,10.431c0.131,0,0.232-0.037,0.349-0.064c0.173-0.194,0.261-0.285,0.281-0.513
		c0.066-0.093,0.066-0.214-0.021-0.445c-0.124-0.313-0.609-0.407-0.913-0.285c-0.14,0.192-0.198,0.285-0.266,0.516
		c-0.024,0.091-0.024,0.214,0.067,0.443C1488.653,10.206,1488.88,10.431,1489.097,10.431"/>
	<path fill="#005CB9" d="M1466.516,28.39c-0.084-0.328-0.566-0.408-0.813-0.135c-0.321,0.101-0.479,0.478-0.292,0.807
		c0.133,0.274,0.325,0.358,0.538,0.358c0.164,0,0.291,0,0.348-0.063c0.164-0.213,0.219-0.295,0.325-0.381
		C1466.652,28.732,1466.652,28.634,1466.516,28.39"/>
	<path fill="#005CB9" d="M1492.295,16.179c-0.348,0-0.664,0.32-0.664,0.671c0,0.344,0.316,0.671,0.664,0.671
		c0.322,0,0.646-0.328,0.646-0.671C1492.941,16.499,1492.617,16.179,1492.295,16.179"/>
	<path fill="#005CB9" d="M1462.74,21.134c-0.348,0-0.593,0.327-0.593,0.67c0,0.354,0.245,0.521,0.593,0.521
		c0.353,0,0.679-0.168,0.679-0.521C1463.419,21.461,1463.093,21.134,1462.74,21.134"/>
	<path fill="#005CB9" d="M1491.016,24.133c-0.118,0.238-0.145,0.349-0.118,0.59c0.118,0.084,0.208,0.317,0.294,0.382
		c0.169,0.018,0.291,0.05,0.346,0.05c0.297,0,0.527-0.083,0.617-0.348c0.035-0.084,0.054-0.356,0.035-0.436
		c-0.035-0.238-0.125-0.323-0.33-0.382C1491.537,23.752,1491.135,23.964,1491.016,24.133"/>
	<path fill="#005CB9" d="M1462.881,14.108c0.021,0.232,0.16,0.314,0.302,0.376c0.074,0.172,0.23,0.197,0.287,0.197
		c0.298,0,0.483-0.197,0.544-0.341c0.1-0.232,0.131-0.353,0.1-0.583c-0.1-0.089-0.16-0.178-0.317-0.377
		c-0.326-0.092-0.702-0.034-0.894,0.289C1462.881,13.757,1462.849,14.021,1462.881,14.108"/>
	<path fill="#005CB9" d="M1486.786,30.193c-0.317,0.277-0.452,0.652-0.29,0.969c0.103,0.113,0.324,0.358,0.576,0.358
		c0.127,0,0.177-0.034,0.292-0.064c0.181-0.213,0.237-0.294,0.307-0.53c0.098-0.08,0.098-0.354-0.069-0.438
		C1487.517,30.174,1487.072,30.091,1486.786,30.193"/>
	<path fill="#005CB9" d="M1468.053,8.328c0.053,0,0.189,0,0.35-0.051c0.242-0.269,0.404-0.647,0.222-0.96
		c-0.167-0.319-0.571-0.416-0.896-0.162c-0.155,0.07-0.214,0.162-0.313,0.377c-0.036,0.097-0.036,0.352,0.099,0.451
		C1467.572,8.237,1467.758,8.328,1468.053,8.328"/>
	<polygon fill="#005CB9" points="1488.527,4.378 1488.168,4.065 1482.698,11.151 1483.055,11.453 	"/>
	<polygon fill="#005CB9" points="1494.688,12.177 1494.455,11.784 1486.369,15.404 1486.525,15.798 	"/>
	<polygon fill="#005CB9" points="1495.804,21.536 1495.837,21.128 1487.058,20.122 1486.962,20.528 	"/>
	<polygon fill="#005CB9" points="1493.029,29.1 1493.276,28.719 1485.432,24.458 1485.199,24.849 	"/>
	<polygon fill="#005CB9" points="1479.368,0.776 1478.961,0.723 1477.688,9.454 1478.104,9.494 	"/>
	<polygon fill="#005CB9" points="1485.035,36.134 1485.428,35.865 1481.841,27.686 1481.453,27.956 	"/>
	<polygon fill="#005CB9" points="1475.279,37.532 1475.759,37.571 1477.022,28.709 1476.61,28.674 	"/>
	<polygon fill="#005CB9" points="1466.856,34.118 1467.216,34.423 1472.553,27.285 1472.192,26.966 	"/>
	<polygon fill="#005CB9" points="1460.961,27.339 1461.166,27.879 1468.99,23.598 1468.793,23.057 	"/>
	<polygon fill="#005CB9" points="1459.146,16.984 1459.116,17.544 1467.925,18.389 1467.954,17.979 	"/>
	<polygon fill="#005CB9" points="1463.245,7.522 1462.924,7.869 1469.672,13.668 1469.995,13.318 	"/>
	<polygon fill="#005CB9" points="1471.487,15.093 1471.438,15.154 1472.478,16.136 1472.545,15.92 	"/>
	<polygon fill="#005CB9" points="1471.805,14.48 1471.665,14.681 1472.872,15.725 1472.924,15.513 	"/>
	<polygon fill="#005CB9" points="1472.526,13.659 1472.395,13.718 1473.644,14.813 1473.782,14.739 	"/>
	<polygon fill="#005CB9" points="1472.939,13.241 1472.88,13.311 1474.133,14.394 1474.189,14.321 	"/>
	<polygon fill="#005CB9" points="1473.609,12.992 1473.473,13.06 1474.726,14.141 1474.862,14.07 	"/>
	<polygon fill="#005CB9" points="1472.158,14.063 1472.027,14.13 1473.235,15.174 1473.287,15.105 	"/>
	<polygon fill="#005CB9" points="1470.213,2.279 1469.828,2.549 1473.786,10.469 1474.167,10.208 	"/>
	<path fill="#005CB9" d="M1483.608,15.852"/>
	<path fill="#005CB9" d="M1480.034,13.309c-0.121,0.05-0.147,0.292-0.147,0.35c0.004,0.09,0.031,0.285,0.158,0.346l2.876,2.787
		c0.212,0.108,0.487,0.106,0.695-0.162l0.479-0.443c0.023-0.088,0.1-0.292,0.098-0.38l-0.002-0.261
		c-0.236-1.543-1.516-2.836-3.113-2.925h-0.179c-0.147,0.002-0.293,0.029-0.438,0.236L1480.034,13.309z M1480.932,13.035
		c1.404,0.201,2.539,1.263,2.699,2.519l0.029,0.257l-0.43,0.45l-2.868-2.645l0.427-0.582H1480.932z"/>
	<polygon fill="#005CB9" points="1481.637,13.063 1481.509,13 1480.638,14.07 1480.769,14.13 	"/>
	<polygon fill="#005CB9" points="1482.199,13.355 1482.081,13.306 1481.114,14.453 1481.174,14.651 	"/>
	<polygon fill="#005CB9" points="1483.122,14.067 1482.965,14.017 1481.953,15.214 1482.055,15.413 	"/>
	<polygon fill="#005CB9" points="1483.602,14.48 1483.479,14.42 1482.417,15.762 1482.54,15.821 	"/>
	<polygon fill="#005CB9" points="1483.766,15.137 1483.646,15.089 1482.586,16.286 1482.723,16.486 	"/>
	<polygon fill="#005CB9" points="1482.676,13.709 1482.554,13.659 1481.534,14.799 1481.682,15.004 	"/>
	<path fill="#005CB9" d="M1480.723,25.205"/>
	<path fill="#005CB9" d="M1483.3,21.808c-0.06-0.21-0.241-0.234-0.351-0.234c-0.088,0.002-0.195,0.035-0.354,0.245l-2.721,2.847
		c-0.196,0.114-0.194,0.443,0.007,0.542l0.505,0.586c0.15,0.032,0.232,0.064,0.376,0.062h0.199c1.608-0.285,2.813-1.456,3.017-3.152
		v-0.085c-0.002-0.083-0.033-0.325-0.151-0.378L1483.3,21.808z M1483.557,22.646c-0.159,1.402-1.221,2.494-2.62,2.747l-0.178,0.021
		l-0.503-0.586l2.779-2.853l0.485,0.587L1483.557,22.646z"/>
	<polygon fill="#005CB9" points="1483.479,23.352 1483.595,23.29 1482.53,22.321 1482.419,22.537 	"/>
	<polygon fill="#005CB9" points="1483.229,23.977 1483.285,23.755 1482.15,22.877 1482.04,22.94 	"/>
	<polygon fill="#005CB9" points="1482.513,24.791 1482.566,24.733 1481.324,23.655 1481.171,23.724 	"/>
	<polygon fill="#005CB9" points="1482.046,25.207 1482.165,25.147 1480.823,24.07 1480.763,24.139 	"/>
	<polygon fill="#005CB9" points="1481.434,25.479 1481.494,25.41 1480.213,24.334 1480.094,24.401 	"/>
	<polygon fill="#005CB9" points="1482.879,24.393 1482.927,24.323 1481.794,23.292 1481.645,23.357 	"/>
	<path fill="#005CB9" d="M1471.514,22.573"/>
	<path fill="#005CB9" d="M1475.19,25.074c0.058-0.053,0.081-0.298,0.075-0.351c-0.006-0.239-0.032-0.294-0.172-0.35l-2.9-2.747
		c-0.194-0.113-0.518-0.1-0.704,0.172l-0.419,0.444c-0.099,0.085-0.127,0.297-0.124,0.38l0.006,0.27
		c0.315,1.537,1.587,2.653,3.211,2.888l0.162-0.004c0.156-0.002,0.316-0.037,0.375-0.25L1475.19,25.074z M1474.284,25.207
		c-1.408-0.045-2.591-1.093-2.795-2.332l-0.03-0.26l0.424-0.453l2.986,2.603l-0.5,0.44L1474.284,25.207z"/>
	<polygon fill="#005CB9" points="1473.577,25.19 1473.64,25.402 1474.511,24.319 1474.372,24.11 	"/>
	<polygon fill="#005CB9" points="1472.95,25.061 1473.091,25.107 1474.028,23.947 1473.958,23.737 	"/>
	<polygon fill="#005CB9" points="1472.035,24.354 1472.187,24.403 1473.232,23.04 1473.083,22.993 	"/>
	<polygon fill="#005CB9" points="1471.612,23.955 1471.683,24.004 1472.729,22.643 1472.582,22.595 	"/>
	<polygon fill="#005CB9" points="1471.346,23.288 1471.483,23.337 1472.529,21.976 1472.386,21.929 	"/>
	<polygon fill="#005CB9" points="1472.529,24.702 1472.591,24.75 1473.603,23.602 1473.457,23.394 	"/>
	<path fill="#FFFFFF" d="M1495.094,19.479h-7.586c-0.969-2.207-1.741-4.308-2.428-5.882c1.778-2.041,3.55-3.94,5.362-6.025
		C1493.316,11.147,1495.021,15.021,1495.094,19.479 M1489.966,33.422c-1.923-1.899-3.724-3.929-5.313-5.51
		c0.971-2.372,1.837-4.302,2.692-6.39h7.754C1494.749,26.175,1493.021,30.081,1489.966,33.422 M1474.704,39.086
		c-4.093,0.031-10.245-2.858-11.78-5.418c1.938-1.761,3.885-3.527,5.554-5.03c2.269,1.05,4.239,1.884,6.227,2.881V39.086z
		 M1461.509,32.546c-2.877-3.815-4.331-7.733-4.317-12.376c2.8,0.229,5.332,0.307,7.652,0.372c0.768,2.367,1.582,4.485,2.365,6.741
		C1465.544,28.775,1463.604,30.558,1461.509,32.546 M1483.62,11.574c-2.117-0.759-3.922-1.457-5.72-2.184
		c-0.335-0.083-0.737-0.438-0.744-0.729c-0.104-2.46-0.019-4.912-0.019-7.467c4.566,0.378,8.595,1.79,11.907,5.044
		C1487.093,8.241,1485.197,10.067,1483.62,11.574 M1476.678,39.361v-7.758c2.341-0.834,4.437-1.754,6.587-2.544
		c1.675,1.776,3.528,3.638,5.365,5.687C1485.033,37.607,1481.161,39.33,1476.678,39.361 M1457.212,18.322
		c0.692-4.608,2.278-8.535,5.696-11.75c1.81,2.103,3.565,4.152,5.133,5.772c-1.063,2.307-2.07,4.196-3.137,6.371
		C1462.682,18.642,1460.043,18.41,1457.212,18.322 M1469.348,11.156c-1.592-1.785-3.268-3.805-5.063-5.744
		c3.217-2.735,6.824-3.846,10.936-4.215c0,2.56,0.013,5.011-0.01,7.472c-0.002,0.286-0.356,0.651-0.666,0.719
		C1472.926,10.02,1471.296,10.484,1469.348,11.156 M1478.99,20.18c1.428,1.285,1.424,1.412-0.007,3.067
		c-0.417-0.235-0.907-0.319-1.429-0.568c-0.138,0.63-0.195,1.032-0.328,1.64h-2.177c-0.135-0.595-0.195-1.015-0.341-1.642
		c-0.524,0.272-0.912,0.362-1.431,0.639c-0.395-0.701-0.771-1.388-1.221-2.075c0.478-0.368,0.842-0.7,1.229-1.06
		c-0.403-0.369-0.752-0.534-1.142-0.881c0.378-0.706,0.738-1.394,1.107-2.083c0.566,0.135,1.047,0.375,1.492,0.494
		c0.144-0.501,0.283-1.073,0.339-1.493h2.115c0.158,0.614,0.311,1.038,0.378,1.642c0.568-0.268,1.042-0.503,1.584-0.616
		c0.368,0.701,0.723,1.37,1.052,2.044C1479.748,19.651,1479.458,19.816,1478.99,20.18 M1471.103,25.402
		c-0.536,0.144-0.905,0.421-1.393,0.71c-0.566-1.085-1.086-2.115-1.645-3.197c0.546-0.317,0.911-0.585,1.314-0.716
		C1470.019,23.292,1470.534,24.308,1471.103,25.402 M1481.251,25.158c0.622-1.088,1.259-2.096,1.813-2.983
		c0.533,0.166,0.877,0.438,1.29,0.739c-0.593,1.076-1.125,2.118-1.767,3.184C1482.066,25.755,1481.717,25.487,1481.251,25.158
		 M1481.262,15.367c0.951-1.015,1.543-0.887,2.001,0.354c0.243,0.52,0.667,1.151,1.028,1.845c-0.519,0.312-0.883,0.44-1.358,0.758
		C1482.35,17.27,1481.838,16.267,1481.262,15.367 M1474.349,28.729c0.023-0.69,0.031-1.066,0.121-1.521
		c0.922,0,1.798-0.04,2.591,0.016c0.329,0.026,0.629,0.44,0.873,0.744c-0.338,0.303-0.582,0.714-0.938,0.746
		C1476.157,28.771,1475.382,28.729,1474.349,28.729 M1469.341,18.348c-0.415-0.301-0.854-0.44-1.308-0.76
		c0.591-1.052,1.145-2.055,1.818-3.117c0.518,0.342,0.876,0.623,1.258,0.919C1470.453,16.454,1469.973,17.299,1469.341,18.348
		 M1474.32,11.954h3.516v1.355h-3.516V11.954z"/>
	<text transform="matrix(1 0 0 1 1568.666 48)" display="none" fill="#FFFFFF" font-family="'MyriadPro-Bold'" font-size="78.1962">14:05:20</text>
</g>
</svg>
