<?xml version="1.0" encoding="utf-8"?>
<!-- Generator: Adobe Illustrator 16.0.0, SVG Export Plug-In . SVG Version: 6.00 Build 0)  -->
<!DOCTYPE svg PUBLIC "-//W3C//DTD SVG 1.1//EN" "http://www.w3.org/Graphics/SVG/1.1/DTD/svg11.dtd">
<svg version="1.1" id="Capa_1" xmlns="http://www.w3.org/2000/svg" xmlns:xlink="http://www.w3.org/1999/xlink" x="0px" y="0px"
	 width="1513.513px" height="67px" viewBox="0 0 1513.513 67" enable-background="new 0 0 1513.513 67" xml:space="preserve">
<path fill="#005CB9" d="M796.998,34.452c0,17.682-14.336,32.016-32.012,32.016c-17.608,0-31.947-14.334-31.947-32.016
	c0-17.606,14.339-31.94,31.947-31.94C782.662,2.511,796.998,16.846,796.998,34.452"/>
<path fill="#005CB9" d="M875.339,34.452c0,17.682-14.334,32.016-32.009,32.016c-17.604,0-31.944-14.334-31.944-32.016
	c0-17.606,14.34-31.94,31.944-31.94C861.005,2.511,875.339,16.846,875.339,34.452"/>
<path fill="#005CB9" d="M953.037,35.028c0,17.686-14.34,31.93-32.017,31.93c-17.681,0-31.946-14.244-31.946-31.93
	c0-17.684,14.266-31.946,31.946-31.946C938.697,3.082,953.037,17.344,953.037,35.028"/>
<path fill="#005CB9" d="M1030.324,35.028c0,17.686-14.217,31.93-31.939,31.93c-17.607,0-31.955-14.244-31.955-31.93
	c0-17.684,14.348-31.946,31.955-31.946C1016.107,3.082,1030.324,17.344,1030.324,35.028"/>
<path fill="#005CB9" d="M1101.464,34.995c0,17.674-14.264,32.006-31.938,32.006c-17.678,0-32.01-14.332-32.01-32.006
	c0-17.685,14.332-31.948,32.01-31.948C1087.201,3.047,1101.464,17.31,1101.464,34.995"/>
<path fill="#005CB9" d="M1180,34.995C1180,52.668,1165.65,67,1147.996,67c-17.676,0-32.012-14.332-32.012-32.006
	c0-17.685,14.336-31.948,32.012-31.948C1165.65,3.047,1180,17.31,1180,34.995"/>
<path fill="#005CB9" d="M1259.029,34.521c0,17.612-14.338,31.946-32.027,31.946c-17.604,0-31.941-14.334-31.941-31.946
	c0-17.676,14.338-32.01,31.941-32.01C1244.691,2.511,1259.029,16.845,1259.029,34.521"/>
<path fill="#005CB9" d="M1343.296,34.521c0,17.612-14.367,31.946-32.025,31.946c-17.676,0-32.01-14.334-32.01-31.946
	c0-17.676,14.334-32.01,32.01-32.01C1328.929,2.511,1343.296,16.845,1343.296,34.521"/>
<path fill="#005CB9" d="M1432.113,31.901c0,17.682-14.262,32.018-31.941,32.018c-17.676,0-31.939-14.336-31.939-32.018
	c0-17.664,14.264-31.901,31.939-31.901C1417.851,0,1432.113,14.237,1432.113,31.901"/>
<path fill="#005CB9" d="M1513.513,31.901c0,17.682-14.336,32.018-32.012,32.018s-31.939-14.336-31.939-32.018
	c0-17.664,14.264-31.901,31.939-31.901S1513.513,14.237,1513.513,31.901"/>
<path fill="#0C5DA6" d="M424.004,45.434c-3.379,0-6.124,2.738-6.124,6.121c0,3.379,2.745,6.111,6.124,6.111s6.123-2.732,6.123-6.111
	C430.127,48.172,427.383,45.434,424.004,45.434 M424.004,54.223c-1.468,0-2.667-1.186-2.667-2.668c0-1.469,1.199-2.65,2.667-2.65
	c1.471,0,2.667,1.182,2.667,2.65C426.671,53.038,425.476,54.223,424.004,54.223"/>
<path fill="#0C5DA6" d="M484.865,45.434c-3.378,0-6.122,2.738-6.122,6.121c0,3.379,2.744,6.111,6.122,6.111
	c3.384,0,6.122-2.732,6.122-6.111C490.987,48.172,488.249,45.434,484.865,45.434 M484.865,54.223c-1.469,0-2.658-1.186-2.658-2.668
	c0-1.469,1.189-2.65,2.658-2.65c1.472,0,2.663,1.182,2.663,2.65C487.528,53.038,486.337,54.223,484.865,54.223"/>
<path fill="#0C5DA6" d="M493.922,20.646h-77.208c-2.009,0-3.984,1.619-4.385,3.594l-2.194,7.999c-0.4,1.976-0.74,5.241-0.74,7.243
	v8.408c0,2.016,1.647,3.664,3.664,3.664h3.732c0-3.975,3.236-7.209,7.214-7.209c3.979,0,7.222,3.234,7.222,7.209h46.422
	c0-3.975,3.24-7.209,7.215-7.209c3.985,0,7.22,3.234,7.22,7.209h1.839c2.015,0,3.661-1.648,3.661-3.664v-23.58
	C497.583,22.295,495.937,20.646,493.922,20.646 M431.992,36.09h-15.918l1.352-3.198c0.235-0.563-0.023-1.2-0.582-1.435
	c-0.561-0.236-1.206,0.023-1.434,0.57L413.725,36c-1.117-0.303-1.817-1.362-1.583-2.611l1.971-7.852
	c0.271-1.484,1.731-2.686,3.245-2.686h14.635V36.09z M465.803,36.09h-14.084V22.85h14.084V36.09z M448.747,36.09h-14.083V22.85
	h14.083V36.09z M482.078,36.09h-14.081V22.85h14.081V36.09z M495.339,33.342c0,1.506-1.232,2.748-2.743,2.748h-8.133V22.851h8.133
	c1.511,0,2.743,1.225,2.743,2.733V33.342z"/>
<path fill-rule="evenodd" clip-rule="evenodd" fill="#0C5DA6" d="M65.142,45.76c0.229,0.203,0.461,0.408,0.693,0.611
	c-0.231,1.846-0.458,3.705-0.689,5.547l-3.771,0.951c0.095-0.469,0.145-0.947,0.145-1.455c0-1.992-0.813-3.818-2.126-5.135
	c-1.318-1.314-3.136-2.121-5.142-2.121c-2.003,0-3.82,0.807-5.135,2.121c-1.315,1.316-2.131,3.143-2.131,5.135
	c0,0.879,0.156,1.701,0.435,2.48H18.976c0.281-0.779,0.434-1.602,0.434-2.48c0-1.992-0.813-3.818-2.13-5.135
	c-1.317-1.314-3.131-2.121-5.138-2.121c-2.008,0-3.824,0.807-5.139,2.121c-1.315,1.316-2.126,3.143-2.126,5.135
	c0,0.658,0.085,1.305,0.25,1.916l-3.933-0.564c-0.892-1.484-1.373-3.24-1.131-5.48c0.552-1.791,1.486-3.355,2.732-4.703
	c5.371-1.553,9.456-2.207,14.951-2.631c3.309-3.363,7.009-6.162,11.376-8.416c10.081-0.502,19.813-0.383,29.142,0.469
	c0.313,0.446,0.629,0.89,0.945,1.335c-0.316,0.403-0.631,0.806-0.945,1.224c2.202,2.475,4.403,4.965,6.601,7.455
	C64.958,43.266,65.048,44.51,65.142,45.76 M12.142,45.176c-1.727,0-3.287,0.693-4.419,1.826c-1.126,1.123-1.828,2.697-1.828,4.412
	c0,1.73,0.702,3.289,1.828,4.418c1.132,1.129,2.692,1.832,4.419,1.832c1.724,0,3.284-0.703,4.413-1.832
	c1.134-1.129,1.833-2.688,1.833-4.418c0-1.715-0.699-3.289-1.833-4.412C15.426,45.87,13.866,45.176,12.142,45.176 M54.252,45.176
	c-1.721,0-3.285,0.693-4.416,1.826c-1.131,1.123-1.827,2.697-1.827,4.412c0,1.73,0.696,3.289,1.827,4.418
	c1.131,1.129,2.695,1.832,4.416,1.832c1.724,0,3.29-0.703,4.42-1.832c1.127-1.129,1.828-2.688,1.828-4.418
	c0-1.715-0.7-3.289-1.828-4.412C57.542,45.87,55.976,45.176,54.252,45.176 M53.685,51.625l-1.843,1.945
	c0.226,0.279,0.495,0.479,0.792,0.652l1.601-2.209l1.317,2.391c0.341-0.131,0.625-0.318,0.869-0.551l-1.635-2.221l2.695-0.65
	c-0.031-0.359-0.145-0.672-0.301-0.979l-2.568,0.977l0.167-2.74c-0.357-0.08-0.691-0.068-1.023,0.01l0.188,2.732l-2.59-0.939
	c-0.171,0.324-0.254,0.656-0.283,0.986L53.685,51.625z M51.726,48.901c-0.647,0.635-1.049,1.525-1.049,2.514
	c0,0.986,0.402,1.879,1.049,2.531c0.649,0.654,1.54,1.043,2.526,1.043c0.99,0,1.881-0.391,2.532-1.043
	c0.643-0.652,1.043-1.545,1.043-2.531c0-0.988-0.4-1.879-1.043-2.514c-0.65-0.648-1.542-1.057-2.532-1.057
	C53.266,47.844,52.375,48.252,51.726,48.901 M11.608,51.625L9.76,53.571c0.226,0.279,0.496,0.479,0.795,0.652l1.597-2.209
	l1.321,2.391c0.339-0.131,0.626-0.318,0.869-0.551l-1.635-2.221l2.695-0.65c-0.03-0.359-0.145-0.672-0.305-0.979l-2.567,0.977
	l0.168-2.74c-0.354-0.08-0.694-0.068-1.024,0.01l0.188,2.732l-2.59-0.939C9.1,50.368,9.021,50.7,8.993,51.03L11.608,51.625z
	 M9.614,48.901c-0.647,0.635-1.044,1.525-1.044,2.514c0,0.986,0.397,1.879,1.044,2.531c0.647,0.654,1.541,1.043,2.528,1.043
	c0.983,0,1.882-0.391,2.525-1.043c0.647-0.652,1.043-1.545,1.043-2.531c0-0.988-0.396-1.879-1.043-2.514
	c-0.644-0.648-1.542-1.057-2.525-1.057C11.155,47.844,10.262,48.252,9.614,48.901 M54.649,39.717
	c0.234-0.498,0.472-1.012,0.708-1.508c-0.731-1.855-1.352-3.146-2.526-4.817c-0.746-0.026-1.474-0.052-2.188-0.095l0.53,6.441
	L54.649,39.717z M64.248,44.471l-0.17-2.189l-1.643-1.857l-1.637,0.441C61.462,43.127,61.699,44.282,64.248,44.471 M48.931,33.225
	c-3.819-0.162-7.352-0.26-11.075-0.19l-0.663,6.798l11.338-0.07L48.931,33.225z M36.167,33.083c-1.919,0.068-3.91,0.169-6.035,0.356
	c-2.825,1.624-5.136,3.501-7.02,5.567l0.196,0.354c0.713-0.701,1.521-1.287,2.405-1.787l0.621,2.33l8.203-0.049L36.167,33.083z
	 M33.674,42.54H30.66C30.66,44.084,33.674,44.084,33.674,42.54 M47.779,42.54h-3.023C44.755,44.084,47.779,44.084,47.779,42.54
	 M0.796,46.909c2.152-0.023,3.258-2.156,2.053-3.455C1.941,44.514,1.297,45.684,0.796,46.909"/>
<path fill="#0C5DA6" d="M259.854,47.28c-1.255,0-2.271,1.021-2.271,2.277c0,1.238,1.017,2.262,2.271,2.262
	c1.251,0,2.265-1.023,2.265-2.262C262.119,48.301,261.105,47.28,259.854,47.28"/>
<path fill="#0C5DA6" d="M266.655,47.28h-0.094c-0.162-0.389-0.373-0.828-0.631-1.264l0.001-0.004c0.298-0.295,0.298-0.77,0-1.055
	l-1.48-1.484c-0.283-0.281-0.781-0.281-1.062,0h-0.001c-0.439-0.254-0.884-0.469-1.268-0.629V42.75c0-0.422-0.334-0.756-0.755-0.756
	h-3.026c-0.413,0-0.755,0.334-0.755,0.756v0.094c-0.382,0.16-0.826,0.375-1.257,0.629h-0.011c-0.14-0.154-0.333-0.229-0.528-0.229
	c-0.205,0-0.395,0.074-0.536,0.229l-1.481,1.484c-0.293,0.285-0.293,0.76,0,1.055l0.005,0.004c-0.257,0.436-0.473,0.875-0.63,1.264
	h-0.089c-0.417,0-0.757,0.348-0.757,0.752v3.033c0,0.42,0.341,0.758,0.757,0.758h0.089c0.157,0.381,0.373,0.814,0.63,1.262
	l-0.005,0.004c-0.293,0.289-0.293,0.764,0,1.053l1.481,1.492c0.298,0.289,0.774,0.289,1.063,0l0.011-0.002
	c0.431,0.244,0.875,0.471,1.257,0.617v0.096c0,0.42,0.343,0.754,0.755,0.754h3.026c0.421,0,0.755-0.334,0.755-0.754v-0.096
	c0.384-0.146,0.829-0.373,1.268-0.617l0.001,0.002c0.289,0.289,0.775,0.289,1.062,0l1.48-1.492c0.298-0.289,0.298-0.764,0-1.053
	l-0.001-0.004c0.258-0.447,0.469-0.881,0.631-1.262h0.094c0.41,0,0.754-0.338,0.754-0.758v-3.033
	C267.409,47.627,267.065,47.28,266.655,47.28 M259.854,53.329c-2.085,0-3.779-1.693-3.779-3.77c0-2.096,1.693-3.789,3.779-3.789
	c2.079,0,3.771,1.693,3.771,3.789C263.625,51.635,261.933,53.329,259.854,53.329"/>
<path fill="#0C5DA6" d="M228.881,47.28c-1.667,0-3.024,1.352-3.024,3.031c0,1.658,1.357,3.018,3.024,3.018
	c1.667,0,3.02-1.359,3.02-3.018C231.901,48.631,230.548,47.28,228.881,47.28"/>
<rect x="256.829" y="24.618" fill="#0C5DA6" width="6.043" height="7.551"/>
<path fill="#0C5DA6" d="M252.75,43.928c0.418-0.521,0.88-0.992,1.394-1.412c0.071-0.053,0.148-0.117,0.229-0.168
	c0.17-0.137,0.338-0.26,0.521-0.375c0.121-0.076,0.24-0.16,0.359-0.232c0.148-0.074,0.301-0.168,0.447-0.238
	c0.139-0.072,0.279-0.141,0.417-0.209c0.149-0.07,0.307-0.123,0.454-0.188c0.141-0.053,0.282-0.102,0.424-0.148
	c0.172-0.064,0.345-0.111,0.513-0.16c0.139-0.027,0.268-0.068,0.405-0.096c0.207-0.047,0.414-0.074,0.611-0.113
	c0.114-0.023,0.23-0.029,0.346-0.051c0.32-0.025,0.653-0.049,0.983-0.049c0.254,0,0.512,0.006,0.762,0.029
	c0.094,0.016,0.187,0.02,0.28,0.041c0.157,0.004,0.307,0.029,0.461,0.053c0.118,0.023,0.232,0.043,0.353,0.066
	c0.084,0.023,0.175,0.047,0.267,0.07c0.308,0.072,0.619,0.164,0.924,0.266c0.023,0.018,0.043,0.02,0.066,0.021
	c0.589,0.23,1.157,0.512,1.696,0.844c0.018,0.002,0.025,0.002,0.041,0.018c0.501,0.313,0.977,0.688,1.417,1.109
	c0.304,0.287,0.784,0.281,1.076-0.023c0.284-0.303,0.276-0.777-0.024-1.063c-0.371-0.352-0.763-0.672-1.171-0.959l1.342-3.203
	c0.042-0.092,0.063-0.203,0.063-0.299V20.851c0-0.423-0.341-0.769-0.755-0.769h-21.152c-0.419,0-0.759,0.346-0.759,0.769v2.26h8.309
	c0.42,0,0.758,0.332,0.758,0.753v9.057c0,0.423-0.338,0.753-0.758,0.753h-12.842v-4.519c0-0.421-0.337-0.754-0.756-0.754h-0.754
	v-2.276c0-0.828,0.679-1.507,1.511-1.507c0.417,0,0.755-0.332,0.755-0.753s-0.339-0.753-0.755-0.753c-1.665,0-3.02,1.348-3.02,3.014
	v2.276h-0.754c-0.42,0-0.753,0.333-0.753,0.754v4.519h-7.557c-2.083,0-3.778,1.711-3.778,3.785v7.785
	c-1.386,1.254-2.265,3.055-2.265,5.068c0,3.73,3.047,6.785,6.799,6.785c3.229,0,5.933-2.262,6.624-5.275h14.026
	c0.128,0.613,0.312,1.221,0.561,1.795c0.118,0.285,0.4,0.467,0.692,0.467c0.098,0,0.2-0.008,0.294-0.051
	c0.386-0.178,0.565-0.609,0.407-0.988c-0.28-0.689-0.469-1.369-0.583-2.092c0-0.01,0-0.012,0-0.016
	c-0.034-0.24-0.067-0.473-0.081-0.676c-0.018-0.232-0.038-0.469-0.038-0.703c0-0.262,0.022-0.498,0.041-0.74
	c0.015-0.199,0.047-0.424,0.078-0.662c0.181-1.129,0.567-2.213,1.145-3.195c0.024-0.031,0.045-0.066,0.063-0.096
	c0.172-0.285,0.363-0.564,0.564-0.842C252.706,43.993,252.727,43.969,252.75,43.928 M255.321,23.864
	c0-0.421,0.333-0.753,0.753-0.753h7.552c0.421,0,0.755,0.332,0.755,0.753v9.057c0,0.423-0.334,0.753-0.755,0.753h-7.552
	c-0.42,0-0.753-0.33-0.753-0.753V23.864z M243.987,44.258h3.78c0.416,0,0.757,0.342,0.757,0.752c0,0.424-0.341,0.76-0.757,0.76
	h-3.78c-0.415,0-0.755-0.336-0.755-0.76C243.232,44.6,243.572,44.258,243.987,44.258 M237.189,38.967v-9.059h1.509v11.332h-1.509
	V38.967z M234.124,50.971v0.002c-0.333,2.596-2.556,4.615-5.243,4.615c-2.914,0-5.291-2.359-5.291-5.275
	c0-1.688,0.794-3.189,2.023-4.162c0.215-0.156,0.432-0.311,0.665-0.439c0.021-0.016,0.042-0.033,0.065-0.045
	c0.218-0.125,0.452-0.221,0.69-0.314c0.057-0.018,0.112-0.043,0.169-0.061c0.23-0.08,0.476-0.141,0.719-0.188
	c0.05-0.002,0.109-0.006,0.162-0.02c0.262-0.039,0.523-0.074,0.797-0.074c0.24,0,0.474,0.027,0.706,0.059
	c0.063,0.006,0.125,0.016,0.191,0.033c0.201,0.029,0.398,0.074,0.59,0.137c0.047,0.006,0.094,0.02,0.141,0.033
	c0.185,0.064,0.364,0.131,0.54,0.211c0.082,0.043,0.158,0.086,0.237,0.121c0.139,0.063,0.264,0.143,0.395,0.219
	c0.102,0.074,0.202,0.137,0.305,0.217c0.115,0.082,0.229,0.164,0.338,0.258c0.073,0.072,0.143,0.123,0.214,0.201
	c0.134,0.121,0.256,0.252,0.376,0.393c0.043,0.047,0.084,0.104,0.125,0.152c0.12,0.16,0.233,0.316,0.333,0.49
	c0.03,0.027,0.057,0.094,0.08,0.121c0.12,0.221,0.232,0.424,0.322,0.654c0.01,0.031,0.018,0.051,0.031,0.084
	c0.051,0.135,0.096,0.27,0.141,0.395c0.014,0.039,0.021,0.08,0.032,0.125c0.036,0.129,0.066,0.238,0.088,0.371
	c0.018,0.068,0.021,0.148,0.038,0.234c0.015,0.088,0.029,0.182,0.038,0.275c0.016,0.154,0.027,0.338,0.027,0.52
	C234.168,50.53,234.15,50.747,234.124,50.971 M225.856,38.213v-0.754c0-1.248,1.021-2.26,2.269-2.26h7.557v3.014H225.856z
	 M249.307,50.313h-13.625c0-0.262-0.02-0.506-0.043-0.742c-0.007-0.057-0.023-0.135-0.028-0.193
	c-0.023-0.182-0.052-0.361-0.093-0.525c-0.001-0.031-0.001-0.039-0.01-0.049h13.799c-0.024,0.25-0.03,0.494-0.03,0.756
	C249.277,49.795,249.283,50.042,249.307,50.313 M250.031,42.75h-3.772c-0.421,0-0.757-0.332-0.757-0.752
	c0-0.422,0.336-0.758,0.757-0.758h3.772c0.421,0,0.753,0.336,0.753,0.758C250.784,42.418,250.452,42.75,250.031,42.75"/>
<rect x="244.74" y="24.618" fill="#0C5DA6" width="7.554" height="7.551"/>
<path fill="#0C5DA6" d="M121.763,44.336c-3.512,0-6.363,2.85-6.363,6.371c0,0.264,0.023,0.529,0.056,0.799
	c0.397,3.125,3.064,5.563,6.307,5.563c3.338,0,6.075-2.549,6.349-5.832c0.017-0.18,0.023-0.346,0.023-0.529
	C128.136,47.186,125.286,44.336,121.763,44.336 M118.58,48.307l1.297,1.283c-0.1,0.186-0.181,0.371-0.232,0.564h-1.832
	C117.917,49.481,118.178,48.834,118.58,48.307 M117.807,51.272h1.85c0.05,0.191,0.126,0.379,0.232,0.539l-1.309,1.305
	C118.182,52.596,117.913,51.948,117.807,51.272 M121.215,54.665c-0.688-0.094-1.317-0.371-1.848-0.764l1.301-1.301
	c0.167,0.096,0.352,0.178,0.547,0.229V54.665z M121.215,48.588c-0.195,0.053-0.386,0.119-0.56,0.234l-1.298-1.305
	c0.537-0.408,1.168-0.662,1.858-0.764V48.588z M122.321,46.754c0.7,0.102,1.331,0.355,1.859,0.764l-1.292,1.305
	c-0.176-0.115-0.364-0.182-0.567-0.234V46.754z M122.321,54.665v-1.836c0.197-0.051,0.381-0.133,0.556-0.23l1.294,1.303
	C123.64,54.293,123.012,54.571,122.321,54.665 M124.957,53.12l-1.3-1.311c0.099-0.16,0.185-0.34,0.235-0.537h1.83
	C125.62,51.948,125.364,52.598,124.957,53.12 M123.892,50.155c-0.051-0.193-0.134-0.379-0.231-0.555l1.296-1.293
	c0.407,0.527,0.675,1.174,0.769,1.848H123.892z"/>
<path fill="#0C5DA6" d="M167.685,44.336c-3.519,0-6.369,2.85-6.369,6.371c0,0.264,0.024,0.529,0.05,0.799
	c0.394,3.125,3.073,5.563,6.319,5.563c3.335,0,6.069-2.549,6.344-5.832c0.01-0.18,0.023-0.346,0.023-0.529
	C174.053,47.186,171.203,44.336,167.685,44.336 M164.492,48.307l1.304,1.283c-0.105,0.186-0.185,0.371-0.232,0.564h-1.833
	C163.826,49.481,164.09,48.834,164.492,48.307 M163.726,51.272h1.844c0.047,0.191,0.125,0.379,0.23,0.539l-1.306,1.305
	C164.097,52.596,163.826,51.948,163.726,51.272 M167.132,54.665c-0.689-0.094-1.319-0.371-1.848-0.764l1.292-1.301
	c0.17,0.096,0.357,0.178,0.555,0.229V54.665z M167.132,48.588c-0.205,0.053-0.387,0.119-0.564,0.234l-1.297-1.305
	c0.532-0.408,1.168-0.662,1.867-0.764L167.132,48.588z M168.234,46.754c0.694,0.102,1.327,0.355,1.863,0.764l-1.301,1.305
	c-0.171-0.115-0.357-0.182-0.562-0.234V46.754z M168.234,54.665v-1.836c0.198-0.051,0.386-0.133,0.555-0.23l1.295,1.303
	C169.557,54.293,168.926,54.571,168.234,54.665 M170.874,53.12l-1.307-1.311c0.103-0.16,0.182-0.34,0.238-0.537h1.832
	C171.54,51.948,171.279,52.598,170.874,53.12 M169.805,50.155c-0.052-0.193-0.125-0.379-0.225-0.555l1.295-1.293
	c0.403,0.527,0.667,1.174,0.762,1.848H169.805z"/>
<path fill="#0C5DA6" d="M186.42,46.141h-1.263l-0.321-7.557c-0.017-0.469-0.407-0.828-0.869-0.826l-17.363,0.162v-6.275
	c0-0.586-0.472-1.057-1.06-1.057h-0.824c-0.583,0-1.054,0.471-1.054,1.057v6.301l-2.309,0.025l-0.462-5.553
	c-0.094-1.17-1.064-2.065-2.232-2.065h-21.081c-0.736,0-1.44,0.283-1.976,0.797l-7.08,6.797l-13.545,1.432
	c-1.882,0.191-3.598,1.15-4.771,2.633l-1.391,1.762c-1.061,0.656-1.598,1.91-1.324,3.131l0.418,1.896
	c0.179,0.83,0.826,1.465,1.647,1.643l4.624,1.014c-0.025-0.27-0.053-0.516-0.053-0.752c0-4.221,3.43-7.637,7.637-7.637
	c4.211,0,7.632,3.416,7.632,7.637c0,0.209-0.011,0.432-0.029,0.643c-0.005,0.064-0.018,0.115-0.021,0.168h30.756
	c-0.034-0.285-0.059-0.561-0.059-0.811c0-4.221,3.425-7.637,7.635-7.637c4.211,0,7.639,3.416,7.639,7.637
	c0,0.209-0.02,0.432-0.035,0.643c-0.004,0.064-0.017,0.115-0.02,0.168h3.873l3.518-1.932h3.765c0.569,0,1.035-0.467,1.035-1.035
	v-1.371C187.456,46.592,186.988,46.141,186.42,46.141 M134.083,38.366c0,0,0.45-1.082,0-2.326l2.794-3.477
	c0.159-0.19,0.402-0.307,0.654-0.307h8.363v6.109H134.083z M148.987,38.366v-6.109h7.592c0.449,0,0.816,0.353,0.834,0.8l0.222,5.31
	H148.987z"/>
<path fill-rule="evenodd" clip-rule="evenodd" fill="#0C5DA6" d="M306.34,43.44c3.521-1.768,7.589-1.324,10.231,0.627
	C314.74,40.471,308.791,40.401,306.34,43.44 M323.649,30.497h-7.32c-1.494,1.883-2.735,3.878-3.597,6.001
	c0.292,0.707,0.592,1.43,0.89,2.137h10.027V30.497z M339.729,55.499h-12.81v-1.834h12.81V55.499z M358.336,45.952
	c-1.463,0-2.8,0.598-3.765,1.555c-0.965,0.973-1.555,2.303-1.555,3.766c0,1.486,0.59,2.814,1.555,3.766
	c0.965,0.977,2.302,1.584,3.765,1.584c1.478,0,2.816-0.607,3.78-1.584c0.965-0.951,1.554-2.279,1.554-3.766
	c0-1.463-0.589-2.793-1.554-3.766C361.152,46.549,359.814,45.952,358.336,45.952 M356.753,49.676
	c-0.418,0.414-0.674,0.979-0.674,1.596c0,0.625,0.256,1.203,0.674,1.6c0.403,0.416,0.967,0.66,1.583,0.66
	c0.631,0,1.195-0.244,1.598-0.66c0.417-0.396,0.659-0.975,0.659-1.6c0-0.617-0.242-1.182-0.659-1.596
	c-0.403-0.395-0.967-0.66-1.598-0.66C357.721,49.016,357.157,49.282,356.753,49.676 M311.045,45.952
	c-1.474,0-2.801,0.598-3.769,1.555c-0.961,0.973-1.562,2.303-1.562,3.766c0,1.486,0.601,2.814,1.562,3.766
	c0.968,0.977,2.295,1.584,3.769,1.584c1.473,0,2.807-0.607,3.767-1.584c0.968-0.951,1.564-2.279,1.564-3.766
	c0-1.463-0.596-2.793-1.564-3.766C313.852,46.549,312.518,45.952,311.045,45.952 M309.448,49.676c0.413-0.395,0.979-0.66,1.598-0.66
	c0.624,0,1.19,0.266,1.599,0.66c0.405,0.414,0.66,0.979,0.66,1.596c0,0.625-0.255,1.203-0.66,1.6
	c-0.409,0.416-0.975,0.66-1.599,0.66c-0.619,0-1.185-0.244-1.598-0.66c-0.41-0.396-0.659-0.975-0.659-1.6
	C308.789,50.655,309.038,50.09,309.448,49.676 M316.006,26.623c-2.252,2.536-4.075,6.813-5.425,10.245
	c-2.746,1.23-5.503,2.521-8.339,4.59c-0.393,1.344-0.601,2.986-0.699,4.635h-0.423c-0.336,2.256-0.248,4.439,0.774,6.5h2.833
	c-0.087-0.426-0.136-0.857-0.136-1.32c0-1.783,0.723-3.391,1.894-4.559c1.166-1.172,2.78-1.889,4.561-1.889s3.396,0.717,4.565,1.889
	c1.166,1.168,1.891,2.775,1.891,4.559c0,0.463-0.047,0.895-0.137,1.32h8.42V26.714C322.525,26.688,319.262,26.663,316.006,26.623"/>
<path fill-rule="evenodd" clip-rule="evenodd" fill="#0C5DA6" d="M375.1,19.773c1.156,9.313,1.18,18.348,0.517,27.225h1.265v5.594
	h-12.223c0.092-0.426,0.14-0.857,0.14-1.32c0-1.803-0.75-3.443-1.95-4.648c-1.2-1.186-2.866-1.914-4.701-1.914
	c-1.833,0-3.484,0.729-4.686,1.914c-1.2,1.205-1.949,2.846-1.949,4.648c0,0.463,0.046,0.895,0.139,1.32H325.29V27.676l-9.68-0.583
	c0,0,5.211-7.319,9.349-7.319H375.1z"/>
<path fill="#0C5DA6" d="M623.006,44.93h-3.173c0.669,0.936,1.148,2.016,1.383,3.182h1.791
	C624.677,45.608,623.006,44.93,623.006,44.93"/>
<path fill="#0C5DA6" d="M606.17,44.93h-19.493v-1.545l4.459-0.285V22.17c0,0-1.392-7.224-1.484-10.32
	c-0.093-3.086-5.113-1.821-5.113-1.821c-22.295,2.689-26.479,11.952-26.479,11.952h-1.021l-2.879,3.477
	c0.648,1.153,1.297,0.759,1.297,0.759c-0.928,0.87-2.694,6.276-2.694,6.276s-11.245,1.154-15.794,1.248
	c-4.551,0.096-5.388,1.551-5.388,1.551v9.639c0,0-4.739,5.684-1.396,4.541c3.15-1.09,1.198-6.014,7.652-6.58
	c0.809-0.26,1.671-0.404,2.572-0.404c4.613,0,8.365,3.746,8.365,8.361c0,0.357-0.029,0.693-0.067,1.027h44.285
	c0.929-1.646,0.655-3.764,0.655-3.764h11.138C605.021,46.946,605.504,45.866,606.17,44.93"/>
<path fill="#0C5DA6" d="M568.36,21.487h-3.268c-4.296,0-6.448,10.746-6.448,10.746h9.715V21.487z"/>
<path fill-rule="evenodd" clip-rule="evenodd" fill="#0C5DA6" d="M613.059,43.709c-1.938,0-3.698,0.781-4.972,2.059
	c-1.271,1.271-2.063,3.035-2.063,4.977c0,1.934,0.793,3.707,2.063,4.979c1.274,1.271,3.034,2.039,4.972,2.039
	c1.945,0,3.704-0.768,4.977-2.039c1.272-1.271,2.057-3.045,2.057-4.979c0-1.941-0.785-3.705-2.057-4.977
	C616.763,44.491,615.004,43.709,613.059,43.709 M615.308,50.405c-0.194,0-0.348,0.15-0.348,0.342c0,0.188,0.153,0.359,0.348,0.359
	c0.192,0,0.35-0.172,0.35-0.359C615.657,50.555,615.5,50.405,615.308,50.405 M614.889,52.094c0.14,0.117,0.14,0.346,0,0.484
	c-0.136,0.139-0.355,0.139-0.49,0c-0.132-0.139-0.132-0.367,0-0.484C614.533,51.958,614.753,51.958,614.889,52.094 M613.403,52.997
	c0,0.189-0.156,0.334-0.35,0.334c-0.191,0-0.346-0.145-0.346-0.334c0-0.193,0.155-0.363,0.346-0.363
	C613.247,52.633,613.403,52.803,613.403,52.997 M611.712,52.575c-0.136,0.139-0.358,0.139-0.493,0c-0.137-0.139-0.137-0.365,0-0.504
	c0.135-0.133,0.356-0.133,0.493,0C611.847,52.209,611.847,52.436,611.712,52.575 M610.811,51.077c0.193,0,0.348-0.148,0.348-0.336
	c0-0.195-0.155-0.363-0.348-0.363c-0.188,0-0.346,0.168-0.346,0.363C610.465,50.928,610.623,51.077,610.811,51.077 M611.228,49.389
	c0.134,0.135,0.36,0.135,0.491,0c0.135-0.133,0.135-0.35,0-0.482c-0.131-0.139-0.357-0.139-0.491,0
	C611.096,49.04,611.096,49.256,611.228,49.389 M612.718,48.489c0,0.193,0.156,0.359,0.353,0.359c0.188,0,0.345-0.166,0.345-0.359
	c0-0.189-0.157-0.34-0.345-0.34C612.874,48.149,612.718,48.299,612.718,48.489 M614.408,48.911c-0.135,0.139-0.135,0.363,0,0.48
	c0.132,0.141,0.357,0.141,0.492,0c0.134-0.117,0.134-0.342,0-0.48C614.765,48.77,614.54,48.77,614.408,48.911 M610.163,50.745
	c0,0.797,0.325,1.512,0.847,2.055c0.526,0.521,1.25,0.848,2.05,0.848c0.799,0,1.526-0.326,2.045-0.848
	c0.529-0.543,0.849-1.258,0.849-2.055c0-0.801-0.32-1.52-0.849-2.057c-0.52-0.52-1.246-0.846-2.045-0.846
	c-0.8,0-1.523,0.326-2.05,0.846C610.487,49.225,610.163,49.944,610.163,50.745"/>
<path fill-rule="evenodd" clip-rule="evenodd" fill="#0C5DA6" d="M540.381,43.709c-1.944,0-3.703,0.781-4.977,2.059
	c-1.272,1.271-2.062,3.035-2.062,4.977c0,1.934,0.79,3.707,2.062,4.979c1.273,1.271,3.033,2.039,4.977,2.039
	c1.939,0,3.701-0.768,4.971-2.039c1.273-1.271,2.06-3.045,2.06-4.979c0-1.941-0.786-3.705-2.06-4.977
	C544.082,44.491,542.32,43.709,540.381,43.709 M542.627,50.405c-0.192,0-0.35,0.15-0.35,0.342c0,0.188,0.158,0.359,0.35,0.359
	c0.194,0,0.348-0.172,0.348-0.359C542.975,50.555,542.821,50.405,542.627,50.405 M542.209,52.094c0.141,0.117,0.141,0.346,0,0.484
	c-0.133,0.139-0.355,0.139-0.491,0c-0.133-0.139-0.133-0.367,0-0.484C541.854,51.958,542.076,51.958,542.209,52.094 M540.721,52.997
	c0,0.189-0.155,0.334-0.347,0.334c-0.197,0-0.345-0.145-0.345-0.334c0-0.193,0.148-0.363,0.345-0.363
	C540.566,52.633,540.721,52.803,540.721,52.997 M539.028,52.575c-0.132,0.139-0.355,0.139-0.489,0s-0.134-0.365,0-0.504
	c0.134-0.133,0.357-0.133,0.489,0C539.166,52.209,539.166,52.436,539.028,52.575 M538.13,51.077c0.191,0,0.353-0.148,0.353-0.336
	c0-0.195-0.162-0.363-0.353-0.363c-0.189,0-0.347,0.168-0.347,0.363C537.783,50.928,537.94,51.077,538.13,51.077 M538.55,49.389
	c0.134,0.135,0.355,0.135,0.492,0c0.131-0.133,0.131-0.35,0-0.482c-0.137-0.139-0.358-0.139-0.492,0
	C538.413,49.04,538.413,49.256,538.55,49.389 M540.037,48.489c0,0.193,0.161,0.359,0.352,0.359c0.186,0,0.347-0.166,0.347-0.359
	c0-0.189-0.161-0.34-0.347-0.34C540.198,48.149,540.037,48.299,540.037,48.489 M541.729,48.911c-0.14,0.139-0.14,0.363,0,0.48
	c0.135,0.141,0.353,0.141,0.492,0c0.133-0.117,0.133-0.342,0-0.48C542.083,48.77,541.864,48.77,541.729,48.911 M537.485,50.745
	c0,0.797,0.319,1.512,0.846,2.055c0.527,0.521,1.249,0.848,2.05,0.848c0.798,0,1.523-0.326,2.043-0.848
	c0.527-0.543,0.847-1.258,0.847-2.055c0-0.801-0.32-1.52-0.847-2.057c-0.52-0.52-1.246-0.846-2.043-0.846
	c-0.801,0-1.523,0.326-2.05,0.846C537.804,49.225,537.485,49.944,537.485,50.745"/>
<path fill="#0C5DA6" d="M586.782,12.302h0.993c0.285,0,0.513,0.226,0.513,0.512v28.754l-1.506,0.146V12.302z"/>
<rect x="549.771" y="44.127" fill="#0C5DA6" width="35.501" height="1.162"/>
<path fill="#0C5DA6" d="M567.74,35.713c0,0.357-0.483,0.662-1.091,0.662h-2.169c-0.6,0-1.084-0.305-1.084-0.662
	c0-0.375,0.484-0.68,1.084-0.68h2.169C567.256,35.034,567.74,35.338,567.74,35.713"/>
<path fill="#0C5DA6" d="M603.328,40.375h-9.421c-0.626,0-1.134,0.514-1.134,1.145v3.686h11.691V41.52
	C604.465,40.889,603.951,40.375,603.328,40.375"/>
<rect x="594.115" y="10.066" fill="#0C5DA6" width="104.559" height="31.809"/>
<path fill="#0C5DA6" d="M648.199,43.737"/>
<rect x="689.657" y="12.714" fill="#0C5DA6" width="1.767" height="27.282"/>
<rect x="692.225" y="12.714" fill="#0C5DA6" width="1.762" height="27.282"/>
<rect x="694.706" y="12.714" fill="#0C5DA6" width="1.762" height="27.282"/>
<path fill="#0C5DA6" d="M653.215,39.69c7.89,0,9.273,5.568,9.273,5.568h-18.549C643.939,45.258,645.322,39.69,653.215,39.69"/>
<path fill="#0C5DA6" d="M669.171,39.69c7.891,0,9.271,5.568,9.271,5.568h-18.545C659.897,45.258,661.279,39.69,669.171,39.69"/>
<path fill-rule="evenodd" clip-rule="evenodd" fill="#0C5DA6" d="M653.106,43.879c-1.917,0-3.652,0.777-4.912,2.035
	c-1.258,1.258-2.035,2.996-2.035,4.922c0,1.92,0.777,3.656,2.035,4.896c1.259,1.266,2.994,2.029,4.912,2.029
	c1.918,0,3.659-0.764,4.911-2.029c1.256-1.24,2.034-2.977,2.034-4.896c0-1.926-0.777-3.664-2.034-4.922
	C656.766,44.657,655.025,43.879,653.106,43.879 M655.327,50.499c-0.195,0-0.344,0.15-0.344,0.34c0,0.188,0.149,0.336,0.344,0.336
	c0.189,0,0.34-0.148,0.34-0.336C655.667,50.649,655.517,50.499,655.327,50.499 M654.913,52.157c0.14,0.137,0.14,0.365,0,0.479
	c-0.135,0.139-0.352,0.139-0.488,0c-0.128-0.113-0.128-0.342,0-0.479C654.562,52.018,654.778,52.018,654.913,52.157 M653.443,53.049
	c0,0.186-0.153,0.336-0.342,0.336c-0.188,0-0.344-0.15-0.344-0.336c0-0.191,0.156-0.338,0.344-0.338
	C653.291,52.711,653.443,52.858,653.443,53.049 M651.773,52.631c-0.13,0.137-0.354,0.137-0.483,0c-0.136-0.137-0.136-0.34,0-0.479
	c0.13-0.139,0.353-0.139,0.483,0C651.906,52.292,651.906,52.495,651.773,52.631 M650.884,51.168c0.194,0,0.346-0.152,0.346-0.34
	s-0.152-0.357-0.346-0.357c-0.188,0-0.343,0.17-0.343,0.357S650.697,51.168,650.884,51.168 M651.299,49.508
	c0.133,0.119,0.35,0.119,0.485,0c0.133-0.139,0.133-0.363,0-0.5c-0.135-0.133-0.353-0.133-0.485,0
	C651.165,49.145,651.165,49.37,651.299,49.508 M652.767,48.616c0,0.188,0.158,0.342,0.347,0.342c0.188,0,0.345-0.154,0.345-0.342
	c0-0.189-0.157-0.354-0.345-0.354C652.925,48.262,652.767,48.426,652.767,48.616 M654.438,49.018c-0.137,0.131-0.137,0.359,0,0.492
	c0.13,0.139,0.351,0.139,0.482,0c0.133-0.133,0.133-0.361,0-0.492C654.789,48.897,654.569,48.897,654.438,49.018 M650.248,50.836
	c0,0.791,0.315,1.504,0.836,2.02c0.517,0.52,1.233,0.842,2.022,0.842c0.789,0,1.507-0.322,2.02-0.842
	c0.518-0.516,0.839-1.229,0.839-2.02c0-0.797-0.321-1.508-0.839-2.025c-0.513-0.514-1.231-0.84-2.02-0.84
	c-0.789,0-1.505,0.326-2.022,0.84C650.563,49.329,650.248,50.04,650.248,50.836"/>
<path fill-rule="evenodd" clip-rule="evenodd" fill="#0C5DA6" d="M668.979,43.879c-1.917,0-3.654,0.777-4.911,2.035
	c-1.26,1.258-2.037,2.996-2.037,4.922c0,1.92,0.777,3.656,2.037,4.896c1.257,1.266,2.994,2.029,4.911,2.029
	c1.916,0,3.659-0.764,4.91-2.029c1.255-1.24,2.032-2.977,2.032-4.896c0-1.926-0.777-3.664-2.032-4.922
	C672.638,44.657,670.895,43.879,668.979,43.879 M671.199,50.499c-0.193,0-0.344,0.15-0.344,0.34c0,0.188,0.151,0.336,0.344,0.336
	c0.188,0,0.342-0.148,0.342-0.336C671.541,50.649,671.387,50.499,671.199,50.499 M670.787,52.157c0.138,0.137,0.138,0.365,0,0.479
	c-0.134,0.139-0.352,0.139-0.487,0c-0.131-0.113-0.131-0.342,0-0.479C670.436,52.018,670.653,52.018,670.787,52.157 M669.317,53.049
	c0,0.186-0.156,0.336-0.344,0.336c-0.191,0-0.344-0.15-0.344-0.336c0-0.191,0.152-0.338,0.344-0.338
	C669.162,52.711,669.317,52.858,669.317,53.049 M667.643,52.631c-0.127,0.137-0.349,0.137-0.478,0c-0.137-0.137-0.137-0.34,0-0.479
	c0.128-0.139,0.35-0.139,0.478,0C667.779,52.292,667.779,52.495,667.643,52.631 M666.756,51.168c0.192,0,0.351-0.152,0.351-0.34
	s-0.158-0.357-0.351-0.357c-0.185,0-0.341,0.17-0.341,0.357S666.571,51.168,666.756,51.168 M667.171,49.508
	c0.133,0.119,0.352,0.119,0.485,0c0.134-0.139,0.134-0.363,0-0.5c-0.134-0.133-0.353-0.133-0.485,0
	C667.038,49.145,667.038,49.37,667.171,49.508 M668.64,48.616c0,0.188,0.16,0.342,0.348,0.342c0.184,0,0.343-0.154,0.343-0.342
	c0-0.189-0.159-0.354-0.343-0.354C668.8,48.262,668.64,48.426,668.64,48.616 M670.308,49.018c-0.132,0.131-0.132,0.359,0,0.492
	c0.134,0.139,0.354,0.139,0.486,0c0.134-0.133,0.134-0.361,0-0.492C670.663,48.897,670.442,48.897,670.308,49.018 M666.121,50.836
	c0,0.791,0.316,1.504,0.839,2.02c0.516,0.52,1.231,0.842,2.02,0.842c0.79,0,1.507-0.322,2.021-0.842
	c0.518-0.516,0.838-1.229,0.838-2.02c0-0.797-0.321-1.508-0.838-2.025c-0.514-0.514-1.231-0.84-2.021-0.84
	c-0.788,0-1.504,0.326-2.02,0.84C666.438,49.329,666.121,50.04,666.121,50.836"/>
<polygon fill="#0C5DA6" points="596.321,12.878 596.321,37.34 598.254,37.34 598.254,14.693 687.263,14.693 687.263,12.878 "/>
<path fill="#FFFFFF" d="M1240.125,21.923c0,2.805-5.875,5-13.152,5c-7.197,0-13.082-2.195-13.082-5
	c0-2.723,5.885-4.995,13.082-4.995C1234.25,16.929,1240.125,19.2,1240.125,21.923 M1227.07,19.535c-3.504,0-6.252,1.083-6.252,2.375
	c0,1.377,2.748,2.456,6.252,2.456c3.426,0,6.168-1.078,6.168-2.456C1233.238,20.617,1230.496,19.535,1227.07,19.535"/>
<path fill="#FFFFFF" d="M1213.89,23.815c0,0,2.82,3.752,13.23,3.782c9.971,0.045,13.004-3.782,13.004-3.782
	s0.736,4.713-13.004,5.169C1213.332,28.631,1213.89,23.815,1213.89,23.815"/>
<path fill="#FFFFFF" d="M1213.89,44.635c0,0,2.82,3.818,13.23,3.834c9.971,0.072,13.004-3.834,13.004-3.834
	s0.736,4.787-13.004,5.166C1213.332,49.442,1213.89,44.635,1213.89,44.635"/>
<path fill="#FFFFFF" d="M1215.644,45.309V27.248c0,0-1.268-0.918-1.754-1.429v17.377C1213.89,43.196,1214.419,44.77,1215.644,45.309
	"/>
<path fill="#FFFFFF" d="M1238.382,45.309V27.248c0,0,1.262-0.918,1.746-1.429v17.377
	C1240.128,43.196,1239.611,44.77,1238.382,45.309"/>
<polygon fill="#FFFFFF" points="1217.062,27.962 1218.708,28.541 1218.708,46.563 1217.062,46.036 "/>
<polygon fill="#FFFFFF" points="1237.087,27.962 1235.361,28.541 1235.361,46.563 1237.087,46.036 "/>
<polygon fill="#FFFFFF" points="1219.998,28.986 1221.742,29.255 1221.742,47.409 1219.998,47.067 "/>
<polygon fill="#FFFFFF" points="1233.943,28.986 1232.281,29.255 1232.281,47.409 1233.943,47.067 "/>
<polygon fill="#FFFFFF" points="1223.154,29.533 1224.755,29.612 1224.755,47.649 1223.154,47.584 "/>
<polygon fill="#FFFFFF" points="1230.882,29.533 1229.283,29.612 1229.283,47.649 1230.882,47.584 "/>
<rect x="1226.218" y="29.722" fill="#FFFFFF" width="1.617" height="18.062"/>
<path fill="#FFFFFF" d="M1129.873,46.432c0,0.566,0.512,1.074,1.082,1.074h35.223c0.648,0,1.08-0.508,1.08-1.074V28.187h-37.385
	V46.432z M1156.691,34.295c0-0.323,0.189-0.527,0.508-0.527h5.01c0.316,0,0.49,0.204,0.49,0.527v1.242
	c0,0.23-0.174,0.521-0.49,0.521h-5.01c-0.318,0-0.508-0.291-0.508-0.521V34.295z M1134.474,34.284c0-0.315,0.205-0.516,0.43-0.516
	h1.709v-1.631c0-0.306,0.207-0.51,0.434-0.51h1.275c0.309,0,0.51,0.204,0.51,0.51v1.631h1.629c0.311,0,0.514,0.2,0.514,0.516v1.266
	c0,0.305-0.203,0.51-0.514,0.51h-1.629v1.631c0,0.236-0.201,0.51-0.51,0.51h-1.275c-0.227,0-0.434-0.273-0.434-0.51v-1.631h-1.709
	c-0.225,0-0.43-0.205-0.43-0.51V34.284z"/>
<path fill="#FFFFFF" d="M1168.564,27.009c0.5,0,1.039-0.412,1.039-0.961v-1.74c0-0.557-0.539-1.045-1.039-1.045h-5.664v-1.849
	c0-0.551-0.457-1.043-1.043-1.043h-4.334c-0.629,0-1.041,0.492-1.041,1.043v1.849h-15.373v-1.849c0-0.551-0.49-1.043-1.043-1.043
	h-4.332c-0.629,0-1.043,0.492-1.043,1.043v1.849h-6.074c-0.547,0-1.039,0.488-1.039,1.045v1.74c0,0.55,0.492,0.961,1.039,0.961
	H1168.564z"/>
<path fill="#FFFFFF" d="M1337.085,24.956l-15.484,19.652h-22.863V32.746l-10.941-3.318v-7.716l11.225,3.355v3.647h9.107v-4.159
	h-4.74v-2.502h12.648v2.502h-5.008v4.159h6.402l3.23,3.67L1337.085,24.956z M1336.332,27.629c0,1.609-1.594,4.654-1.594,5.674
	c0,0.762,0.518,1.771,1.578,1.771h0.021c1.123,0,1.484-1.031,1.484-1.771C1337.82,32.292,1336.332,29.238,1336.332,27.629"/>
<path fill="#FFFFFF" d="M1420.039,23.716h-1.389c-0.365,0-0.695,0.181-0.695,0.698v1.93h-1.307v-4.007
	c0-0.37-0.33-0.692-0.699-0.692h-6.086v-1.392h2.699c0.363,0,0.695-0.319,0.695-0.696v-2.627c0-0.369-0.332-0.685-0.695-0.685
	h-11.486c-0.434,0-0.695,0.316-0.695,0.685v2.627c0,0.377,0.262,0.696,0.695,0.696h2.699v1.392h-5.479
	c-0.045,0-0.104,0.006-0.209,0.024l-5.33,2.048h-5.248c-0.369,0-0.695,0.181-0.695,0.698v5.393h-1.387v-5.393
	c0-0.517-0.252-0.698-0.689-0.698h-2.703c-0.371,0-0.613,0.181-0.613,0.698v15.493c0,0.371,0.242,0.691,0.613,0.691h2.703
	c0.438,0,0.689-0.32,0.689-0.691v-5.396h1.387v5.396c0,0.371,0.326,0.691,0.695,0.691h5.188l5.217,3.93
	c0.148,0.053,0.301,0.08,0.383,0.08h14.266c0.16,0,0.324-0.031,0.395-0.084l3.391-2.773c0.168-0.074,0.301-0.338,0.301-0.453v-3.475
	h1.307v2.084c0,0.371,0.33,0.691,0.695,0.691h1.389c1.102,0,2.004-0.98,2.004-2.078V25.654
	C1422.042,24.547,1421.14,23.716,1420.039,23.716 M1384.117,30.501v8.706h-1.387V24.961h1.387V30.501z M1386.814,33.129h-1.387
	v-2.086h1.387V33.129z M1401.689,17.624h10.18v1.254h-10.18V17.624z M1408.476,21.644h-3.395v-1.387h3.395V21.644z"/>
<path fill="#FFFFFF" d="M1409.699,33.809c0.75-0.752,1.254-1.803,1.385-2.889c0.004-0.067-0.078-0.272-0.119-0.298
	c-0.133-0.063-0.219-0.042-0.395,0.063l-1.896,1.969c-0.033,0.038-0.193,0.061-0.238,0.045l-3.096-0.939
	c-0.086-0.005-0.113-0.021-0.131-0.045c-0.102-0.021-0.123-0.045-0.127-0.07l-0.781-3.157c-0.014-0.046,0.012-0.127,0.041-0.315
	l1.836-1.831c0.271-0.12,0.129-0.351,0.113-0.372c-0.133-0.057-0.299-0.048-0.336-0.046c-1.072,0.061-2.027,0.633-2.844,1.37
	c-1.238,1.167-1.615,2.932-1.139,4.438c0.025,0.233,0.084,0.549-0.146,0.695l-4.129,4.213c-0.174,0.092-0.174,0.414,0,0.664
	l2.002,1.926c0.174,0.256,0.486,0.256,0.662,0l4.133-4.057c0.225-0.299,0.52-0.254,0.588-0.24
	C1406.671,35.508,1408.451,34.971,1409.699,33.809"/>
<path fill="#FFFFFF" d="M1410.369,29.776l-0.633-2.137c-0.01-0.202-0.041-0.251-0.084-0.293c-0.119-0.042-0.168-0.077-0.293-0.24
	l-2.137-0.475c-0.174-0.035-0.383,0.005-0.537,0.086l-1.506,1.642c-0.139,0.08-0.172,0.359-0.146,0.461l0.555,2.136
	c0.008,0.047,0.043,0.253,0.16,0.293c0.041,0.041,0.17,0.07,0.215,0.084l2.139,0.632c0.174,0.024,0.381-0.006,0.537-0.235
	l1.572-1.492C1410.361,30.159,1410.4,29.88,1410.369,29.776 M1406.88,29.966c-0.391-0.398-0.391-1.09,0-1.486
	c0.471-0.395,1.172-0.395,1.561,0c0.396,0.396,0.396,1.088,0.002,1.486C1408.052,30.512,1407.351,30.512,1406.88,29.966"/>
<path fill="#FFFFFF" d="M1065.771,45.333c0-0.549,0.484-1.027,1.027-1.029h6.088c0.545,0,0.965,0.477,0.965,1.023v1.055
	c0,0.779-0.586,1.48-1.348,1.623l-0.295,0.92c-0.146,0.523-0.57,0.879-1.105,0.879h-2.521c-0.531,0-1.027-0.355-1.182-0.879
	l-0.219-0.92c-0.758-0.139-1.41-0.844-1.41-1.611V45.333z M1061.093,31.375c0-4.839,3.939-8.765,8.781-8.744
	c4.844,0.02,8.738,3.951,8.713,8.801c-0.016,2.313-1.002,4.434-2.463,6.008c-1.123,1.135-1.934,2.715-2.158,4.33
	c-0.137,0.711-0.715,1.234-1.428,1.234h-5.395c-0.715,0-1.369-0.531-1.428-1.238c-0.299-1.613-1.031-3.098-2.145-4.324
	C1062.011,35.862,1061.093,33.719,1061.093,31.375 M1068.818,26.052c0,0.542,0.48,1.025,1.021,1.025
	c2.361,0,4.316,1.952,4.316,4.315c0,0.544,0.486,1.026,1.016,1.026c0.551,0,0.955-0.487,0.955-1.026
	c0-3.441-2.846-6.283-6.287-6.283C1069.298,25.11,1068.818,25.52,1068.818,26.052 M1069.839,19.764c0.541,0,0.947-0.481,0.947-1.024
	v-3.425c0-0.542-0.402-0.944-0.947-0.944c-0.541,0-1.021,0.404-1.021,0.944v3.425C1068.818,19.282,1069.3,19.764,1069.839,19.764
	 M1081.449,31.372c0,0.544,0.404,0.945,0.941,0.945h3.43c0.623,0,1.029-0.403,1.029-0.945c0-0.542-0.412-1.023-1.029-1.023h-3.43
	C1081.853,30.348,1081.449,30.834,1081.449,31.372 M1053.781,30.348c-0.539,0-0.945,0.486-0.945,1.023
	c0,0.544,0.408,0.945,0.945,0.945h3.43c0.543,0,1.02-0.403,1.02-0.945c0-0.542-0.48-1.023-1.02-1.023H1053.781z M1079.376,39.581
	c-0.365-0.375-0.949-0.375-1.322,0c-0.451,0.375-0.451,0.957,0,1.414l2.391,2.391c0.197,0.18,0.486,0.324,0.703,0.324
	c0.297,0,0.516-0.145,0.705-0.324c0.369-0.375,0.369-0.957,0-1.414L1079.376,39.581z M1060.927,23.483
	c0.219,0,0.516-0.134,0.705-0.321c0.377-0.37,0.377-1.033,0-1.409l-2.473-2.47c-0.373-0.374-0.955-0.374-1.406,0
	c-0.375,0.456-0.375,1.04,0,1.412l2.467,2.468C1060.408,23.349,1060.707,23.483,1060.927,23.483 M1081.857,20.689
	c0.369-0.372,0.369-0.954,0-1.409c-0.377-0.375-1.035-0.375-1.412,0l-2.391,2.47c-0.451,0.375-0.451,1.034,0,1.409
	c0.184,0.186,0.402,0.316,0.701,0.316c0.219,0,0.438-0.13,0.621-0.316L1081.857,20.689z M1057.832,41.971
	c-0.449,0.457-0.449,1.039,0,1.414c0.113,0.18,0.41,0.324,0.627,0.324c0.297,0,0.52-0.145,0.701-0.324l2.473-2.391
	c0.377-0.457,0.377-1.039,0-1.414c-0.373-0.375-1.035-0.375-1.412,0L1057.832,41.971z"/>
<path fill="#FFFFFF" d="M901.908,41.292c0,0,4.86,1.059,7.596,2.527c0.992,0.564,1.776,0.914,3.854-0.328
	c1.138-0.576,7.02-4.096,17.582-3.775l1.191,0.025c0,0,0.938,0.287,1.802-0.881l0.887-0.887l5.773-5.069
	c0,0,1.039-0.534,1.418-0.534s1.598-0.152,1.951-0.531c0.027-0.196,0.842-0.483,0.91,0.151c0.156,0.56,0.664,1.089,1.221,0.937
	c0.555-0.148,1.467-0.581,2.176-1.213c0.209-0.358,0.557-0.713,0.459-1.471c-0.105-0.559-0.105-1.216,0-1.777
	c0.029-0.553,0.098-3.214-1.191-4.152c-0.756-0.332-2.178-0.712-2.178-0.712s-1.016-0.022-1.016,0.584v1.621h-0.781
	c0,0-0.711,0.307-0.711,0.711c0,0.481-0.105,0.708-0.684,0.708c-0.582,0-1.623,0.025-1.953-0.15
	c-0.332-0.379-0.686-1.089-0.686-1.089s-0.557-1.066-1.645-1.239c-0.754-0.076-10.519-1.468-20.016,0.86
	c-0.938,0.301-10.564,3.017-18.015,8.232c-0.253,0.487-0.428,0.882-0.383,1.45c0.13,0.633,0.264,1.389,0.264,1.389
	s-0.287,0.332-0.491,0.332c-0.2,0-0.708-0.535-1.439-0.535c-0.46,0-0.711-0.506-0.839-0.684c-0.049-0.172-0.712-1.213-1.39-0.756
	c-0.61,0.379-1.802,1.42-1.802,1.42s-0.559,0.428-0.525,1.139c0.096,0.711,0.625,2.686,0.803,3.064
	c0.179,0.459,0.533,2.055,0.761,2.4c0.378,0.412,0.732,0.615,1.441,0.742c0.712,0.047,2.282,0.252,2.133-0.203
	c-0.153-0.539-0.179-1.197-0.179-1.197s0.126-0.76,0.556-0.729c0.509,0.027,1.063,0.156,1.55-0.031
	C900.714,41.465,901.552,41.118,901.908,41.292"/>
<path fill="#FFFFFF" d="M939.431,25.757c0,0-0.1,1.275-0.115,2.302c-0.02,0.947-0.859,1.427-1.652,1.863
	c-1.221,0.679-6.008,5.152-6.236,5.361c-0.303,0.275-0.342,0.51-2.087,0.301c-11.137,0.014-17.607,3.953-18.822,4.51
	c-1.217,0.564-2.163,0.193-3.038-0.225c-1.421-0.553-5.321-1.77-6.412-2.072c-0.343-0.053-0.569-0.223-0.756-0.402
	c-0.498-0.391-0.664-0.939-0.664-0.939l0.099,0.223l1.675,3.063c0,0,0.381,0.303,0.84,0.461c0.379,0.078,4.026,0.602,6.875,2.199
	c0.648,0.35,1.447,0.938,2.663,0.152c1.199-0.68,7.848-4.629,19.438-4.482c0,0,1.048,0.195,1.77-0.512
	c0.722-0.705,3.816-3.936,6.667-5.701c0.535-0.341,1.029-0.529,1.029-1.654c0-1.197,0.037-1.347-0.117-1.613
	c-0.074-0.342-1.139-2.645-1.139-2.645L939.431,25.757z"/>
<path fill="#FFFFFF" d="M1012.759,38.448c2.99,2.033,3.008,5.41,0.133,7.729c-2.152,1.748-4.654,2.693-7.305,3.334
	c-5.973,1.297-11.957,1.094-17.699-1.215c-1.779-0.713-3.41-1.637-4.643-3.221c-1.455-1.93-1.32-3.912,0.297-5.701
	c0.23-0.33,0.535-0.59,0.766-0.924c0.109,0.023,0.152,0.037,0.186,0.051c0,0.701,0.107,1.408-0.004,2.111
	c-0.018,0.381-0.361,0.68-0.705,0.891c-0.605,0.504-0.77,1.098-0.396,1.736c0.373,0.566,1.053,0.637,1.746,0.232
	c1.111-0.713,1.789-1.75,1.791-3.061c0.006-1.793,0-3.57-0.082-5.365c-0.004-0.853-0.393-1.359-1.102-1.369
	c-0.732-0.017-1.25,0.492-1.236,1.361c0.08,0.414-0.189,0.596-0.527,0.797c-1.701,1.211-3.227,2.65-3.816,4.758
	c-0.869,2.73,0.174,5.021,2.148,6.947c2.648,2.506,5.902,3.643,9.336,4.369c3.354,0.713,6.729,0.988,10.117,0.633
	c4.355-0.479,8.619-1.438,12.219-4.234c1.744-1.273,3.072-2.869,3.33-5.068c0.441-2.283-0.506-4.074-1.939-5.678
	c-0.664-0.707-1.383-1.264-2.139-1.775c-0.35-0.201-0.484-0.408-0.48-0.895c0.006-0.757-0.539-1.254-1.254-1.252
	c-0.713,0.002-1.117,0.511-1.117,1.277c0,1.893-0.016,3.705,0.012,5.525c0.02,1.436,0.813,2.482,2.111,3.072
	c0.611,0.328,1.094,0.127,1.439-0.412c0.336-0.512,0.344-1.105-0.223-1.43C1012.39,40.836,1012.857,39.665,1012.759,38.448"/>
<path fill="#FFFFFF" d="M998.724,48.688c3.789-0.029,7.492-0.6,10.934-2.363c0.467-0.217,0.949-0.531,1.395-0.871
	c0.523-0.389,0.65-1.053,0.291-1.604c-0.295-0.533-1.002-0.717-1.635-0.348c-2.32,1.57-5.002,2.307-7.719,2.645
	c-4.486,0.525-8.92,0.184-13.063-1.795c-0.4-0.203-0.865-0.51-1.254-0.723c-0.674-0.363-1.377-0.207-1.67,0.25
	c-0.436,0.643-0.281,1.34,0.41,1.736c1.953,1.283,4.121,2.004,6.42,2.508C994.701,48.504,996.748,48.79,998.724,48.688"/>
<path fill="#FFFFFF" d="M1009.078,39.391c0-0.793,0.004-1.668-0.004-2.541c-0.01-0.725-0.488-1.25-1.176-1.25
	c-0.605-0.002-1.133,0.541-1.137,1.25c-0.027,1.758-0.012,3.436,0.01,5.195c0.006,0.707,0.543,1.229,1.154,1.217
	c0.688-0.008,1.15-0.529,1.154-1.258C1009.083,41.129,1009.08,40.254,1009.078,39.391"/>
<path fill="#FFFFFF" d="M990.173,34.579c-3.055-0.787-5.93-2.012-8.213-4.34c-1.619-1.649-2.502-3.706-1.992-6.069
	c0.395-2.007,1.654-3.557,3.264-4.788c3.6-2.718,7.857-3.753,12.293-4.162c3.385-0.348,6.682-0.16,10.051,0.553
	c3.418,0.727,6.689,1.965,9.406,4.435c2.891,2.67,3.24,6.299,0.775,9.362c-1.084,1.405-2.51,2.435-4.049,3.195
	c-4.141,2.124-8.498,2.854-13.098,2.864C995.742,35.647,992.902,35.387,990.173,34.579 M1000.4,33.278
	c2.498-0.02,6.633-0.719,10.453-2.704c0.984-0.534,1.918-1.215,2.717-1.987c1.92-2.077,1.93-4.427,0-6.421
	c-1.777-1.798-4.025-2.846-6.412-3.531c-6.779-1.827-13.428-1.663-19.98,1.108c-1.617,0.712-3.059,1.729-4.131,3.178
	c-1.109,1.576-1.127,3.356-0.021,4.854c1.434,1.982,3.539,3.05,5.73,3.894C991.841,32.781,994.992,33.283,1000.4,33.278"/>
<path fill="#FFFFFF" d="M993.406,29.486c0.379,0.21,0.381,0.716-0.01,0.918c-0.486,0.2-0.906,0.201-1.396,0
	c-0.385-0.202-0.385-0.708-0.006-0.918c0.197-0.149,0.488-0.168,0.701-0.166C992.91,29.315,993.205,29.329,993.406,29.486
	 M992.675,28.113c-0.695-0.01-1.387,0.121-1.961,0.48c-1.109,0.62-1.113,2.027,0.021,2.681c1.268,0.605,2.654,0.602,3.926-0.002
	c1.213-0.655,1.209-2.057,0.021-2.679C994.097,28.147,993.392,28.101,992.675,28.113"/>
<path fill="#FFFFFF" d="M997.146,27.957c-1.107-0.167-2.285-0.369-3.207-1.071c-1.055-0.75-1.084-2.03-0.156-2.911
	c0.314-0.297,0.645-0.486,0.916-0.568c1.734-0.704,3.51-0.836,5.299-0.665c1.061,0.138,2.105,0.336,3.006,0.883
	c1.455,0.898,1.463,2.51,0.021,3.426c-0.207,0.159-0.506,0.305-0.803,0.367c-1.125,0.501-2.361,0.642-3.639,0.663
	C998.181,28.065,997.662,28.07,997.146,27.957 M995.677,25.399c1.979,0.696,3.957,0.711,5.926-0.013
	C999.632,24.66,997.656,24.669,995.677,25.399"/>
<path fill="#FFFFFF" d="M989.328,22.936c0.455,0.292,0.459,0.722-0.01,0.918c-0.408,0.287-0.908,0.288-1.32,0
	c-0.463-0.195-0.463-0.628-0.086-0.918c0.277-0.069,0.484-0.164,0.699-0.159C988.91,22.768,989.121,22.784,989.328,22.936
	 M988.599,21.648c-0.703-0.016-1.311,0.04-1.967,0.399c-1.105,0.693-1.109,2.104,0.031,2.681c1.344,0.68,2.65,0.676,3.916-0.002
	c1.217-0.58,1.213-1.981,0.104-2.679C990.019,21.677,989.316,21.63,988.599,21.648"/>
<path fill="#FFFFFF" d="M999.306,19.545c0.383,0.292,0.385,0.719-0.01,0.914c-0.426,0.288-0.908,0.288-1.395,0
	c-0.389-0.193-0.389-0.626-0.006-0.914c0.199-0.072,0.482-0.167,0.697-0.163C998.886,19.375,999.103,19.47,999.306,19.545
	 M998.58,18.254c-0.703-0.016-1.387,0.042-1.965,0.4c-1.111,0.694-1.115,2.107,0.021,2.681c1.273,0.683,2.656,0.675,3.926-0.003
	c1.217-0.581,1.213-1.978,0.021-2.678C999.998,18.286,999.294,18.235,998.58,18.254"/>
<path fill="#FFFFFF" d="M1009.273,22.936c0.381,0.292,0.381,0.722-0.008,0.918c-0.512,0.287-0.988,0.288-1.398,0
	c-0.389-0.195-0.389-0.628-0.006-0.918c0.172-0.069,0.404-0.164,0.697-0.159C1008.753,22.768,1008.992,22.784,1009.273,22.936
	 M1008.542,21.648c-0.697-0.016-1.385,0.04-2.039,0.399c-1.111,0.693-1.115,2.104,0.078,2.681c1.289,0.68,2.674,0.676,3.912-0.002
	c1.207-0.58,1.203-1.981,0.025-2.679C1009.914,21.677,1009.259,21.63,1008.542,21.648"/>
<path fill="#FFFFFF" d="M1005.23,29.486c0.387,0.21,0.393,0.716-0.01,0.918c-0.434,0.2-0.918,0.201-1.391,0
	c-0.396-0.202-0.396-0.708-0.012-0.918c0.252-0.149,0.473-0.168,0.697-0.166C1004.791,29.315,1005.015,29.329,1005.23,29.486
	 M1004.494,28.113c-0.695-0.01-1.313,0.121-1.969,0.48c-1.107,0.62-1.113,2.027,0.021,2.681c1.354,0.605,2.652,0.602,3.924-0.002
	c1.211-0.655,1.197-2.057,0.027-2.679C1005.892,28.147,1005.214,28.101,1004.494,28.113"/>
<path fill="#FFFFFF" d="M748.441,32.952h32.898c1.383,0,2.467-1.079,2.467-2.461c0-0.9-0.515-1.652-1.24-2.127
	c-0.085-7.742-5.339-14.523-12.747-16.664v-0.127c0-0.959-0.849-1.81-1.887-1.81h-6.086c-0.958,0-1.812,0.851-1.812,1.81V11.7
	c-7.482,2.141-12.676,8.922-12.821,16.664c-0.725,0.475-1.16,1.227-1.16,2.127C746.055,31.873,747.139,32.952,748.441,32.952
	 M748.441,29.256h30.512v-1.154h-30.498c0.283-6.168,3.844-11.544,9.116-14.201v10.498h1.232V13.361
	c0.392-0.089,0.844-0.249,1.232-0.4v13.907h1.234V11.573c0-0.266,0.23-0.576,0.578-0.576h6.086c0.346,0,0.655,0.31,0.655,0.576
	v15.295h1.231V12.961c0.393,0.151,0.774,0.311,1.156,0.4v11.038h1.232V13.901c5.346,2.657,8.912,8.033,9.117,14.201h-1.144v1.154
	h1.157c0.692,0,1.233,0.542,1.233,1.234c0,0.69-0.541,1.227-1.233,1.227h-32.898c-0.619,0-1.232-0.536-1.232-1.227
	C747.208,29.799,747.822,29.256,748.441,29.256"/>
<rect x="770.977" y="25.633" fill="#FFFFFF" width="1.232" height="1.235"/>
<rect x="757.571" y="25.633" fill="#FFFFFF" width="1.232" height="1.235"/>
<path fill="#FFFFFF" d="M777.143,34.19h-24.425c-1.659,0-3.186,0.945-3.806,2.383h-2.858v8.551h2.858
	c0.621,1.441,2.147,2.465,3.806,2.465h6.743c1.31,0,2.548-0.809,3.124-1.969l0.265-0.445c0.382-0.77,1.145-1.281,2.042-1.281
	c0.895,0,1.74,0.512,2.12,1.281l0.187,0.445c0.654,1.16,1.811,1.969,3.204,1.969h6.741c1.658,0,3.107-1.023,3.807-2.465h2.855
	v-8.551h-2.855C780.25,35.135,778.8,34.19,777.143,34.19 M747.21,43.893v-3.615h1.231v3.035c0,0.199,0.012,0.389,0.105,0.58H747.21z
	 M748.441,38.389v0.646h-1.231v-1.229h1.336C748.453,37.993,748.441,38.19,748.441,38.389 M780.178,43.313
	c0,1.656-1.388,3.051-3.036,3.051h-6.741c-0.897,0-1.74-0.516-2.122-1.285l-0.186-0.443c-0.576-1.16-1.811-1.969-3.203-1.969
	c-1.31,0-2.547,0.809-3.141,1.969l-0.25,0.443c-0.381,0.77-1.145,1.285-2.04,1.285h-6.743c-1.648,0-3.043-1.395-3.043-3.051v-4.924
	c0-1.66,1.396-3.047,3.043-3.047h24.425c1.647,0,3.036,1.387,3.036,3.047V43.313z M782.573,37.807v1.229h-1.234v-0.646
	c0-0.199-0.011-0.396-0.025-0.582H782.573z M781.339,43.313v-3.035h1.234v3.615h-1.259
	C781.328,43.702,781.339,43.512,781.339,43.313"/>
<rect x="763.081" y="36.573" fill="#FFFFFF" width="1.234" height="1.234"/>
<path fill="#FFFFFF" d="M750.907,38.391v4.275h1.234v-4.275c0-0.275,0.231-0.584,0.576-0.584h9.13v-1.234h-9.13
	C751.756,36.573,750.907,37.428,750.907,38.391"/>
<path fill="#FFFFFF" d="M741.967,40.155c0,1.377,1.439,2.445,3.223,2.445v-4.828C743.406,37.772,741.967,38.856,741.967,40.155"/>
<path fill="#FFFFFF" d="M743.747,45.299c0,0.406,0.24,0.697,0.591,0.697c0.357,0,0.67-0.291,0.67-0.697v-2.273
	c-0.485-0.01-0.889-0.053-1.267-0.205v2.479H743.747z"/>
<path fill="#FFFFFF" d="M744.092,46.407v2.82c0,0.174,0.074,0.326,0.247,0.326c0.172,0,0.324-0.152,0.324-0.326v-2.82
	C744.478,46.506,744.283,46.506,744.092,46.407"/>
<path fill="#FFFFFF" d="M787.724,40.155c0-1.299-1.44-2.383-3.223-2.383V42.6C786.284,42.6,787.724,41.532,787.724,40.155"/>
<path fill="#FFFFFF" d="M785.95,45.299v-2.479c-0.379,0.152-0.86,0.195-1.269,0.205v2.273c0,0.406,0.233,0.697,0.59,0.697
	c0.351,0,0.673-0.291,0.673-0.697H785.95z"/>
<path fill="#FFFFFF" d="M785.597,46.407c-0.189,0.1-0.383,0.1-0.57,0v2.82c0,0.174,0.074,0.326,0.245,0.326
	c0.173,0,0.326-0.152,0.326-0.326V46.407z"/>
<path fill="#FFFFFF" d="M832.88,16.871l11.444,19.479c0.627,0.924,0.291,2.164-0.712,2.709c-0.257,0.18-0.608,0.307-0.957,0.307
	c-0.698,0-1.385-0.348-1.747-1.018l-10.355-17.562L832.88,16.871z"/>
<path fill="#FFFFFF" d="M817.757,39.366c-0.329,0-0.681-0.125-1.016-0.305c-0.928-0.547-1.26-1.787-0.712-2.711l12.479-21.248
	c0.544-0.924,1.78-1.26,2.704-0.712c0.923,0.549,1.26,1.781,0.711,2.707L819.446,38.35
	C819.083,39.018,818.393,39.366,817.757,39.366"/>
<path fill="#FFFFFF" d="M830.176,15.429c0.542,0,1.028,0.41,1.028,0.952c0,0.543-0.486,1.03-1.028,1.03
	c-0.544,0-0.949-0.487-0.949-1.03C829.227,15.838,829.632,15.429,830.176,15.429"/>
<path fill="#FFFFFF" d="M842.654,39.366h-24.882c-1.163,0-2.056-0.887-2.056-2.057c0-1.088,0.893-1.977,2.056-1.977h24.882
	c1.088,0,1.98,0.889,1.98,1.977C844.635,38.479,843.742,39.366,842.654,39.366"/>
<path fill="#FFFFFF" d="M817.791,36.354c0.544,0,0.951,0.412,0.951,0.957c0,0.623-0.407,1.033-0.951,1.033
	c-0.616,0-1.029-0.41-1.029-1.033C816.762,36.766,817.175,36.354,817.791,36.354"/>
<path fill="#FFFFFF" d="M842.641,36.354c0.545,0,0.95,0.412,0.95,0.957c0,0.623-0.405,1.033-0.95,1.033
	c-0.543,0-1.028-0.41-1.028-1.033C841.612,36.766,842.098,36.354,842.641,36.354"/>
<polygon fill="#FFFFFF" points="869.004,46.049 866.704,46.049 865.028,41.502 850.348,41.51 848.737,46.049 846.123,46.049 
	846.123,48.344 869.004,48.344 "/>
<polygon fill="#FFFFFF" points="858.592,23.163 856.793,23.163 853.791,31.749 861.667,31.749 "/>
<polygon fill="#FFFFFF" points="862.602,34.598 852.807,34.598 851.388,38.657 864.017,38.657 "/>
<path fill="#FFFFFF" d="M1482.546,20.171c-5.395,0-9.818,4.348-9.818,9.893c0,5.395,4.424,9.731,9.818,9.731
	c5.387,0,9.779-4.337,9.779-9.731C1492.326,24.52,1487.933,20.171,1482.546,20.171 M1482.546,39.362
	c-5.146,0-9.299-4.228-9.299-9.298c0-5.229,4.119-9.448,9.299-9.448c5.127,0,9.295,4.219,9.295,9.448
	C1491.841,35.134,1487.673,39.362,1482.546,39.362"/>
<path fill="#FFFFFF" d="M1484.931,32.358c0.184-0.111,0.184-0.43,0-0.696l-0.281-0.353c0.092-0.152,0.254-0.48,0.344-0.816h0.463
	c0.326,0,0.527-0.261,0.527-0.429c0-0.328-0.201-0.589-0.527-0.589h-0.539c-0.043-0.326-0.201-0.493-0.369-0.787l0.383-0.379
	c0.184-0.269,0.184-0.584,0-0.696c-0.201-0.269-0.457-0.269-0.637,0l-0.453,0.38c-0.229-0.246-0.541-0.314-0.785-0.355v-0.646
	c0-0.315-0.193-0.43-0.51-0.43c-0.324,0-0.516,0.114-0.516,0.43v0.646c-0.246,0.041-0.559,0.109-0.854,0.355l-0.381-0.38
	c-0.195-0.269-0.438-0.269-0.707,0c-0.189,0.112-0.189,0.428,0,0.696l0.459,0.379c-0.174,0.294-0.332,0.461-0.451,0.787h-0.549
	c-0.242,0-0.428,0.261-0.428,0.589c0,0.168,0.186,0.429,0.428,0.429h0.539c0.111,0.336,0.176,0.664,0.352,0.816l-0.35,0.353
	c-0.189,0.267-0.189,0.585,0,0.696c0.133,0.209,0.27,0.242,0.35,0.242c0.141,0,0.299-0.033,0.357-0.242l0.34-0.34
	c0.303,0.255,0.553,0.332,0.895,0.371v0.59c0,0.318,0.191,0.428,0.516,0.428c0.316,0,0.51-0.109,0.51-0.428v-0.59
	c0.262-0.039,0.59-0.116,0.895-0.371l0.344,0.34c0.059,0.209,0.18,0.242,0.355,0.242C1484.73,32.6,1484.904,32.567,1484.931,32.358
	 M1481.089,30.089c0-0.906,0.592-1.461,1.457-1.461c0.855,0,1.449,0.556,1.449,1.461c0,0.757-0.699,1.454-1.449,1.454
	C1481.789,31.543,1481.089,30.847,1481.089,30.089"/>
<path fill="#FFFFFF" d="M1476.642,27.405c0.051,0.207,0.215,0.232,0.346,0.232c0.164,0,0.215-0.025,0.352-0.232l2.75-2.686
	c0.266-0.264,0.266-0.578,0-0.703l-0.428-0.573c-0.162-0.038-0.295-0.063-0.402-0.063h-0.248c-1.611,0.257-2.859,1.429-3.043,3.121
	v0.088c0,0.086,0.102,0.319,0.154,0.378L1476.642,27.405z M1476.449,26.561c0.158-1.401,1.242-2.48,2.563-2.57l0.248-0.168
	l0.451,0.579l-2.822,2.822l-0.439-0.574V26.561z"/>
<path fill="#FFFFFF" d="M1480.06,15.885c0.357,0,0.674-0.309,0.674-0.659c0-0.353-0.316-0.544-0.674-0.544
	c-0.348,0-0.596,0.191-0.596,0.544C1479.464,15.576,1479.712,15.885,1480.06,15.885"/>
<path fill="#FFFFFF" d="M1485.027,44.141c-0.354,0-0.674,0.326-0.674,0.67c0,0.352,0.32,0.674,0.674,0.674
	c0.346,0,0.602-0.322,0.602-0.674C1485.628,44.467,1485.373,44.141,1485.027,44.141"/>
<path fill="#FFFFFF" d="M1487.505,16.556c0.051,0.032,0.193,0.057,0.293,0.057c0.168,0,0.463-0.057,0.514-0.352
	c0.188-0.306,0.084-0.685-0.199-0.825c-0.314-0.21-0.691-0.028-0.902,0.168c-0.031,0.225-0.061,0.351-0.031,0.573
	C1487.21,16.261,1487.326,16.489,1487.505,16.556"/>
<path fill="#FFFFFF" d="M1477.558,43.434c-0.324-0.08-0.701-0.02-0.895,0.295c-0.158,0.326-0.021,0.703,0.225,0.818
	c0.131,0.18,0.287,0.211,0.346,0.211c0.295,0,0.482-0.24,0.623-0.35c0.02-0.236,0.051-0.354,0.02-0.598
	C1477.857,43.729,1477.716,43.645,1477.558,43.434"/>
<path fill="#FFFFFF" d="M1494.097,21.194c0.131,0,0.232-0.037,0.348-0.064c0.174-0.194,0.262-0.285,0.281-0.513
	c0.066-0.093,0.066-0.214-0.02-0.445c-0.125-0.313-0.609-0.407-0.914-0.285c-0.139,0.192-0.197,0.285-0.266,0.516
	c-0.023,0.091-0.023,0.214,0.068,0.443C1493.654,20.969,1493.88,21.194,1494.097,21.194"/>
<path fill="#FFFFFF" d="M1471.515,39.153c-0.084-0.328-0.566-0.408-0.813-0.135c-0.32,0.1-0.479,0.477-0.291,0.807
	c0.133,0.273,0.324,0.357,0.537,0.357c0.164,0,0.291,0,0.348-0.063c0.164-0.213,0.219-0.295,0.326-0.381
	C1471.652,39.495,1471.652,39.397,1471.515,39.153"/>
<path fill="#FFFFFF" d="M1497.294,26.941c-0.348,0-0.664,0.32-0.664,0.671c0,0.344,0.316,0.671,0.664,0.671
	c0.322,0,0.646-0.328,0.646-0.671C1497.941,27.261,1497.617,26.941,1497.294,26.941"/>
<path fill="#FFFFFF" d="M1467.74,31.897c-0.348,0-0.592,0.326-0.592,0.67c0,0.354,0.244,0.521,0.592,0.521
	c0.354,0,0.68-0.168,0.68-0.521C1468.419,32.223,1468.093,31.897,1467.74,31.897"/>
<path fill="#FFFFFF" d="M1496.015,34.896c-0.117,0.238-0.145,0.349-0.117,0.59c0.117,0.085,0.207,0.317,0.293,0.382
	c0.17,0.018,0.291,0.051,0.346,0.051c0.297,0,0.527-0.084,0.617-0.348c0.035-0.085,0.055-0.356,0.035-0.437
	c-0.035-0.238-0.125-0.323-0.33-0.382C1496.537,34.514,1496.134,34.727,1496.015,34.896"/>
<path fill="#FFFFFF" d="M1467.88,24.871c0.021,0.232,0.16,0.314,0.303,0.376c0.074,0.172,0.23,0.197,0.287,0.197
	c0.297,0,0.482-0.197,0.543-0.341c0.1-0.232,0.131-0.353,0.1-0.583c-0.1-0.089-0.16-0.178-0.316-0.377
	c-0.326-0.092-0.703-0.034-0.895,0.289C1467.88,24.52,1467.849,24.783,1467.88,24.871"/>
<path fill="#FFFFFF" d="M1491.787,40.956c-0.318,0.277-0.453,0.652-0.291,0.969c0.104,0.113,0.324,0.359,0.576,0.359
	c0.127,0,0.178-0.035,0.293-0.064c0.18-0.213,0.236-0.295,0.307-0.531c0.098-0.08,0.098-0.354-0.07-0.438
	C1492.517,40.936,1492.072,40.854,1491.787,40.956"/>
<path fill="#FFFFFF" d="M1473.052,19.09c0.053,0,0.189,0,0.35-0.051c0.242-0.269,0.404-0.647,0.223-0.96
	c-0.168-0.319-0.572-0.416-0.896-0.162c-0.156,0.07-0.215,0.162-0.313,0.377c-0.037,0.097-0.037,0.352,0.098,0.451
	C1472.572,19,1472.757,19.09,1473.052,19.09"/>
<polygon fill="#FFFFFF" points="1493.527,15.141 1493.167,14.828 1487.699,21.914 1488.054,22.216 "/>
<polygon fill="#FFFFFF" points="1499.689,22.939 1499.455,22.546 1491.369,26.167 1491.525,26.561 "/>
<polygon fill="#FFFFFF" points="1500.804,32.299 1500.837,31.891 1492.058,30.885 1491.962,31.291 "/>
<polygon fill="#FFFFFF" points="1498.029,39.862 1498.277,39.481 1490.431,35.221 1490.199,35.612 "/>
<polygon fill="#FFFFFF" points="1484.369,11.539 1483.96,11.486 1482.689,20.217 1483.105,20.257 "/>
<polygon fill="#FFFFFF" points="1490.035,46.897 1490.427,46.627 1486.841,38.448 1486.453,38.719 "/>
<polygon fill="#FFFFFF" points="1480.279,48.295 1480.759,48.334 1482.023,39.471 1481.611,39.436 "/>
<polygon fill="#FFFFFF" points="1471.857,44.881 1472.216,45.186 1477.552,38.047 1477.193,37.729 "/>
<polygon fill="#FFFFFF" points="1465.96,38.102 1466.166,38.641 1473.99,34.36 1473.792,33.82 "/>
<polygon fill="#FFFFFF" points="1464.146,27.747 1464.117,28.307 1472.925,29.151 1472.955,28.742 "/>
<polygon fill="#FFFFFF" points="1468.246,18.285 1467.923,18.631 1474.671,24.431 1474.996,24.081 "/>
<polygon fill="#FFFFFF" points="1476.488,25.856 1476.437,25.917 1477.478,26.898 1477.544,26.683 "/>
<polygon fill="#FFFFFF" points="1476.804,25.243 1476.666,25.444 1477.873,26.488 1477.923,26.276 "/>
<polygon fill="#FFFFFF" points="1477.527,24.421 1477.394,24.481 1478.644,25.575 1478.783,25.502 "/>
<polygon fill="#FFFFFF" points="1477.939,24.003 1477.88,24.074 1479.132,25.156 1479.189,25.084 "/>
<polygon fill="#FFFFFF" points="1478.609,23.754 1478.472,23.823 1479.726,24.904 1479.863,24.833 "/>
<polygon fill="#FFFFFF" points="1477.158,24.826 1477.027,24.893 1478.236,25.937 1478.287,25.868 "/>
<polygon fill="#FFFFFF" points="1475.212,13.042 1474.828,13.312 1478.787,21.231 1479.167,20.971 "/>
<path fill="#FFFFFF" d="M1488.609,26.615"/>
<path fill="#FFFFFF" d="M1485.035,24.072c-0.121,0.05-0.148,0.292-0.148,0.35c0.004,0.09,0.031,0.285,0.158,0.346l2.877,2.787
	c0.211,0.108,0.486,0.106,0.695-0.162l0.479-0.443c0.023-0.088,0.1-0.292,0.098-0.38l-0.002-0.261
	c-0.236-1.543-1.516-2.836-3.113-2.925h-0.178c-0.148,0.002-0.293,0.029-0.439,0.236L1485.035,24.072z M1485.931,23.798
	c1.404,0.201,2.539,1.263,2.699,2.519l0.029,0.257l-0.43,0.45l-2.867-2.645l0.426-0.582H1485.931z"/>
<polygon fill="#FFFFFF" points="1486.636,23.825 1486.509,23.763 1485.638,24.833 1485.769,24.893 "/>
<polygon fill="#FFFFFF" points="1487.199,24.118 1487.082,24.069 1486.115,25.215 1486.173,25.414 "/>
<polygon fill="#FFFFFF" points="1488.123,24.83 1487.964,24.779 1486.953,25.977 1487.054,26.176 "/>
<polygon fill="#FFFFFF" points="1488.601,25.243 1488.478,25.183 1487.417,26.524 1487.541,26.584 "/>
<polygon fill="#FFFFFF" points="1488.765,25.9 1488.646,25.852 1487.585,27.048 1487.722,27.249 "/>
<polygon fill="#FFFFFF" points="1487.675,24.472 1487.554,24.421 1486.535,25.562 1486.681,25.767 "/>
<path fill="#FFFFFF" d="M1485.722,35.967"/>
<path fill="#FFFFFF" d="M1488.3,32.571c-0.061-0.211-0.242-0.234-0.352-0.234c-0.088,0.002-0.195,0.034-0.354,0.244l-2.721,2.847
	c-0.195,0.114-0.193,0.442,0.008,0.542l0.504,0.586c0.15,0.033,0.232,0.064,0.377,0.063h0.199c1.607-0.285,2.813-1.456,3.016-3.152
	v-0.086c-0.002-0.082-0.033-0.324-0.15-0.377L1488.3,32.571z M1488.556,33.409c-0.158,1.402-1.221,2.494-2.619,2.748l-0.178,0.02
	l-0.504-0.586l2.779-2.852l0.486,0.586L1488.556,33.409z"/>
<polygon fill="#FFFFFF" points="1488.478,34.114 1488.595,34.052 1487.531,33.084 1487.419,33.299 "/>
<polygon fill="#FFFFFF" points="1488.228,34.739 1488.285,34.518 1487.15,33.64 1487.041,33.703 "/>
<polygon fill="#FFFFFF" points="1487.513,35.553 1487.566,35.496 1486.324,34.417 1486.171,34.487 "/>
<polygon fill="#FFFFFF" points="1487.046,35.969 1487.166,35.911 1485.824,34.833 1485.763,34.902 "/>
<polygon fill="#FFFFFF" points="1486.433,36.243 1486.494,36.172 1485.212,35.096 1485.093,35.164 "/>
<polygon fill="#FFFFFF" points="1487.878,35.156 1487.927,35.086 1486.794,34.055 1486.644,34.12 "/>
<path fill="#FFFFFF" d="M1476.513,33.335"/>
<path fill="#FFFFFF" d="M1480.191,35.836c0.057-0.053,0.08-0.298,0.074-0.351c-0.006-0.239-0.031-0.294-0.172-0.35l-2.9-2.747
	c-0.193-0.112-0.518-0.1-0.703,0.172l-0.42,0.445c-0.098,0.084-0.127,0.297-0.123,0.379l0.006,0.27
	c0.314,1.537,1.586,2.654,3.211,2.889l0.162-0.004c0.156-0.002,0.316-0.037,0.375-0.25L1480.191,35.836z M1479.285,35.969
	c-1.408-0.045-2.592-1.093-2.795-2.331l-0.031-0.261l0.424-0.452l2.986,2.603l-0.5,0.439L1479.285,35.969z"/>
<polygon fill="#FFFFFF" points="1478.578,35.954 1478.64,36.165 1479.511,35.083 1479.373,34.873 "/>
<polygon fill="#FFFFFF" points="1477.951,35.823 1478.091,35.87 1479.029,34.709 1478.958,34.5 "/>
<polygon fill="#FFFFFF" points="1477.035,35.116 1477.187,35.166 1478.232,33.803 1478.083,33.756 "/>
<polygon fill="#FFFFFF" points="1476.613,34.717 1476.683,34.766 1477.73,33.405 1477.582,33.358 "/>
<polygon fill="#FFFFFF" points="1476.345,34.05 1476.484,34.1 1477.529,32.739 1477.386,32.692 "/>
<polygon fill="#FFFFFF" points="1477.529,35.464 1477.591,35.513 1478.603,34.365 1478.457,34.157 "/>
<path fill="#FFFFFF" d="M1500.093,30.241h-7.586c-0.969-2.207-1.74-4.308-2.428-5.882c1.779-2.041,3.551-3.94,5.363-6.025
	C1498.316,21.91,1500.021,25.784,1500.093,30.241 M1494.966,44.184c-1.924-1.898-3.725-3.928-5.314-5.51
	c0.971-2.371,1.838-4.302,2.693-6.389h7.754C1499.75,36.938,1498.021,40.844,1494.966,44.184 M1479.705,49.848
	c-4.094,0.031-10.246-2.857-11.781-5.418c1.938-1.76,3.885-3.527,5.555-5.029c2.268,1.049,4.238,1.883,6.227,2.881V49.848z
	 M1466.509,43.309c-2.877-3.816-4.332-7.734-4.318-12.376c2.801,0.229,5.332,0.306,7.652,0.373c0.768,2.367,1.582,4.484,2.365,6.74
	C1470.544,39.538,1468.605,41.321,1466.509,43.309 M1488.621,22.336c-2.117-0.759-3.922-1.457-5.721-2.184
	c-0.334-0.083-0.736-0.438-0.744-0.729c-0.104-2.46-0.018-4.912-0.018-7.467c4.566,0.378,8.594,1.79,11.906,5.044
	C1492.093,19.004,1490.197,20.83,1488.621,22.336 M1481.677,50.124v-7.758c2.342-0.834,4.438-1.754,6.588-2.543
	c1.674,1.775,3.527,3.637,5.365,5.686C1490.033,48.37,1486.162,50.092,1481.677,50.124 M1462.212,29.085
	c0.691-4.608,2.277-8.535,5.695-11.75c1.811,2.103,3.566,4.152,5.133,5.772c-1.063,2.307-2.07,4.196-3.137,6.371
	C1467.681,29.405,1465.042,29.172,1462.212,29.085 M1474.347,21.919c-1.592-1.785-3.268-3.805-5.063-5.744
	c3.217-2.735,6.824-3.846,10.936-4.215c0,2.56,0.014,5.011-0.01,7.472c-0.002,0.286-0.355,0.651-0.666,0.719
	C1477.925,20.782,1476.296,21.247,1474.347,21.919 M1483.99,30.943c1.428,1.284,1.424,1.412-0.006,3.067
	c-0.418-0.235-0.908-0.319-1.43-0.568c-0.137,0.631-0.195,1.033-0.328,1.641h-2.176c-0.135-0.596-0.195-1.016-0.342-1.643
	c-0.523,0.273-0.912,0.363-1.43,0.639c-0.395-0.701-0.771-1.387-1.221-2.074c0.477-0.367,0.842-0.699,1.229-1.06
	c-0.402-0.369-0.752-0.534-1.141-0.881c0.377-0.706,0.738-1.394,1.107-2.083c0.566,0.135,1.047,0.375,1.492,0.494
	c0.143-0.501,0.283-1.073,0.338-1.493h2.115c0.158,0.614,0.311,1.038,0.379,1.642c0.568-0.268,1.041-0.503,1.584-0.616
	c0.367,0.701,0.723,1.37,1.051,2.044C1484.748,30.414,1484.458,30.579,1483.99,30.943 M1476.103,36.165
	c-0.537,0.145-0.906,0.422-1.393,0.711c-0.566-1.086-1.086-2.115-1.645-3.197c0.545-0.316,0.91-0.586,1.314-0.716
	C1475.019,34.055,1475.535,35.071,1476.103,36.165 M1486.251,35.92c0.621-1.088,1.258-2.096,1.813-2.982
	c0.533,0.165,0.877,0.438,1.289,0.738c-0.592,1.076-1.125,2.117-1.766,3.184C1487.066,36.518,1486.716,36.25,1486.251,35.92
	 M1486.261,26.129c0.951-1.015,1.543-0.887,2.002,0.354c0.242,0.52,0.666,1.151,1.027,1.845c-0.518,0.312-0.883,0.44-1.357,0.758
	C1487.349,28.032,1486.837,27.03,1486.261,26.129 M1479.349,39.491c0.023-0.689,0.031-1.066,0.121-1.52
	c0.922,0,1.797-0.041,2.59,0.016c0.33,0.025,0.629,0.439,0.873,0.744c-0.338,0.303-0.582,0.713-0.938,0.746
	C1481.158,39.534,1480.382,39.491,1479.349,39.491 M1474.341,29.11c-0.416-0.301-0.855-0.44-1.309-0.76
	c0.592-1.052,1.145-2.055,1.818-3.117c0.518,0.342,0.877,0.623,1.258,0.919C1475.453,27.217,1474.972,28.062,1474.341,29.11
	 M1479.32,22.717h3.516v1.355h-3.516V22.717z"/>
</svg>
